<svg width="40" height="46" viewBox="0 0 40 46" fill="none" xmlns="http://www.w3.org/2000/svg">
<path d="M0 7.18812L0 6H7.72908C8.43028 6 8.76494 6.79208 8.84462 7.18812L8.84462 23.0297C8.84462 24.4871 10.3851 25.3267 11.1554 25.5644H16.8127V13.6832C16.8127 12.6059 15.9628 12.4422 15.5378 12.495V11.5446L24.4622 11.5446V12.495C23.6335 12.495 23.2669 13.2871 23.1873 13.6832V25.5644H28.8446C30.3745 25.1208 31.0757 23.6898 31.2351 23.0297V7.18812C31.2351 6.55446 31.8725 6.13201 32.1912 6H40V7.18812C38.1514 7.50495 37.583 8.90429 37.5299 9.56436V17.4851C36.8924 25.7228 29.5618 28.363 25.9761 28.6535H23.1873C23.1607 31.8482 23.1235 38.7604 23.1873 40.8515C23.251 42.9426 25.7105 43.6766 26.9323 43.7822V46H19.9203H13.3068V43.7822C15.9841 43.402 16.7596 41.67 16.8127 40.8515L16.8127 28.6535H13.9442C5.33865 27.703 2.76228 20.8119 2.5498 17.4851L2.5498 9.56436C2.5498 7.7901 0.849934 7.24092 0 7.18812Z" fill="#9AC355"/>
</svg>
