<svg width="50" height="50" viewBox="0 0 50 50" fill="none" xmlns="http://www.w3.org/2000/svg">
<path d="M3.00001 9.8V17.736C2.99927 18.0738 3.06892 18.4079 3.20436 18.7162C3.3398 19.0246 3.53795 19.3002 3.78572 19.5248V34.6C3.78572 35.2365 4.03406 35.847 4.47611 36.2971C4.91816 36.7471 5.51771 37 6.14286 37H15.584C15.5728 37.2496 15.6202 37.4984 15.7223 37.7256C15.8405 37.9867 16.0297 38.2078 16.2676 38.3628C16.5054 38.5178 16.7819 38.6001 17.0643 38.6H17.9286V46.6C17.9286 47.2365 18.1769 47.847 18.619 48.2971C19.061 48.7471 19.6606 49 20.2857 49H21.8572C22.4823 49 23.0819 48.7471 23.5239 48.2971C23.966 47.847 24.2143 47.2365 24.2143 46.6V38.6H25.0786C25.3609 38.5999 25.6373 38.5174 25.875 38.3623C26.1127 38.2072 26.3018 37.9859 26.4198 37.7248C26.5217 37.4978 26.5694 37.2494 26.5589 37H28.1429V45C28.1429 45.6365 28.3912 46.247 28.8333 46.6971C29.2753 47.1471 29.8749 47.4 30.5 47.4H32.0714C32.6966 47.4 33.2962 47.1471 33.7382 46.6971C34.1803 46.247 34.4286 45.6365 34.4286 45V37H36.0126C36.0013 37.2496 36.0487 37.4984 36.1509 37.7256C36.2691 37.9867 36.4583 38.2078 36.6962 38.3628C36.934 38.5178 37.2105 38.6001 37.4929 38.6H38.3572V46.6C38.3572 47.2365 38.6055 47.847 39.0476 48.2971C39.4896 48.7471 40.0892 49 40.7143 49H42.2857C42.9109 49 43.5104 48.7471 43.9525 48.2971C44.3945 47.847 44.6429 47.2365 44.6429 46.6V38.6H45.5072C45.7895 38.5999 46.0659 38.5174 46.3036 38.3623C46.5413 38.2072 46.7303 37.9859 46.8484 37.7248C46.9758 37.4543 47.0244 37.1523 46.9885 36.8546C46.9526 36.5569 46.8336 36.2758 46.6457 36.0448L42.6385 31.148C42.4981 30.9811 42.3233 30.8477 42.1265 30.7572C41.9298 30.6668 41.7159 30.6216 41.5 30.6248V19.5232C41.7477 19.2989 41.9458 19.0235 42.0813 18.7155C42.2167 18.4074 42.2864 18.0735 42.2857 17.736V9.8C42.2857 9.16348 42.0374 8.55303 41.5953 8.10294C41.1533 7.65286 40.5537 7.4 39.9286 7.4H31.2024C30.8968 5.5256 29.4527 1 22.6429 1C15.8331 1 14.3929 5.5256 14.0833 7.4H5.35715C4.732 7.4 4.13245 7.65286 3.6904 8.10294C3.24835 8.55303 3.00001 9.16348 3.00001 9.8ZM23.4286 37C23.2202 37 23.0204 37.0843 22.873 37.2343C22.7257 37.3843 22.6429 37.5878 22.6429 37.8V46.6C22.6429 46.8122 22.5601 47.0157 22.4127 47.1657C22.2654 47.3157 22.0655 47.4 21.8572 47.4H20.2857C20.0773 47.4 19.8775 47.3157 19.7301 47.1657C19.5828 47.0157 19.5 46.8122 19.5 46.6V37.8C19.5 37.5878 19.4172 37.3843 19.2699 37.2343C19.1225 37.0843 18.9227 37 18.7143 37H17.1853L21.0714 32.2544L24.967 37H23.4286ZM32.8572 30.6V45C32.8572 45.2122 32.7744 45.4157 32.627 45.5657C32.4797 45.7157 32.2798 45.8 32.0714 45.8H30.5C30.2916 45.8 30.0918 45.7157 29.9444 45.5657C29.7971 45.4157 29.7143 45.2122 29.7143 45V30.6C29.7143 30.3878 29.6315 30.1843 29.4842 30.0343C29.3368 29.8843 29.137 29.8 28.9286 29.8H27.3996L31.2857 25.0544L35.1813 29.8H33.6429C33.4345 29.8 33.2346 29.8843 33.0873 30.0343C32.9399 30.1843 32.8572 30.3878 32.8572 30.6ZM36.8792 35.4H34.4286V31.4H35.2929C35.5752 31.3999 35.8516 31.3174 36.0893 31.1623C36.327 31.0072 36.5161 30.7859 36.6341 30.5248C36.7624 30.2538 36.8116 29.9509 36.7758 29.6523C36.74 29.3536 36.6207 29.0717 36.4322 28.84L32.425 23.9432C32.2824 23.7796 32.1073 23.6487 31.9113 23.559C31.7154 23.4693 31.5029 23.4229 31.2881 23.4229C31.0732 23.4229 30.8608 23.4693 30.6649 23.559C30.4689 23.6487 30.2938 23.7796 30.1512 23.9432L26.1385 28.844C25.9511 29.0754 25.8328 29.3566 25.7976 29.6544C25.7624 29.9521 25.8117 30.2539 25.9397 30.524C26.0575 30.7849 26.2461 31.0061 26.4834 31.1613C26.7206 31.3165 26.9966 31.3993 27.2786 31.4H28.1429V35.4H25.6922L22.2076 31.1448C22.0649 30.9812 21.8899 30.8503 21.6939 30.7606C21.4979 30.6709 21.2855 30.6245 21.0707 30.6245C20.8558 30.6245 20.6434 30.6709 20.4474 30.7606C20.2515 30.8503 20.0764 30.9812 19.9337 31.1448L16.4507 35.4H6.14286C5.93448 35.4 5.73463 35.3157 5.58728 35.1657C5.43993 35.0157 5.35715 34.8122 5.35715 34.6V20.3664C7.52808 21.2504 11.745 22.3416 19.5 22.576V25C19.5 25.6365 19.7484 26.247 20.1904 26.6971C20.6325 27.1471 21.232 27.4 21.8572 27.4H23.4286C24.0537 27.4 24.6533 27.1471 25.0953 26.6971C25.5374 26.247 25.7857 25.6365 25.7857 25V22.576C33.5455 22.3416 37.7624 21.2488 39.9286 20.3672V31.6752L36.8792 35.4ZM21.0714 25V21.8C21.0714 21.5878 21.1542 21.3843 21.3016 21.2343C21.4489 21.0843 21.6488 21 21.8572 21H23.4286C23.637 21 23.8368 21.0843 23.9842 21.2343C24.1315 21.3843 24.2143 21.5878 24.2143 21.8V25C24.2143 25.2122 24.1315 25.4157 23.9842 25.5657C23.8368 25.7157 23.637 25.8 23.4286 25.8H21.8572C21.6488 25.8 21.4489 25.7157 21.3016 25.5657C21.1542 25.4157 21.0714 25.2122 21.0714 25ZM45.3956 37H43.8572C43.6488 37 43.4489 37.0843 43.3016 37.2343C43.1542 37.3843 43.0715 37.5878 43.0715 37.8V46.6C43.0715 46.8122 42.9887 47.0157 42.8413 47.1657C42.694 47.3157 42.4941 47.4 42.2857 47.4H40.7143C40.5059 47.4 40.3061 47.3157 40.1587 47.1657C40.0114 47.0157 39.9286 46.8122 39.9286 46.6V37.8C39.9286 37.5878 39.8458 37.3843 39.6985 37.2343C39.5511 37.0843 39.3513 37 39.1429 37H37.6139L41.5 32.2544L45.3956 37ZM40.7143 9.8V17.736C40.7154 17.8823 40.6766 18.0259 40.6021 18.151C40.5275 18.276 40.4203 18.3775 40.2924 18.444C38.721 19.288 34.7295 20.7176 25.6349 20.98C25.4701 20.5184 25.1702 20.1195 24.7756 19.8369C24.3811 19.5544 23.9109 19.4019 23.4286 19.4H21.8572C21.3748 19.4019 20.9046 19.5544 20.5101 19.8369C20.1156 20.1195 19.8157 20.5184 19.6509 20.98C10.5562 20.7176 6.56558 19.288 4.98629 18.44C4.86016 18.3729 4.75468 18.2717 4.68147 18.1475C4.60827 18.0233 4.57019 17.8809 4.57144 17.736V9.8C4.57144 9.58783 4.65422 9.38434 4.80157 9.23431C4.94892 9.08429 5.14877 9 5.35715 9H39.9286C40.137 9 40.3368 9.08429 40.4842 9.23431C40.6315 9.38434 40.7143 9.58783 40.7143 9.8ZM22.6429 2.6C28.0509 2.6 29.3214 5.8512 29.6177 7.4H15.6618C15.9494 5.8512 17.1971 2.6 22.6429 2.6Z" fill="#9AC355"/>
</svg>
