<svg width="50" height="50" viewBox="0 0 50 50" fill="none" xmlns="http://www.w3.org/2000/svg">
<path d="M8.92969 15.5736C8.92969 15.9878 9.26547 16.3236 9.67969 16.3236C10.0939 16.3236 10.4297 15.9878 10.4297 15.5736H9.67969H8.92969ZM42.1324 16.1039C42.4253 16.3968 42.9002 16.3968 43.1931 16.1039L47.9661 11.3309C48.259 11.038 48.259 10.5631 47.9661 10.2703C47.6732 9.97736 47.1983 9.97736 46.9054 10.2703L42.6628 14.5129L38.4201 10.2703C38.1272 9.97736 37.6524 9.97736 37.3595 10.2703C37.0666 10.5631 37.0666 11.038 37.3595 11.3309L42.1324 16.1039ZM20.2532 5V5.75H32.0892V5V4.25H20.2532V5ZM32.0892 5V5.75C37.5146 5.75 41.9128 10.1482 41.9128 15.5736H42.6628H43.4128C43.4128 9.31973 38.343 4.25 32.0892 4.25V5ZM9.67969 15.5736H10.4297C10.4297 10.1482 14.8278 5.75 20.2532 5.75V5V4.25C13.9994 4.25 8.92969 9.31973 8.92969 15.5736H9.67969Z" fill="#9AC355"/>
<path d="M43.4141 34.4264C43.4141 34.0122 43.0783 33.6764 42.6641 33.6764C42.2498 33.6764 41.9141 34.0122 41.9141 34.4264H42.6641H43.4141ZM10.2113 33.8961C9.91842 33.6032 9.44355 33.6032 9.15065 33.8961L4.37769 38.6691C4.08479 38.962 4.08479 39.4369 4.37769 39.7297C4.67058 40.0226 5.14545 40.0226 5.43834 39.7297L9.68098 35.4871L13.9236 39.7297C14.2165 40.0226 14.6914 40.0226 14.9843 39.7297C15.2772 39.4369 15.2772 38.962 14.9843 38.6691L10.2113 33.8961ZM32.0905 45V44.25H20.2545V45V45.75H32.0905V45ZM20.2545 45V44.25C14.8291 44.25 10.431 39.8518 10.431 34.4264H9.68098H8.93098C8.93098 40.6803 14.0007 45.75 20.2545 45.75V45ZM42.6641 34.4264H41.9141C41.9141 39.8518 37.5159 44.25 32.0905 44.25V45V45.75C38.3443 45.75 43.4141 40.6803 43.4141 34.4264H42.6641Z" fill="#9AC355"/>
<path d="M46.5197 26.3921L44.9707 25.6176C46.0634 24.714 46.8415 23.0747 46.8415 21.6398C46.8415 19.5224 45.1189 17.7998 43.0016 17.7998C40.8842 17.7998 39.1616 19.5224 39.1616 21.6398C39.1616 23.0745 39.9398 24.7141 41.0324 25.6176L39.4834 26.3921C37.8849 26.4475 36.6016 27.7649 36.6016 29.3767V31.9367C36.6016 32.1723 36.7926 32.3633 37.0282 32.3633H48.9749C49.2105 32.3633 49.4015 32.1723 49.4015 31.9367V29.3767C49.4015 27.7649 48.1182 26.4475 46.5197 26.3921ZM45.7917 26.9822L44.5621 28.8266L43.6247 28.3579L44.8543 26.5134L45.7917 26.9822ZM43.0016 18.6531C44.5035 18.6531 45.7499 19.7677 45.9576 21.2131H45.5616C44.8558 21.2131 44.2816 20.6389 44.2816 19.9331C44.2816 19.6975 44.0905 19.5065 43.8549 19.5065C43.6193 19.5065 43.4282 19.6975 43.4282 19.9331C43.4282 20.6389 42.854 21.2131 42.1482 21.2131H40.0455C40.2532 19.7677 41.4996 18.6531 43.0016 18.6531ZM41.1488 26.5134L42.3784 28.3579L41.441 28.8266L40.2113 26.9821L41.1488 26.5134ZM42.5749 31.51H37.4549V29.3767C37.4549 28.2749 38.2945 27.3656 39.3675 27.2548L40.9399 29.6133C41.0593 29.7925 41.2934 29.8545 41.4857 29.7583L42.5749 29.2137V31.51ZM41.9192 26.1305C42.1366 25.857 42.117 25.4649 41.8698 25.2153L41.8697 25.2153C41.825 25.1701 41.742 25.0885 41.6892 25.049C40.8431 24.4164 40.1818 23.1929 40.0425 22.0665H42.1482C42.8453 22.0665 43.4653 21.7304 43.8549 21.2118C44.2444 21.7304 44.8645 22.0636 45.5616 22.0636H45.9607C45.8213 23.1906 45.1597 24.4172 44.3131 25.0497C44.2606 25.0889 44.1779 25.1702 44.1333 25.2152C43.885 25.4657 43.8671 25.8583 44.0839 26.1307L43.0016 27.7542L41.9192 26.1305ZM48.5482 31.51H43.4282V29.2137L44.5174 29.7583C44.7099 29.8545 44.9439 29.7924 45.0632 29.6134L46.6356 27.2548C47.7086 27.3656 48.5482 28.2749 48.5482 29.3767V31.51Z" fill="#9AC355"/>
<path d="M47.2661 29.803H45.5595C45.3238 29.803 45.1328 29.994 45.1328 30.2296C45.1328 30.4653 45.3238 30.6563 45.5595 30.6563H47.2661C47.5018 30.6563 47.6928 30.4653 47.6928 30.2296C47.6928 29.994 47.5018 29.803 47.2661 29.803Z" fill="#9AC355"/>
<path d="M15.263 20.3379H4.37206C4.14073 20.3379 3.95312 20.5325 3.95312 20.7724V27.7241C3.95312 27.964 4.14073 28.1584 4.37206 28.1584H15.263C15.4943 28.1584 15.6819 27.964 15.6819 27.7241V20.7724C15.6819 20.5325 15.4943 20.3379 15.263 20.3379ZM14.8442 27.2895H4.791V21.2069H14.8442V27.2895Z" fill="#9AC355"/>
<path d="M18.6136 29.0275H17.357V19.9035C17.3562 19.1839 16.794 18.6009 16.1003 18.6001H3.5338C2.83997 18.6009 2.27792 19.1839 2.27715 19.9035V29.0275H1.0205C0.789171 29.0275 0.601562 29.2219 0.601562 29.4618V30.3309C0.602329 31.0504 1.16454 31.6335 1.85821 31.6343H17.7758C18.4696 31.6335 19.0316 31.0504 19.0324 30.3309V29.4618C19.0324 29.2219 18.845 29.0275 18.6136 29.0275ZM3.11487 19.9035C3.11502 19.6636 3.30247 19.4692 3.5338 19.469H16.1003C16.3315 19.4692 16.5189 19.6636 16.5191 19.9035V29.0275H3.11487V19.9035ZM18.1947 30.3309C18.1945 30.5707 18.0071 30.7651 17.7758 30.7653H1.85821C1.62689 30.7651 1.43959 30.5707 1.43928 30.3309V29.8964H18.1947V30.3309Z" fill="#9AC355"/>
</svg>
