<svg width="51" height="51" viewBox="0 0 51 51" fill="none" xmlns="http://www.w3.org/2000/svg">
<path d="M49.4912 18.1667C49.412 16.7725 47.784 15.6831 44.528 14.852C44.6376 14.6076 44.6992 14.3533 44.7 14.0893V8.38889H44.6864C44.4 3.64015 25.2944 3.5 23.1 3.5C20.9056 3.5 1.8 3.64015 1.5136 8.38889H1.5V8.49481V14.0918C1.504 15.6399 3.4656 16.8516 6.384 17.7536C6.344 17.8888 6.32 18.0265 6.312 18.1667H6.3V18.2726V23.8598C3.156 24.6844 1.5856 25.7583 1.508 27.1296H1.5V27.2356V32.8325C1.5024 33.9105 2.4568 34.8247 4.0184 35.5866C3.9592 35.752 3.9224 35.9207 3.912 36.0934H3.9V36.1993V41.7963C3.9064 44.5064 9.8976 46.189 16.5544 46.9744C16.6032 46.9842 16.648 47.0046 16.7 47.0046C16.7152 47.0046 16.728 46.9964 16.7432 46.9956C18.0264 47.1431 19.3304 47.258 20.6208 47.3403C20.648 47.3436 20.672 47.3566 20.7 47.3566C20.7152 47.3566 20.7272 47.3484 20.7416 47.3476C22.38 47.4487 23.992 47.5 25.5 47.5C27.008 47.5 28.62 47.4487 30.2584 47.3468C30.2728 47.3476 30.2856 47.3558 30.3 47.3558C30.328 47.3558 30.352 47.3419 30.3792 47.3395C31.6696 47.2572 32.9736 47.1431 34.2568 46.9948C34.272 46.9948 34.2848 47.003 34.3 47.003C34.352 47.003 34.3968 46.9826 34.4456 46.9728C41.1024 46.1873 47.0928 44.5039 47.1 41.793V36.0926H47.0872C47.0312 35.0936 46.1952 34.2601 44.544 33.5634C44.6448 33.3279 44.7 33.0835 44.7 32.8301V27.5044C47.572 26.6049 49.496 25.4014 49.5 23.8671V18.1667H49.4912ZM43.0136 33.0949L42.7408 33.3385C42.3208 33.7158 41.6208 34.0963 40.7 34.463V30.5779C41.6512 30.2406 42.4608 29.8666 43.1 29.4567V32.8284C43.1 32.9124 43.0696 33.002 43.0136 33.0949ZM25.1208 36.8813C25.004 36.8846 24.8864 36.8862 24.7688 36.8887C24.4832 36.8944 24.1904 36.896 23.9008 36.8984V32.8284C24.1208 32.826 24.3408 32.8227 24.5608 32.8187C24.6032 32.8179 24.6456 32.817 24.688 32.8162C25.4936 32.8007 26.2992 32.7755 27.1008 32.738V36.8064C26.9296 36.8153 26.7576 36.8235 26.584 36.8308C26.1024 36.8528 25.616 36.8691 25.1208 36.8813ZM21.6272 36.8927C21.2608 36.8862 20.896 36.8773 20.5336 36.8659C20.4888 36.8642 20.444 36.8626 20.3992 36.861C19.9632 36.8463 19.5304 36.8276 19.1008 36.8064V32.7388C19.9024 32.7771 20.708 32.8024 21.5136 32.817C21.556 32.8179 21.5984 32.8187 21.64 32.8195C21.86 32.8236 22.08 32.8268 22.3 32.8293V36.9017C22.1448 36.9001 21.9896 36.9001 21.8352 36.8976C21.7648 36.896 21.6968 36.8936 21.6272 36.8927ZM7.1776 35.035C7.1512 35.0268 7.1264 35.0195 7.1 35.0121V31.0758C7.8472 31.2811 8.6504 31.4685 9.5 31.6388V35.6159C8.7656 35.457 8.088 35.29 7.4712 35.1189C7.3736 35.0904 7.2728 35.0635 7.1776 35.035ZM24.04 41.7824C24.26 41.7865 24.48 41.7898 24.7 41.7922V45.8655C23.5944 45.8549 22.5272 45.8223 21.5 45.771V41.7026C22.3016 41.7409 23.1072 41.7661 23.9128 41.7808C23.9552 41.7808 23.9976 41.7816 24.04 41.7824ZM27.0872 41.78C27.8928 41.7645 28.6984 41.7393 29.5 41.7018V45.7701C28.4728 45.8215 27.4056 45.8541 26.3 45.8647V41.7914C26.52 41.789 26.74 41.7857 26.96 41.7816C27.0024 41.7816 27.0448 41.7808 27.0872 41.78ZM33.5 41.4117V45.4581C32.7312 45.5404 31.9312 45.6129 31.1 45.6724V41.6089C31.9112 41.5551 32.7128 41.4891 33.5 41.4117ZM35.1 41.2357C35.9248 41.1347 36.7256 41.0198 37.5 40.8918V44.8926C36.7464 45.0279 35.9456 45.1525 35.1 45.2658V41.2357ZM39.1 40.601C39.9496 40.4307 40.7528 40.2433 41.5 40.0379V43.9743C40.7872 44.1837 39.9848 44.3866 39.1 44.5781V40.601ZM11.9 40.601V44.5781C11.0152 44.3866 10.2128 44.1837 9.5 43.9743V40.0379C10.2472 40.2433 11.0504 40.4315 11.9 40.601ZM13.5 40.8927C14.2744 41.0206 15.0752 41.1355 15.9 41.2365V45.2666C15.0544 45.1533 14.2536 45.0287 13.5 44.8934V40.8927ZM17.5 41.4117C18.2872 41.4891 19.0888 41.5551 19.9 41.6097V45.6732C19.0688 45.6137 18.2688 45.5412 17.5 45.4589V41.4117ZM15.5152 36.5391C15.4336 36.531 15.3528 36.522 15.272 36.5139C15.2144 36.5081 15.1576 36.5008 15.1 36.4951V32.4496C15.8872 32.527 16.6888 32.593 17.5 32.6476V36.7078C16.828 36.6589 16.164 36.6035 15.5152 36.5391ZM13.5 32.2727V36.3028C12.6544 36.1896 11.8536 36.0649 11.1 35.9296V31.9289C11.8744 32.0568 12.6752 32.1725 13.5 32.2727ZM29.2328 36.6695C29.0568 36.6833 28.8792 36.6972 28.7 36.7102V32.6467C29.5112 32.5921 30.3128 32.527 31.1 32.4487V36.4951C30.6056 36.5481 30.1 36.5978 29.5808 36.641C29.4648 36.6516 29.3488 36.6605 29.2328 36.6695ZM32.7 36.3028V32.2727C33.5248 32.1717 34.3256 32.0568 35.1 31.9289V35.9296C34.3464 36.0649 33.5456 36.1904 32.7 36.3028ZM36.7 31.638C37.5496 31.4677 38.3528 31.2803 39.1 31.075V35.0113C38.3872 35.2207 37.5848 35.4236 36.7 35.6151V31.638ZM25.76 27.9159C25.1584 27.9004 24.5704 27.8768 23.9928 27.8483C23.9616 27.8467 23.9304 27.845 23.9 27.8442V23.7759C24.7016 23.8141 25.5072 23.8394 26.3128 23.8541C26.3552 23.8549 26.3976 23.8557 26.4392 23.8565C26.6592 23.8606 26.8792 23.8639 27.0992 23.8663V27.9347C26.7096 27.9306 26.3168 27.929 25.9368 27.92C25.8784 27.9184 25.8184 27.9176 25.76 27.9159ZM7.1 16.2714V12.335C7.8472 12.5404 8.6504 12.7278 9.5 12.8981V16.8752C9.4016 16.854 9.3 16.8328 9.204 16.8116C8.7784 16.7163 8.3632 16.6169 7.9664 16.5118C7.664 16.4327 7.3768 16.3521 7.1 16.2714ZM21.64 14.0787C21.86 14.0828 22.08 14.0861 22.3 14.0885V18.1569C21.2232 18.1463 20.1528 18.1178 19.1 18.064V13.9989C19.9016 14.0372 20.7072 14.0624 21.5128 14.0771C21.5552 14.0771 21.5976 14.0779 21.64 14.0787ZM24.6872 14.0763C25.4928 14.0608 26.2984 14.0356 27.1 13.9981V18.0632C26.964 18.0697 26.8336 18.0795 26.6968 18.086C26.6856 18.0868 26.6744 18.0868 26.6624 18.0876C26.1256 18.1121 25.5784 18.13 25.024 18.143C24.9376 18.1455 24.8512 18.1463 24.7648 18.1487C24.48 18.1544 24.1888 18.1553 23.9 18.1585V14.0885C24.12 14.0861 24.34 14.0828 24.56 14.0787C24.6024 14.0779 24.6448 14.0771 24.6872 14.0763ZM42.9168 14.4853L42.8944 14.4804L42.6032 14.711C42.1808 15.0459 41.532 15.3849 40.7 15.7124V11.8364C41.6512 11.499 42.4608 11.125 43.1 10.7152V14.0869C43.1 14.2107 43.036 14.3444 42.9168 14.4853ZM32.7 17.5572V13.532C33.5248 13.431 34.3256 13.3161 35.1 13.1881V17.1824C34.3416 17.3193 33.5432 17.4447 32.7 17.5572ZM36.7 16.8687V12.8981C37.5496 12.7278 38.3528 12.5404 39.1 12.335V16.2624C38.3832 16.4751 37.576 16.678 36.7 16.8687ZM31.1 13.708V17.7495C30.3272 17.8326 29.5272 17.9051 28.7 17.9654V13.906C29.5112 13.8514 30.3128 13.7854 31.1 13.708ZM15.1 17.7511V13.708C15.8872 13.7854 16.6888 13.8514 17.5 13.906V17.9621C16.6856 17.9027 15.8824 17.835 15.1 17.7511ZM13.5 13.532V17.558C13.3416 17.5368 13.1768 17.5197 13.02 17.4977C12.9176 17.483 12.82 17.4676 12.7192 17.4529C12.2568 17.3853 11.8048 17.3127 11.3616 17.237C11.2728 17.2215 11.1872 17.2052 11.1 17.1897V13.189C11.8744 13.3161 12.6752 13.4318 13.5 13.532ZM22.1016 27.7318C21.9936 27.7236 21.8848 27.7155 21.7776 27.7073C21.2656 27.6666 20.7656 27.6218 20.2776 27.5721C20.1728 27.5615 20.068 27.5501 19.964 27.5395C19.9424 27.537 19.9216 27.5338 19.9 27.5321V23.4858C20.6872 23.5632 21.4888 23.6292 22.3 23.6838V27.7448C22.2352 27.7399 22.1664 27.7367 22.1016 27.7318ZM16.816 27.1231C16.4992 27.0718 16.2016 27.0164 15.9 26.9626V22.9667C16.6744 23.0947 17.4752 23.2096 18.3 23.3106V27.3407C17.8104 27.2747 17.3312 27.2062 16.8712 27.1329C16.8528 27.1288 16.8344 27.1256 16.816 27.1231ZM14.3 22.675V26.6456C13.416 26.4525 12.6144 26.2472 11.9 26.0337V22.112C12.6472 22.3173 13.4504 22.5056 14.3 22.675ZM10.3 21.6141V25.4853C9.0424 24.9907 8.2312 24.4856 7.9672 24.0358L7.9136 23.9445C7.9088 23.9193 7.9008 23.8924 7.9 23.8671V20.493C8.5392 20.9028 9.3488 21.2768 10.3 21.6141ZM29.4872 23.8541C30.2928 23.8386 31.0984 23.8133 31.9 23.7759V27.8401C30.8488 27.8931 29.78 27.9224 28.7 27.9339V23.8663C28.92 23.8639 29.14 23.8606 29.36 23.8565C29.4024 23.8557 29.4448 23.8549 29.4872 23.8541ZM39.8256 26.9805C39.4744 27.0424 39.12 27.1036 38.756 27.1598C38.5472 27.1924 38.3336 27.2233 38.1192 27.2543C37.9168 27.2836 37.7064 27.3089 37.5008 27.3358V23.3098C38.3256 23.2087 39.1264 23.0939 39.9008 22.9659V26.9667C39.8752 26.9716 39.8504 26.9764 39.8256 26.9805ZM34.4088 27.6764C34.1104 27.7016 33.8024 27.7179 33.5 27.7399V23.6838C34.3112 23.6292 35.1128 23.564 35.9 23.4858V27.5281C35.4352 27.5778 34.9712 27.6275 34.4936 27.6682C34.4648 27.6707 34.4376 27.6739 34.4088 27.6764ZM43.5512 26.1486C43.1528 26.2619 42.7312 26.3678 42.3008 26.4713C42.1016 26.5185 41.8984 26.5658 41.6904 26.6114C41.6288 26.6253 41.5632 26.6375 41.5008 26.6513V22.6759C42.3504 22.5056 43.1536 22.3181 43.9008 22.1128V26.0492C43.7856 26.0818 43.6696 26.1152 43.5512 26.1486ZM47.8912 18.2196C47.8176 18.7729 46.5864 19.5087 44.3888 20.2004C41.5584 21.091 37.1296 21.9067 31.5168 22.1593C31.2296 22.1715 30.9432 22.1837 30.6504 22.1935C30.4112 22.2016 30.1712 22.209 29.9272 22.2155C29.2648 22.2301 28.5928 22.2407 27.9 22.2407C27.2072 22.2407 26.5352 22.2301 25.8728 22.2147C25.6296 22.209 25.3896 22.2008 25.1496 22.1927C24.856 22.1837 24.5696 22.1707 24.2832 22.1584C18.6704 21.9059 14.2408 21.0902 11.4112 20.1996C9.2312 19.5136 8.0024 18.7835 7.9112 18.2327C7.9152 18.2172 7.9152 18.2041 7.9248 18.1846C7.9792 18.1984 8.04 18.2099 8.0952 18.2237C8.408 18.2995 8.7288 18.3728 9.0552 18.4429C10.6448 18.7916 12.4064 19.0776 14.2832 19.296C14.2896 19.296 14.2944 19.2993 14.3 19.2993C14.3016 19.2993 14.304 19.2984 14.304 19.2984C15.5824 19.4467 16.9088 19.5633 18.2704 19.6456C18.2808 19.6456 18.2896 19.6513 18.3 19.6513C18.3056 19.6513 18.3096 19.648 18.3152 19.648C19.2952 19.7067 20.288 19.7499 21.2928 19.7727C21.908 19.7881 22.512 19.7963 23.1 19.7963C23.52 19.7963 23.9504 19.7914 24.3848 19.7833C30.1976 19.692 35.5848 18.988 39.3336 17.897C39.5064 17.8473 39.6752 17.7959 39.8416 17.7446C39.9432 17.7128 40.0472 17.6819 40.1456 17.6501C40.4352 17.5556 40.7128 17.4586 40.9808 17.3576C41.0272 17.3396 41.0712 17.3217 41.1176 17.3038C41.344 17.2166 41.5616 17.1261 41.7696 17.0341C41.8296 17.0072 41.8912 16.9811 41.9496 16.9542C42.1712 16.8524 42.3856 16.7481 42.584 16.6397C42.6736 16.5916 42.7512 16.5419 42.8352 16.493C42.9312 16.4368 43.0272 16.3798 43.116 16.3219C43.1664 16.2893 43.2264 16.2584 43.2744 16.2258C46.856 17.017 47.8 17.8823 47.8912 18.2196ZM23.1 5.12963C36.2912 5.12963 42.9632 7.24489 43.088 8.45896C42.9912 9.00978 41.7632 9.73741 39.5888 10.4219C36.7584 11.3124 32.3296 12.1281 26.7168 12.3807C26.4296 12.3929 26.1432 12.4051 25.8504 12.4149C25.6112 12.423 25.3712 12.4304 25.1272 12.4369C24.4648 12.4524 23.7928 12.463 23.1 12.463C22.4072 12.463 21.7352 12.4524 21.0728 12.4369C20.8296 12.4312 20.5896 12.423 20.3496 12.4149C20.056 12.4059 19.7696 12.3929 19.4832 12.3807C13.8704 12.1281 9.4408 11.3124 6.6112 10.4219C4.436 9.73741 3.2088 9.00978 3.112 8.45896C3.2368 7.24489 9.9088 5.12963 23.1 5.12963ZM3.1 14.0893V10.7152C3.7392 11.125 4.5488 11.499 5.5 11.8364V15.7377C3.944 15.1437 3.1016 14.5481 3.1 14.0893ZM6.9752 25.3656C6.9872 25.3786 7.0056 25.39 7.0176 25.403C8.1128 26.5291 10.3808 27.414 13.204 28.074C13.2688 28.0895 13.3376 28.1041 13.4032 28.1196C13.6104 28.1669 13.8208 28.2133 14.0336 28.2581C16.6264 28.8204 19.7216 29.227 23.0936 29.4282C23.096 29.4282 23.0976 29.429 23.0992 29.429C23.1008 29.429 23.1024 29.4282 23.1024 29.4282C24.1856 29.4926 25.2936 29.5374 26.4248 29.557C26.9256 29.5676 27.4184 29.5741 27.9 29.5741C28.452 29.5741 29.0184 29.5676 29.5944 29.5537C30.6408 29.5317 31.672 29.4877 32.6888 29.4274C32.6928 29.4274 32.696 29.4299 32.7 29.4299C32.7072 29.4299 32.7128 29.4258 32.72 29.4258C36.1008 29.2229 39.2728 28.8122 41.9552 28.2215C41.3744 28.5311 40.5792 28.8513 39.5888 29.1634C36.6008 30.1037 31.8288 30.9601 25.764 31.1589C25.584 31.1646 25.4064 31.1711 25.224 31.176C25.028 31.1809 24.8288 31.1841 24.6296 31.1882C24.1264 31.1964 23.62 31.2037 23.1 31.2037C22.4072 31.2037 21.7352 31.1931 21.0728 31.1776C20.8296 31.1719 20.5896 31.1638 20.3496 31.1556C20.056 31.1467 19.7696 31.1336 19.4832 31.1214C13.8704 30.8688 9.4408 30.0532 6.6112 29.1626C4.4112 28.47 3.18 27.7334 3.1088 27.1801C3.1976 26.8738 4.0064 26.107 6.9752 25.3656ZM3.1 32.8301V29.4559C3.7392 29.8658 4.5488 30.2398 5.5 30.5771V34.463L5.0432 34.2821L5.0336 34.2919C3.7776 33.7614 3.1016 33.2407 3.1 32.8301ZM5.5 41.793V38.4189C6.1392 38.8287 6.9488 39.2027 7.9 39.5401V43.4414C6.344 42.8474 5.5016 42.2518 5.5 41.793ZM43.1 43.4414V39.5409C44.0512 39.2036 44.8608 38.8296 45.5 38.4197V41.7914C45.4992 42.2501 44.656 42.8466 43.1 43.4414ZM45.4896 36.1553C45.4024 36.707 44.1736 37.4387 41.9888 38.1264C39.1584 39.017 34.7296 39.8326 29.1168 40.0852C28.8296 40.0974 28.5432 40.1096 28.2504 40.1194C28.0112 40.1276 27.7712 40.1349 27.5272 40.1414C26.8648 40.1561 26.1928 40.1667 25.5 40.1667C24.8072 40.1667 24.1344 40.1561 23.4712 40.1406C23.2304 40.1349 22.9928 40.1267 22.7552 40.1186C22.46 40.1088 22.172 40.0966 21.8832 40.0844C16.2704 39.8318 11.8416 39.0161 9.0112 38.1256C6.8952 37.4599 5.6728 36.7526 5.5192 36.2067C5.7576 36.2914 6.0048 36.3737 6.2584 36.4544C6.284 36.4625 6.3096 36.4707 6.3352 36.478C6.5512 36.5456 6.772 36.6108 6.9984 36.6744C7.084 36.6988 7.1704 36.7233 7.2576 36.7469C7.3856 36.7819 7.5168 36.8153 7.648 36.8496C10.5616 37.6098 14.2808 38.1484 18.296 38.3904C18.2976 38.3904 18.2984 38.3912 18.3 38.3912L18.3024 38.3904C19.5424 38.4653 20.8088 38.5118 22.0888 38.5273C22.4296 38.5338 22.768 38.537 23.1 38.537C23.5408 38.537 23.992 38.5313 24.4488 38.5232C25.616 38.5036 26.768 38.4596 27.8944 38.3912C27.8968 38.3912 27.8984 38.3928 27.9008 38.3928C27.9048 38.3928 27.9072 38.3904 27.9112 38.3904C29.2832 38.3064 30.6112 38.1867 31.8872 38.0376C31.892 38.0376 31.896 38.04 31.9008 38.04C31.9184 38.04 31.9328 38.031 31.9504 38.0294C33.3712 37.8624 34.7184 37.657 35.9688 37.4183C36.2264 37.3702 36.48 37.3205 36.7312 37.2692C36.7872 37.2578 36.8432 37.2464 36.8992 37.2341C39.2616 36.7404 41.3064 36.1007 42.7096 35.3079C42.7864 35.2656 42.8584 35.2216 42.9312 35.1784C43.02 35.1246 43.1048 35.07 43.1872 35.0146C43.264 34.9641 43.3528 34.9152 43.4232 34.8639C45.0024 35.4375 45.4376 35.9508 45.4896 36.1553ZM45.5 25.5155V21.615C46.4512 21.2776 47.2608 20.9036 47.9 20.4938V23.8655C47.8992 24.3242 47.056 24.9207 45.5 25.5155Z" fill="white"/>
</svg>
