<svg width="30" height="31" viewBox="0 0 30 31" fill="none" xmlns="http://www.w3.org/2000/svg">
<g clip-path="url(#clip0_379_1956)">
<rect x="1" y="1.19995" width="28" height="28" rx="7" stroke="#9AC355" stroke-width="2"/>
<path d="M10 22.2C8.89543 22.2 8 21.3045 8 20.2V10.2C8 9.09538 8.89543 8.19995 10 8.19995H14.12C15.64 8.19995 16.9733 8.49328 18.12 9.07995C19.2667 9.66662 20.16 10.48 20.8 11.52C21.44 12.56 21.76 13.7866 21.76 15.2C21.76 16.6 21.44 17.8266 20.8 18.88C20.16 19.92 19.2667 20.7333 18.12 21.32C16.9733 21.9066 15.64 22.2 14.12 22.2H10ZM10.6 18C10.6 19.1045 11.4954 20 12.6 20H14C15.0533 20 15.96 19.8 16.72 19.4C17.4933 19 18.0867 18.44 18.5 17.72C18.9267 17 19.14 16.16 19.14 15.2C19.14 14.2266 18.9267 13.3866 18.5 12.68C18.0867 11.96 17.4933 11.4 16.72 11C15.96 10.6 15.0533 10.4 14 10.4H12.6C11.4954 10.4 10.6 11.2954 10.6 12.4V18Z" fill="#9AC355"/>
</g>
<defs>
<clipPath id="clip0_379_1956">
<rect width="30" height="30" fill="white" transform="translate(0 0.199951)"/>
</clipPath>
</defs>
</svg>
