<svg width="50" height="50" viewBox="0 0 50 50" fill="none" xmlns="http://www.w3.org/2000/svg">
<path d="M15.1445 21.7893L15.1428 21.8201C15.0236 23.9069 16.1925 25.8618 18.1215 26.799L18.1413 26.8087C18.8213 27.134 19.3787 27.6703 19.7304 28.3372L19.7383 28.3517C20.7103 30.2024 22.7206 31.3242 24.8636 31.2117L24.8962 31.2099C25.6734 31.1664 26.4449 31.3669 27.1025 31.7836C28.9172 32.9187 31.2207 32.9187 33.0353 31.7836C33.693 31.3669 34.4645 31.1664 35.2417 31.2099L35.2742 31.2117C37.4138 31.3251 39.4267 30.2024 40.4008 28.3486L40.4057 28.3385C40.7587 27.6698 41.3174 27.1327 41.9997 26.8069L42.0155 26.799C43.9445 25.8613 45.1138 23.9069 44.9942 21.8197L44.9925 21.7906C44.9529 21.0556 45.1569 20.3281 45.5736 19.721C46.7733 17.9714 46.7733 15.6644 45.574 13.9143C45.1577 13.3077 44.9529 12.5806 44.9925 11.8456L44.9942 11.8148C45.1138 9.72759 43.9445 7.77313 42.0137 6.83502L41.9961 6.82623C41.3174 6.50181 40.7613 5.96813 40.4092 5.30302L40.3991 5.28324C39.4267 3.43252 37.4138 2.31111 35.2742 2.4232L35.2413 2.42496C34.4645 2.46848 33.693 2.26802 33.0358 1.85128H33.0349C31.2202 0.716238 28.9167 0.716238 27.1021 1.85128C26.4444 2.26759 25.6729 2.46804 24.8957 2.42452L24.8632 2.42276C22.7232 2.30935 20.7107 3.43208 19.7388 5.28236L19.7313 5.29599C19.3792 5.96418 18.8213 6.50093 18.1404 6.82667L18.1219 6.83546C16.193 7.77269 15.0236 9.72759 15.1432 11.8148L15.145 11.8438C15.1845 12.5788 14.9806 13.3064 14.5638 13.913C13.3641 15.6631 13.3641 17.9705 14.5638 19.7201C14.9801 20.3268 15.1845 21.0543 15.1445 21.7893ZM16.0457 14.9355C16.6888 13.9992 17.004 12.8764 16.9425 11.7423L16.9407 11.7115C16.8774 10.3285 17.6538 9.04401 18.9071 8.45627L18.9224 8.44879C19.9507 7.95644 20.7925 7.14582 21.3235 6.13738L21.3323 6.12068C21.9781 4.89068 23.3307 4.14512 24.7674 4.22161L24.799 4.22292C25.9486 4.28755 27.0893 3.99126 28.0617 3.37494C29.2895 2.60696 30.8475 2.60696 32.0753 3.37494C33.0477 3.99038 34.1884 4.28711 35.3375 4.22336L35.3692 4.22161C36.8128 4.14599 38.1589 4.89068 38.8029 6.11716L38.8148 6.13958C39.3458 7.1467 40.1868 7.956 41.2137 8.44792L41.2286 8.45539C42.5017 9.07434 43.2745 10.3523 43.1967 11.7119L43.1949 11.744C43.1334 12.8782 43.449 14.0005 44.0922 14.9368C44.8694 16.0706 44.8689 17.5652 44.0913 18.6985C43.4486 19.6353 43.1334 20.758 43.1949 21.8922L43.1967 21.9225C43.2745 23.2822 42.5017 24.5606 41.2282 25.18L41.215 25.1861C40.1859 25.6793 39.3432 26.4908 38.8117 27.501L38.8051 27.5142C38.1589 28.7442 36.8084 29.4902 35.3696 29.4133L35.3384 29.4115C34.1889 29.3474 33.0477 29.6441 32.0748 30.26C30.8475 31.0275 29.2895 31.0275 28.0622 30.26C27.1777 29.6995 26.1517 29.4023 25.1045 29.4032C25.003 29.4032 24.901 29.4058 24.799 29.4115L24.7674 29.4129C23.3496 29.503 22.0084 28.7609 21.331 27.512L21.3218 27.4949C20.7916 26.4882 19.9511 25.6793 18.9246 25.1874L18.9079 25.1791C17.6344 24.5601 16.8616 23.2818 16.9398 21.9225L16.9416 21.8904C17.0027 20.7563 16.6871 19.6335 16.0444 18.6976C15.2676 17.5639 15.2681 16.0693 16.0457 14.9364V14.9355Z" fill="#9AC355"/>
<path d="M24.2597 26.1245C24.6813 26.3878 25.2365 26.259 25.4999 25.8374L36.165 8.75193C36.3391 8.47894 36.3536 8.13341 36.2023 7.84723C36.0511 7.56061 35.7575 7.37774 35.4339 7.36763C35.1104 7.35752 34.8062 7.52193 34.6374 7.79844L23.9727 24.8839C23.7094 25.3059 23.8377 25.8611 24.2597 26.1245Z" fill="#9AC355"/>
<path d="M25.214 16.8618C27.4063 16.8618 29.1902 14.8278 29.1902 12.3278C29.1902 9.82778 27.4063 7.79419 25.214 7.79419C23.0217 7.79419 21.2383 9.82778 21.2383 12.3278C21.2383 14.8278 23.0217 16.8618 25.214 16.8618ZM25.214 9.59479C26.4137 9.59479 27.3896 10.8208 27.3896 12.3278C27.3896 13.8347 26.4137 15.0612 25.214 15.0612C24.0148 15.0612 23.0389 13.8343 23.0389 12.3278C23.0389 10.8213 24.0148 9.59479 25.214 9.59479Z" fill="#9AC355"/>
<path d="M30.9453 21.308C30.9453 23.808 32.7288 25.8416 34.9211 25.8416C37.1133 25.8416 38.8972 23.8076 38.8972 21.308C38.8972 18.8089 37.1138 16.7744 34.9215 16.7744C32.7288 16.7744 30.9453 18.8076 30.9453 21.308ZM37.0966 21.308C37.0966 22.815 36.1207 24.041 34.9211 24.041C33.7218 24.041 32.7459 22.815 32.7459 21.308C32.7459 19.8011 33.7218 18.575 34.9211 18.575C36.1207 18.575 37.0966 19.8002 37.0966 21.308Z" fill="#9AC355"/>
<path d="M49.0597 36.2579C47.8675 34.1421 45.2237 33.3363 43.0543 34.4274L36.0018 37.7595C35.0281 35.9488 33.1602 34.7962 31.1047 34.7382L24.5942 34.5588C23.5633 34.5294 22.5518 34.2678 21.6353 33.7948L20.9728 33.4515C17.5808 31.6834 13.5378 31.6878 10.1494 33.4629L10.1907 31.9621C10.2043 31.4649 9.81267 31.0508 9.31548 31.0372L2.17638 30.8407C1.6792 30.827 1.26553 31.2187 1.2519 31.7159L0.820658 47.3828C0.80703 47.88 1.19871 48.2941 1.6959 48.3077L8.835 48.5042H8.86005C9.34757 48.5038 9.74629 48.1156 9.75991 47.6285L9.78014 46.879L11.6348 45.886C12.3628 45.4943 13.2143 45.4011 14.0095 45.6262L25.0844 48.7346C25.1037 48.7403 25.123 48.7447 25.1428 48.7491C25.9433 48.9166 26.7592 49.0005 27.5773 49.0001C29.3093 49.001 31.0211 48.6278 32.5954 47.9051C32.634 47.8875 32.6714 47.8672 32.707 47.8444L48.7647 37.4571C49.1652 37.1986 49.2944 36.6724 49.0597 36.2579ZM2.64544 46.5322L3.02701 32.6659L8.36638 32.8127L7.98437 46.6794L2.64544 46.5322ZM31.7838 46.2961C29.8281 47.1788 27.6437 47.4224 25.5415 46.9924L14.4962 43.8928C13.2534 43.5411 11.9223 43.6871 10.7851 44.2986L9.83728 44.8059L10.0914 35.5862C13.0943 33.5886 16.946 33.3833 20.1446 35.0498L20.8071 35.3932C21.965 35.991 23.2424 36.3212 24.545 36.3585L31.0554 36.5379C32.8842 36.5902 34.4373 37.8923 34.8083 39.6841L25.1107 39.4173C24.6135 39.4036 24.1999 39.7953 24.1863 40.2925C24.1726 40.7897 24.5643 41.2038 25.0615 41.2174L35.7635 41.512H35.789C36.2761 41.5115 36.6748 41.1234 36.6885 40.6363C36.6995 40.245 36.67 39.8533 36.6014 39.4683L43.8337 36.0504L43.8548 36.0403C44.8808 35.5207 46.1218 35.6943 46.9654 36.4755L31.7838 46.2961Z" fill="#9AC355"/>
</svg>
