<svg width="30" height="31" viewBox="0 0 30 31" fill="none" xmlns="http://www.w3.org/2000/svg">
<path d="M3.21903 4.19995C2.36693 4.2054 1.55124 4.55542 0.9487 5.17417C0.346161 5.79291 0.0053092 6.63055 0 7.50557V22.9027C0 24.7114 1.45768 26.2 3.21903 26.2H19.2899C20.1402 26.1956 20.9544 25.8468 21.5557 25.2294C22.1569 24.612 22.4966 23.7758 22.5008 22.9027V21.3434L28.449 24.4204C28.6122 24.5037 28.7934 24.543 28.9754 24.5345C29.1575 24.526 29.3345 24.47 29.4897 24.3718C29.6448 24.2736 29.7731 24.1365 29.8624 23.9733C29.9516 23.8101 29.9989 23.6262 29.9998 23.4391V6.96087C29.9989 6.7737 29.9516 6.58984 29.8624 6.42665C29.7731 6.26345 29.6448 6.12628 29.4897 6.0281C29.3345 5.92991 29.1575 5.87393 28.9754 5.86544C28.7934 5.85695 28.6122 5.89623 28.449 5.97958L22.4968 9.05651V7.50557C22.4926 6.63236 22.1537 5.79596 21.5536 5.17733C20.9534 4.55871 20.1402 4.20759 19.2899 4.19995H3.21903ZM3.21903 6.4037H19.2899C19.8973 6.4037 20.3548 6.87771 20.3548 7.50557V22.9027C20.3592 23.0481 20.3348 23.1929 20.283 23.3283C20.2312 23.4638 20.1531 23.5869 20.0535 23.6904C19.9539 23.7939 19.8349 23.8754 19.7036 23.9302C19.5723 23.9849 19.4316 24.0116 19.2899 24.0087H3.21498C3.07297 24.0116 2.93186 23.9849 2.80016 23.9302C2.66846 23.8756 2.54888 23.7942 2.44864 23.6908C2.34839 23.5875 2.26954 23.4644 2.21684 23.3289C2.16413 23.1935 2.13867 23.0485 2.14197 22.9027V7.50557C2.13865 7.35939 2.16424 7.21404 2.21719 7.0783C2.27014 6.94257 2.34935 6.81928 2.45003 6.71589C2.55072 6.61249 2.67078 6.53115 2.80296 6.47677C2.93514 6.4224 3.07668 6.40028 3.21903 6.4037ZM27.8538 8.74881V21.6594L22.5008 18.8819V11.5264L27.8538 8.74881Z" fill="#9AC355"/>
<line x1="26" y1="12.2" x2="26" y2="18.2" stroke="#9AC355" stroke-width="2" stroke-linecap="round"/>
</svg>
