<svg width="50" height="50" viewBox="0 0 50 50" fill="none" xmlns="http://www.w3.org/2000/svg">
<path d="M39.7457 13C37.3874 13 35.0832 13.948 33.254 15.6688L25 23.4496L16.7458 15.6688C14.9166 13.948 12.6125 13 10.2541 13C4.59999 13 0 18.2992 0 24.8128V25.1872C0 31.7008 4.59999 37 10.2542 37C12.6125 37 14.9167 36.0519 16.7459 34.3312L25 26.5503L33.2541 34.3287C35.0833 36.0518 37.3874 36.9999 39.7458 36.9999C45.4 36.9999 50 31.7007 50 25.1871V24.8127C49.9999 18.2992 45.3999 13 39.7457 13ZM15.427 32.4736C13.9708 33.8464 12.1333 34.5999 10.2541 34.5999C5.74989 34.5999 2.0833 30.3759 2.0833 25.1872V24.8128C2.0833 19.624 5.74999 15.4001 10.2541 15.4001C12.1333 15.4001 13.9708 16.1537 15.427 17.5264L23.3562 25L15.427 32.4736ZM47.9166 25.1872C47.9166 30.376 44.2499 34.5999 39.7458 34.5999C37.8666 34.5999 36.0291 33.8463 34.5729 32.4736L26.6437 25L34.5729 17.5264C36.0291 16.1536 37.8666 15.4001 39.7458 15.4001C44.25 15.4001 47.9166 19.6241 47.9166 24.8128V25.1872Z" fill="#9AC355"/>
</svg>
