<svg width="50" height="50" viewBox="0 0 50 50" fill="none" xmlns="http://www.w3.org/2000/svg">
<path d="M44.1654 38.0002C43.9444 38.0002 43.7324 37.8948 43.5762 37.7072L37.1537 30.0002H21.6654C20.1189 29.9978 18.6363 29.2595 17.5428 27.9473C16.4492 26.635 15.834 24.8559 15.832 23.0001V10C15.834 8.14425 16.4492 6.36514 17.5428 5.0529C18.6363 3.74065 20.1189 3.00238 21.6654 3H44.1654C45.7119 3.00238 47.1944 3.74065 48.288 5.0529C49.3815 6.36514 49.9967 8.14425 49.9987 10V23.0001C49.997 24.6829 49.4909 26.3088 48.5729 27.5809C47.655 28.853 46.3863 29.6865 44.9987 29.9292V37.0002C44.9987 37.198 44.9499 37.3913 44.8584 37.5558C44.7669 37.7203 44.6368 37.8485 44.4845 37.9242C44.3834 37.9748 44.2749 38.0006 44.1654 38.0002ZM21.6654 5.00001C20.5607 5.0016 19.5017 5.5289 18.7205 6.46624C17.9394 7.40358 17.5 8.67444 17.4987 10V23.0001C17.5 24.3257 17.9394 25.5966 18.7205 26.5339C19.5017 27.4713 20.5607 27.9986 21.6654 28.0002H37.4987C37.7197 28.0002 37.9316 28.1056 38.0879 28.2932L43.332 34.5862V29.0002C43.332 28.7349 43.4198 28.4806 43.5761 28.293C43.7324 28.1055 43.9444 28.0002 44.1654 28.0002C45.27 27.9986 46.3291 27.4713 47.1102 26.5339C47.8913 25.5966 48.3307 24.3257 48.332 23.0001V10C48.3307 8.67444 47.8913 7.40358 47.1102 6.46624C46.3291 5.5289 45.27 5.0016 44.1654 5.00001H21.6654Z" fill="#9AC355"/>
<path d="M5.83333 47C5.72379 47.0004 5.61528 46.9746 5.51417 46.924C5.36193 46.8482 5.23182 46.72 5.14031 46.5555C5.04878 46.3911 4.99996 46.1977 5 46V38.9289C3.61235 38.6863 2.34373 37.8528 1.42576 36.5807C0.5078 35.3085 0.00174488 33.6826 0 31.9999V18.9998C0.00198452 17.144 0.617203 15.3649 1.71074 14.0527C2.80427 12.7404 4.28685 12.0021 5.83333 11.9998H14.1667C14.3877 11.9998 14.5996 12.1051 14.7559 12.2927C14.9122 12.4802 15 12.7345 15 12.9998C15 13.265 14.9122 13.5193 14.7559 13.7069C14.5996 13.8944 14.3877 13.9998 14.1667 13.9998H5.83333C4.72867 14.0014 3.66963 14.5287 2.88852 15.466C2.1074 16.4033 1.66799 17.6742 1.66667 18.9998V31.9999C1.66799 33.3255 2.1074 34.5963 2.88852 35.5337C3.66963 36.471 4.72867 36.9983 5.83333 36.9999C6.05435 36.9999 6.26631 37.1053 6.42259 37.2928C6.57887 37.4803 6.66667 37.7347 6.66667 37.9999V43.5859L11.9108 37.2929C12.0671 37.1054 12.279 37 12.5 36.9999H28.3333C29.438 36.9983 30.497 36.471 31.2782 35.5337C32.0593 34.5963 32.4987 33.3255 32.5 31.9999C32.5 31.7347 32.5878 31.4803 32.7441 31.2928C32.9004 31.1052 33.1123 30.9999 33.3333 30.9999C33.5543 30.9999 33.7663 31.1052 33.9226 31.2928C34.0789 31.4803 34.1667 31.7347 34.1667 31.9999C34.1647 33.8557 33.5495 35.6348 32.4559 36.947C31.3624 38.2593 29.8798 38.9975 28.3333 38.9999H12.845L6.4225 46.707C6.26626 46.8945 6.05433 46.9999 5.83333 47Z" fill="#9AC355"/>
<path d="M30.8335 22C30.6125 21.9999 30.4006 21.8945 30.2443 21.707L26.0777 16.707C25.9259 16.5184 25.8419 16.2657 25.8438 16.0035C25.8457 15.7414 25.9333 15.4905 26.0878 15.3051C26.2423 15.1197 26.4513 15.0145 26.6698 15.0123C26.8883 15.01 27.0988 15.1108 27.256 15.2929L30.8335 19.586L37.7443 11.2929C37.9015 11.1108 38.112 11.01 38.3305 11.0122C38.549 11.0145 38.758 11.1197 38.9125 11.3051C39.067 11.4905 39.1547 11.7413 39.1566 12.0035C39.1585 12.2657 39.0745 12.5183 38.9227 12.7069L31.4227 21.707C31.2664 21.8945 31.0545 21.9999 30.8335 22Z" fill="#9AC355"/>
</svg>
