<svg width="30" height="31" viewBox="0 0 30 31" fill="none" xmlns="http://www.w3.org/2000/svg">
<path fill-rule="evenodd" clip-rule="evenodd" d="M7.03008 18.159C7.08961 18.18 7.15031 18.1963 7.21176 18.2078C7.60118 19.2577 7.9884 20.3086 8.37344 21.3606C9.06576 23.2535 9.76359 25.2031 9.91637 25.7638C10.1077 26.4535 10.3086 26.9228 10.5289 27.2441C10.6431 27.4079 10.7739 27.5527 10.928 27.663C11.009 27.7191 11.0947 27.7656 11.184 27.8016C11.6245 27.9905 12.0264 27.9118 12.2783 27.8157C12.4261 27.7582 12.5668 27.6788 12.6967 27.5795L12.7036 27.5764L16.5932 24.8016L21.0871 28.7417C21.1532 28.7995 21.2248 28.8483 21.3019 28.8882C21.8414 29.1559 22.3644 29.2504 22.8572 29.1748C23.3472 29.096 23.7367 28.8614 24.0271 28.5953C24.3603 28.2874 24.6261 27.8948 24.8034 27.4488L24.8158 27.4142L24.8199 27.4016L24.8227 27.3953V27.3921L24.824 27.3905C24.8466 27.3223 24.865 27.2523 24.8791 27.1811L28.9807 3.51965C28.9921 3.44366 28.9985 3.36681 29 3.28973C29 2.59682 28.7715 1.93697 28.2361 1.53855C27.7764 1.19682 27.2658 1.18107 26.9423 1.20941C26.5954 1.24091 26.2734 1.33855 26.0573 1.41729C25.9365 1.4619 25.8172 1.51127 25.6994 1.56532L25.6843 1.57319L2.67932 11.8976L2.67656 11.8992C2.59855 11.9314 2.52185 11.9677 2.44671 12.0078C2.26421 12.1015 2.08921 12.2132 1.92368 12.3417C1.61124 12.5858 0.891386 13.2567 1.01388 14.3653C1.11023 15.2472 1.63877 15.7905 1.96222 16.0519C2.13839 16.1953 2.30631 16.2976 2.43019 16.3653C2.48524 16.3968 2.60361 16.4504 2.65454 16.4756L2.6683 16.4803L7.03008 18.159ZM26.4895 3.74642H26.4867L26.4509 3.76375L3.41844 14.1023L3.38265 14.1181L3.36889 14.1228C3.32672 14.1415 3.28537 14.1625 3.24501 14.1858C3.2835 14.2105 3.323 14.2331 3.36338 14.2535L7.68799 15.9197C7.76435 15.952 7.83805 15.9921 7.90822 16.0393L22.191 6.47241L22.2048 6.46454C22.2605 6.42655 22.3175 6.39083 22.3754 6.35745C22.4745 6.29918 22.6328 6.21414 22.8118 6.15115C22.9356 6.10706 23.3031 5.98265 23.6995 6.1291C23.9101 6.20427 24.0978 6.34602 24.241 6.538C24.3842 6.72999 24.4771 6.96438 24.5088 7.21414C24.5601 7.43265 24.5615 7.66255 24.513 7.88186C24.4166 8.31493 24.1524 8.65194 23.9115 8.91021C23.705 9.13068 21.0266 12.085 18.3853 15.0015L14.7888 18.9701L14.1488 19.6787L22.2309 26.7685C22.3401 26.8206 22.4585 26.8422 22.5764 26.8315C22.6358 26.8222 22.6916 26.7938 22.7374 26.7496C22.7932 26.6956 22.841 26.6318 22.8792 26.5606L22.882 26.559L26.8597 3.60942C26.7346 3.64466 26.6118 3.68992 26.4922 3.74485L26.4895 3.74642ZM14.8438 23.2645L13.2307 21.8504L12.8398 24.6929L14.8438 23.2645ZM11.7511 19.0441L13.3546 17.2724L16.9511 13.3008L18.2903 11.8236L9.31626 17.8346L9.36444 17.9638C9.93042 19.4936 10.4902 21.0264 11.0436 22.5622L11.4331 19.7275C11.4687 19.4647 11.5807 19.225 11.7511 19.0441Z" fill="#9AC355"/>
</svg>
