<svg width="51" height="51" viewBox="0 0 51 51" fill="none" xmlns="http://www.w3.org/2000/svg">
<g clip-path="url(#clip0_330_6125)">
<path d="M40.2192 44.2234C39.9642 35.3603 35.7835 27.9301 30.1159 25.4396C35.7835 22.9492 39.9642 15.5192 40.2192 6.65605C41.7375 6.44394 42.9113 5.17051 42.9113 3.59492C42.9113 1.87197 41.5093 0.5 39.7863 0.5H11.2148C9.49189 0.5 8.08984 1.90205 8.08984 3.625C8.08984 5.34795 9.49189 6.75 11.2148 6.75H11.6757C11.9403 15.4554 16.1178 23.0128 21.7781 25.5C16.1178 27.9872 11.9403 35.3214 11.6757 44.25H11.2148C9.49189 44.25 8.08984 45.6521 8.08984 47.375C8.08984 49.0979 9.49189 50.5 11.2148 50.5H39.7862C41.5092 50.5 42.9112 49.0679 42.9112 47.3449C42.9113 45.7691 41.7375 44.4353 40.2192 44.2234ZM11.2148 4.96426C10.4764 4.96426 9.87559 4.36357 9.87559 3.625C9.87559 2.88643 10.4764 2.28574 11.2148 2.28574H39.7862C40.5248 2.28574 41.1256 2.88652 41.1256 3.625C41.1256 4.36348 40.5248 4.96426 39.7863 4.96426H11.2148ZM13.462 6.75H38.4319C38.12 16.5714 32.6399 24.6071 25.947 24.6071C19.2541 24.6071 13.774 16.5714 13.462 6.75ZM25.947 26.3929C32.6399 26.3929 38.12 34.2054 38.4319 44.25H13.462C13.774 34.2054 19.2541 26.3929 25.947 26.3929ZM39.7863 48.7143H11.2148C10.4764 48.7143 9.87559 48.1136 9.87559 47.375C9.87559 46.6364 10.4764 46.0357 11.2148 46.0357H39.7862C40.5248 46.0357 41.1255 46.6365 41.1255 47.375C41.1255 48.1135 40.5248 48.7143 39.7863 48.7143Z" fill="white"/>
<circle cx="24.438" cy="28.3846" r="0.961457" fill="white"/>
<circle cx="29.2427" cy="32.2307" r="0.961457" fill="white"/>
<circle cx="20.5904" cy="35.1153" r="0.961457" fill="white"/>
<rect x="12.8984" y="41.8462" width="25.9615" height="2.88462" fill="white"/>
<path d="M13.8594 13.9617H37.8978C37.8978 20.3342 32.7319 25.5001 26.3594 25.5001H25.3978C19.0253 25.5001 13.8594 20.3342 13.8594 13.9617Z" fill="white"/>
</g>
<defs>
<clipPath id="clip0_330_6125">
<rect width="50" height="50" fill="white" transform="translate(0.5 0.5)"/>
</clipPath>
</defs>
</svg>
