<svg width="30" height="31" viewBox="0 0 30 31" fill="none" xmlns="http://www.w3.org/2000/svg">
<g clip-path="url(#clip0_379_1959)">
<path fill-rule="evenodd" clip-rule="evenodd" d="M25.6292 4.50841C22.809 1.68497 19.0584 0.129334 15.0628 0.127686C6.82939 0.127686 0.128585 6.82831 0.125288 15.0639C0.124157 17.6966 0.811872 20.2665 2.1191 22.5317L0 30.272L7.91859 28.1948C10.1005 29.385 12.5569 30.0122 15.0567 30.013H15.063C23.2955 30.013 29.997 23.3119 30.0001 15.0758C30.0018 11.0845 28.4495 7.33172 25.6292 4.50841ZM15.0628 27.4903H15.0576C12.8299 27.4893 10.6451 26.8907 8.73857 25.7597L8.28546 25.4905L3.58643 26.7233L4.84062 22.1418L4.5453 21.6721C3.3025 19.6953 2.6462 17.4106 2.64733 15.0648C2.64992 8.21956 8.21957 2.65049 15.0678 2.65049C18.3839 2.65157 21.5012 3.94462 23.8452 6.29136C26.1891 8.6381 27.4793 11.7574 27.4782 15.0749C27.4753 21.9206 21.906 27.4903 15.0628 27.4903ZM21.8728 18.1918C21.4997 18.0049 19.6646 17.1023 19.3224 16.9775C18.9805 16.853 18.7314 16.7909 18.4829 17.1644C18.2339 17.5379 17.5188 18.3787 17.3009 18.6277C17.0831 18.8768 16.8656 18.908 16.4923 18.7211C16.119 18.5344 14.9165 18.1401 13.4908 16.8686C12.3813 15.8789 11.6323 14.6567 11.4145 14.2832C11.197 13.9094 11.4126 13.7268 11.5782 13.5215C11.9822 13.0198 12.3868 12.4937 12.5112 12.2448C12.6358 11.9957 12.5734 11.7777 12.48 11.5909C12.3868 11.4042 11.6404 9.56706 11.3295 8.81953C11.0263 8.09206 10.7188 8.19026 10.4896 8.17891C10.2721 8.16803 10.0232 8.16582 9.77426 8.16582C9.52548 8.16582 9.12107 8.25908 8.77889 8.63296C8.43684 9.00666 7.47279 9.90948 7.47279 11.7466C7.47279 13.5837 8.81016 15.3584 8.99673 15.6075C9.18324 15.8567 11.6287 19.6265 15.3726 21.2431C16.2631 21.628 16.9582 21.8574 17.5004 22.0294C18.3946 22.3135 19.208 22.2734 19.8512 22.1773C20.5683 22.07 22.0592 21.2743 22.3705 20.4025C22.6815 19.5307 22.6815 18.7835 22.588 18.6277C22.4949 18.472 22.246 18.3787 21.8728 18.1918Z" fill="#9AC355"/>
</g>
<defs>
<clipPath id="clip0_379_1959">
<rect width="30" height="30" fill="white" transform="translate(0 0.199951)"/>
</clipPath>
</defs>
</svg>
