<svg width="355" height="71" viewBox="0 0 355 71" fill="none" xmlns="http://www.w3.org/2000/svg">
<mask id="path-1-inside-1_2269_5166" fill="white">
<path d="M32 0H323V25H32V0Z"/>
</mask>
<path d="M323 25V24H32V25V26H323V25Z" fill="#2C2C2C" fill-opacity="0.1" mask="url(#path-1-inside-1_2269_5166)"/>
<path d="M52.2833 14.14C51.5367 14.14 50.8413 14.0187 50.1973 13.776C49.5627 13.524 49.0073 13.174 48.5313 12.726C48.0647 12.2687 47.7007 11.732 47.4393 11.116C47.178 10.5 47.0473 9.828 47.0473 9.1C47.0473 8.372 47.178 7.7 47.4393 7.084C47.7007 6.468 48.0693 5.936 48.5453 5.488C49.0213 5.03067 49.5767 4.68067 50.2113 4.438C50.846 4.186 51.5413 4.06 52.2973 4.06C53.1 4.06 53.8327 4.2 54.4953 4.48C55.158 4.75067 55.718 5.15667 56.1753 5.698L54.9993 6.804C54.6447 6.42133 54.248 6.13667 53.8093 5.95C53.3707 5.754 52.8947 5.656 52.3813 5.656C51.868 5.656 51.3967 5.74 50.9673 5.908C50.5473 6.076 50.1787 6.314 49.8613 6.622C49.5533 6.93 49.3107 7.294 49.1333 7.714C48.9653 8.134 48.8813 8.596 48.8813 9.1C48.8813 9.604 48.9653 10.066 49.1333 10.486C49.3107 10.906 49.5533 11.27 49.8613 11.578C50.1787 11.886 50.5473 12.124 50.9673 12.292C51.3967 12.46 51.868 12.544 52.3813 12.544C52.8947 12.544 53.3707 12.4507 53.8093 12.264C54.248 12.068 54.6447 11.774 54.9993 11.382L56.1753 12.502C55.718 13.034 55.158 13.44 54.4953 13.72C53.8327 14 53.0953 14.14 52.2833 14.14ZM60.8681 14.098C60.0374 14.098 59.3094 13.9347 58.6841 13.608C58.0681 13.272 57.5874 12.8147 57.2421 12.236C56.9061 11.6573 56.7381 10.9993 56.7381 10.262C56.7381 9.51533 56.9014 8.85733 57.2281 8.288C57.5641 7.70933 58.0214 7.25667 58.6001 6.93C59.1881 6.60333 59.8554 6.44 60.6021 6.44C61.3301 6.44 61.9787 6.59867 62.5481 6.916C63.1174 7.23333 63.5654 7.68133 63.8921 8.26C64.2187 8.83867 64.3821 9.52 64.3821 10.304C64.3821 10.3787 64.3774 10.4627 64.3681 10.556C64.3681 10.6493 64.3634 10.738 64.3541 10.822H58.1241V9.66H63.4301L62.7441 10.024C62.7534 9.59467 62.6647 9.21667 62.4781 8.89C62.2914 8.56333 62.0347 8.30667 61.7081 8.12C61.3907 7.93333 61.0221 7.84 60.6021 7.84C60.1727 7.84 59.7947 7.93333 59.4681 8.12C59.1507 8.30667 58.8987 8.568 58.7121 8.904C58.5347 9.23067 58.4461 9.618 58.4461 10.066V10.346C58.4461 10.794 58.5487 11.1907 58.7541 11.536C58.9594 11.8813 59.2487 12.1473 59.6221 12.334C59.9954 12.5207 60.4247 12.614 60.9101 12.614C61.3301 12.614 61.7081 12.5487 62.0441 12.418C62.3801 12.2873 62.6787 12.082 62.9401 11.802L63.8781 12.88C63.5421 13.272 63.1174 13.5753 62.6041 13.79C62.1001 13.9953 61.5214 14.098 60.8681 14.098ZM66.2961 14V6.524H72.0361V8.008H67.6401L68.0461 7.616V14H66.2961ZM76.3137 14.098C75.5483 14.098 74.867 13.9347 74.2697 13.608C73.6723 13.272 73.201 12.8147 72.8557 12.236C72.5103 11.6573 72.3377 10.9993 72.3377 10.262C72.3377 9.51533 72.5103 8.85733 72.8557 8.288C73.201 7.70933 73.6723 7.25667 74.2697 6.93C74.867 6.60333 75.5483 6.44 76.3137 6.44C77.0883 6.44 77.7743 6.60333 78.3717 6.93C78.9783 7.25667 79.4497 7.70467 79.7857 8.274C80.131 8.84333 80.3037 9.506 80.3037 10.262C80.3037 10.9993 80.131 11.6573 79.7857 12.236C79.4497 12.8147 78.9783 13.272 78.3717 13.608C77.7743 13.9347 77.0883 14.098 76.3137 14.098ZM76.3137 12.6C76.743 12.6 77.1257 12.5067 77.4617 12.32C77.7977 12.1333 78.059 11.8627 78.2457 11.508C78.4417 11.1533 78.5397 10.738 78.5397 10.262C78.5397 9.77667 78.4417 9.36133 78.2457 9.016C78.059 8.66133 77.7977 8.39067 77.4617 8.204C77.1257 8.01733 76.7477 7.924 76.3277 7.924C75.8983 7.924 75.5157 8.01733 75.1797 8.204C74.853 8.39067 74.5917 8.66133 74.3957 9.016C74.1997 9.36133 74.1017 9.77667 74.1017 10.262C74.1017 10.738 74.1997 11.1533 74.3957 11.508C74.5917 11.8627 74.853 12.1333 75.1797 12.32C75.5157 12.5067 75.8937 12.6 76.3137 12.6ZM87.0744 13.188V8.008H84.2044L84.1624 9.212C84.1437 9.64133 84.1157 10.0567 84.0784 10.458C84.0411 10.85 83.9804 11.214 83.8964 11.55C83.8124 11.8767 83.6911 12.1473 83.5324 12.362C83.3737 12.5767 83.1637 12.7167 82.9024 12.782L81.1664 12.516C81.4464 12.516 81.6704 12.4273 81.8384 12.25C82.0157 12.0633 82.1511 11.8113 82.2444 11.494C82.3471 11.1673 82.4217 10.7987 82.4684 10.388C82.5151 9.968 82.5477 9.534 82.5664 9.086L82.6644 6.524H88.8244V13.188H87.0744ZM80.9004 15.666V12.516H89.9304V15.666H88.2924V14H82.5244V15.666H80.9004ZM91.4934 14V6.524H93.2434V9.562H97.0094V6.524H98.7594V14H97.0094V11.046H93.2434V14H91.4934ZM105.851 14V11.452L106.103 11.746H103.863C102.836 11.746 102.029 11.5313 101.441 11.102C100.862 10.6633 100.573 10.0333 100.573 9.212C100.573 8.33467 100.881 7.66733 101.497 7.21C102.122 6.75267 102.953 6.524 103.989 6.524H107.419V14H105.851ZM100.475 14L102.491 11.144H104.283L102.351 14H100.475ZM105.851 10.892V7.532L106.103 7.994H104.045C103.503 7.994 103.083 8.09667 102.785 8.302C102.495 8.498 102.351 8.82 102.351 9.268C102.351 10.108 102.897 10.528 103.989 10.528H106.103L105.851 10.892Z" fill="#2C2C2C"/>
<path d="M139.697 13.51V5.096H135.007L134.923 7.476C134.895 8.21333 134.848 8.92267 134.783 9.604C134.727 10.276 134.634 10.8827 134.503 11.424C134.382 11.956 134.214 12.39 133.999 12.726C133.794 13.062 133.523 13.258 133.187 13.314L132.053 13.104C132.426 13.1227 132.734 12.9873 132.977 12.698C133.229 12.4087 133.42 12.0027 133.551 11.48C133.691 10.9573 133.794 10.346 133.859 9.646C133.924 8.946 133.971 8.19 133.999 7.378L134.111 4.2H140.719V13.51H139.697ZM131.689 16.198L131.703 13.104H142.189V16.198H141.223V14H132.669L132.655 16.198H131.689ZM147.858 14.07C147.224 14.07 146.65 13.9253 146.136 13.636C145.623 13.3373 145.212 12.9127 144.904 12.362C144.606 11.802 144.456 11.1207 144.456 10.318C144.456 9.51533 144.606 8.83867 144.904 8.288C145.203 7.728 145.609 7.30333 146.122 7.014C146.636 6.72467 147.214 6.58 147.858 6.58C148.558 6.58 149.184 6.73867 149.734 7.056C150.294 7.364 150.733 7.80267 151.05 8.372C151.368 8.932 151.526 9.58067 151.526 10.318C151.526 11.0647 151.368 11.718 151.05 12.278C150.733 12.838 150.294 13.2767 149.734 13.594C149.184 13.9113 148.558 14.07 147.858 14.07ZM144.064 16.716V6.65H145.016V8.862L144.918 10.332L145.058 11.816V16.716H144.064ZM147.788 13.188C148.311 13.188 148.778 13.0713 149.188 12.838C149.599 12.5953 149.926 12.2593 150.168 11.83C150.411 11.3913 150.532 10.8873 150.532 10.318C150.532 9.74867 150.411 9.24933 150.168 8.82C149.926 8.39067 149.599 8.05467 149.188 7.812C148.778 7.56933 148.311 7.448 147.788 7.448C147.266 7.448 146.794 7.56933 146.374 7.812C145.964 8.05467 145.637 8.39067 145.394 8.82C145.161 9.24933 145.044 9.74867 145.044 10.318C145.044 10.8873 145.161 11.3913 145.394 11.83C145.637 12.2593 145.964 12.5953 146.374 12.838C146.794 13.0713 147.266 13.188 147.788 13.188ZM153.583 16.786C153.238 16.786 152.906 16.73 152.589 16.618C152.281 16.506 152.015 16.338 151.791 16.114L152.253 15.372C152.44 15.5493 152.64 15.6847 152.855 15.778C153.079 15.8807 153.326 15.932 153.597 15.932C153.924 15.932 154.204 15.8387 154.437 15.652C154.68 15.4747 154.908 15.1573 155.123 14.7L155.599 13.622L155.711 13.468L158.735 6.65H159.715L156.033 14.882C155.828 15.358 155.599 15.736 155.347 16.016C155.104 16.296 154.838 16.492 154.549 16.604C154.26 16.7253 153.938 16.786 153.583 16.786ZM155.543 14.21L152.155 6.65H153.191L156.187 13.398L155.543 14.21ZM161.264 14V6.65H166.472V7.518H162.006L162.258 7.266V14H161.264ZM170.59 14.07C169.881 14.07 169.242 13.9113 168.672 13.594C168.112 13.2673 167.669 12.824 167.342 12.264C167.016 11.6947 166.852 11.046 166.852 10.318C166.852 9.58067 167.016 8.932 167.342 8.372C167.669 7.812 168.112 7.37333 168.672 7.056C169.232 6.73867 169.872 6.58 170.59 6.58C171.318 6.58 171.962 6.73867 172.522 7.056C173.092 7.37333 173.535 7.812 173.852 8.372C174.179 8.932 174.342 9.58067 174.342 10.318C174.342 11.046 174.179 11.6947 173.852 12.264C173.535 12.824 173.092 13.2673 172.522 13.594C171.953 13.9113 171.309 14.07 170.59 14.07ZM170.59 13.188C171.122 13.188 171.594 13.0713 172.004 12.838C172.415 12.5953 172.737 12.2593 172.97 11.83C173.213 11.3913 173.334 10.8873 173.334 10.318C173.334 9.73933 173.213 9.23533 172.97 8.806C172.737 8.37667 172.415 8.04533 172.004 7.812C171.594 7.56933 171.127 7.448 170.604 7.448C170.082 7.448 169.615 7.56933 169.204 7.812C168.794 8.04533 168.467 8.37667 168.224 8.806C167.982 9.23533 167.86 9.73933 167.86 10.318C167.86 10.8873 167.982 11.3913 168.224 11.83C168.467 12.2593 168.794 12.5953 169.204 12.838C169.615 13.0713 170.077 13.188 170.59 13.188ZM176.467 14V6.65H177.461V12.488L182.375 6.65H183.257V14H182.263V8.148L177.363 14H176.467ZM179.799 5.586C179.183 5.586 178.683 5.432 178.301 5.124C177.927 4.80667 177.731 4.354 177.713 3.766H178.427C178.436 4.13933 178.567 4.43333 178.819 4.648C179.071 4.86267 179.397 4.97 179.799 4.97C180.2 4.97 180.527 4.86267 180.779 4.648C181.04 4.43333 181.175 4.13933 181.185 3.766H181.899C181.889 4.354 181.693 4.80667 181.311 5.124C180.928 5.432 180.424 5.586 179.799 5.586ZM194.809 13.524V7.518H191.267L191.183 9.156C191.165 9.65067 191.132 10.136 191.085 10.612C191.048 11.088 190.978 11.5267 190.875 11.928C190.782 12.32 190.647 12.642 190.469 12.894C190.292 13.1367 190.063 13.2767 189.783 13.314L188.789 13.132C189.079 13.1413 189.317 13.0387 189.503 12.824C189.69 12.6 189.835 12.2967 189.937 11.914C190.04 11.5313 190.115 11.0973 190.161 10.612C190.208 10.1173 190.245 9.61333 190.273 9.1L190.371 6.65H195.803V13.524H194.809ZM188.481 15.778V13.132H196.951V15.778H196.013V14H189.419V15.778H188.481ZM202.039 14.07C201.273 14.07 200.601 13.9113 200.023 13.594C199.444 13.2673 198.991 12.824 198.665 12.264C198.338 11.6947 198.175 11.046 198.175 10.318C198.175 9.59 198.329 8.946 198.637 8.386C198.954 7.826 199.383 7.38733 199.925 7.07C200.475 6.74333 201.091 6.58 201.773 6.58C202.463 6.58 203.075 6.73867 203.607 7.056C204.148 7.364 204.573 7.80267 204.881 8.372C205.189 8.932 205.343 9.58067 205.343 10.318C205.343 10.3647 205.338 10.416 205.329 10.472C205.329 10.5187 205.329 10.57 205.329 10.626H198.931V9.884H204.797L204.405 10.178C204.405 9.646 204.288 9.17467 204.055 8.764C203.831 8.344 203.523 8.01733 203.131 7.784C202.739 7.55067 202.286 7.434 201.773 7.434C201.269 7.434 200.816 7.55067 200.415 7.784C200.013 8.01733 199.701 8.344 199.477 8.764C199.253 9.184 199.141 9.66467 199.141 10.206V10.36C199.141 10.92 199.262 11.4147 199.505 11.844C199.757 12.264 200.102 12.5953 200.541 12.838C200.989 13.0713 201.497 13.188 202.067 13.188C202.515 13.188 202.93 13.1087 203.313 12.95C203.705 12.7913 204.041 12.5487 204.321 12.222L204.881 12.866C204.554 13.258 204.143 13.5567 203.649 13.762C203.163 13.9673 202.627 14.07 202.039 14.07ZM207.543 14V6.65H208.537V9.898H213.171V6.65H214.165V14H213.171V10.752H208.537V14H207.543ZM220.154 9.24C221.078 9.24933 221.778 9.45467 222.254 9.856C222.74 10.2573 222.982 10.836 222.982 11.592C222.982 12.376 222.721 12.978 222.198 13.398C221.685 13.818 220.938 14.0233 219.958 14.014L216.99 14V6.65H217.984V9.212L220.154 9.24ZM219.902 13.258C220.584 13.2673 221.097 13.132 221.442 12.852C221.797 12.5627 221.974 12.1427 221.974 11.592C221.974 11.0413 221.802 10.64 221.456 10.388C221.111 10.1267 220.593 9.99133 219.902 9.982L217.984 9.954V13.23L219.902 13.258Z" fill="#2C2C2C" fill-opacity="0.5"/>
<path d="M253.032 12.824L253.41 12.082C253.839 12.4553 254.32 12.7353 254.852 12.922C255.393 13.0993 255.935 13.1927 256.476 13.202C257.017 13.202 257.512 13.1227 257.96 12.964C258.417 12.8053 258.786 12.572 259.066 12.264C259.346 11.9467 259.486 11.564 259.486 11.116C259.486 10.5467 259.257 10.108 258.8 9.8C258.352 9.492 257.727 9.338 256.924 9.338H254.824V8.498H256.868C257.559 8.498 258.095 8.35333 258.478 8.064C258.87 7.76533 259.066 7.35467 259.066 6.832C259.066 6.45867 258.954 6.14133 258.73 5.88C258.515 5.60933 258.217 5.404 257.834 5.264C257.461 5.11467 257.041 5.03533 256.574 5.026C256.107 5.00733 255.622 5.068 255.118 5.208C254.623 5.33867 254.143 5.54867 253.676 5.838L253.34 4.984C253.919 4.63867 254.521 4.40067 255.146 4.27C255.771 4.13 256.378 4.08333 256.966 4.13C257.554 4.17667 258.081 4.312 258.548 4.536C259.024 4.76 259.402 5.054 259.682 5.418C259.962 5.782 260.102 6.216 260.102 6.72C260.102 7.18667 259.981 7.59733 259.738 7.952C259.505 8.30667 259.173 8.582 258.744 8.778C258.324 8.96467 257.825 9.058 257.246 9.058L257.302 8.75C257.955 8.75 258.52 8.85267 258.996 9.058C259.481 9.26333 259.855 9.55733 260.116 9.94C260.387 10.3133 260.522 10.752 260.522 11.256C260.522 11.732 260.401 12.1567 260.158 12.53C259.925 12.894 259.598 13.202 259.178 13.454C258.767 13.6967 258.305 13.874 257.792 13.986C257.279 14.0887 256.742 14.1167 256.182 14.07C255.622 14.0233 255.071 13.902 254.53 13.706C253.989 13.5007 253.489 13.2067 253.032 12.824ZM267.42 14V12.376L267.378 12.11V9.394C267.378 8.76867 267.201 8.288 266.846 7.952C266.501 7.616 265.983 7.448 265.292 7.448C264.816 7.448 264.364 7.52733 263.934 7.686C263.505 7.84467 263.141 8.05467 262.842 8.316L262.394 7.574C262.768 7.25667 263.216 7.014 263.738 6.846C264.261 6.66867 264.812 6.58 265.39 6.58C266.342 6.58 267.075 6.818 267.588 7.294C268.111 7.76067 268.372 8.47467 268.372 9.436V14H267.42ZM264.886 14.07C264.336 14.07 263.855 13.9813 263.444 13.804C263.043 13.6173 262.735 13.3653 262.52 13.048C262.306 12.7213 262.198 12.348 262.198 11.928C262.198 11.5453 262.287 11.2 262.464 10.892C262.651 10.5747 262.95 10.3227 263.36 10.136C263.78 9.94 264.34 9.842 265.04 9.842H267.574V10.584H265.068C264.359 10.584 263.864 10.71 263.584 10.962C263.314 11.214 263.178 11.5267 263.178 11.9C263.178 12.32 263.342 12.656 263.668 12.908C263.995 13.16 264.452 13.286 265.04 13.286C265.6 13.286 266.081 13.16 266.482 12.908C266.893 12.6467 267.192 12.2733 267.378 11.788L267.602 12.474C267.416 12.9593 267.089 13.3467 266.622 13.636C266.165 13.9253 265.586 14.07 264.886 14.07ZM271.018 14V6.65H274.266C275.097 6.65 275.75 6.80867 276.226 7.126C276.712 7.44333 276.954 7.91 276.954 8.526C276.954 9.12333 276.726 9.58533 276.268 9.912C275.811 10.2293 275.209 10.388 274.462 10.388L274.658 10.094C275.536 10.094 276.18 10.2573 276.59 10.584C277.001 10.9107 277.206 11.382 277.206 11.998C277.206 12.6327 276.973 13.1273 276.506 13.482C276.049 13.8273 275.335 14 274.364 14H271.018ZM271.984 13.216H274.322C274.948 13.216 275.419 13.118 275.736 12.922C276.063 12.7167 276.226 12.39 276.226 11.942C276.226 11.494 276.082 11.1673 275.792 10.962C275.503 10.7567 275.046 10.654 274.42 10.654H271.984V13.216ZM271.984 9.912H274.196C274.766 9.912 275.2 9.80467 275.498 9.59C275.806 9.37533 275.96 9.06267 275.96 8.652C275.96 8.24133 275.806 7.93333 275.498 7.728C275.2 7.52267 274.766 7.42 274.196 7.42H271.984V9.912ZM280.936 14V7.252L281.188 7.518H278.15V6.65H284.716V7.518H281.678L281.93 7.252V14H280.936ZM289.947 14.07C289.313 14.07 288.739 13.9253 288.225 13.636C287.712 13.3373 287.301 12.9127 286.993 12.362C286.695 11.802 286.545 11.1207 286.545 10.318C286.545 9.51533 286.695 8.83867 286.993 8.288C287.292 7.728 287.698 7.30333 288.211 7.014C288.725 6.72467 289.303 6.58 289.947 6.58C290.647 6.58 291.273 6.73867 291.823 7.056C292.383 7.364 292.822 7.80267 293.139 8.372C293.457 8.932 293.615 9.58067 293.615 10.318C293.615 11.0647 293.457 11.718 293.139 12.278C292.822 12.838 292.383 13.2767 291.823 13.594C291.273 13.9113 290.647 14.07 289.947 14.07ZM286.153 16.716V6.65H287.105V8.862L287.007 10.332L287.147 11.816V16.716H286.153ZM289.877 13.188C290.4 13.188 290.867 13.0713 291.277 12.838C291.688 12.5953 292.015 12.2593 292.257 11.83C292.5 11.3913 292.621 10.8873 292.621 10.318C292.621 9.74867 292.5 9.24933 292.257 8.82C292.015 8.39067 291.688 8.05467 291.277 7.812C290.867 7.56933 290.4 7.448 289.877 7.448C289.355 7.448 288.883 7.56933 288.463 7.812C288.053 8.05467 287.726 8.39067 287.483 8.82C287.25 9.24933 287.133 9.74867 287.133 10.318C287.133 10.8873 287.25 11.3913 287.483 11.83C287.726 12.2593 288.053 12.5953 288.463 12.838C288.883 13.0713 289.355 13.188 289.877 13.188ZM300.274 14V12.376L300.232 12.11V9.394C300.232 8.76867 300.055 8.288 299.7 7.952C299.355 7.616 298.837 7.448 298.146 7.448C297.67 7.448 297.217 7.52733 296.788 7.686C296.359 7.84467 295.995 8.05467 295.696 8.316L295.248 7.574C295.621 7.25667 296.069 7.014 296.592 6.846C297.115 6.66867 297.665 6.58 298.244 6.58C299.196 6.58 299.929 6.818 300.442 7.294C300.965 7.76067 301.226 8.47467 301.226 9.436V14H300.274ZM297.74 14.07C297.189 14.07 296.709 13.9813 296.298 13.804C295.897 13.6173 295.589 13.3653 295.374 13.048C295.159 12.7213 295.052 12.348 295.052 11.928C295.052 11.5453 295.141 11.2 295.318 10.892C295.505 10.5747 295.803 10.3227 296.214 10.136C296.634 9.94 297.194 9.842 297.894 9.842H300.428V10.584H297.922C297.213 10.584 296.718 10.71 296.438 10.962C296.167 11.214 296.032 11.5267 296.032 11.9C296.032 12.32 296.195 12.656 296.522 12.908C296.849 13.16 297.306 13.286 297.894 13.286C298.454 13.286 298.935 13.16 299.336 12.908C299.747 12.6467 300.045 12.2733 300.232 11.788L300.456 12.474C300.269 12.9593 299.943 13.3467 299.476 13.636C299.019 13.9253 298.44 14.07 297.74 14.07Z" fill="#2C2C2C" fill-opacity="0.5"/>
<line x1="32.5" y1="24.5" x2="113.5" y2="24.5" stroke="#9AC355" stroke-linecap="round"/>
<rect x="32.5" y="41.5" width="63" height="29" rx="3.5" fill="#F1F2F5" stroke="#9AC355"/>
<path d="M49.6811 61V51.62L50.1291 52.096H47.3711V51.2H50.6891V61H49.6811ZM56.1257 61.084C55.4257 61.084 54.7584 60.972 54.1237 60.748C53.489 60.5147 52.985 60.2067 52.6117 59.824L53.1017 59.026C53.4097 59.3527 53.8297 59.6233 54.3617 59.838C54.903 60.0527 55.4864 60.16 56.1117 60.16C56.9424 60.16 57.5724 59.978 58.0017 59.614C58.4404 59.2407 58.6597 58.7553 58.6597 58.158C58.6597 57.738 58.557 57.3787 58.3517 57.08C58.1557 56.772 57.8197 56.534 57.3437 56.366C56.8677 56.198 56.2144 56.114 55.3837 56.114H53.2977L53.8017 51.2H59.1637V52.096H54.2077L54.7257 51.606L54.2917 55.722L53.7737 55.218H55.6077C56.597 55.218 57.3904 55.3393 57.9877 55.582C58.585 55.8247 59.0144 56.1653 59.2757 56.604C59.5464 57.0333 59.6817 57.5373 59.6817 58.116C59.6817 58.6667 59.551 59.1707 59.2897 59.628C59.0284 60.076 58.6364 60.4307 58.1137 60.692C57.591 60.9533 56.9284 61.084 56.1257 61.084ZM61.7174 55.106C61.5121 55.106 61.3347 55.0313 61.1854 54.882C61.0454 54.7327 60.9754 54.5507 60.9754 54.336C60.9754 54.112 61.0454 53.93 61.1854 53.79C61.3347 53.65 61.5121 53.58 61.7174 53.58C61.9227 53.58 62.0954 53.65 62.2354 53.79C62.3847 53.93 62.4594 54.112 62.4594 54.336C62.4594 54.5507 62.3847 54.7327 62.2354 54.882C62.0954 55.0313 61.9227 55.106 61.7174 55.106ZM61.7174 61.07C61.5121 61.07 61.3347 60.9953 61.1854 60.846C61.0454 60.6967 60.9754 60.5147 60.9754 60.3C60.9754 60.076 61.0454 59.894 61.1854 59.754C61.3347 59.614 61.5121 59.544 61.7174 59.544C61.9227 59.544 62.0954 59.614 62.2354 59.754C62.3847 59.894 62.4594 60.076 62.4594 60.3C62.4594 60.5147 62.3847 60.6967 62.2354 60.846C62.0954 60.9953 61.9227 61.07 61.7174 61.07ZM67.8342 61.084C67.0782 61.084 66.4062 60.888 65.8182 60.496C65.2302 60.0947 64.7682 59.5253 64.4322 58.788C64.0962 58.0413 63.9282 57.1453 63.9282 56.1C63.9282 55.0547 64.0962 54.1633 64.4322 53.426C64.7682 52.6793 65.2302 52.11 65.8182 51.718C66.4062 51.3167 67.0782 51.116 67.8342 51.116C68.5902 51.116 69.2622 51.3167 69.8502 51.718C70.4382 52.11 70.9002 52.6793 71.2362 53.426C71.5815 54.1633 71.7542 55.0547 71.7542 56.1C71.7542 57.1453 71.5815 58.0413 71.2362 58.788C70.9002 59.5253 70.4382 60.0947 69.8502 60.496C69.2622 60.888 68.5902 61.084 67.8342 61.084ZM67.8342 60.16C68.4129 60.16 68.9169 60.006 69.3462 59.698C69.7755 59.3807 70.1115 58.9233 70.3542 58.326C70.5969 57.7193 70.7182 56.9773 70.7182 56.1C70.7182 55.2227 70.5969 54.4853 70.3542 53.888C70.1115 53.2813 69.7755 52.824 69.3462 52.516C68.9169 52.1987 68.4129 52.04 67.8342 52.04C67.2742 52.04 66.7749 52.1987 66.3362 52.516C65.8975 52.824 65.5569 53.2813 65.3142 53.888C65.0715 54.4853 64.9502 55.2227 64.9502 56.1C64.9502 56.9773 65.0715 57.7193 65.3142 58.326C65.5569 58.9233 65.8975 59.3807 66.3362 59.698C66.7749 60.006 67.2742 60.16 67.8342 60.16ZM77.1037 61.084C76.3477 61.084 75.6757 60.888 75.0877 60.496C74.4997 60.0947 74.0377 59.5253 73.7017 58.788C73.3657 58.0413 73.1977 57.1453 73.1977 56.1C73.1977 55.0547 73.3657 54.1633 73.7017 53.426C74.0377 52.6793 74.4997 52.11 75.0877 51.718C75.6757 51.3167 76.3477 51.116 77.1037 51.116C77.8597 51.116 78.5317 51.3167 79.1197 51.718C79.7077 52.11 80.1697 52.6793 80.5057 53.426C80.8511 54.1633 81.0237 55.0547 81.0237 56.1C81.0237 57.1453 80.8511 58.0413 80.5057 58.788C80.1697 59.5253 79.7077 60.0947 79.1197 60.496C78.5317 60.888 77.8597 61.084 77.1037 61.084ZM77.1037 60.16C77.6824 60.16 78.1864 60.006 78.6157 59.698C79.0451 59.3807 79.3811 58.9233 79.6237 58.326C79.8664 57.7193 79.9877 56.9773 79.9877 56.1C79.9877 55.2227 79.8664 54.4853 79.6237 53.888C79.3811 53.2813 79.0451 52.824 78.6157 52.516C78.1864 52.1987 77.6824 52.04 77.1037 52.04C76.5437 52.04 76.0444 52.1987 75.6057 52.516C75.1671 52.824 74.8264 53.2813 74.5837 53.888C74.3411 54.4853 74.2197 55.2227 74.2197 56.1C74.2197 56.9773 74.3411 57.7193 74.5837 58.326C74.8264 58.9233 75.1671 59.3807 75.6057 59.698C76.0444 60.006 76.5437 60.16 77.1037 60.16Z" fill="#2C2C2C"/>
<rect x="106.5" y="41.5" width="63" height="29" rx="3.5" fill="#F1F2F5" stroke="#9AC355"/>
<path d="M122.88 61V51.62L123.328 52.096H120.57V51.2H123.888V61H122.88ZM130.249 61.084C129.381 61.084 128.648 60.8927 128.051 60.51C127.454 60.118 127.001 59.558 126.693 58.83C126.385 58.0927 126.231 57.2107 126.231 56.184C126.231 55.0733 126.418 54.1447 126.791 53.398C127.174 52.642 127.701 52.0727 128.373 51.69C129.045 51.3073 129.824 51.116 130.711 51.116C131.15 51.116 131.57 51.158 131.971 51.242C132.372 51.326 132.727 51.4613 133.035 51.648L132.629 52.46C132.377 52.292 132.088 52.1753 131.761 52.11C131.434 52.0353 131.089 51.998 130.725 51.998C129.67 51.998 128.826 52.334 128.191 53.006C127.566 53.678 127.253 54.6813 127.253 56.016C127.253 56.2213 127.262 56.478 127.281 56.786C127.309 57.0847 127.365 57.3833 127.449 57.682L127.099 57.416C127.202 56.9307 127.402 56.52 127.701 56.184C128 55.8387 128.373 55.5773 128.821 55.4C129.269 55.2227 129.759 55.134 130.291 55.134C130.944 55.134 131.518 55.2553 132.013 55.498C132.508 55.7407 132.895 56.0813 133.175 56.52C133.455 56.9587 133.595 57.4767 133.595 58.074C133.595 58.6807 133.45 59.2127 133.161 59.67C132.872 60.118 132.47 60.468 131.957 60.72C131.453 60.9627 130.884 61.084 130.249 61.084ZM130.207 60.23C130.674 60.23 131.084 60.146 131.439 59.978C131.803 59.8007 132.088 59.5533 132.293 59.236C132.498 58.9093 132.601 58.5313 132.601 58.102C132.601 57.458 132.377 56.9447 131.929 56.562C131.49 56.1793 130.893 55.988 130.137 55.988C129.633 55.988 129.194 56.0813 128.821 56.268C128.448 56.4547 128.154 56.7113 127.939 57.038C127.724 57.3553 127.617 57.7193 127.617 58.13C127.617 58.4847 127.715 58.8253 127.911 59.152C128.107 59.4693 128.396 59.7307 128.779 59.936C129.171 60.132 129.647 60.23 130.207 60.23ZM135.518 55.106C135.313 55.106 135.136 55.0313 134.986 54.882C134.846 54.7327 134.776 54.5507 134.776 54.336C134.776 54.112 134.846 53.93 134.986 53.79C135.136 53.65 135.313 53.58 135.518 53.58C135.724 53.58 135.896 53.65 136.036 53.79C136.186 53.93 136.26 54.112 136.26 54.336C136.26 54.5507 136.186 54.7327 136.036 54.882C135.896 55.0313 135.724 55.106 135.518 55.106ZM135.518 61.07C135.313 61.07 135.136 60.9953 134.986 60.846C134.846 60.6967 134.776 60.5147 134.776 60.3C134.776 60.076 134.846 59.894 134.986 59.754C135.136 59.614 135.313 59.544 135.518 59.544C135.724 59.544 135.896 59.614 136.036 59.754C136.186 59.894 136.26 60.076 136.26 60.3C136.26 60.5147 136.186 60.6967 136.036 60.846C135.896 60.9953 135.724 61.07 135.518 61.07ZM141.635 61.084C140.879 61.084 140.207 60.888 139.619 60.496C139.031 60.0947 138.569 59.5253 138.233 58.788C137.897 58.0413 137.729 57.1453 137.729 56.1C137.729 55.0547 137.897 54.1633 138.233 53.426C138.569 52.6793 139.031 52.11 139.619 51.718C140.207 51.3167 140.879 51.116 141.635 51.116C142.391 51.116 143.063 51.3167 143.651 51.718C144.239 52.11 144.701 52.6793 145.037 53.426C145.382 54.1633 145.555 55.0547 145.555 56.1C145.555 57.1453 145.382 58.0413 145.037 58.788C144.701 59.5253 144.239 60.0947 143.651 60.496C143.063 60.888 142.391 61.084 141.635 61.084ZM141.635 60.16C142.214 60.16 142.718 60.006 143.147 59.698C143.576 59.3807 143.912 58.9233 144.155 58.326C144.398 57.7193 144.519 56.9773 144.519 56.1C144.519 55.2227 144.398 54.4853 144.155 53.888C143.912 53.2813 143.576 52.824 143.147 52.516C142.718 52.1987 142.214 52.04 141.635 52.04C141.075 52.04 140.576 52.1987 140.137 52.516C139.698 52.824 139.358 53.2813 139.115 53.888C138.872 54.4853 138.751 55.2227 138.751 56.1C138.751 56.9773 138.872 57.7193 139.115 58.326C139.358 58.9233 139.698 59.3807 140.137 59.698C140.576 60.006 141.075 60.16 141.635 60.16ZM150.905 61.084C150.149 61.084 149.477 60.888 148.889 60.496C148.301 60.0947 147.839 59.5253 147.503 58.788C147.167 58.0413 146.999 57.1453 146.999 56.1C146.999 55.0547 147.167 54.1633 147.503 53.426C147.839 52.6793 148.301 52.11 148.889 51.718C149.477 51.3167 150.149 51.116 150.905 51.116C151.661 51.116 152.333 51.3167 152.921 51.718C153.509 52.11 153.971 52.6793 154.307 53.426C154.652 54.1633 154.825 55.0547 154.825 56.1C154.825 57.1453 154.652 58.0413 154.307 58.788C153.971 59.5253 153.509 60.0947 152.921 60.496C152.333 60.888 151.661 61.084 150.905 61.084ZM150.905 60.16C151.483 60.16 151.987 60.006 152.417 59.698C152.846 59.3807 153.182 58.9233 153.425 58.326C153.667 57.7193 153.789 56.9773 153.789 56.1C153.789 55.2227 153.667 54.4853 153.425 53.888C153.182 53.2813 152.846 52.824 152.417 52.516C151.987 52.1987 151.483 52.04 150.905 52.04C150.345 52.04 149.845 52.1987 149.407 52.516C148.968 52.824 148.627 53.2813 148.385 53.888C148.142 54.4853 148.021 55.2227 148.021 56.1C148.021 56.9773 148.142 57.7193 148.385 58.326C148.627 58.9233 148.968 59.3807 149.407 59.698C149.845 60.006 150.345 60.16 150.905 60.16Z" fill="#2C2C2C"/>
<rect x="180" y="41" width="64" height="30" rx="4" fill="#F1F2F5"/>
<path d="M197.661 61V51.62L198.109 52.096H195.351V51.2H198.669V61H197.661ZM202.733 61L206.961 51.648L207.269 52.096H201.207L201.725 51.606V53.93H200.731V51.2H207.927V51.914L203.825 61H202.733ZM209.738 55.106C209.533 55.106 209.355 55.0313 209.206 54.882C209.066 54.7327 208.996 54.5507 208.996 54.336C208.996 54.112 209.066 53.93 209.206 53.79C209.355 53.65 209.533 53.58 209.738 53.58C209.943 53.58 210.116 53.65 210.256 53.79C210.405 53.93 210.48 54.112 210.48 54.336C210.48 54.5507 210.405 54.7327 210.256 54.882C210.116 55.0313 209.943 55.106 209.738 55.106ZM209.738 61.07C209.533 61.07 209.355 60.9953 209.206 60.846C209.066 60.6967 208.996 60.5147 208.996 60.3C208.996 60.076 209.066 59.894 209.206 59.754C209.355 59.614 209.533 59.544 209.738 59.544C209.943 59.544 210.116 59.614 210.256 59.754C210.405 59.894 210.48 60.076 210.48 60.3C210.48 60.5147 210.405 60.6967 210.256 60.846C210.116 60.9953 209.943 61.07 209.738 61.07ZM215.855 61.084C215.099 61.084 214.427 60.888 213.839 60.496C213.251 60.0947 212.789 59.5253 212.453 58.788C212.117 58.0413 211.949 57.1453 211.949 56.1C211.949 55.0547 212.117 54.1633 212.453 53.426C212.789 52.6793 213.251 52.11 213.839 51.718C214.427 51.3167 215.099 51.116 215.855 51.116C216.611 51.116 217.283 51.3167 217.871 51.718C218.459 52.11 218.921 52.6793 219.257 53.426C219.602 54.1633 219.775 55.0547 219.775 56.1C219.775 57.1453 219.602 58.0413 219.257 58.788C218.921 59.5253 218.459 60.0947 217.871 60.496C217.283 60.888 216.611 61.084 215.855 61.084ZM215.855 60.16C216.433 60.16 216.937 60.006 217.367 59.698C217.796 59.3807 218.132 58.9233 218.375 58.326C218.617 57.7193 218.739 56.9773 218.739 56.1C218.739 55.2227 218.617 54.4853 218.375 53.888C218.132 53.2813 217.796 52.824 217.367 52.516C216.937 52.1987 216.433 52.04 215.855 52.04C215.295 52.04 214.795 52.1987 214.357 52.516C213.918 52.824 213.577 53.2813 213.335 53.888C213.092 54.4853 212.971 55.2227 212.971 56.1C212.971 56.9773 213.092 57.7193 213.335 58.326C213.577 58.9233 213.918 59.3807 214.357 59.698C214.795 60.006 215.295 60.16 215.855 60.16ZM225.124 61.084C224.368 61.084 223.696 60.888 223.108 60.496C222.52 60.0947 222.058 59.5253 221.722 58.788C221.386 58.0413 221.218 57.1453 221.218 56.1C221.218 55.0547 221.386 54.1633 221.722 53.426C222.058 52.6793 222.52 52.11 223.108 51.718C223.696 51.3167 224.368 51.116 225.124 51.116C225.88 51.116 226.552 51.3167 227.14 51.718C227.728 52.11 228.19 52.6793 228.526 53.426C228.872 54.1633 229.044 55.0547 229.044 56.1C229.044 57.1453 228.872 58.0413 228.526 58.788C228.19 59.5253 227.728 60.0947 227.14 60.496C226.552 60.888 225.88 61.084 225.124 61.084ZM225.124 60.16C225.703 60.16 226.207 60.006 226.636 59.698C227.066 59.3807 227.402 58.9233 227.644 58.326C227.887 57.7193 228.008 56.9773 228.008 56.1C228.008 55.2227 227.887 54.4853 227.644 53.888C227.402 53.2813 227.066 52.824 226.636 52.516C226.207 52.1987 225.703 52.04 225.124 52.04C224.564 52.04 224.065 52.1987 223.626 52.516C223.188 52.824 222.847 53.2813 222.604 53.888C222.362 54.4853 222.24 55.2227 222.24 56.1C222.24 56.9773 222.362 57.7193 222.604 58.326C222.847 58.9233 223.188 59.3807 223.626 59.698C224.065 60.006 224.564 60.16 225.124 60.16Z" fill="#2C2C2C" fill-opacity="0.5"/>
<rect x="254.5" y="41.5" width="63" height="29" rx="3.5" fill="#F1F2F5" stroke="#9AC355"/>
<path d="M270.682 61V51.62L271.13 52.096H268.372V51.2H271.69V61H270.682ZM277.757 61.084C276.973 61.084 276.296 60.972 275.727 60.748C275.167 60.524 274.733 60.202 274.425 59.782C274.126 59.3527 273.977 58.8487 273.977 58.27C273.977 57.71 274.121 57.234 274.411 56.842C274.709 56.4407 275.139 56.1327 275.699 55.918C276.268 55.7033 276.954 55.596 277.757 55.596C278.55 55.596 279.231 55.7033 279.801 55.918C280.37 56.1327 280.804 56.4407 281.103 56.842C281.411 57.234 281.565 57.71 281.565 58.27C281.565 58.8487 281.411 59.3527 281.103 59.782C280.795 60.202 280.356 60.524 279.787 60.748C279.217 60.972 278.541 61.084 277.757 61.084ZM277.757 60.23C278.625 60.23 279.301 60.0527 279.787 59.698C280.281 59.3433 280.529 58.8627 280.529 58.256C280.529 57.6493 280.281 57.1733 279.787 56.828C279.301 56.4733 278.625 56.296 277.757 56.296C276.889 56.296 276.212 56.4733 275.727 56.828C275.241 57.1733 274.999 57.6493 274.999 58.256C274.999 58.8627 275.241 59.3433 275.727 59.698C276.212 60.0527 276.889 60.23 277.757 60.23ZM277.757 56.17C277.029 56.17 276.408 56.072 275.895 55.876C275.391 55.68 275.003 55.4 274.733 55.036C274.462 54.6627 274.327 54.2193 274.327 53.706C274.327 53.1647 274.467 52.7027 274.747 52.32C275.036 51.928 275.437 51.6293 275.951 51.424C276.464 51.2187 277.066 51.116 277.757 51.116C278.447 51.116 279.049 51.2187 279.563 51.424C280.085 51.6293 280.491 51.928 280.781 52.32C281.07 52.7027 281.215 53.1647 281.215 53.706C281.215 54.2193 281.079 54.6627 280.809 55.036C280.538 55.4 280.141 55.68 279.619 55.876C279.105 56.072 278.485 56.17 277.757 56.17ZM277.757 55.498C278.522 55.498 279.119 55.3393 279.549 55.022C279.978 54.7047 280.193 54.28 280.193 53.748C280.193 53.188 279.969 52.754 279.521 52.446C279.082 52.1287 278.494 51.97 277.757 51.97C277.019 51.97 276.431 52.1287 275.993 52.446C275.554 52.754 275.335 53.1833 275.335 53.734C275.335 54.2753 275.545 54.7047 275.965 55.022C276.394 55.3393 276.991 55.498 277.757 55.498ZM283.716 55.106C283.511 55.106 283.334 55.0313 283.184 54.882C283.044 54.7327 282.974 54.5507 282.974 54.336C282.974 54.112 283.044 53.93 283.184 53.79C283.334 53.65 283.511 53.58 283.716 53.58C283.922 53.58 284.094 53.65 284.234 53.79C284.384 53.93 284.458 54.112 284.458 54.336C284.458 54.5507 284.384 54.7327 284.234 54.882C284.094 55.0313 283.922 55.106 283.716 55.106ZM283.716 61.07C283.511 61.07 283.334 60.9953 283.184 60.846C283.044 60.6967 282.974 60.5147 282.974 60.3C282.974 60.076 283.044 59.894 283.184 59.754C283.334 59.614 283.511 59.544 283.716 59.544C283.922 59.544 284.094 59.614 284.234 59.754C284.384 59.894 284.458 60.076 284.458 60.3C284.458 60.5147 284.384 60.6967 284.234 60.846C284.094 60.9953 283.922 61.07 283.716 61.07ZM289.833 61.084C289.077 61.084 288.405 60.888 287.817 60.496C287.229 60.0947 286.767 59.5253 286.431 58.788C286.095 58.0413 285.927 57.1453 285.927 56.1C285.927 55.0547 286.095 54.1633 286.431 53.426C286.767 52.6793 287.229 52.11 287.817 51.718C288.405 51.3167 289.077 51.116 289.833 51.116C290.589 51.116 291.261 51.3167 291.849 51.718C292.437 52.11 292.899 52.6793 293.235 53.426C293.581 54.1633 293.753 55.0547 293.753 56.1C293.753 57.1453 293.581 58.0413 293.235 58.788C292.899 59.5253 292.437 60.0947 291.849 60.496C291.261 60.888 290.589 61.084 289.833 61.084ZM289.833 60.16C290.412 60.16 290.916 60.006 291.345 59.698C291.775 59.3807 292.111 58.9233 292.353 58.326C292.596 57.7193 292.717 56.9773 292.717 56.1C292.717 55.2227 292.596 54.4853 292.353 53.888C292.111 53.2813 291.775 52.824 291.345 52.516C290.916 52.1987 290.412 52.04 289.833 52.04C289.273 52.04 288.774 52.1987 288.335 52.516C287.897 52.824 287.556 53.2813 287.313 53.888C287.071 54.4853 286.949 55.2227 286.949 56.1C286.949 56.9773 287.071 57.7193 287.313 58.326C287.556 58.9233 287.897 59.3807 288.335 59.698C288.774 60.006 289.273 60.16 289.833 60.16ZM299.103 61.084C298.347 61.084 297.675 60.888 297.087 60.496C296.499 60.0947 296.037 59.5253 295.701 58.788C295.365 58.0413 295.197 57.1453 295.197 56.1C295.197 55.0547 295.365 54.1633 295.701 53.426C296.037 52.6793 296.499 52.11 297.087 51.718C297.675 51.3167 298.347 51.116 299.103 51.116C299.859 51.116 300.531 51.3167 301.119 51.718C301.707 52.11 302.169 52.6793 302.505 53.426C302.85 54.1633 303.023 55.0547 303.023 56.1C303.023 57.1453 302.85 58.0413 302.505 58.788C302.169 59.5253 301.707 60.0947 301.119 60.496C300.531 60.888 299.859 61.084 299.103 61.084ZM299.103 60.16C299.681 60.16 300.185 60.006 300.615 59.698C301.044 59.3807 301.38 58.9233 301.623 58.326C301.865 57.7193 301.987 56.9773 301.987 56.1C301.987 55.2227 301.865 54.4853 301.623 53.888C301.38 53.2813 301.044 52.824 300.615 52.516C300.185 52.1987 299.681 52.04 299.103 52.04C298.543 52.04 298.043 52.1987 297.605 52.516C297.166 52.824 296.825 53.2813 296.583 53.888C296.34 54.4853 296.219 55.2227 296.219 56.1C296.219 56.9773 296.34 57.7193 296.583 58.326C296.825 58.9233 297.166 59.3807 297.605 59.698C298.043 60.006 298.543 60.16 299.103 60.16Z" fill="#2C2C2C"/>
</svg>
