<svg width="355" height="71" viewBox="0 0 355 71" fill="none" xmlns="http://www.w3.org/2000/svg">
<rect x="32.5" y="8" width="25" height="25" rx="4" fill="#F1F2F5"/>
<path d="M59.5 8L45.75 22L39.5 15.6364" stroke="#9AC355" stroke-width="2" stroke-linecap="round" stroke-linejoin="round"/>
<path d="M69.5338 26V16.2H70.5558V24.32L76.8278 16.2H77.7658V26H76.7438V17.894L70.4718 26H69.5338ZM80.8349 26V18.65H81.8289V21.898H86.4629V18.65H87.4569V26H86.4629V22.752H81.8289V26H80.8349ZM95.3222 25.524V19.518H91.7802L91.6962 21.156C91.6775 21.6507 91.6448 22.136 91.5982 22.612C91.5608 23.088 91.4908 23.5267 91.3882 23.928C91.2948 24.32 91.1595 24.642 90.9822 24.894C90.8048 25.1367 90.5762 25.2767 90.2962 25.314L89.3022 25.132C89.5915 25.1413 89.8295 25.0387 90.0162 24.824C90.2028 24.6 90.3475 24.2967 90.4502 23.914C90.5528 23.5313 90.6275 23.0973 90.6742 22.612C90.7208 22.1173 90.7582 21.6133 90.7862 21.1L90.8842 18.65H96.3162V25.524H95.3222ZM88.9942 27.778V25.132H97.4642V27.778H96.5262V26H89.9322V27.778H88.9942ZM99.4013 26V18.65H100.395V24.488L105.309 18.65H106.191V26H105.197V20.148L100.297 26H99.4013ZM109.04 26V18.65H112.288C113.119 18.65 113.772 18.8087 114.248 19.126C114.733 19.4433 114.976 19.91 114.976 20.526C114.976 21.1233 114.747 21.5853 114.29 21.912C113.833 22.2293 113.231 22.388 112.484 22.388L112.68 22.094C113.557 22.094 114.201 22.2573 114.612 22.584C115.023 22.9107 115.228 23.382 115.228 23.998C115.228 24.6327 114.995 25.1273 114.528 25.482C114.071 25.8273 113.357 26 112.386 26H109.04ZM110.006 25.216H112.344C112.969 25.216 113.441 25.118 113.758 24.922C114.085 24.7167 114.248 24.39 114.248 23.942C114.248 23.494 114.103 23.1673 113.814 22.962C113.525 22.7567 113.067 22.654 112.442 22.654H110.006V25.216ZM110.006 21.912H112.218C112.787 21.912 113.221 21.8047 113.52 21.59C113.828 21.3753 113.982 21.0627 113.982 20.652C113.982 20.2413 113.828 19.9333 113.52 19.728C113.221 19.5227 112.787 19.42 112.218 19.42H110.006V21.912ZM117.558 26V18.65H118.552V24.488L123.466 18.65H124.348V26H123.354V20.148L118.454 26H117.558ZM132.236 25.524V19.518H128.694L128.61 21.156C128.592 21.6507 128.559 22.136 128.512 22.612C128.475 23.088 128.405 23.5267 128.302 23.928C128.209 24.32 128.074 24.642 127.896 24.894C127.719 25.1367 127.49 25.2767 127.21 25.314L126.216 25.132C126.506 25.1413 126.744 25.0387 126.93 24.824C127.117 24.6 127.262 24.2967 127.364 23.914C127.467 23.5313 127.542 23.0973 127.588 22.612C127.635 22.1173 127.672 21.6133 127.7 21.1L127.798 18.65H133.23V25.524H132.236ZM125.908 27.778V25.132H134.378V27.778H133.44V26H126.846V27.778H125.908ZM136.441 28.786C136.096 28.786 135.765 28.73 135.447 28.618C135.139 28.506 134.873 28.338 134.649 28.114L135.111 27.372C135.298 27.5493 135.499 27.6847 135.713 27.778C135.937 27.8807 136.185 27.932 136.455 27.932C136.782 27.932 137.062 27.8387 137.295 27.652C137.538 27.4747 137.767 27.1573 137.981 26.7L138.457 25.622L138.569 25.468L141.593 18.65H142.573L138.891 26.882C138.686 27.358 138.457 27.736 138.205 28.016C137.963 28.296 137.697 28.492 137.407 28.604C137.118 28.7253 136.796 28.786 136.441 28.786ZM138.401 26.21L135.013 18.65H136.049L139.045 25.398L138.401 26.21ZM148.467 26V24.376L148.425 24.11V21.394C148.425 20.7687 148.248 20.288 147.893 19.952C147.548 19.616 147.03 19.448 146.339 19.448C145.863 19.448 145.411 19.5273 144.981 19.686C144.552 19.8447 144.188 20.0547 143.889 20.316L143.441 19.574C143.815 19.2567 144.263 19.014 144.785 18.846C145.308 18.6687 145.859 18.58 146.437 18.58C147.389 18.58 148.122 18.818 148.635 19.294C149.158 19.7607 149.419 20.4747 149.419 21.436V26H148.467ZM145.933 26.07C145.383 26.07 144.902 25.9813 144.491 25.804C144.09 25.6173 143.782 25.3653 143.567 25.048C143.353 24.7213 143.245 24.348 143.245 23.928C143.245 23.5453 143.334 23.2 143.511 22.892C143.698 22.5747 143.997 22.3227 144.407 22.136C144.827 21.94 145.387 21.842 146.087 21.842H148.621V22.584H146.115C145.406 22.584 144.911 22.71 144.631 22.962C144.361 23.214 144.225 23.5267 144.225 23.9C144.225 24.32 144.389 24.656 144.715 24.908C145.042 25.16 145.499 25.286 146.087 25.286C146.647 25.286 147.128 25.16 147.529 24.908C147.94 24.6467 148.239 24.2733 148.425 23.788L148.649 24.474C148.463 24.9593 148.136 25.3467 147.669 25.636C147.212 25.9253 146.633 26.07 145.933 26.07ZM150.721 25.986L150.791 25.132C150.857 25.1413 150.917 25.1553 150.973 25.174C151.039 25.1833 151.095 25.188 151.141 25.188C151.44 25.188 151.678 25.076 151.855 24.852C152.042 24.628 152.182 24.3293 152.275 23.956C152.369 23.5827 152.434 23.1627 152.471 22.696C152.509 22.22 152.541 21.744 152.569 21.268L152.695 18.65H158.085V26H157.091V19.224L157.343 19.518H153.339L153.577 19.21L153.465 21.338C153.437 21.9727 153.386 22.5793 153.311 23.158C153.246 23.7367 153.139 24.2453 152.989 24.684C152.849 25.1227 152.653 25.468 152.401 25.72C152.149 25.9627 151.827 26.084 151.435 26.084C151.323 26.084 151.207 26.0747 151.085 26.056C150.973 26.0373 150.852 26.014 150.721 25.986ZM164.075 21.24C164.999 21.2493 165.699 21.4547 166.175 21.856C166.66 22.2573 166.903 22.836 166.903 23.592C166.903 24.376 166.642 24.978 166.119 25.398C165.606 25.818 164.859 26.0233 163.879 26.014L160.911 26V18.65H161.905V21.212L164.075 21.24ZM163.823 25.258C164.504 25.2673 165.018 25.132 165.363 24.852C165.718 24.5627 165.895 24.1427 165.895 23.592C165.895 23.0413 165.722 22.64 165.377 22.388C165.032 22.1267 164.514 21.9913 163.823 21.982L161.905 21.954V25.23L163.823 25.258ZM168.8 26V18.65H169.794V21.898H174.428V18.65H175.422V26H174.428V22.752H169.794V26H168.8ZM182.811 26V24.376L182.769 24.11V21.394C182.769 20.7687 182.592 20.288 182.237 19.952C181.892 19.616 181.374 19.448 180.683 19.448C180.207 19.448 179.754 19.5273 179.325 19.686C178.896 19.8447 178.532 20.0547 178.233 20.316L177.785 19.574C178.158 19.2567 178.606 19.014 179.129 18.846C179.652 18.6687 180.202 18.58 180.781 18.58C181.733 18.58 182.466 18.818 182.979 19.294C183.502 19.7607 183.763 20.4747 183.763 21.436V26H182.811ZM180.277 26.07C179.726 26.07 179.246 25.9813 178.835 25.804C178.434 25.6173 178.126 25.3653 177.911 25.048C177.696 24.7213 177.589 24.348 177.589 23.928C177.589 23.5453 177.678 23.2 177.855 22.892C178.042 22.5747 178.34 22.3227 178.751 22.136C179.171 21.94 179.731 21.842 180.431 21.842H182.965V22.584H180.459C179.75 22.584 179.255 22.71 178.975 22.962C178.704 23.214 178.569 23.5267 178.569 23.9C178.569 24.32 178.732 24.656 179.059 24.908C179.386 25.16 179.843 25.286 180.431 25.286C180.991 25.286 181.472 25.16 181.873 24.908C182.284 24.6467 182.582 24.2733 182.769 23.788L182.993 24.474C182.806 24.9593 182.48 25.3467 182.013 25.636C181.556 25.9253 180.977 26.07 180.277 26.07ZM191.155 26V23.354L191.337 23.564H188.845C187.902 23.564 187.165 23.3587 186.633 22.948C186.101 22.5373 185.835 21.94 185.835 21.156C185.835 20.316 186.12 19.6907 186.689 19.28C187.258 18.86 188.019 18.65 188.971 18.65H192.065V26H191.155ZM185.779 26L187.795 23.172H188.831L186.857 26H185.779ZM191.155 23.06V19.224L191.337 19.518H188.999C188.318 19.518 187.786 19.6487 187.403 19.91C187.03 20.1713 186.843 20.596 186.843 21.184C186.843 22.276 187.538 22.822 188.929 22.822H191.337L191.155 23.06ZM203.953 26L200.929 22.36L201.755 21.87L205.129 26H203.953ZM198.563 26V18.65H199.557V26H198.563ZM199.249 22.724V21.87H201.615V22.724H199.249ZM201.839 22.43L200.915 22.29L203.841 18.65H204.919L201.839 22.43ZM209.462 26.07C208.753 26.07 208.114 25.9113 207.544 25.594C206.984 25.2673 206.541 24.824 206.214 24.264C205.888 23.6947 205.724 23.046 205.724 22.318C205.724 21.5807 205.888 20.932 206.214 20.372C206.541 19.812 206.984 19.3733 207.544 19.056C208.104 18.7387 208.744 18.58 209.462 18.58C210.19 18.58 210.834 18.7387 211.394 19.056C211.964 19.3733 212.407 19.812 212.724 20.372C213.051 20.932 213.214 21.5807 213.214 22.318C213.214 23.046 213.051 23.6947 212.724 24.264C212.407 24.824 211.964 25.2673 211.394 25.594C210.825 25.9113 210.181 26.07 209.462 26.07ZM209.462 25.188C209.994 25.188 210.466 25.0713 210.876 24.838C211.287 24.5953 211.609 24.2593 211.842 23.83C212.085 23.3913 212.206 22.8873 212.206 22.318C212.206 21.7393 212.085 21.2353 211.842 20.806C211.609 20.3767 211.287 20.0453 210.876 19.812C210.466 19.5693 209.999 19.448 209.476 19.448C208.954 19.448 208.487 19.5693 208.076 19.812C207.666 20.0453 207.339 20.3767 207.096 20.806C206.854 21.2353 206.732 21.7393 206.732 22.318C206.732 22.8873 206.854 23.3913 207.096 23.83C207.339 24.2593 207.666 24.5953 208.076 24.838C208.487 25.0713 208.949 25.188 209.462 25.188ZM215.339 26V18.65H216.333V21.898H220.967V18.65H221.961V26H220.967V22.752H216.333V26H215.339ZM227.866 26.07C227.138 26.07 226.485 25.9113 225.906 25.594C225.337 25.2673 224.889 24.824 224.562 24.264C224.235 23.6947 224.072 23.046 224.072 22.318C224.072 21.5807 224.235 20.932 224.562 20.372C224.889 19.812 225.337 19.3733 225.906 19.056C226.485 18.7387 227.138 18.58 227.866 18.58C228.491 18.58 229.056 18.7013 229.56 18.944C230.064 19.1867 230.461 19.5507 230.75 20.036L230.008 20.54C229.756 20.1667 229.443 19.8913 229.07 19.714C228.697 19.5367 228.291 19.448 227.852 19.448C227.329 19.448 226.858 19.5693 226.438 19.812C226.018 20.0453 225.687 20.3767 225.444 20.806C225.201 21.2353 225.08 21.7393 225.08 22.318C225.08 22.8967 225.201 23.4007 225.444 23.83C225.687 24.2593 226.018 24.5953 226.438 24.838C226.858 25.0713 227.329 25.188 227.852 25.188C228.291 25.188 228.697 25.0993 229.07 24.922C229.443 24.7447 229.756 24.474 230.008 24.11L230.75 24.614C230.461 25.09 230.064 25.454 229.56 25.706C229.056 25.9487 228.491 26.07 227.866 26.07ZM232.691 28.786C232.346 28.786 232.015 28.73 231.697 28.618C231.389 28.506 231.123 28.338 230.899 28.114L231.361 27.372C231.548 27.5493 231.749 27.6847 231.963 27.778C232.187 27.8807 232.435 27.932 232.705 27.932C233.032 27.932 233.312 27.8387 233.545 27.652C233.788 27.4747 234.017 27.1573 234.231 26.7L234.707 25.622L234.819 25.468L237.843 18.65H238.823L235.141 26.882C234.936 27.358 234.707 27.736 234.455 28.016C234.213 28.296 233.947 28.492 233.657 28.604C233.368 28.7253 233.046 28.786 232.691 28.786ZM234.651 26.21L231.263 18.65H232.299L235.295 25.398L234.651 26.21ZM238.714 25.986L238.784 25.132C238.849 25.1413 238.91 25.1553 238.966 25.174C239.031 25.1833 239.087 25.188 239.134 25.188C239.432 25.188 239.67 25.076 239.848 24.852C240.034 24.628 240.174 24.3293 240.268 23.956C240.361 23.5827 240.426 23.1627 240.464 22.696C240.501 22.22 240.534 21.744 240.562 21.268L240.688 18.65H246.078V26H245.084V19.224L245.336 19.518H241.332L241.57 19.21L241.458 21.338C241.43 21.9727 241.378 22.5793 241.304 23.158C241.238 23.7367 241.131 24.2453 240.982 24.684C240.842 25.1227 240.646 25.468 240.394 25.72C240.142 25.9627 239.82 26.084 239.428 26.084C239.316 26.084 239.199 26.0747 239.078 26.056C238.966 26.0373 238.844 26.014 238.714 25.986ZM252.067 21.24C252.991 21.2493 253.691 21.4547 254.167 21.856C254.653 22.2573 254.895 22.836 254.895 23.592C254.895 24.376 254.634 24.978 254.111 25.398C253.598 25.818 252.851 26.0233 251.871 26.014L248.903 26V18.65H249.897V21.212L252.067 21.24ZM251.815 25.258C252.497 25.2673 253.01 25.132 253.355 24.852C253.71 24.5627 253.887 24.1427 253.887 23.592C253.887 23.0413 253.715 22.64 253.369 22.388C253.024 22.1267 252.506 21.9913 251.815 21.982L249.897 21.954V25.23L251.815 25.258ZM257.454 26V19.252L257.706 19.518H254.668V18.65H261.234V19.518H258.196L258.448 19.252V26H257.454ZM267.235 26V24.376L267.193 24.11V21.394C267.193 20.7687 267.016 20.288 266.661 19.952C266.316 19.616 265.798 19.448 265.107 19.448C264.631 19.448 264.178 19.5273 263.749 19.686C263.32 19.8447 262.956 20.0547 262.657 20.316L262.209 19.574C262.582 19.2567 263.03 19.014 263.553 18.846C264.076 18.6687 264.626 18.58 265.205 18.58C266.157 18.58 266.89 18.818 267.403 19.294C267.926 19.7607 268.187 20.4747 268.187 21.436V26H267.235ZM264.701 26.07C264.15 26.07 263.67 25.9813 263.259 25.804C262.858 25.6173 262.55 25.3653 262.335 25.048C262.12 24.7213 262.013 24.348 262.013 23.928C262.013 23.5453 262.102 23.2 262.279 22.892C262.466 22.5747 262.764 22.3227 263.175 22.136C263.595 21.94 264.155 21.842 264.855 21.842H267.389V22.584H264.883C264.174 22.584 263.679 22.71 263.399 22.962C263.128 23.214 262.993 23.5267 262.993 23.9C262.993 24.32 263.156 24.656 263.483 24.908C263.81 25.16 264.267 25.286 264.855 25.286C265.415 25.286 265.896 25.16 266.297 24.908C266.708 24.6467 267.006 24.2733 267.193 23.788L267.417 24.474C267.23 24.9593 266.904 25.3467 266.437 25.636C265.98 25.9253 265.401 26.07 264.701 26.07ZM270.833 26V18.65H271.827V25.132H276.321V18.65H277.315V26H270.833ZM277.567 27.778V25.916L277.819 26H276.321V25.132H278.505V27.778H277.567ZM280.403 26V18.65H281.397V24.488L286.311 18.65H287.193V26H286.199V20.148L281.299 26H280.403ZM294.788 26V23.354L294.97 23.564H292.478C291.535 23.564 290.798 23.3587 290.266 22.948C289.734 22.5373 289.468 21.94 289.468 21.156C289.468 20.316 289.753 19.6907 290.322 19.28C290.891 18.86 291.652 18.65 292.604 18.65H295.698V26H294.788ZM289.412 26L291.428 23.172H292.464L290.49 26H289.412ZM294.788 23.06V19.224L294.97 19.518H292.632C291.951 19.518 291.419 19.6487 291.036 19.91C290.663 20.1713 290.476 20.596 290.476 21.184C290.476 22.276 291.171 22.822 292.562 22.822H294.97L294.788 23.06Z" fill="black"/>
<rect x="102.5" y="45" width="25" height="25" rx="4" fill="#F1F2F5"/>
<path d="M129.5 45L115.75 59L109.5 52.6364" stroke="#9AC355" stroke-width="2" stroke-linecap="round" stroke-linejoin="round"/>
<path d="M139.531 63V53.2H145.761V54.096H140.273L140.539 53.83L140.553 63H139.531ZM149.417 63.07C148.782 63.07 148.208 62.9253 147.695 62.636C147.182 62.3373 146.771 61.9127 146.463 61.362C146.164 60.802 146.015 60.1207 146.015 59.318C146.015 58.5153 146.164 57.8387 146.463 57.288C146.762 56.728 147.168 56.3033 147.681 56.014C148.194 55.7247 148.773 55.58 149.417 55.58C150.117 55.58 150.742 55.7387 151.293 56.056C151.853 56.364 152.292 56.8027 152.609 57.372C152.926 57.932 153.085 58.5807 153.085 59.318C153.085 60.0647 152.926 60.718 152.609 61.278C152.292 61.838 151.853 62.2767 151.293 62.594C150.742 62.9113 150.117 63.07 149.417 63.07ZM145.623 65.716V55.65H146.575V57.862L146.477 59.332L146.617 60.816V65.716H145.623ZM149.347 62.188C149.87 62.188 150.336 62.0713 150.747 61.838C151.158 61.5953 151.484 61.2593 151.727 60.83C151.97 60.3913 152.091 59.8873 152.091 59.318C152.091 58.7487 151.97 58.2493 151.727 57.82C151.484 57.3907 151.158 57.0547 150.747 56.812C150.336 56.5693 149.87 56.448 149.347 56.448C148.824 56.448 148.353 56.5693 147.933 56.812C147.522 57.0547 147.196 57.3907 146.953 57.82C146.72 58.2493 146.603 58.7487 146.603 59.318C146.603 59.8873 146.72 60.3913 146.953 60.83C147.196 61.2593 147.522 61.5953 147.933 61.838C148.353 62.0713 148.824 62.188 149.347 62.188ZM155.142 65.786C154.796 65.786 154.465 65.73 154.148 65.618C153.84 65.506 153.574 65.338 153.35 65.114L153.812 64.372C153.998 64.5493 154.199 64.6847 154.414 64.778C154.638 64.8807 154.885 64.932 155.156 64.932C155.482 64.932 155.762 64.8387 155.996 64.652C156.238 64.4747 156.467 64.1573 156.682 63.7L157.158 62.622L157.27 62.468L160.294 55.65H161.274L157.592 63.882C157.386 64.358 157.158 64.736 156.906 65.016C156.663 65.296 156.397 65.492 156.108 65.604C155.818 65.7253 155.496 65.786 155.142 65.786ZM157.102 63.21L153.714 55.65H154.75L157.746 62.398L157.102 63.21ZM162.822 63V55.65H169.43V63H168.436V56.252L168.688 56.518H163.564L163.816 56.252V63H162.822ZM172.256 63V55.65H178.864V63H177.87V56.252L178.122 56.518H172.998L173.25 56.252V63H172.256ZM184.713 63.07C184.004 63.07 183.365 62.9113 182.795 62.594C182.235 62.2673 181.792 61.824 181.465 61.264C181.139 60.6947 180.975 60.046 180.975 59.318C180.975 58.5807 181.139 57.932 181.465 57.372C181.792 56.812 182.235 56.3733 182.795 56.056C183.355 55.7387 183.995 55.58 184.713 55.58C185.441 55.58 186.085 55.7387 186.645 56.056C187.215 56.3733 187.658 56.812 187.975 57.372C188.302 57.932 188.465 58.5807 188.465 59.318C188.465 60.046 188.302 60.6947 187.975 61.264C187.658 61.824 187.215 62.2673 186.645 62.594C186.076 62.9113 185.432 63.07 184.713 63.07ZM184.713 62.188C185.245 62.188 185.717 62.0713 186.127 61.838C186.538 61.5953 186.86 61.2593 187.093 60.83C187.336 60.3913 187.457 59.8873 187.457 59.318C187.457 58.7393 187.336 58.2353 187.093 57.806C186.86 57.3767 186.538 57.0453 186.127 56.812C185.717 56.5693 185.25 56.448 184.727 56.448C184.205 56.448 183.738 56.5693 183.327 56.812C182.917 57.0453 182.59 57.3767 182.347 57.806C182.105 58.2353 181.983 58.7393 181.983 59.318C181.983 59.8873 182.105 60.3913 182.347 60.83C182.59 61.2593 182.917 61.5953 183.327 61.838C183.738 62.0713 184.2 62.188 184.713 62.188ZM190.59 63V55.65H193.838C194.668 55.65 195.322 55.8087 195.798 56.126C196.283 56.4433 196.526 56.91 196.526 57.526C196.526 58.1233 196.297 58.5853 195.84 58.912C195.382 59.2293 194.78 59.388 194.034 59.388L194.23 59.094C195.107 59.094 195.751 59.2573 196.162 59.584C196.572 59.9107 196.778 60.382 196.778 60.998C196.778 61.6327 196.544 62.1273 196.078 62.482C195.62 62.8273 194.906 63 193.936 63H190.59ZM191.556 62.216H193.894C194.519 62.216 194.99 62.118 195.308 61.922C195.634 61.7167 195.798 61.39 195.798 60.942C195.798 60.494 195.653 60.1673 195.364 59.962C195.074 59.7567 194.617 59.654 193.992 59.654H191.556V62.216ZM191.556 58.912H193.768C194.337 58.912 194.771 58.8047 195.07 58.59C195.378 58.3753 195.532 58.0627 195.532 57.652C195.532 57.2413 195.378 56.9333 195.07 56.728C194.771 56.5227 194.337 56.42 193.768 56.42H191.556V58.912ZM206.275 63V55.65H207.269V63H206.275ZM202.201 58.24C203.125 58.2493 203.83 58.4547 204.315 58.856C204.801 59.2573 205.043 59.836 205.043 60.592C205.043 61.376 204.782 61.978 204.259 62.398C203.737 62.818 202.99 63.0233 202.019 63.014L199.107 63V55.65H200.101V58.212L202.201 58.24ZM201.949 62.258C202.64 62.2673 203.158 62.132 203.503 61.852C203.858 61.5627 204.035 61.1427 204.035 60.592C204.035 60.0413 203.863 59.64 203.517 59.388C203.172 59.1267 202.649 58.9913 201.949 58.982L200.101 58.954V62.23L201.949 62.258ZM213.25 63.07C212.484 63.07 211.812 62.9113 211.234 62.594C210.655 62.2673 210.202 61.824 209.876 61.264C209.549 60.6947 209.386 60.046 209.386 59.318C209.386 58.59 209.54 57.946 209.848 57.386C210.165 56.826 210.594 56.3873 211.136 56.07C211.686 55.7433 212.302 55.58 212.984 55.58C213.674 55.58 214.286 55.7387 214.818 56.056C215.359 56.364 215.784 56.8027 216.092 57.372C216.4 57.932 216.554 58.5807 216.554 59.318C216.554 59.3647 216.549 59.416 216.54 59.472C216.54 59.5187 216.54 59.57 216.54 59.626H210.142V58.884H216.008L215.616 59.178C215.616 58.646 215.499 58.1747 215.266 57.764C215.042 57.344 214.734 57.0173 214.342 56.784C213.95 56.5507 213.497 56.434 212.984 56.434C212.48 56.434 212.027 56.5507 211.626 56.784C211.224 57.0173 210.912 57.344 210.688 57.764C210.464 58.184 210.352 58.6647 210.352 59.206V59.36C210.352 59.92 210.473 60.4147 210.716 60.844C210.968 61.264 211.313 61.5953 211.752 61.838C212.2 62.0713 212.708 62.188 213.278 62.188C213.726 62.188 214.141 62.1087 214.524 61.95C214.916 61.7913 215.252 61.5487 215.532 61.222L216.092 61.866C215.765 62.258 215.354 62.5567 214.86 62.762C214.374 62.9673 213.838 63.07 213.25 63.07ZM227.808 63L224.784 59.36L225.61 58.87L228.984 63H227.808ZM222.418 63V55.65H223.412V63H222.418ZM223.104 59.724V58.87H225.47V59.724H223.104ZM225.694 59.43L224.77 59.29L227.696 55.65H228.774L225.694 59.43ZM233.317 63.07C232.608 63.07 231.968 62.9113 231.399 62.594C230.839 62.2673 230.396 61.824 230.069 61.264C229.742 60.6947 229.579 60.046 229.579 59.318C229.579 58.5807 229.742 57.932 230.069 57.372C230.396 56.812 230.839 56.3733 231.399 56.056C231.959 55.7387 232.598 55.58 233.317 55.58C234.045 55.58 234.689 55.7387 235.249 56.056C235.818 56.3733 236.262 56.812 236.579 57.372C236.906 57.932 237.069 58.5807 237.069 59.318C237.069 60.046 236.906 60.6947 236.579 61.264C236.262 61.824 235.818 62.2673 235.249 62.594C234.68 62.9113 234.036 63.07 233.317 63.07ZM233.317 62.188C233.849 62.188 234.32 62.0713 234.731 61.838C235.142 61.5953 235.464 61.2593 235.697 60.83C235.94 60.3913 236.061 59.8873 236.061 59.318C236.061 58.7393 235.94 58.2353 235.697 57.806C235.464 57.3767 235.142 57.0453 234.731 56.812C234.32 56.5693 233.854 56.448 233.331 56.448C232.808 56.448 232.342 56.5693 231.931 56.812C231.52 57.0453 231.194 57.3767 230.951 57.806C230.708 58.2353 230.587 58.7393 230.587 59.318C230.587 59.8873 230.708 60.3913 230.951 60.83C231.194 61.2593 231.52 61.5953 231.931 61.838C232.342 62.0713 232.804 62.188 233.317 62.188ZM239.193 63V55.65H240.187V58.898H244.821V55.65H245.815V63H244.821V59.752H240.187V63H239.193ZM251.721 63.07C250.993 63.07 250.339 62.9113 249.761 62.594C249.191 62.2673 248.743 61.824 248.417 61.264C248.09 60.6947 247.927 60.046 247.927 59.318C247.927 58.5807 248.09 57.932 248.417 57.372C248.743 56.812 249.191 56.3733 249.761 56.056C250.339 55.7387 250.993 55.58 251.721 55.58C252.346 55.58 252.911 55.7013 253.415 55.944C253.919 56.1867 254.315 56.5507 254.605 57.036L253.863 57.54C253.611 57.1667 253.298 56.8913 252.925 56.714C252.551 56.5367 252.145 56.448 251.707 56.448C251.184 56.448 250.713 56.5693 250.293 56.812C249.873 57.0453 249.541 57.3767 249.299 57.806C249.056 58.2353 248.935 58.7393 248.935 59.318C248.935 59.8967 249.056 60.4007 249.299 60.83C249.541 61.2593 249.873 61.5953 250.293 61.838C250.713 62.0713 251.184 62.188 251.707 62.188C252.145 62.188 252.551 62.0993 252.925 61.922C253.298 61.7447 253.611 61.474 253.863 61.11L254.605 61.614C254.315 62.09 253.919 62.454 253.415 62.706C252.911 62.9487 252.346 63.07 251.721 63.07ZM256.546 65.786C256.201 65.786 255.869 65.73 255.552 65.618C255.244 65.506 254.978 65.338 254.754 65.114L255.216 64.372C255.403 64.5493 255.603 64.6847 255.818 64.778C256.042 64.8807 256.289 64.932 256.56 64.932C256.887 64.932 257.167 64.8387 257.4 64.652C257.643 64.4747 257.871 64.1573 258.086 63.7L258.562 62.622L258.674 62.468L261.698 55.65H262.678L258.996 63.882C258.791 64.358 258.562 64.736 258.31 65.016C258.067 65.296 257.801 65.492 257.512 65.604C257.223 65.7253 256.901 65.786 256.546 65.786ZM258.506 63.21L255.118 55.65H256.154L259.15 62.398L258.506 63.21ZM262.568 62.986L262.638 62.132C262.703 62.1413 262.764 62.1553 262.82 62.174C262.885 62.1833 262.941 62.188 262.988 62.188C263.287 62.188 263.525 62.076 263.702 61.852C263.889 61.628 264.029 61.3293 264.122 60.956C264.215 60.5827 264.281 60.1627 264.318 59.696C264.355 59.22 264.388 58.744 264.416 58.268L264.542 55.65H269.932V63H268.938V56.224L269.19 56.518H265.186L265.424 56.21L265.312 58.338C265.284 58.9727 265.233 59.5793 265.158 60.158C265.093 60.7367 264.985 61.2453 264.836 61.684C264.696 62.1227 264.5 62.468 264.248 62.72C263.996 62.9627 263.674 63.084 263.282 63.084C263.17 63.084 263.053 63.0747 262.932 63.056C262.82 63.0373 262.699 63.014 262.568 62.986ZM275.922 58.24C276.846 58.2493 277.546 58.4547 278.022 58.856C278.507 59.2573 278.75 59.836 278.75 60.592C278.75 61.376 278.488 61.978 277.966 62.398C277.452 62.818 276.706 63.0233 275.726 63.014L272.758 63V55.65H273.752V58.212L275.922 58.24ZM275.67 62.258C276.351 62.2673 276.864 62.132 277.21 61.852C277.564 61.5627 277.742 61.1427 277.742 60.592C277.742 60.0413 277.569 59.64 277.224 59.388C276.878 59.1267 276.36 58.9913 275.67 58.982L273.752 58.954V62.23L275.67 62.258ZM281.308 63V56.252L281.56 56.518H278.522V55.65H285.088V56.518H282.05L282.302 56.252V63H281.308ZM291.089 63V61.376L291.047 61.11V58.394C291.047 57.7687 290.87 57.288 290.515 56.952C290.17 56.616 289.652 56.448 288.961 56.448C288.485 56.448 288.033 56.5273 287.603 56.686C287.174 56.8447 286.81 57.0547 286.511 57.316L286.063 56.574C286.437 56.2567 286.885 56.014 287.407 55.846C287.93 55.6687 288.481 55.58 289.059 55.58C290.011 55.58 290.744 55.818 291.257 56.294C291.78 56.7607 292.041 57.4747 292.041 58.436V63H291.089ZM288.555 63.07C288.005 63.07 287.524 62.9813 287.113 62.804C286.712 62.6173 286.404 62.3653 286.189 62.048C285.975 61.7213 285.867 61.348 285.867 60.928C285.867 60.5453 285.956 60.2 286.133 59.892C286.32 59.5747 286.619 59.3227 287.029 59.136C287.449 58.94 288.009 58.842 288.709 58.842H291.243V59.584H288.737C288.028 59.584 287.533 59.71 287.253 59.962C286.983 60.214 286.847 60.5267 286.847 60.9C286.847 61.32 287.011 61.656 287.337 61.908C287.664 62.16 288.121 62.286 288.709 62.286C289.269 62.286 289.75 62.16 290.151 61.908C290.562 61.6467 290.861 61.2733 291.047 60.788L291.271 61.474C291.085 61.9593 290.758 62.3467 290.291 62.636C289.834 62.9253 289.255 63.07 288.555 63.07ZM294.687 63V55.65H295.681V62.132H300.175V55.65H301.169V63H294.687ZM301.421 64.778V62.916L301.673 63H300.175V62.132H302.359V64.778H301.421ZM304.258 63V55.65H305.252V61.488L310.166 55.65H311.048V63H310.054V57.148L305.154 63H304.258ZM313.896 63V55.65H314.89V61.488L319.804 55.65H320.686V63H319.692V57.148L314.792 63H313.896Z" fill="black"/>
</svg>
