<svg width="50" height="50" viewBox="0 0 50 50" fill="none" xmlns="http://www.w3.org/2000/svg">
<path d="M48.9912 17.6667C48.912 16.2725 47.284 15.1831 44.028 14.352C44.1376 14.1076 44.1992 13.8533 44.2 13.5893V7.88889H44.1864C43.9 3.14015 24.7944 3 22.6 3C20.4056 3 1.3 3.14015 1.0136 7.88889H1V7.99481V13.5918C1.004 15.1399 2.9656 16.3516 5.884 17.2536C5.844 17.3888 5.82 17.5265 5.812 17.6667H5.8V17.7726V23.3598C2.656 24.1844 1.0856 25.2583 1.008 26.6296H1V26.7356V32.3325C1.0024 33.4105 1.9568 34.3247 3.5184 35.0866C3.4592 35.252 3.4224 35.4207 3.412 35.5934H3.4V35.6993V41.2963C3.4064 44.0064 9.3976 45.689 16.0544 46.4744C16.1032 46.4842 16.148 46.5046 16.2 46.5046C16.2152 46.5046 16.228 46.4964 16.2432 46.4956C17.5264 46.6431 18.8304 46.758 20.1208 46.8403C20.148 46.8436 20.172 46.8566 20.2 46.8566C20.2152 46.8566 20.2272 46.8484 20.2416 46.8476C21.88 46.9487 23.492 47 25 47C26.508 47 28.12 46.9487 29.7584 46.8468C29.7728 46.8476 29.7856 46.8558 29.8 46.8558C29.828 46.8558 29.852 46.8419 29.8792 46.8395C31.1696 46.7572 32.4736 46.6431 33.7568 46.4948C33.772 46.4948 33.7848 46.503 33.8 46.503C33.852 46.503 33.8968 46.4826 33.9456 46.4728C40.6024 45.6873 46.5928 44.0039 46.6 41.293V35.5926H46.5872C46.5312 34.5936 45.6952 33.7601 44.044 33.0634C44.1448 32.8279 44.2 32.5835 44.2 32.3301V27.0044C47.072 26.1049 48.996 24.9014 49 23.3671V17.6667H48.9912ZM42.5136 32.5949L42.2408 32.8385C41.8208 33.2158 41.1208 33.5963 40.2 33.963V30.0779C41.1512 29.7406 41.9608 29.3666 42.6 28.9567V32.3284C42.6 32.4124 42.5696 32.502 42.5136 32.5949ZM24.6208 36.3813C24.504 36.3846 24.3864 36.3862 24.2688 36.3887C23.9832 36.3944 23.6904 36.396 23.4008 36.3984V32.3284C23.6208 32.326 23.8408 32.3227 24.0608 32.3187C24.1032 32.3179 24.1456 32.317 24.188 32.3162C24.9936 32.3007 25.7992 32.2755 26.6008 32.238V36.3064C26.4296 36.3153 26.2576 36.3235 26.084 36.3308C25.6024 36.3528 25.116 36.3691 24.6208 36.3813ZM21.1272 36.3927C20.7608 36.3862 20.396 36.3773 20.0336 36.3659C19.9888 36.3642 19.944 36.3626 19.8992 36.361C19.4632 36.3463 19.0304 36.3276 18.6008 36.3064V32.2388C19.4024 32.2771 20.208 32.3024 21.0136 32.317C21.056 32.3179 21.0984 32.3187 21.14 32.3195C21.36 32.3236 21.58 32.3268 21.8 32.3293V36.4017C21.6448 36.4001 21.4896 36.4001 21.3352 36.3976C21.2648 36.396 21.1968 36.3936 21.1272 36.3927ZM6.6776 34.535C6.6512 34.5268 6.6264 34.5195 6.6 34.5121V30.5758C7.3472 30.7811 8.1504 30.9685 9 31.1388V35.1159C8.2656 34.957 7.588 34.79 6.9712 34.6189C6.8736 34.5904 6.7728 34.5635 6.6776 34.535ZM23.54 41.2824C23.76 41.2865 23.98 41.2898 24.2 41.2922V45.3655C23.0944 45.3549 22.0272 45.3223 21 45.271V41.2026C21.8016 41.2409 22.6072 41.2661 23.4128 41.2808C23.4552 41.2808 23.4976 41.2816 23.54 41.2824ZM26.5872 41.28C27.3928 41.2645 28.1984 41.2393 29 41.2018V45.2701C27.9728 45.3215 26.9056 45.3541 25.8 45.3647V41.2914C26.02 41.289 26.24 41.2857 26.46 41.2816C26.5024 41.2816 26.5448 41.2808 26.5872 41.28ZM33 40.9117V44.9581C32.2312 45.0404 31.4312 45.1129 30.6 45.1724V41.1089C31.4112 41.0551 32.2128 40.9891 33 40.9117ZM34.6 40.7357C35.4248 40.6347 36.2256 40.5198 37 40.3918V44.3926C36.2464 44.5279 35.4456 44.6525 34.6 44.7658V40.7357ZM38.6 40.101C39.4496 39.9307 40.2528 39.7433 41 39.5379V43.4743C40.2872 43.6837 39.4848 43.8866 38.6 44.0781V40.101ZM11.4 40.101V44.0781C10.5152 43.8866 9.7128 43.6837 9 43.4743V39.5379C9.7472 39.7433 10.5504 39.9315 11.4 40.101ZM13 40.3927C13.7744 40.5206 14.5752 40.6355 15.4 40.7365V44.7666C14.5544 44.6533 13.7536 44.5287 13 44.3934V40.3927ZM17 40.9117C17.7872 40.9891 18.5888 41.0551 19.4 41.1097V45.1732C18.5688 45.1137 17.7688 45.0412 17 44.9589V40.9117ZM15.0152 36.0391C14.9336 36.031 14.8528 36.022 14.772 36.0139C14.7144 36.0081 14.6576 36.0008 14.6 35.9951V31.9496C15.3872 32.027 16.1888 32.093 17 32.1476V36.2078C16.328 36.1589 15.664 36.1035 15.0152 36.0391ZM13 31.7727V35.8028C12.1544 35.6896 11.3536 35.5649 10.6 35.4296V31.4289C11.3744 31.5568 12.1752 31.6725 13 31.7727ZM28.7328 36.1695C28.5568 36.1833 28.3792 36.1972 28.2 36.2102V32.1467C29.0112 32.0921 29.8128 32.027 30.6 31.9487V35.9951C30.1056 36.0481 29.6 36.0978 29.0808 36.141C28.9648 36.1516 28.8488 36.1605 28.7328 36.1695ZM32.2 35.8028V31.7727C33.0248 31.6717 33.8256 31.5568 34.6 31.4289V35.4296C33.8464 35.5649 33.0456 35.6904 32.2 35.8028ZM36.2 31.138C37.0496 30.9677 37.8528 30.7803 38.6 30.575V34.5113C37.8872 34.7207 37.0848 34.9236 36.2 35.1151V31.138ZM25.26 27.4159C24.6584 27.4004 24.0704 27.3768 23.4928 27.3483C23.4616 27.3467 23.4304 27.345 23.4 27.3442V23.2759C24.2016 23.3141 25.0072 23.3394 25.8128 23.3541C25.8552 23.3549 25.8976 23.3557 25.9392 23.3565C26.1592 23.3606 26.3792 23.3639 26.5992 23.3663V27.4347C26.2096 27.4306 25.8168 27.429 25.4368 27.42C25.3784 27.4184 25.3184 27.4176 25.26 27.4159ZM6.6 15.7714V11.835C7.3472 12.0404 8.1504 12.2278 9 12.3981V16.3752C8.9016 16.354 8.8 16.3328 8.704 16.3116C8.2784 16.2163 7.8632 16.1169 7.4664 16.0118C7.164 15.9327 6.8768 15.8521 6.6 15.7714ZM21.14 13.5787C21.36 13.5828 21.58 13.5861 21.8 13.5885V17.6569C20.7232 17.6463 19.6528 17.6178 18.6 17.564V13.4989C19.4016 13.5372 20.2072 13.5624 21.0128 13.5771C21.0552 13.5771 21.0976 13.5779 21.14 13.5787ZM24.1872 13.5763C24.9928 13.5608 25.7984 13.5356 26.6 13.4981V17.5632C26.464 17.5697 26.3336 17.5795 26.1968 17.586C26.1856 17.5868 26.1744 17.5868 26.1624 17.5876C25.6256 17.6121 25.0784 17.63 24.524 17.643C24.4376 17.6455 24.3512 17.6463 24.2648 17.6487C23.98 17.6544 23.6888 17.6553 23.4 17.6585V13.5885C23.62 13.5861 23.84 13.5828 24.06 13.5787C24.1024 13.5779 24.1448 13.5771 24.1872 13.5763ZM42.4168 13.9853L42.3944 13.9804L42.1032 14.211C41.6808 14.5459 41.032 14.8849 40.2 15.2124V11.3364C41.1512 10.999 41.9608 10.625 42.6 10.2152V13.5869C42.6 13.7107 42.536 13.8444 42.4168 13.9853ZM32.2 17.0572V13.032C33.0248 12.931 33.8256 12.8161 34.6 12.6881V16.6824C33.8416 16.8193 33.0432 16.9447 32.2 17.0572ZM36.2 16.3687V12.3981C37.0496 12.2278 37.8528 12.0404 38.6 11.835V15.7624C37.8832 15.9751 37.076 16.178 36.2 16.3687ZM30.6 13.208V17.2495C29.8272 17.3326 29.0272 17.4051 28.2 17.4654V13.406C29.0112 13.3514 29.8128 13.2854 30.6 13.208ZM14.6 17.2511V13.208C15.3872 13.2854 16.1888 13.3514 17 13.406V17.4621C16.1856 17.4027 15.3824 17.335 14.6 17.2511ZM13 13.032V17.058C12.8416 17.0368 12.6768 17.0197 12.52 16.9977C12.4176 16.983 12.32 16.9676 12.2192 16.9529C11.7568 16.8853 11.3048 16.8127 10.8616 16.737C10.7728 16.7215 10.6872 16.7052 10.6 16.6897V12.689C11.3744 12.8161 12.1752 12.9318 13 13.032ZM21.6016 27.2318C21.4936 27.2236 21.3848 27.2155 21.2776 27.2073C20.7656 27.1666 20.2656 27.1218 19.7776 27.0721C19.6728 27.0615 19.568 27.0501 19.464 27.0395C19.4424 27.037 19.4216 27.0338 19.4 27.0321V22.9858C20.1872 23.0632 20.9888 23.1292 21.8 23.1838V27.2448C21.7352 27.2399 21.6664 27.2367 21.6016 27.2318ZM16.316 26.6231C15.9992 26.5718 15.7016 26.5164 15.4 26.4626V22.4667C16.1744 22.5947 16.9752 22.7096 17.8 22.8106V26.8407C17.3104 26.7747 16.8312 26.7062 16.3712 26.6329C16.3528 26.6288 16.3344 26.6256 16.316 26.6231ZM13.8 22.175V26.1456C12.916 25.9525 12.1144 25.7472 11.4 25.5337V21.612C12.1472 21.8173 12.9504 22.0056 13.8 22.175ZM9.8 21.1141V24.9853C8.5424 24.4907 7.7312 23.9856 7.4672 23.5358L7.4136 23.4445C7.4088 23.4193 7.4008 23.3924 7.4 23.3671V19.993C8.0392 20.4028 8.8488 20.7768 9.8 21.1141ZM28.9872 23.3541C29.7928 23.3386 30.5984 23.3133 31.4 23.2759V27.3401C30.3488 27.3931 29.28 27.4224 28.2 27.4339V23.3663C28.42 23.3639 28.64 23.3606 28.86 23.3565C28.9024 23.3557 28.9448 23.3549 28.9872 23.3541ZM39.3256 26.4805C38.9744 26.5424 38.62 26.6036 38.256 26.6598C38.0472 26.6924 37.8336 26.7233 37.6192 26.7543C37.4168 26.7836 37.2064 26.8089 37.0008 26.8358V22.8098C37.8256 22.7087 38.6264 22.5939 39.4008 22.4659V26.4667C39.3752 26.4716 39.3504 26.4764 39.3256 26.4805ZM33.9088 27.1764C33.6104 27.2016 33.3024 27.2179 33 27.2399V23.1838C33.8112 23.1292 34.6128 23.064 35.4 22.9858V27.0281C34.9352 27.0778 34.4712 27.1275 33.9936 27.1682C33.9648 27.1707 33.9376 27.1739 33.9088 27.1764ZM43.0512 25.6486C42.6528 25.7619 42.2312 25.8678 41.8008 25.9713C41.6016 26.0185 41.3984 26.0658 41.1904 26.1114C41.1288 26.1253 41.0632 26.1375 41.0008 26.1513V22.1759C41.8504 22.0056 42.6536 21.8181 43.4008 21.6128V25.5492C43.2856 25.5818 43.1696 25.6152 43.0512 25.6486ZM47.3912 17.7196C47.3176 18.2729 46.0864 19.0087 43.8888 19.7004C41.0584 20.591 36.6296 21.4067 31.0168 21.6593C30.7296 21.6715 30.4432 21.6837 30.1504 21.6935C29.9112 21.7016 29.6712 21.709 29.4272 21.7155C28.7648 21.7301 28.0928 21.7407 27.4 21.7407C26.7072 21.7407 26.0352 21.7301 25.3728 21.7147C25.1296 21.709 24.8896 21.7008 24.6496 21.6927C24.356 21.6837 24.0696 21.6707 23.7832 21.6584C18.1704 21.4059 13.7408 20.5902 10.9112 19.6996C8.7312 19.0136 7.5024 18.2835 7.4112 17.7327C7.4152 17.7172 7.4152 17.7041 7.4248 17.6846C7.4792 17.6984 7.54 17.7099 7.5952 17.7237C7.908 17.7995 8.2288 17.8728 8.5552 17.9429C10.1448 18.2916 11.9064 18.5776 13.7832 18.796C13.7896 18.796 13.7944 18.7993 13.8 18.7993C13.8016 18.7993 13.804 18.7984 13.804 18.7984C15.0824 18.9467 16.4088 19.0633 17.7704 19.1456C17.7808 19.1456 17.7896 19.1513 17.8 19.1513C17.8056 19.1513 17.8096 19.148 17.8152 19.148C18.7952 19.2067 19.788 19.2499 20.7928 19.2727C21.408 19.2881 22.012 19.2963 22.6 19.2963C23.02 19.2963 23.4504 19.2914 23.8848 19.2833C29.6976 19.192 35.0848 18.488 38.8336 17.397C39.0064 17.3473 39.1752 17.2959 39.3416 17.2446C39.4432 17.2128 39.5472 17.1819 39.6456 17.1501C39.9352 17.0556 40.2128 16.9586 40.4808 16.8576C40.5272 16.8396 40.5712 16.8217 40.6176 16.8038C40.844 16.7166 41.0616 16.6261 41.2696 16.5341C41.3296 16.5072 41.3912 16.4811 41.4496 16.4542C41.6712 16.3524 41.8856 16.2481 42.084 16.1397C42.1736 16.0916 42.2512 16.0419 42.3352 15.993C42.4312 15.9368 42.5272 15.8798 42.616 15.8219C42.6664 15.7893 42.7264 15.7584 42.7744 15.7258C46.356 16.517 47.3 17.3823 47.3912 17.7196ZM22.6 4.62963C35.7912 4.62963 42.4632 6.74489 42.588 7.95896C42.4912 8.50978 41.2632 9.23741 39.0888 9.92185C36.2584 10.8124 31.8296 11.6281 26.2168 11.8807C25.9296 11.8929 25.6432 11.9051 25.3504 11.9149C25.1112 11.923 24.8712 11.9304 24.6272 11.9369C23.9648 11.9524 23.2928 11.963 22.6 11.963C21.9072 11.963 21.2352 11.9524 20.5728 11.9369C20.3296 11.9312 20.0896 11.923 19.8496 11.9149C19.556 11.9059 19.2696 11.8929 18.9832 11.8807C13.3704 11.6281 8.9408 10.8124 6.1112 9.92185C3.936 9.23741 2.7088 8.50978 2.612 7.95896C2.7368 6.74489 9.4088 4.62963 22.6 4.62963ZM2.6 13.5893V10.2152C3.2392 10.625 4.0488 10.999 5 11.3364V15.2377C3.444 14.6437 2.6016 14.0481 2.6 13.5893ZM6.4752 24.8656C6.4872 24.8786 6.5056 24.89 6.5176 24.903C7.6128 26.0291 9.8808 26.914 12.704 27.574C12.7688 27.5895 12.8376 27.6041 12.9032 27.6196C13.1104 27.6669 13.3208 27.7133 13.5336 27.7581C16.1264 28.3204 19.2216 28.727 22.5936 28.9282C22.596 28.9282 22.5976 28.929 22.5992 28.929C22.6008 28.929 22.6024 28.9282 22.6024 28.9282C23.6856 28.9926 24.7936 29.0374 25.9248 29.057C26.4256 29.0676 26.9184 29.0741 27.4 29.0741C27.952 29.0741 28.5184 29.0676 29.0944 29.0537C30.1408 29.0317 31.172 28.9877 32.1888 28.9274C32.1928 28.9274 32.196 28.9299 32.2 28.9299C32.2072 28.9299 32.2128 28.9258 32.22 28.9258C35.6008 28.7229 38.7728 28.3122 41.4552 27.7215C40.8744 28.0311 40.0792 28.3513 39.0888 28.6634C36.1008 29.6037 31.3288 30.4601 25.264 30.6589C25.084 30.6646 24.9064 30.6711 24.724 30.676C24.528 30.6809 24.3288 30.6841 24.1296 30.6882C23.6264 30.6964 23.12 30.7037 22.6 30.7037C21.9072 30.7037 21.2352 30.6931 20.5728 30.6776C20.3296 30.6719 20.0896 30.6638 19.8496 30.6556C19.556 30.6467 19.2696 30.6336 18.9832 30.6214C13.3704 30.3688 8.9408 29.5532 6.1112 28.6626C3.9112 27.97 2.68 27.2334 2.6088 26.6801C2.6976 26.3738 3.5064 25.607 6.4752 24.8656ZM2.6 32.3301V28.9559C3.2392 29.3658 4.0488 29.7398 5 30.0771V33.963L4.5432 33.7821L4.5336 33.7919C3.2776 33.2614 2.6016 32.7407 2.6 32.3301ZM5 41.293V37.9189C5.6392 38.3287 6.4488 38.7027 7.4 39.0401V42.9414C5.844 42.3474 5.0016 41.7518 5 41.293ZM42.6 42.9414V39.0409C43.5512 38.7036 44.3608 38.3296 45 37.9197V41.2914C44.9992 41.7501 44.156 42.3466 42.6 42.9414ZM44.9896 35.6553C44.9024 36.207 43.6736 36.9387 41.4888 37.6264C38.6584 38.517 34.2296 39.3326 28.6168 39.5852C28.3296 39.5974 28.0432 39.6096 27.7504 39.6194C27.5112 39.6276 27.2712 39.6349 27.0272 39.6414C26.3648 39.6561 25.6928 39.6667 25 39.6667C24.3072 39.6667 23.6344 39.6561 22.9712 39.6406C22.7304 39.6349 22.4928 39.6267 22.2552 39.6186C21.96 39.6088 21.672 39.5966 21.3832 39.5844C15.7704 39.3318 11.3416 38.5161 8.5112 37.6256C6.3952 36.9599 5.1728 36.2526 5.0192 35.7067C5.2576 35.7914 5.5048 35.8737 5.7584 35.9544C5.784 35.9625 5.8096 35.9707 5.8352 35.978C6.0512 36.0456 6.272 36.1108 6.4984 36.1744C6.584 36.1988 6.6704 36.2233 6.7576 36.2469C6.8856 36.2819 7.0168 36.3153 7.148 36.3496C10.0616 37.1098 13.7808 37.6484 17.796 37.8904C17.7976 37.8904 17.7984 37.8912 17.8 37.8912L17.8024 37.8904C19.0424 37.9653 20.3088 38.0118 21.5888 38.0273C21.9296 38.0338 22.268 38.037 22.6 38.037C23.0408 38.037 23.492 38.0313 23.9488 38.0232C25.116 38.0036 26.268 37.9596 27.3944 37.8912C27.3968 37.8912 27.3984 37.8928 27.4008 37.8928C27.4048 37.8928 27.4072 37.8904 27.4112 37.8904C28.7832 37.8064 30.1112 37.6867 31.3872 37.5376C31.392 37.5376 31.396 37.54 31.4008 37.54C31.4184 37.54 31.4328 37.531 31.4504 37.5294C32.8712 37.3624 34.2184 37.157 35.4688 36.9183C35.7264 36.8702 35.98 36.8205 36.2312 36.7692C36.2872 36.7578 36.3432 36.7464 36.3992 36.7341C38.7616 36.2404 40.8064 35.6007 42.2096 34.8079C42.2864 34.7656 42.3584 34.7216 42.4312 34.6784C42.52 34.6246 42.6048 34.57 42.6872 34.5146C42.764 34.4641 42.8528 34.4152 42.9232 34.3639C44.5024 34.9375 44.9376 35.4508 44.9896 35.6553ZM45 25.0155V21.115C45.9512 20.7776 46.7608 20.4036 47.4 19.9938V23.3655C47.3992 23.8242 46.556 24.4207 45 25.0155Z" fill="#9AC355"/>
</svg>
