<svg width="100" height="100" viewBox="0 0 100 100" fill="none" xmlns="http://www.w3.org/2000/svg">
<path d="M11 96.9546C14.7525 90.5242 21.7355 75.9748 19.6477 69.2204C17.0381 60.7773 8.85086 39.1324 13.405 26.0841C17.9591 13.0357 30.4958 1.93179 46.6655 1.47126C62.8353 1.01073 81.2183 13.5464 82.1264 32.3268C83.0344 51.1073 79.5065 47.6676 83.5591 52.3343C88.625 58.1677 90.2624 62.1078 88.0109 63.4382C85.7594 64.7686 81.6658 63.7452 80.5913 65.485C79.5167 67.2248 82.5357 69.988 82.2287 71.4719C81.9217 72.9558 76.2418 73.007 72.5064 71.4719C75.2014 72.6147 80.5913 75.3301 80.5913 77.0494C80.5913 79.1986 76.4977 78.4822 75.5254 79.6079C74.5532 80.7337 75.8325 86.7206 71.8924 89.6884C67.9523 92.6563 60.6349 86.6182 57.3601 87.1299C54.0852 87.6416 47.6378 90.9677 45.4886 98.5408" stroke="#9AC355" stroke-width="2" stroke-linecap="round" stroke-linejoin="round"/>
<path d="M12.1758 33.5035H27.8338V28.6935C24.4566 26.9537 24.0984 18.2036 31.0575 18.2036C38.7842 18.2036 36.328 27.8748 33.8207 28.6935C33.704 28.7316 33.8719 31.9001 33.8207 33.5035H60.0198V37.1365C55.9262 38.3135 54.9602 47.9846 62.5783 47.9846C70.0491 47.9846 68.821 38.3647 64.8809 37.1365V33.5035L81.9989 33.5" stroke="#9AC355" stroke-width="2" stroke-linecap="round" stroke-linejoin="round"/>
<path d="M46.5634 2.13672L46.5634 14.6734L51.3734 14.6734C53.1132 11.2962 61.8633 10.938 61.8633 17.8971C61.8633 25.6238 52.1921 23.1676 51.3734 20.6603C51.3353 20.5435 48.1668 20.7114 46.5634 20.6603L46.5634 46.8593L42.9304 46.8593C41.7534 42.7657 32.0823 41.7998 32.0823 49.4178C32.0823 56.8887 41.7022 55.6606 42.9304 51.7205L46.5634 51.7205L46.5634 65.7411" stroke="#9AC355" stroke-width="2" stroke-linecap="round" stroke-linejoin="round"/>
<path d="M60.1119 36.6272L60.3555 34.7275C60.4321 34.1296 59.9664 33.6003 59.3636 33.6003H46.6523V20.755H51C57.2705 25.833 62.6715 22.3073 62 17C61.34 11.7832 54 10 51 14.5L46.6523 14.812V1.45898C69.6441 1.45898 82.7061 19.5 82 33.6003H65.5C64.9477 33.6003 64.5 34.048 64.5 34.6003V36.6263C64.5 37.1319 64.8893 37.5429 65.3499 37.7514C68.8241 39.3245 69.4681 47.4893 62.5537 47.4893C55.6542 47.4893 55.7591 38.9131 59.1371 37.6537C59.6086 37.4779 60.0479 37.1262 60.1119 36.6272Z" fill="#9AC355"/>
</svg>
