<svg width="100" height="100" viewBox="0 0 100 100" fill="none" xmlns="http://www.w3.org/2000/svg">
<path d="M50 1.7998C69.3184 1.79981 84.9999 17.6572 85 37.2441C85 56.8312 69.3184 72.6885 50 72.6885C30.6816 72.6885 15 56.8312 15 37.2441C15.0001 17.6572 30.6816 1.7998 50 1.7998Z" stroke="#9AC355" stroke-width="2"/>
<path d="M82.756 89.6385L70.9984 66.3999L63.1884 70.4636C63.1419 70.4878 63.0936 70.5082 63.044 70.5249L55.3984 73.0814L67.1882 97.5204C67.5349 98.2391 68.5423 98.2822 68.9492 97.5958L73.0665 90.6489C73.2683 90.3084 73.6519 90.119 74.045 90.1658L81.7454 91.0829C82.538 91.1773 83.1163 90.3507 82.756 89.6385Z" fill="#9AC355" stroke="#9AC355" stroke-width="2" stroke-linecap="round"/>
<path d="M65.4375 72.292L72.6375 86.2624" stroke="white" stroke-width="2" stroke-linecap="round"/>
<path d="M19.0152 89.6501L30.1983 67.0078C34.3983 69.6198 40.9784 72.14 45.8984 72.96L34.5957 97.4711C34.2583 98.2029 33.2382 98.2554 32.8274 97.5622L28.7303 90.6494C28.5285 90.3089 28.1448 90.1195 27.7518 90.1663L20.0301 91.086C19.2418 91.1798 18.6637 90.3619 19.0152 89.6501Z" fill="#9AC355" stroke="#9AC355" stroke-width="2" stroke-linecap="round"/>
<path d="M35.7578 72.8989L29.1578 86.2619" stroke="white" stroke-width="2" stroke-linecap="round"/>
<path d="M33.8008 26.311H38.0008M42.2008 26.311H38.0008M45.8008 26.311H50.0008M54.2008 26.311H50.0008M57.8008 26.311H62.0008M66.2008 26.311H62.0008M38.0008 26.311V34.8147C38.2008 36.232 39.4408 39.0666 42.8008 39.0666C46.1608 39.0666 54.2008 39.0666 57.8008 39.0666C59.2008 39.0666 62.0008 38.2162 62.0008 34.8147C62.0008 31.4133 62.0008 27.7283 62.0008 26.311M50.0008 26.311V51.2147M45.8008 51.2147H54.2008" stroke="#9AC355" stroke-width="2" stroke-linecap="round"/>
<path d="M59.6017 11.1259C59.0017 9.70864 56.8417 7.48148 53.0017 9.91111C48.2017 12.9481 46.4017 9.30343 44.0017 9.30343C41.6017 9.30343 41.0017 13.5553 38.6017 14.7701C36.2017 15.9849 32.0017 14.1627 30.2017 15.9849C28.4017 17.8071 29.6017 22.059 28.4017 23.8812C27.2017 25.7034 23.0017 26.3108 22.4017 29.3479C21.8017 32.3849 25.4017 34.2071 24.8017 37.2442C24.2017 40.2812 21.2017 42.1034 22.4017 45.1405C23.6017 48.1775 27.2017 48.1775 28.4017 50.6071C29.6017 53.0368 28.4017 57.2886 30.2017 58.5034C31.6417 59.4753 32.8017 59.7183 33.2017 59.7183M38.0017 59.7183C38.8017 61.338 40.7617 64.699 42.2017 65.1849C44.0017 65.7923 47.6017 62.7553 49.4017 62.7553C51.2017 62.7553 54.8017 66.3997 56.6017 65.7923C58.4017 65.1849 60.2017 60.9331 62.0017 59.7183C63.8017 58.5034 69.2017 59.7183 70.4017 58.5034C71.6017 57.2886 70.4017 53.0368 72.2017 50.6071C74.0017 48.1775 77.0017 47.5701 77.6017 45.1405C78.2017 42.7108 75.2017 39.6738 75.2017 37.2442C75.2017 34.8145 78.8017 32.3849 77.6017 29.3479C76.4017 26.3108 72.8017 26.9182 71.6017 25.096C70.4017 23.2738 72.2017 17.1997 70.4017 15.9849C68.6017 14.7701 64.4017 15.3775 63.2017 14.7701" stroke="#9AC355" stroke-width="2" stroke-linecap="round"/>
</svg>
