<svg width="590" height="374" viewBox="0 0 590 374" fill="none" xmlns="http://www.w3.org/2000/svg">
<g opacity="0.8">
<path d="M243.56 295.863C202.981 294.521 161.48 315.871 122.393 321.841C102.414 324.894 79.2827 325.095 61.7168 313.087C40.4801 298.563 39.4745 271.494 39.8767 248.064C40.3125 222.069 39.3404 196.845 24.3222 174.589C16.5785 163.118 4.51035 153.508 1.51006 139.386C-0.451016 130.162 3.00181 120.418 8.7342 112.921C17.1652 101.886 29.602 95.6804 39.8097 86.6406C49.7324 77.8525 54.61 68.0243 58.7836 55.5465C64.5159 38.423 74.556 27.7732 91.4179 21.115C118.555 10.3981 141.367 20.159 167.029 29.0814C213.843 45.3495 259.216 24.9893 304.035 11.7902C335.932 2.38154 370.913 -4.15936 401.587 9.17382C417.309 15.9997 430.986 27.9241 440.289 42.8841C448.099 55.4291 456.245 71.6637 458.458 86.087C460.67 100.477 467.677 113.626 479.426 122.481C496.456 135.328 526.811 137.34 546.237 144.887C567.273 153.072 578.235 170.665 575.218 194.514C572.988 212.207 552.171 221.985 537.94 229.281C513.905 241.607 489.165 252.257 465.716 265.674C444.01 278.085 424.466 294.001 404.537 308.995C384.708 323.921 358.393 334.386 333.234 329.321C311.897 325.028 295.169 310.252 275.34 302.336C264.847 298.143 254.237 296.232 243.56 295.879V295.863Z" fill="#E6ECF9"/>
<path d="M531.855 118.892H556.478" stroke="#98B3EC" stroke-width="1.5" stroke-linejoin="round"/>
<path d="M561.621 118.892H572.6" stroke="#98B3EC" stroke-width="1.5" stroke-linejoin="round"/>
<path d="M91.2812 114.782H131.542" stroke="#98B3EC" stroke-width="1.5" stroke-linejoin="round"/>
<path d="M54.3422 267.871C54.3422 269.817 52.7668 271.376 50.8392 271.376C48.9117 271.376 47.3359 269.8 47.3359 267.871C47.3359 265.943 48.9117 264.366 50.8392 264.366C52.7668 264.366 54.3422 265.943 54.3422 267.871Z" stroke="#98B3EC" stroke-width="1.5" stroke-linejoin="round"/>
<path d="M141.987 31.0939C141.987 33.0393 140.411 34.5991 138.484 34.5991C136.556 34.5991 134.98 33.0226 134.98 31.0939C134.98 29.1652 136.556 27.5885 138.484 27.5885C140.411 27.5885 141.987 29.1652 141.987 31.0939Z" stroke="#98B3EC" stroke-width="1.5" stroke-linejoin="round"/>
<path d="M520.292 31.1108C523.911 31.1108 526.846 28.1748 526.846 24.5532C526.846 20.9316 523.911 17.9956 520.292 17.9956C516.673 17.9956 513.738 20.9316 513.738 24.5532C513.738 28.1748 516.673 31.1108 520.292 31.1108Z" stroke="#98B3EC" stroke-width="1.5" stroke-linejoin="round"/>
<path d="M571.968 288.869C575.588 288.869 578.521 285.932 578.521 282.311C578.521 278.689 575.588 275.754 571.968 275.754C568.349 275.754 565.414 278.689 565.414 282.311C565.414 285.932 568.349 288.869 571.968 288.869Z" stroke="#98B3EC" stroke-width="1.5" stroke-linejoin="round"/>
<path d="M372.305 20.7461V30.6076L380.602 25.2909L372.305 20.7461Z" stroke="#98B3EC" stroke-width="1.5" stroke-linejoin="round"/>
<path d="M326.193 248.702V258.563L317.879 253.247L326.193 248.702Z" stroke="#98B3EC" stroke-width="1.5" stroke-linejoin="round"/>
<path d="M106.888 127.026L110.71 136.116L100.988 134.439L106.888 127.026Z" stroke="#98B3EC" stroke-width="1.5" stroke-linejoin="round"/>
<path d="M32.5487 313.976L23.6484 318.202L32.0124 323.435L32.5487 313.976Z" stroke="#98B3EC" stroke-width="1.5" stroke-linejoin="round"/>
</g>
<g opacity="0.8">
<path d="M475.438 372.105L461.509 245.649C460.856 242.496 458.09 240.232 454.872 240.232H405.342C400.029 240.232 395.503 244.073 394.648 249.305L374.367 372.088" stroke="#BE8271" stroke-width="3" stroke-miterlimit="10"/>
<path d="M396.39 261.28H438.779L462.245 161.776C463.62 155.939 468.833 151.814 474.816 151.814H532.827C537.521 151.814 540.99 156.191 539.917 160.769L514.323 269.246C513.116 274.345 508.574 277.951 503.327 277.951H384.992L387.674 267.955C388.73 264.014 392.3 261.28 396.373 261.28H396.39Z" fill="#FFD189"/>
<path d="M438.797 261.28H498.903C500.931 261.28 502.691 259.888 503.16 257.909L526.073 160.786C527.146 156.208 523.676 151.83 518.983 151.83H478.773" stroke="#FCA64F" stroke-miterlimit="10"/>
<path d="M309.548 372.323C319.019 372.172 334.02 372.524 347.295 372.323C348.401 372.323 352.34 368.465 352.34 368.465L358.995 364.675L357.033 372.323C357.033 372.323 368.18 372.356 371.415 372.323C371.8 363.753 372.219 357.48 371.079 350.386L335.696 352.382C335.696 352.382 329.696 356.508 326.93 358.386C317.879 364.558 307.085 367.224 309.532 372.323H309.548Z" fill="#652A29"/>
<path d="M343.405 329.757C340.975 338.747 336.198 347.753 333.6 351.661C331.002 355.568 326.945 358.369 326.945 358.369C326.945 358.369 353.663 356.793 371.279 351.56C370.743 347.283 373.911 338.613 376.442 330.697" fill="#FF9877"/>
<path d="M327.869 372.323C337.339 372.172 352.34 372.524 365.615 372.323C366.722 372.323 370.661 368.465 370.661 368.465L377.315 364.675L375.354 372.323C375.354 372.323 386.5 372.356 389.735 372.323C390.121 363.753 390.54 357.48 389.4 350.386L354.017 352.382C354.017 352.382 348.016 356.508 345.25 358.386C336.199 364.558 325.405 367.224 327.852 372.323H327.869Z" fill="#7F3733"/>
<path d="M361.725 329.757C359.295 338.747 354.518 347.753 351.92 351.661C349.322 355.568 345.266 358.369 345.266 358.369C345.266 358.369 371.983 356.793 389.599 351.56C389.063 347.283 392.231 338.613 394.762 330.697" fill="#FFAC84"/>
<path d="M433.667 200.165L424.733 208.081C424.733 208.081 396.826 210.782 387.942 212.442C382.159 213.515 357.788 213.918 352.525 240.232C347.262 266.563 338.094 342 338.094 342H384.791C384.791 342 396.993 257.188 396.541 258.06C396.289 258.53 422.001 257.188 445.467 255.88C468.581 254.572 485.292 233.306 481.152 210.513C480.264 205.666 479.09 200.903 477.515 196.509" fill="#7D5348"/>
<path d="M340.859 320.365H393.624" stroke="#A07A6E" stroke-miterlimit="10"/>
<path d="M484.937 185.44L488.256 200.266L491.759 210.111C491.759 210.111 497.659 227.989 496.067 240.92C494.022 257.574 484.015 261.297 475.299 261.297H418.746L405.907 347.87H352.539C352.539 347.87 369.2 255.746 370.96 249.004C372.72 242.278 381.452 221.297 402.588 218.882C415.277 217.44 426.155 216.383 433.48 215.729C439.346 215.209 444.123 210.815 445.162 205.012L445.799 201.474" fill="#7D5348"/>
<path d="M353.582 342.017C353.582 342.017 369.187 255.729 370.93 249.004C372.69 242.278 381.423 221.297 402.559 218.882C415.247 217.44 426.125 216.383 433.45 215.729C439.316 215.209 444.093 210.815 445.133 205.012L445.77 201.474" stroke="#A07A6E" stroke-miterlimit="10"/>
<path d="M418.012 261.263C416.017 261.599 414.09 262.337 412.363 263.41" stroke="#A07A6E" stroke-miterlimit="10"/>
<path d="M374.984 253.8C377.046 263.259 380.164 272.5 384.253 281.271" stroke="#A07A6E" stroke-miterlimit="10"/>
<path d="M384.289 259.502C386.954 263.259 389.468 267.117 391.832 271.075" stroke="#A07A6E" stroke-miterlimit="10"/>
<path d="M355.875 329.439H408.623" stroke="#A07A6E" stroke-miterlimit="10"/>
<path d="M475.556 226.111C475.556 226.111 467.88 221.784 465.667 219.167C463.455 216.551 458.996 208.937 458.996 208.937" stroke="#A07A6E" stroke-miterlimit="10"/>
<path d="M463.098 233.289C465.779 232.886 468.512 232.484 470.942 231.377C475.099 229.499 476.624 226.06 476.339 221.968C475.769 214.002 474.73 208.316 474.73 208.316L473.389 198.019" stroke="#A07A6E" stroke-miterlimit="10"/>
<path d="M491.759 210.111L431.988 207.964" stroke="#A07A6E" stroke-miterlimit="10"/>
<path d="M388.714 165.298L385.663 173.969L356.716 163.805L346.324 181.231C346.324 181.231 377.35 202.178 389.099 206.321C400.665 210.413 408.341 208.367 411.073 200.702C415.046 189.566 421.264 174.656 421.264 174.656" fill="#FF9877"/>
<path d="M409.396 128.971C409.396 128.971 402.574 129.525 397.73 133.919C393.02 138.179 392.232 142.64 390.858 148.51C389.484 154.396 385.059 170.614 385.059 170.614C385.059 170.614 423.291 185.826 422.956 185.424C422.621 185.021 424.716 151.814 424.716 151.814" fill="white"/>
<path d="M387.586 161.239L422.031 174.673L422.969 174.556" stroke="#2C2C2C" stroke-linejoin="round"/>
<path d="M438.812 121.089C438.812 121.089 448.869 122.615 457.249 128.133C465.613 133.65 473.424 145.877 479.123 161.457C484.822 177.038 486.196 185.642 487.52 187.956C490.135 192.518 491.945 194.463 491.761 197.482C491.459 202.48 489.264 203.1 489.264 203.1H429.275C429.275 203.1 426.14 201.256 425.135 197.264C424.129 193.273 422.956 190.069 421.246 187.755C419.52 185.44 413.418 182.79 410.083 174.656C407.787 169.088 406.898 162.866 406.11 156.929C405.205 150.187 404.552 141.818 406.278 135.16C406.915 132.711 409.412 128.988 409.412 128.988" fill="white"/>
<path d="M416.132 183.646C416.132 183.646 409.712 174.925 409.092 171.889C407.651 164.778 406.31 157.65 404.852 150.539" stroke="#2C2C2C" stroke-linejoin="round"/>
<path d="M411.055 134.505C414.692 137.491 422.654 136.971 426.81 135.881C434.386 133.902 440.638 129.223 443.924 121.692" stroke="#2C2C2C" stroke-linejoin="round"/>
<path d="M480.363 182.203C481.989 183.897 483.783 185.44 485.727 186.765" stroke="#2C2C2C" stroke-linejoin="round"/>
<path d="M385.676 173.969C386.179 173.935 396.034 178.681 398.934 181.365" stroke="#2C2C2C" stroke-linejoin="round"/>
<path d="M365.095 171.017C362.664 167.78 360.754 164.375 357.921 161.591C353.362 157.13 344.462 155.772 340.02 151.143C339.316 150.405 338.645 149.566 337.791 149.08C337.405 148.862 336.869 148.745 336.601 149.097C336.483 149.265 336.45 149.499 336.433 149.717C336.332 151.562 337.137 153.407 338.277 154.816C339.416 156.225 340.405 157.264 340.355 157.851C340.221 159.512 336.299 158.908 335.343 158.858C329.795 158.556 326.896 157.097 321.348 156.644C320.61 156.577 318.381 157.164 318.85 158.489C318.901 158.64 319.018 158.774 319.118 158.874C319.789 159.545 320.962 159.78 321.784 160.115C323.108 160.652 326.879 161.508 326.879 161.508C326.879 161.508 321.75 161.843 317.66 161.927C316.923 161.927 313.989 162.833 314.023 164.225C314.04 164.979 315.012 165.348 315.012 165.348C315.012 165.348 315.347 165.113 314.61 165.499C313.587 166.036 313.084 166.925 312.984 167.26C312.414 169.088 314.844 169.306 315.917 169.424C320.107 169.893 326.946 170.715 326.946 170.715C326.946 170.715 320.241 170.682 318.482 172.476C317.979 172.996 317.912 173.767 318.632 174.22C318.934 174.405 319.286 174.455 319.638 174.505C325.169 175.227 328.203 175.797 333.6 177.625C339.115 179.503 351.099 184.484 356.463 186.799" fill="#FF9877"/>
<path d="M326.211 161.407C328.256 161.407 333.703 161.105 333.703 161.105" stroke="#2C2C2C" stroke-linejoin="round"/>
<path d="M315.633 165.13C320.292 165.23 331.841 164.526 331.841 164.526" stroke="#2C2C2C" stroke-linejoin="round"/>
<path d="M323.562 170.782C327.887 170.749 332.295 171.235 336.603 170.983C341.028 170.715 345.704 169.323 350.012 171.017" stroke="#2C2C2C" stroke-linejoin="round"/>
<path d="M359.812 164.56C360.718 165.969 362.059 167.092 363.617 167.747" stroke="#2C2C2C" stroke-linejoin="round"/>
<path d="M408.895 120.216L411.744 127.646L408.895 128.988C408.895 128.988 414.862 135.042 426.092 131.504C437.322 127.965 438.83 121.843 438.83 121.843C438.83 121.843 438.663 123.068 434.422 116.946C432.193 113.726 427.818 105.189 427.818 105.189" fill="#FFAC84"/>
<path d="M400.863 74.4309C392.599 77.5336 387.538 90.8668 387.353 99.135C387.269 102.657 387.822 106.296 386.699 109.634C385.995 111.697 384.705 113.491 383.8 115.47C382.895 117.449 382.375 119.613 382.375 121.793C382.375 127.361 385.627 132.426 386.347 137.961C387.269 145.139 383.867 152.485 385.459 159.528C385.962 161.726 386.984 163.872 388.728 165.298C390.471 166.723 393.002 167.293 395.03 166.354C397.041 165.432 398.214 163.285 398.768 161.138C399.321 158.992 399.354 156.761 399.857 154.598C400.93 149.818 404.282 145.608 408.674 143.462C409.445 143.093 410.249 142.774 410.92 142.22C412.227 141.147 412.73 139.386 412.931 137.726C413.786 130.732 410.517 123.671 411.64 116.728" fill="#241C1F"/>
<path d="M396.536 112.686C397.509 116.543 400.559 121.072 403.861 122.799C411.739 126.908 420.908 121.105 425.819 114.95C428.567 111.495 430.411 107.353 431.35 103.043C432.406 98.1956 432.071 93.1309 431.165 88.284C429.892 81.4581 425.852 74.9508 418.527 73.7936C414.957 73.2233 411.32 73.9443 407.934 75.0177C404.398 76.1414 400.945 77.7851 398.146 80.2841C394.793 83.2861 392.38 86.4559 392.547 90.85C392.849 98.766 394.877 105.961 396.553 112.686H396.536Z" fill="#FFAC84"/>
<path d="M404.282 99.3866C404.768 101.332 404.617 103.479 403.696 105.374C403.092 106.632 401.902 108.309 403.042 109.533C403.746 110.288 404.886 110.69 405.891 110.959" stroke="#2C2C2C" stroke-linejoin="round"/>
<path d="M405.894 113.491C406.129 113.273 406.414 113.122 406.716 113.005C408.291 112.368 410.219 112.703 411.493 113.827C411.811 114.095 412.079 114.43 412.23 114.816C412.733 116.208 411.023 116.678 410.001 116.829C408.425 117.064 406.833 116.963 405.777 115.571C405.475 115.168 405.308 114.632 405.459 114.145C405.542 113.894 405.693 113.676 405.894 113.491Z" fill="white"/>
<path d="M425.352 115.856C422.084 120.602 416.77 123.806 411.055 124.577" stroke="#2C2C2C" stroke-linejoin="round"/>
<path d="M417.96 98.5648C415.429 95.8814 411.121 96.0155 408.473 93.3824" stroke="#2C2C2C" stroke-linejoin="round"/>
<path d="M399.438 95.6969C398.667 96.5019 397.628 97.4242 396.555 97.8099C395.499 98.1789 394.527 98.3298 393.605 99.1013" stroke="#2C2C2C" stroke-linejoin="round"/>
<path d="M410.954 102.556C411.155 103.63 411.926 104.368 412.697 104.233C413.451 104.083 413.904 103.11 413.703 102.036C413.502 100.963 412.731 100.225 411.96 100.359C411.205 100.51 410.753 101.483 410.954 102.556Z" fill="#2C2C2C"/>
<path d="M396.657 103.495C396.858 104.569 397.629 105.307 398.4 105.172C399.155 105.022 399.607 104.049 399.406 102.976C399.205 101.902 398.434 101.164 397.663 101.298C396.909 101.449 396.456 102.422 396.657 103.495Z" fill="#2C2C2C"/>
<path d="M430.415 73.6091C426.895 70.2045 423.308 68.8459 418.699 68.7117C412.262 68.5105 405.91 70.0033 400.898 72.9382C390.405 79.1269 385.159 93.9525 393.775 103.948C394.344 100.024 394.931 96.0657 396.289 92.3592C397.646 88.636 399.859 85.1142 403.094 82.8333C403.312 82.6824 403.563 82.5145 403.831 82.4977C404.401 82.4474 404.854 82.9505 405.206 83.4034C410.234 89.7262 417.81 93.9525 425.822 94.9085C426.627 98.5982 427.431 102.288 428.236 105.978C428.94 109.198 429.644 112.451 431.069 115.42C432.493 118.388 434.689 121.105 437.673 122.481C441.477 124.242 446.338 124.074 450.428 124.544C450.596 123.185 450.059 121.709 450.042 120.317C450.009 118.472 449.825 116.644 449.473 114.833C448.35 108.879 444.176 103.898 443.12 97.9778C442.332 93.6005 441.662 89.1058 439.952 84.98C436.399 76.3764 430.432 73.6426 430.415 73.6091Z" fill="#241C1F"/>
<path d="M412.879 80.0828C416.147 86.4391 424.226 88.8206 428.383 94.6403C431.333 98.7828 431.903 104.066 433.026 109.013C434.149 113.961 436.328 119.244 440.904 121.407" stroke="#483D40" stroke-linejoin="round"/>
<path d="M432.191 86.3215C434.555 88.4179 435.795 91.504 436.466 94.6067C437.136 97.6926 437.304 100.879 437.941 103.965C439.013 109.114 441.393 113.994 444.813 118.003" stroke="#483D40" stroke-linejoin="round"/>
<path d="M393.571 105.34C394.04 108.409 391.928 111.277 391.493 114.347C390.554 120.803 396.957 126.606 396.169 133.08C395.901 135.311 394.778 137.34 393.957 139.453C392.23 143.847 391.778 148.728 392.666 153.356" stroke="#483D40" stroke-linejoin="round"/>
<path d="M403.193 125.885C403.31 128.284 403.93 130.631 403.897 133.046C403.863 135.277 401.969 137.172 400.746 138.933C399.505 140.728 398.366 142.707 398.215 144.887" stroke="#483D40" stroke-linejoin="round"/>
<path d="M424.231 98.2797C425.706 96.3342 427.985 96.4852 429.377 96.6026C432.561 96.8541 433.701 100.661 433.668 103.412C433.617 106.464 431.958 109.634 429.142 111.009C427.231 111.948 423.829 111.328 422.957 107.621" fill="#FFAC84"/>
<path d="M430.265 101.315C427.968 102.674 426.812 104.049 424.75 105.726" stroke="#2C2C2C" stroke-linejoin="round"/>
<path d="M430.417 110.238C428.674 111.546 426.16 111.73 424.517 110.154C423.998 109.667 423.612 109.08 423.227 108.493" stroke="#2C2C2C" stroke-linejoin="round"/>
<path d="M427.817 96.552C426.258 96.8203 424.464 97.6088 423.375 98.7827" stroke="#2C2C2C" stroke-linejoin="round"/>
<path d="M424.377 166.858L420.522 172.962L389.48 151.83L373.238 168.669C380.999 174.673 403.325 201.49 417.941 206.22C425.517 208.669 432.825 205.918 439.446 199.461C443.837 195.168 455.185 178.38 455.185 178.38" fill="#FFAC84"/>
<path d="M398.299 158.036C392.952 153.055 386.633 148.107 380.398 144.3C376.542 141.952 373.291 140.007 368.849 139.252C366.452 138.849 364.005 138.766 361.558 138.833C360.351 138.866 359.111 138.95 357.971 139.369C356.831 139.805 355.792 140.627 355.39 141.784C355.205 142.304 353.563 142.807 353.831 144.3C353.077 145.692 351.819 145.524 351.551 147.084C351.467 147.52 351.719 149.818 351.719 149.818C351.719 149.818 350.629 150.589 350.06 151.83C349.305 153.474 350.026 153.44 349.875 155.235C349.691 157.315 347.797 160.317 348.635 161.34C349.473 162.363 351.048 161.726 352.306 160.686C353.563 159.646 354.317 158.086 354.602 156.476C354.652 156.225 354.686 155.939 354.87 155.738C355.088 155.503 355.457 155.486 355.792 155.503C358.356 155.654 360.351 156.61 361.591 158.707C363.619 162.128 366.419 165.432 369.989 167.31C373.66 169.222 378.369 169.457 381.051 172.61" fill="#FFAC84"/>
<path d="M436.398 138.816C436.398 138.933 421.246 170.648 421.246 170.648L457.25 190.908C457.25 190.908 462.429 180.912 465.245 163.738" fill="white"/>
<path d="M457.25 190.891C457.25 190.891 462.429 180.895 465.245 163.721" stroke="#2C2C2C" stroke-linejoin="round"/>
<path d="M436.398 138.816L421.246 170.631" stroke="#2C2C2C" stroke-linejoin="round"/>
<path d="M426.07 161.407L460.666 182.354" stroke="#2C2C2C" stroke-linejoin="round"/>
<path d="M420.523 172.946L430.413 179.453" stroke="#2C2C2C" stroke-linejoin="round"/>
<path d="M372.906 168.786C374.817 168.87 376.694 169.658 378.086 170.983" stroke="#2C2C2C" stroke-linejoin="round"/>
<path d="M350.93 150.204C351.65 149.617 352.572 149.315 353.511 149.231C354.433 149.147 355.371 149.264 356.293 149.415C357.802 149.667 359.294 150.036 360.785 150.405" stroke="#2C2C2C" stroke-linejoin="round"/>
<path d="M353.578 144.535C356.377 143.562 359.528 143.646 362.26 144.753" stroke="#2C2C2C" stroke-linejoin="round"/>
<path d="M355.188 141.734C356.193 140.912 357.568 140.711 358.858 140.694C360.786 140.694 362.697 141.046 364.591 141.399" stroke="#2C2C2C" stroke-linejoin="round"/>
<path d="M427.617 372.105L454 245.649C454.653 242.496 457.419 240.232 460.637 240.232L511.625 241.188C515.044 241.255 517.827 243.922 518.062 247.326L526.627 373.162" stroke="#9A614B" stroke-width="3" stroke-miterlimit="10"/>
<path d="M370.023 106.783L353.211 99.135" stroke="#2C2C2C" stroke-linejoin="round"/>
<path d="M367.308 115.235L347.73 112.468" stroke="#2C2C2C" stroke-linejoin="round"/>
<path d="M367.056 123.185L349.758 127.73" stroke="#2C2C2C" stroke-linejoin="round"/>
<path d="M60.543 78.0367V124.879" stroke="#FCA64F" stroke-width="1.5" stroke-miterlimit="10"/>
<path d="M76.8516 85.4662V370.495" stroke="#FCA64F" stroke-width="3" stroke-miterlimit="10"/>
<path d="M119.895 101.852H33.8086L40.3958 44.0413H113.308L119.895 101.852Z" fill="white"/>
<path d="M62.6077 126.942C62.6077 128.082 61.6858 129.005 60.546 129.005C59.4063 129.005 58.4844 128.082 58.4844 126.942C58.4844 125.801 59.4063 124.879 60.546 124.879C61.6858 124.879 62.6077 125.801 62.6077 126.942Z" stroke="#FCA64F" stroke-width="1.5" stroke-miterlimit="10"/>
<path d="M112.371 368.046H41.3359V373.061H112.371V368.046Z" fill="#FCA64F"/>
<mask id="mask0_330_4366" style="mask-type:luminance" maskUnits="userSpaceOnUse" x="33" y="44" width="87" height="58">
<g opacity="0.8">
<path d="M119.895 101.852H33.8086L40.3958 44.0413H113.308L119.895 101.852Z" fill="white"/>
</g>
</mask>
<g mask="url(#mask0_330_4366)">
<path d="M47.2504 40.6534L40.9648 105.256" stroke="#F9E5B1" stroke-width="2" stroke-miterlimit="10"/>
<path d="M57.1887 40.6534L52.9648 105.256" stroke="#F9E5B1" stroke-width="2" stroke-miterlimit="10"/>
<path d="M70.2453 40.6534L67.6641 105.256" stroke="#F9E5B1" stroke-width="2" stroke-miterlimit="10"/>
<path d="M106.469 40.6534L112.737 105.256" stroke="#F9E5B1" stroke-width="2" stroke-miterlimit="10"/>
<path d="M96.5273 40.6534L100.734 105.256" stroke="#F9E5B1" stroke-width="2" stroke-miterlimit="10"/>
<path d="M83.4688 40.6534L86.0502 105.256" stroke="#F9E5B1" stroke-width="2" stroke-miterlimit="10"/>
</g>
<path d="M278.172 194.614C278.172 197.549 280.569 199.947 283.502 199.947H287.726C290.274 203.822 294.833 206.321 299.911 206.321C306.482 206.321 312.214 202.145 313.79 196.207C315.214 190.874 315.298 186.128 315.298 186.128H284.524C284.524 186.128 284.541 187.369 284.759 189.281H283.502C280.569 189.281 278.172 191.679 278.172 194.614ZM279.882 194.614C279.882 192.618 281.507 190.992 283.502 190.992H284.977C285.195 192.535 285.53 194.329 286.033 196.207C286.217 196.912 286.469 197.583 286.77 198.22H283.502C281.507 198.22 279.882 196.593 279.882 194.597V194.614Z" fill="#FFC9A1"/>
<path d="M315.785 202.178C315.785 204.794 313.623 206.907 310.975 206.907H288.85C286.185 206.907 284.039 204.794 284.039 202.178H315.785Z" fill="#FFC9A1"/>
<path d="M309.684 202.178H290.141" stroke="#2C2C2C" stroke-linejoin="round"/>
<path d="M436.198 372.323L423.426 215.444C423.074 211.218 419.554 207.964 415.313 207.964H232.162C227.921 207.964 224.385 211.218 224.05 215.444L211.277 372.323" stroke="#FCA64F" stroke-width="1.5" stroke-miterlimit="10"/>
<path d="M436.935 206.673H210.539V209.239H436.935V206.673Z" fill="#9A614B"/>
<path d="M265.449 143.545C268.131 145.407 270.092 148.308 271.299 151.445C272.506 154.581 273.009 157.985 273.226 161.373" stroke="#2C2C2C" stroke-linejoin="round"/>
<path d="M262.383 152.585C264.998 152.099 267.663 151.763 270.311 152.082C272.942 152.401 275.574 153.441 277.451 155.42C279.094 157.147 280.066 159.478 280.468 161.876" stroke="#2C2C2C" stroke-linejoin="round"/>
<path d="M292.737 130.464C292.82 130.162 292.887 129.86 292.971 129.575C292.368 129.877 291.882 130.43 291.396 131.001C284.457 139.168 279.646 150.572 277.953 162.799" stroke="#2C2C2C" stroke-linejoin="round"/>
<path d="M251.906 160.266L260.27 206.673H290.608L298.972 160.266H251.906Z" fill="#FFF7DB"/>
<path d="M254.738 174.673H296.373" stroke="#FFD189" stroke-miterlimit="10"/>
<path d="M284.274 169.457C285.598 172.057 287.794 174.069 290.191 175.595C293.845 177.927 298.236 179.252 302.443 178.413C306.65 177.574 310.522 174.287 311.478 169.893C313.405 160.937 302.963 149.768 294.834 148.828C285.33 147.738 280.369 161.826 284.274 169.457Z" fill="#68A980"/>
<path d="M292.336 155.604C293.995 155.906 295.789 154.832 296.409 153.189" stroke="#2C2C2C" stroke-linejoin="round"/>
<path d="M247.399 154.246C246.041 155.621 244.834 157.331 244.684 159.31C244.499 161.709 245.974 163.99 247.902 165.281C249.829 166.573 252.142 167.042 254.422 167.327C257.908 167.763 261.562 167.797 264.764 166.304C270.479 163.637 271.736 157.348 268.3 152.132C265.702 148.191 260.691 148.459 256.634 149.298C253.198 150.002 249.947 151.713 247.416 154.246H247.399Z" fill="#468E68"/>
<path d="M264.41 132.56C262.5 132.074 260.472 131.856 258.544 132.711C256.633 133.566 254.907 135.73 254.739 138.212C254.555 141.097 256.432 143.327 258.393 144.652C260.203 145.86 262.198 146.665 264.276 147C266.556 147.369 269.238 147 270.83 144.703C274.87 138.866 268.182 133.533 264.41 132.56Z" fill="#68A980"/>
<path d="M290.308 124.912C288.112 125.583 285.933 126.573 284.324 128.283C282.715 129.994 281.793 132.56 282.43 134.875C283.117 137.374 285.33 139 287.475 140.292C291.297 142.623 295.386 144.619 299.744 145.407C304.102 146.195 308.779 145.675 312.567 143.26C314.427 142.07 316.154 140.258 316.388 137.977C316.841 133.818 312.315 127.847 308.812 126.07C303.281 123.252 296.124 123.151 290.308 124.912Z" fill="#468E68"/>
<path d="M275.526 156.225C275.376 158.321 275.376 160.468 275.946 162.48C276.784 165.499 278.862 168.099 281.527 169.474C284.46 170.983 288.299 170.849 290.628 168.451C291.936 167.109 292.623 165.231 292.908 163.336C293.394 159.998 292.623 156.443 290.696 153.759C288.801 151.143 285.047 148.778 281.829 148.879C277.672 148.996 275.828 152.283 275.526 156.225Z" fill="#468E68"/>
<path d="M282.312 153.189C282.346 154.027 284.24 154.849 285.564 153.893" stroke="#2C2C2C" stroke-linejoin="round"/>
<path d="M291.262 129.29C292.502 129.86 293.927 129.927 295.217 129.474" stroke="#2C2C2C" stroke-linejoin="round"/>
<path d="M265.621 142.053C267.046 142.053 268.454 141.365 269.392 140.258" stroke="#2C2C2C" stroke-linejoin="round"/>
<path d="M262.902 152.921C263.288 153.541 263.992 153.96 264.696 153.977C265.4 153.977 266.121 153.625 266.54 153.004" stroke="#2C2C2C" stroke-linejoin="round"/>
<path d="M264.445 169.86C262.618 171.134 260.372 172.912 260.321 175.294C260.288 176.686 261.059 178.011 262.098 178.866C263.154 179.721 264.445 180.174 265.752 180.459C267.696 180.878 269.741 180.946 271.652 180.409C273.563 179.872 275.356 178.665 276.446 176.92C277.016 175.981 277.401 174.841 277.183 173.767C276.664 171.185 274.351 168.719 272.004 167.73C269.641 166.723 266.992 168.116 265.031 169.474C264.847 169.608 264.663 169.742 264.461 169.877L264.445 169.86Z" fill="#468E68"/>
<path d="M268.168 170.447C269.559 170.833 271.034 170.866 272.425 170.547" stroke="#2C2C2C" stroke-linejoin="round"/>
<path d="M365.531 189.298H364.274C364.491 187.386 364.508 186.145 364.508 186.145H333.734C333.734 186.145 333.818 190.891 335.243 196.224C336.818 202.161 342.551 206.337 349.121 206.337C354.2 206.337 358.759 203.838 361.307 199.964H365.531C368.464 199.964 370.861 197.566 370.861 194.631C370.861 191.696 368.464 189.298 365.531 189.298ZM365.531 198.237H362.262C362.564 197.583 362.815 196.912 363 196.224C363.503 194.346 363.838 192.551 364.056 191.008H365.531C367.525 191.008 369.151 192.635 369.151 194.631C369.151 196.627 367.525 198.254 365.531 198.254V198.237Z" fill="#FFC9A1"/>
<path d="M333.23 202.178C333.23 204.794 335.393 206.907 338.041 206.907H360.166C362.831 206.907 364.976 204.794 364.976 202.178H333.23Z" fill="#FFC9A1"/>
<path d="M339.332 202.178H358.876" stroke="#2C2C2C" stroke-linejoin="round"/>
<path d="M222.39 266.932C222.39 266.932 228.575 318.353 231.944 338.495C233.989 350.721 237.24 353.791 245.118 359.074H197.114L181.609 272.366" fill="#FFA898"/>
<path d="M256.011 365.027C251.921 360.633 241.797 355.87 241.797 355.87C236.585 361.22 195.653 353.388 195.653 353.388C195.653 353.388 193.441 359.359 193.039 364.021C192.653 368.667 193.039 371.987 193.039 371.987H205.04L205.274 365.614L212.918 366.939L215.348 369.707C216.655 371.182 218.466 371.987 220.544 371.987H259.615C259.615 371.987 260.101 369.421 256.011 365.027Z" fill="#32182B"/>
<path d="M263.575 266.932C263.575 266.932 276.079 318.353 281.912 338.495C285.465 350.721 289.086 353.791 297.617 359.074H249.613L223.465 272.366" fill="#FFA898"/>
<path d="M305.932 364.021C301.306 359.627 293.898 355.87 293.898 355.87C289.355 361.22 247.452 353.388 247.452 353.388C247.452 353.388 245.96 359.359 246.145 364.021C246.329 368.667 247.134 371.987 247.134 371.987H259.135L258.582 365.614L266.392 366.939L269.158 369.707C270.65 371.182 272.561 371.987 274.639 371.987H309.788C309.788 371.987 310.559 368.415 305.932 364.021Z" fill="#49273D"/>
<path d="M256.484 229.8C251.455 221.331 246.326 216.685 223.766 214.891C201.507 213.13 193.511 211.536 193.511 211.536L190.243 203.52L168.587 178.329L129.467 196.526C129.467 196.526 95.877 261.297 150.368 261.297C175.325 261.297 171.034 261.297 171.034 261.297L176.817 285.095H269.223C269.223 285.095 258.864 233.792 256.501 229.817L256.484 229.8Z" fill="#49273D"/>
<path d="M193.277 211.335C189.791 210.782 184.259 210.396 180.723 209.993" stroke="#2C2C2C" stroke-linejoin="round"/>
<path d="M253.384 238.136C252.63 245.817 251.071 253.532 248.758 261.096" stroke="#2C2C2C" stroke-linejoin="round"/>
<path d="M245.371 241.792C242.22 246.957 239.069 252.106 235.918 257.272" stroke="#2C2C2C" stroke-linejoin="round"/>
<path d="M236.522 116.661C232.784 119.546 232.415 125.147 229.281 128.652C227.069 131.118 223.767 132.258 220.951 134.003C215.151 137.592 211.481 143.696 207.86 149.466C200.535 161.155 192.54 172.443 183.942 183.226C183.456 183.83 182.869 184.484 182.098 184.518C181.679 184.518 181.277 184.35 180.891 184.166C170.683 179.403 150.285 169.893 150.285 169.893C150.285 169.893 206.1 116.594 220.146 110.841" fill="#F08479"/>
<path d="M211.898 179.923C211.898 179.923 232.833 206.321 245.991 207.092C262.451 208.065 270.982 196.224 264.244 172.594C259.283 155.168 249.963 130.682 243.527 120.2C240.46 115.185 237.56 114.061 231.308 111.479C226.95 109.667 218.452 112.032 213.474 114.816C205.68 119.177 200.819 126.003 201.791 126.707C202.763 127.411 220.296 126.606 223.883 130.766C227.47 134.908 233.923 169.776 233.923 169.776L211.865 179.906L211.898 179.923Z" fill="#FFA898"/>
<path d="M237.073 108.829C236.972 108.745 236.871 108.644 236.771 108.56C236.1 107.973 235.329 107.403 234.525 107.487C234.357 107.504 234.173 107.554 234.005 107.504C233.871 107.47 233.771 107.386 233.653 107.302C232.648 106.531 231.642 105.407 230.485 105.005C229.966 104.82 229.429 104.787 228.91 104.854C228.541 104.887 227.502 105.458 227.217 105.34C225.524 104.653 223.429 104.938 221.585 106.866C218.819 106.665 216.004 109.298 214.378 110.388C212.668 111.546 211.243 113.122 209.835 114.682C206.349 118.556 202.829 122.481 200.164 127.126L209.249 129.374C212.165 129.021 214.562 126.908 216.657 124.694C218.736 122.48 220.73 120.032 223.379 118.741C223.747 118.556 224.284 118.288 224.435 117.818C224.803 116.711 223.948 115.889 223.094 115.487C222.021 114.984 221.015 115.101 219.892 115.051C218.384 115 216.925 115.369 215.517 115.873C217.344 114.413 220.026 112.435 222.473 113.273C223.211 113.525 223.865 114.045 224.502 114.565C225.708 115.537 226.915 116.527 228.139 117.499C228.977 118.17 229.949 118.992 230.904 119.428C231.39 119.646 231.91 119.73 232.413 119.696C232.53 119.696 233.754 119.361 233.687 119.227C234.24 120.3 235.38 120.954 236.436 120.803C236.938 120.736 237.475 119.797 237.475 119.797C237.475 119.797 237.592 120.032 237.71 120.015C237.827 120.015 237.911 119.914 237.994 119.814C238.33 119.378 238.514 118.807 238.514 118.22C238.983 118.304 239.419 118.002 239.687 117.6C239.956 117.181 240.056 116.661 240.106 116.158C240.308 113.994 239.386 111.864 238.263 110.036C237.961 109.55 237.508 109.214 237.106 108.846L237.073 108.829Z" fill="#F08479"/>
<path d="M211.898 117.348C213.524 116.443 215.318 115.822 217.145 115.571" stroke="#2C2C2C" stroke-linejoin="round"/>
<path d="M221.906 106.917C222.878 106.548 224.001 106.716 224.974 107.185C225.946 107.655 226.801 108.41 227.605 109.231C230.27 111.965 232.248 115.403 234.209 118.791" stroke="#2C2C2C" stroke-linejoin="round"/>
<path d="M227.219 105.34C229.901 106.648 232.029 108.98 233.655 111.579C235.264 114.179 236.404 117.063 237.544 119.915" stroke="#2C2C2C" stroke-linejoin="round"/>
<path d="M233.641 107.336C236.574 109.869 238.434 113.776 238.82 118.405" stroke="#2C2C2C" stroke-linejoin="round"/>
<path d="M206.57 108.879L205.045 122.011L175.98 116.426L184.227 92.376L206.57 108.879Z" fill="#FF9C8F"/>
<path d="M203.351 118.12L175.98 110.254L165.889 110.003C165.889 110.003 155.497 117.013 149.933 125.734C144.368 134.455 123.349 180.862 124.02 185.323C124.69 189.784 129.517 196.526 129.517 196.526L191.719 207.159C191.719 207.159 195.909 203.889 197.87 199.612C199.832 195.335 208.816 147.822 208.816 147.822L203.335 118.12H203.351Z" fill="#CC4A3F"/>
<path d="M242.086 159.26C242.086 159.26 256.735 174.874 259.032 179.47" stroke="#2C2C2C" stroke-linejoin="round"/>
<path d="M169.109 109.986C169.109 109.986 186.256 110.204 193.112 112.535C203.018 115.906 211.683 122.296 219.025 129.759C226.366 137.223 250.318 165.667 250.318 165.667L216.242 200.618L189.609 170.749" fill="#CC4A3F"/>
<path d="M201.54 184.501L182.969 162.799" stroke="#2C2C2C" stroke-linejoin="round"/>
<path d="M208.277 191.713L242.085 157.214" stroke="#2C2C2C" stroke-linejoin="round"/>
<path d="M196.629 186.849C196.662 189.415 196.947 191.981 197.467 194.497" stroke="#2C2C2C" stroke-linejoin="round"/>
<path d="M181.393 90.2795C180.505 86.355 180.488 82.3301 181.577 78.6907C183.874 70.9927 189.522 63.8312 197.735 62.1708C198.791 61.9528 199.881 61.8356 200.954 61.8188C205.077 61.7517 209.2 63.1771 212.485 65.5251C216.123 68.1079 218.838 71.9319 220.145 76.1918C221.302 79.9318 221.369 83.9234 221.335 87.8311C221.302 91.8562 221.151 95.8811 220.883 99.9063C220.665 103.395 220.162 107.286 217.463 109.5C215.335 111.244 214.111 111.495 211.362 111.495C205.395 111.495 199.73 106.682 194.635 103.328C189.288 99.8058 182.902 96.9545 181.393 90.2795Z" fill="#FFA898"/>
<path d="M221.2 87.1266C221.083 88.5354 221.2 89.9442 221.569 91.3026C221.904 92.5605 222.558 93.7011 222.776 95.0093C222.826 95.3615 222.86 95.7304 222.675 96.0323C222.122 96.9715 220.195 97.29 219.223 97.3906" fill="#FFA898"/>
<path d="M215.75 99.42C215.985 100.024 216.27 100.611 216.705 101.097C217.124 101.584 217.694 101.953 218.331 102.07C218.968 102.187 219.672 102.02 220.125 101.567" stroke="#2C2C2C" stroke-linejoin="round"/>
<path d="M219.124 88.1999C219.124 89.0552 218.638 89.743 218.035 89.743C217.431 89.743 216.945 89.0552 216.945 88.1999C216.945 87.3446 217.431 86.6571 218.035 86.6571C218.638 86.6571 219.124 87.3446 219.124 88.1999Z" fill="#2C2C2C"/>
<path d="M213.488 86.6571C214.276 85.8857 215.114 85.1308 216.086 84.6109C217.142 84.0574 219.221 83.9568 220.159 84.9127" stroke="#2C2C2C" stroke-linejoin="round"/>
<path d="M203.234 108.946C204.24 109.801 205.43 110.455 206.687 110.841" stroke="#2C2C2C" stroke-linejoin="round"/>
<path d="M202.915 94.2713C202.982 90.1959 203.753 85.0471 207.826 83.0346C207.759 83.9905 207.725 85.1142 208.58 85.7515C209.15 86.1876 209.921 86.2884 210.625 86.2381C212.401 86.0871 213.927 84.997 215.117 83.7391C215.72 83.1018 216.273 82.414 216.759 81.6761C216.877 81.4916 217.648 80.2841 217.53 80.1164C219.005 82.0786 222.039 79.8482 223.045 78.4729C224.252 76.8126 223.917 74.7833 223.715 72.8378C223.397 69.7854 222.006 66.9174 220.078 64.5526C218.687 62.8587 216.994 61.3996 215.134 60.2759C212.536 58.6994 209.602 57.777 206.686 56.9552C202.864 55.8818 199.445 55.6135 195.54 56.0831C191.751 56.5527 187.846 57.4919 184.393 59.3032C180.471 61.3493 177.99 64.4017 175.309 67.8398C173.113 70.6741 171.001 73.8104 168.369 76.2422C163.441 80.7704 157.356 83.4706 152.73 88.4685C150.803 90.5481 149.043 92.8961 148.238 95.6298C147.434 98.3635 147.719 101.567 149.529 103.747C152.144 106.917 156.887 107.085 160.39 109.198C161.53 109.885 162.519 110.774 163.692 111.428C165.318 112.334 167.179 112.703 169.006 112.888C171.872 113.173 174.772 113.038 177.588 112.485C180.035 111.999 182.466 111.21 184.963 111.361C187.595 111.529 190.025 112.753 192.606 113.257C195.942 113.911 199.261 112.686 201.088 109.768C203.686 105.642 202.847 99.7052 202.948 94.2713H202.915Z" fill="#722C1A"/>
<path d="M186.705 61.0811C184.694 54.339 177.134 49.7771 170.48 48.7708C167.999 48.385 165.3 48.754 163.322 50.2802C161.697 51.538 160.691 53.4332 159.953 55.3619C159.132 57.4751 158.579 59.7224 158.646 61.9866C158.763 65.5085 160.607 68.4267 163.49 70.3554C165.619 71.781 168.1 72.586 170.597 73.1059C174.167 73.8439 178.391 73.9613 181.677 72.15C185.8 69.8859 188.063 65.6932 186.688 61.0811H186.705Z" fill="#722C1A"/>
<path d="M171.957 73.1395C174.874 73.76 177.924 74.0954 180.774 73.2233C183.103 72.5022 185.735 70.7745 186.221 68.0576C186.808 64.8375 186.623 61.5505 185.366 58.5149" stroke="#2C2C2C" stroke-linejoin="round"/>
<path d="M160.845 54.0537C160.058 57.3912 161.398 60.0746 163.51 62.7748C165.622 65.475 168.555 67.3869 171.606 68.9634C175.31 70.8921 179.5 72.4013 183.624 71.6466" stroke="#2C2C2C" stroke-linejoin="round"/>
<path d="M172.524 49.4417C171.183 49.6597 170.496 51.2194 170.463 52.5779C170.412 54.7749 171.418 56.8713 172.541 58.7665C174.62 62.2717 177.251 65.5589 180.771 67.605C182.28 68.4771 184.006 69.1312 185.749 69.0138" stroke="#2C2C2C" stroke-linejoin="round"/>
<path d="M179.262 52.058C178.005 53.0978 177.687 54.8922 177.77 56.519C178.022 61.2988 181.257 65.7937 185.715 67.5547C185.849 67.605 185.983 67.6553 186.118 67.605C186.252 67.5547 186.302 67.3366 186.168 67.2696" stroke="#2C2C2C" stroke-linejoin="round"/>
<path d="M217.328 80.1331C218.384 78.5901 218.887 76.7118 219.038 74.8501C219.189 72.9885 219.038 71.1101 218.837 69.2485" stroke="#2C2C2C" stroke-linejoin="round"/>
<path d="M196.93 82.3972C195.991 83.6551 194.55 84.4098 193.293 85.3657C190.661 87.3447 188.767 90.2797 187.979 93.483C187.125 96.9547 189.069 100.158 188.834 103.713C188.683 106.078 187.46 108.577 185.23 109.365" stroke="#2C2C2C" stroke-linejoin="round"/>
<path d="M158.176 107.068C161.327 107.386 164.579 106.531 167.16 104.72C169.758 102.908 171.669 100.158 172.473 97.0889" stroke="#2C2C2C" stroke-linejoin="round"/>
<path d="M174.051 93.265C175.827 89.4915 178.828 86.2714 182.515 84.1582C184.627 82.9507 186.991 82.0953 188.784 80.4685" stroke="#2C2C2C" stroke-linejoin="round"/>
<path d="M177.453 73.542C183.739 79.6132 192.656 82.8501 201.372 82.196C204.489 81.9612 207.607 81.24 210.322 79.6635" stroke="#2C2C2C" stroke-linejoin="round"/>
<path d="M183.602 71.3282C194.111 76.2925 207.135 74.045 215.75 65.7767" stroke="#2C2C2C" stroke-linejoin="round"/>
<path d="M186.188 68.0576C192.322 69.6174 201.34 62.9761 201.139 56.821" stroke="#2C2C2C" stroke-linejoin="round"/>
<path d="M155.328 96.7031C157.574 95.5794 158.747 93.1139 160.273 91.1181C161.697 89.2565 163.558 87.7137 165.67 86.6571C168.05 85.4663 170.849 84.8123 172.626 82.8333" stroke="#2C2C2C" stroke-linejoin="round"/>
<path d="M207.94 90.464C206.263 88.4682 203.531 87.4116 202.107 87.5458C198.821 87.8309 197.581 91.8057 197.598 94.6736C197.598 97.8602 199.274 101.148 202.14 102.573C204.084 103.546 207.604 102.875 208.543 99.0008" fill="#FFA898"/>
<path d="M201.133 92.4768C203.479 93.8688 204.653 95.3112 206.748 97.0386" stroke="#2C2C2C" stroke-linejoin="round"/>
<path d="M200.848 101.768C202.624 103.127 205.206 103.294 206.915 101.634C207.452 101.114 207.854 100.51 208.273 99.8896" stroke="#2C2C2C" stroke-linejoin="round"/>
<path d="M203.967 102.439C204.118 103.395 205.006 104.049 205.962 103.898C206.917 103.747 207.571 102.858 207.42 101.902C207.269 100.946 206.381 100.292 205.425 100.443C204.47 100.594 203.816 101.483 203.967 102.439Z" fill="white"/>
<path d="M203.719 87.4789C205.328 87.7472 207.389 89.2566 208.546 91.0344" stroke="#2C2C2C" stroke-linejoin="round"/>
<path d="M103.891 372.105L117.819 245.649C118.473 242.496 121.239 240.232 124.457 240.232H168.471L190.244 372.088" stroke="#BE8271" stroke-width="3" stroke-miterlimit="10"/>
<path d="M227.837 261.28H186.302L162.837 161.776C161.462 155.939 156.25 151.814 150.266 151.814H92.2547C87.5615 151.814 84.0919 156.191 85.1646 160.769L112.804 277.951H239.218L236.536 267.955C235.48 264.014 231.91 261.28 227.837 261.28Z" fill="#FFD189"/>
<path d="M96.125 151.83H137.341C143.342 151.83 148.538 155.956 149.912 161.792L172.222 256.366C172.909 259.251 175.474 261.297 178.441 261.297H186.285" stroke="#FCA64F" stroke-miterlimit="10"/>
<path d="M258.946 372.105L232.563 245.649C231.909 242.496 229.144 240.232 225.926 240.232L175.809 241.188C172.39 241.255 169.607 243.922 169.373 247.326L160.809 373.162" stroke="#9A614B" stroke-width="3" stroke-miterlimit="10"/>
<path d="M233.641 83.8899L248.81 73.3575" stroke="#2C2C2C" stroke-linejoin="round"/>
<path d="M237.812 91.7219L256.585 85.4999" stroke="#2C2C2C" stroke-linejoin="round"/>
<path d="M239.473 99.4871L257.307 100.879" stroke="#2C2C2C" stroke-linejoin="round"/>
</g>
<g opacity="0.8">
<path d="M311.612 85.3825H381.96C383.418 85.3825 384.055 83.5377 382.898 82.6321L371.601 73.8942V63.5463C371.601 51.4878 361.829 41.7101 349.778 41.7101H311.612C299.561 41.7101 289.789 51.4878 289.789 63.5463C289.789 75.6049 299.561 85.3825 311.612 85.3825Z" fill="white"/>
<path d="M349.543 63.5463C349.543 64.737 350.498 65.693 351.688 65.693C352.878 65.693 353.834 64.737 353.834 63.5463C353.834 62.3555 352.878 61.3995 351.688 61.3995C350.498 61.3995 349.543 62.3555 349.543 63.5463Z" fill="#9B9BD0"/>
<path d="M334.509 65.693C335.694 65.693 336.654 64.7318 336.654 63.5463C336.654 62.3607 335.694 61.3995 334.509 61.3995C333.324 61.3995 332.363 62.3607 332.363 63.5463C332.363 64.7318 333.324 65.693 334.509 65.693Z" fill="#9B9BD0"/>
<path d="M317.31 65.693C318.495 65.693 319.455 64.7318 319.455 63.5463C319.455 62.3607 318.495 61.3995 317.31 61.3995C316.124 61.3995 315.164 62.3607 315.164 63.5463C315.164 64.7318 316.124 65.693 317.31 65.693Z" fill="#9B9BD0"/>
<path d="M296.192 105.86C308.605 105.86 318.669 95.7909 318.669 83.3698C318.669 70.9488 308.605 60.8796 296.192 60.8796C283.778 60.8796 273.715 70.9488 273.715 83.3698C273.715 95.7909 283.778 105.86 296.192 105.86Z" fill="#FFAB76"/>
<path d="M307.525 81.5924C308.883 80.4855 309.268 78.4729 308.799 76.7958C308.33 75.1019 307.139 73.7097 305.799 72.5525C303.016 70.1542 299.496 68.628 295.859 68.2422C294.149 68.0577 292.373 68.1416 290.814 68.8795C290.194 69.1647 289.59 69.6176 289.456 70.2885C289.272 71.1438 289.976 71.9489 290.747 72.3681C293.378 73.7434 297.066 72.2338 299.295 74.1793C300.435 75.1688 300.82 76.8291 300.485 78.305C300.167 79.7809 299.245 81.0557 298.139 82.062C296.814 83.2695 295.205 84.175 293.479 84.6781C290.311 85.6005 285.97 87.2273 282.869 85.4328C279.969 83.7557 281.293 79.6803 283.808 78.1708C285.92 76.8962 288.668 76.8962 291.049 77.5335C293.412 78.1708 295.675 79.3784 298.155 79.1603C300.318 78.9759 302.362 77.6845 304.508 77.9025C306.938 78.1541 308.598 80.2505 309.453 82.3637C309.788 83.1855 310.039 84.108 309.721 84.9634C309.05 86.6741 306.637 86.9422 304.726 87.2273C301.206 87.764 297.87 89.3908 295.373 91.7891C294.116 92.9967 293.01 94.6235 293.378 96.2503C293.848 98.2293 296.295 99.1853 298.474 99.2859C300.737 99.3865 308.33 98.1289 307.307 94.6069C307.089 93.8857 306.318 93.3992 305.53 93.2818C304.726 93.1644 303.905 93.3323 303.117 93.5671C299.144 94.7411 295.423 97.3572 291.3 96.9882C286.892 96.5857 284.227 92.8124 283.925 88.955C283.523 83.7391 288.702 81.4582 293.513 80.7873C294.988 80.5861 296.597 80.7872 297.736 81.6593C298.876 82.5314 299.312 84.2255 298.424 85.3659C297.586 86.456 295.993 86.6907 294.585 87.0261C293.194 87.3615 291.618 88.2001 291.602 89.525C291.585 90.9673 293.395 91.7388 294.937 91.9568C297.032 92.2755 299.262 92.2421 301.239 91.4707C303.217 90.6824 304.91 89.0556 305.245 87.0933C305.581 85.1311 304.273 82.9674 302.195 82.5817" stroke="white" stroke-linejoin="round"/>
<path d="M482.058 50.5821H415.18C413.957 50.5821 413.42 49.0223 414.392 48.2676L423.913 40.905V32.2006C423.913 22.0539 432.143 13.8193 442.283 13.8193H482.058C492.199 13.8193 500.428 22.0539 500.428 32.2006C500.428 42.3472 492.199 50.5821 482.058 50.5821Z" fill="#F3F7FF"/>
<path d="M447.617 34.2803C448.663 34.2803 449.511 33.432 449.511 32.3853C449.511 31.3387 448.663 30.4901 447.617 30.4901C446.571 30.4901 445.723 31.3387 445.723 32.3853C445.723 33.432 446.571 34.2803 447.617 34.2803Z" fill="#9B9BD0"/>
<path d="M464.71 32.3853C464.71 33.4251 463.855 34.2803 462.816 34.2803C461.777 34.2803 460.922 33.4251 460.922 32.3853C460.922 31.3455 461.777 30.4901 462.816 30.4901C463.855 30.4901 464.71 31.3455 464.71 32.3853Z" fill="#9B9BD0"/>
<path d="M478.003 34.2803C479.049 34.2803 479.897 33.432 479.897 32.3853C479.897 31.3387 479.049 30.4901 478.003 30.4901C476.958 30.4901 476.109 31.3387 476.109 32.3853C476.109 33.432 476.958 34.2803 478.003 34.2803Z" fill="#9B9BD0"/>
<path d="M546.775 105.508H476.411C474.584 105.508 473.796 103.194 475.238 102.087L489.334 91.1854V78.2883C489.334 63.2444 501.52 51.0515 516.555 51.0515H546.775C561.81 51.0515 573.996 63.2444 573.996 78.2883C573.996 93.3321 561.81 105.525 546.775 105.525V105.508Z" fill="#FFF7DB"/>
<path d="M539.867 77.1645V76.0912C539.867 75.4371 539.951 74.8499 540.118 74.3468C540.286 73.8437 540.537 73.3573 540.906 72.8877C541.258 72.4349 541.744 71.9654 542.331 71.4791C542.867 71.0598 543.286 70.6739 543.605 70.3385C543.923 70.003 544.158 69.6676 544.309 69.3322C544.46 68.9968 544.527 68.6112 544.527 68.1919C544.527 67.5714 544.325 67.085 543.906 66.7496C543.504 66.4141 542.917 66.2632 542.18 66.2632C541.442 66.2632 540.722 66.3974 540.001 66.6489C539.28 66.9173 538.543 67.2527 537.805 67.672L536.414 64.502C537.269 63.9654 538.191 63.5295 539.196 63.1941C540.202 62.8586 541.292 62.6909 542.482 62.6909C544.309 62.6909 545.733 63.1941 546.739 64.1836C547.745 65.1731 548.248 66.4309 548.248 67.9571C548.248 68.7621 548.13 69.4665 547.912 70.0703C547.678 70.6741 547.342 71.2107 546.89 71.7306C546.437 72.2338 545.867 72.7703 545.18 73.3238C544.661 73.743 544.275 74.1122 544.007 74.3973C543.739 74.6824 543.554 74.9675 543.454 75.2526C543.353 75.5377 543.303 75.8899 543.303 76.2924V77.1645H539.9H539.867ZM539.448 82.1287C539.448 81.223 539.666 80.5857 540.102 80.2168C540.537 79.8478 541.074 79.6635 541.694 79.6635C542.314 79.6635 542.817 79.8478 543.269 80.2168C543.705 80.5857 543.923 81.223 543.923 82.1287C543.923 83.0343 543.705 83.6213 543.269 84.0071C542.834 84.3928 542.314 84.5941 541.694 84.5941C541.074 84.5941 540.537 84.3928 540.102 84.0071C539.666 83.6213 539.448 82.984 539.448 82.1287Z" fill="#FFAB76"/>
<path d="M554.836 82.1287C554.836 81.223 555.054 80.5857 555.49 80.2168C555.925 79.8478 556.462 79.6635 557.082 79.6635C557.702 79.6635 558.207 79.8478 558.659 80.2168C559.095 80.5857 559.311 81.223 559.311 82.1287C559.311 83.0343 559.095 83.6213 558.659 84.0071C558.223 84.3928 557.702 84.5941 557.082 84.5941C556.462 84.5941 555.925 84.3928 555.49 84.0071C555.054 83.6213 554.836 82.984 554.836 82.1287ZM558.676 77.1645H555.54L554.888 62.9928H559.328L558.676 77.1645Z" fill="#FFAB76"/>
<path d="M502.625 67.4539H529.276" stroke="#FFAB76" stroke-width="1.5" stroke-miterlimit="10"/>
<path d="M502.625 79.63H529.276" stroke="#FFAB76" stroke-width="1.5" stroke-miterlimit="10"/>
<path d="M502.625 91.8228H559.329" stroke="#FFAB76" stroke-width="1.5" stroke-miterlimit="10"/>
</g>
<path opacity="0.8" d="M3.9375 372.306H589.228" stroke="#98B3EC" stroke-width="1.5" stroke-miterlimit="10"/>
</svg>
