<svg width="588" height="370" viewBox="0 0 588 370" fill="none" xmlns="http://www.w3.org/2000/svg">
<path d="M61.832 340.785H285.284" stroke="#2C2C2C" stroke-miterlimit="10"/>
<path d="M384.824 340.785H442.729" stroke="#2C2C2C" stroke-miterlimit="10"/>
<path d="M324.434 364.139C342.534 364.102 360.633 364.028 378.733 363.904" stroke="#2C2C2C" stroke-miterlimit="10"/>
<path d="M302.75 364.152C304.006 364.152 310.669 364.152 311.924 364.152" stroke="#2C2C2C" stroke-miterlimit="10"/>
<path d="M232.801 363.904C248.514 364.015 264.227 364.09 279.94 364.127" stroke="#2C2C2C" stroke-miterlimit="10"/>
<path d="M201.5 364.102C208.984 364.214 216.467 364.152 223.938 363.904" stroke="#2C2C2C" stroke-miterlimit="10"/>
<path d="M20.3135 316.201C30.5196 325.712 44.6787 329.586 58.3904 332.118C69.3797 334.142 80.4559 335.496 91.5819 336.39H225.865C278.959 335.446 332.065 334.974 385.122 336.39H500.136C504.873 335.458 509.572 334.254 514.196 332.727C539.705 324.296 561.348 304.319 565.513 277.165C569.938 248.347 583.09 221.18 585.9 191.133C591.133 135.124 577.011 72.932 536.933 39.6196C495.301 5.01594 438.85 9.82097 387.211 9.51057C375.14 9.43607 363.094 8.88995 351.048 8.14498C294.908 4.68089 238.557 -3.1911 182.268 2.07333C142.849 5.76091 101.912 17.1094 68.7209 39.8061C56.3394 48.2739 46.2948 57.8588 38.1274 68.4622C21.196 90.4884 12.4071 116.91 7.81993 146.87C3.00902 178.345 0.734121 210.217 1.02004 242.064C1.2438 266.822 0.522789 297.813 20.2885 316.226L20.3135 316.201Z" fill="#CFEDE6"/>
<path d="M37.293 336.104H550.22" stroke="#2C2C2C" stroke-miterlimit="10"/>
<path d="M95.8438 90.2153L109.071 103.414" stroke="#2C2C2C" stroke-miterlimit="10"/>
<path d="M109.071 90.2153L95.8438 103.414" stroke="#2C2C2C" stroke-miterlimit="10"/>
<path d="M551.391 112.279L564.605 125.477" stroke="#2C2C2C" stroke-miterlimit="10"/>
<path d="M564.605 112.279L551.391 125.477" stroke="#2C2C2C" stroke-miterlimit="10"/>
<path d="M74.7852 61.2983L87.9996 74.509" stroke="#2C2C2C" stroke-miterlimit="10"/>
<path d="M87.9996 61.2983L74.7852 74.509" stroke="#2C2C2C" stroke-miterlimit="10"/>
<path d="M125.605 56.7167L132.679 64.3529L143.581 47.355" stroke="#2C2C2C" stroke-miterlimit="10"/>
<path d="M337.746 171.417L344.82 179.053L355.722 162.055" stroke="#2C2C2C" stroke-miterlimit="10" stroke-linecap="round"/>
<path d="M496.594 52.1476L503.667 59.7834L514.569 42.7859" stroke="#2C2C2C" stroke-miterlimit="10"/>
<path d="M57.4336 335.732L67.7516 302.531L105.456 302.407L109.023 335.607" stroke="#2C2C2C" stroke-width="2" stroke-miterlimit="10" stroke-linecap="round"/>
<path d="M221.426 335.123L233.534 298.272L271.71 300.296L274.284 335.297" stroke="#2C2C2C" stroke-width="2" stroke-miterlimit="10" stroke-linecap="round"/>
<path d="M272.62 314.227H217.897C213.509 314.227 209.941 310.663 209.941 306.281V215.78C209.941 211.397 213.509 207.833 217.897 207.833H272.62C287.189 207.833 299.024 219.653 299.024 234.205V287.867C299.024 302.419 287.189 314.239 272.62 314.239V314.227Z" fill="#59AC9C"/>
<path d="M51.4768 260.055C51.3773 257.026 36.8949 199.154 32.0094 179.723C31.0149 175.787 32.0841 171.628 34.8438 168.636L59.1717 153.525C61.8818 151.861 61.77 155.773 62.5034 158.852L83.9722 247.813L51.4643 260.055H51.4768Z" fill="#498F81"/>
<path d="M235.96 261.024H83.3042L56.5894 160.143C55.5824 156.331 58.4541 152.582 62.4072 152.569L198.952 151.638C207.84 151.638 215.498 157.908 217.226 166.624L235.96 261.024Z" fill="#8AD9CA"/>
<path d="M79.832 294.274H255.872V253.078H79.832V294.274Z" fill="#59AC9C"/>
<path d="M79.8359 314.227H254.483V290.276H79.8359V314.227Z" fill="#59AC9C"/>
<path d="M263.259 290.276H119.926" stroke="#2C2C2C" stroke-miterlimit="10"/>
<path d="M292.995 314.227H268.916C265.584 314.227 262.887 311.533 262.887 308.205V224.992C262.887 215.519 270.594 207.821 280.079 207.821H281.844C291.33 207.821 299.037 215.519 299.037 224.992V308.205C299.037 311.533 296.339 314.227 293.008 314.227H292.995Z" fill="#74C7B8"/>
<path d="M219.538 327.251C219.513 327.338 219.476 327.425 219.451 327.525C218.556 330.206 218.071 333 217.238 335.707C218.668 335.856 220.035 336.588 220.955 337.681C221.316 338.103 223.926 333.497 224.075 333.075C223.504 334.738 224.809 337.47 225.169 339.096C225.58 340.909 226.127 342.387 227.27 343.926C229.57 347.03 232.989 349.054 236.308 350.879C239.789 352.804 243.593 354.554 247.571 354.393C248.192 354.368 248.851 354.269 249.311 353.847C250.405 352.841 249.522 351.065 248.627 349.886C245.706 346.062 242.461 342.337 240.609 337.892C236.445 327.86 235.326 323.166 232.392 319.913C229.545 316.76 228.352 320.075 224.622 318.088C224.461 318.001 224.287 317.914 224.113 317.989C223.976 318.039 223.901 318.175 223.839 318.299C222.236 321.205 220.62 324.122 219.538 327.264V327.251Z" fill="#2C2C2C"/>
<path d="M236.791 317.778C236.195 320.944 235.722 324.16 236.269 327.326C236.468 328.468 236.791 329.623 236.592 330.765C236.294 332.454 234.504 333.459 232.888 333.112C228.413 332.119 223.751 328.121 222.868 323.452C222.408 321.031 223.44 318.076 223.428 315.518C223.415 312.054 223.104 308.59 223.167 305.126C223.216 302.63 223.477 300.035 224.807 297.925C227.033 294.386 233.049 294.038 236.456 295.975C239.203 297.527 239.476 301.538 239.377 304.331C239.228 308.466 237.848 312.377 237.052 316.449C236.965 316.896 236.878 317.343 236.791 317.79V317.778Z" fill="#EC9090"/>
<path d="M218.878 303.934C218.828 303.313 218.79 302.692 218.765 302.071C217.758 280.902 218.205 259.658 220.107 238.538C220.667 232.268 207.18 214.016 214.701 211.844C216.217 211.409 231.818 213.197 233.396 213.296C236.604 213.495 239.861 213.731 242.856 214.873C257.675 220.522 254.529 242.921 252.963 255.027C250.726 272.273 248.452 290.624 243.057 307.187C242.385 309.248 241.503 311.458 239.612 312.526C238.619 313.085 237.45 313.246 236.306 313.358C230.849 313.879 222.57 314.587 219.897 308.503C219.263 307.063 219.015 305.511 218.89 303.934H218.878Z" fill="white"/>
<path d="M175.768 144.834C167.203 148.857 164.953 156.331 162.454 164.923C160.216 172.621 159.632 180.716 157.419 188.414C154.747 197.751 149.787 206.232 145.349 214.873C143.571 218.35 141.831 222.372 143.235 226.023C144.255 228.655 146.766 230.468 149.451 231.337C152.136 232.206 155.008 232.268 157.817 232.318C172.461 232.579 187.093 232.852 201.737 233.112C206.523 233.199 212.042 232.963 215.014 229.214C216.306 227.587 216.891 225.539 217.45 223.54C221.043 210.677 224.648 197.813 227.843 184.839C228.713 181.288 229.595 177.724 230.242 174.124C230.702 171.553 230.031 169.48 230.192 167.022C230.316 165.184 233.288 163.967 234.63 163.197C236.545 162.105 239.317 160.876 240.485 158.951C240.659 158.653 240.808 158.343 240.833 157.995C240.871 157.312 239.826 156.778 239.317 156.319C232.977 150.694 229.919 144.039 222.957 142.264C216.779 140.699 210.302 141.829 204.037 142.09C195.074 142.462 185.029 140.886 176.576 144.461C176.29 144.586 176.017 144.697 175.756 144.834H175.768Z" fill="#E95353"/>
<path d="M193.467 131.275C193.641 129.45 193.679 127.6 193.641 125.788C193.492 119.89 192.547 114.005 192.945 108.107C193.418 101.055 197.856 96.2 204.966 95.4426C210.647 94.8342 216.788 97.2179 219.561 102.42C223.588 109.982 221.487 124.62 212.437 127.464C211.468 132.492 209.889 139.917 211.294 144.933C207.875 146.411 203.698 147.367 199.956 147.354C196.053 147.342 191.951 145.902 189.676 142.736C192 139.383 193.07 135.373 193.467 131.275Z" fill="#EC9090"/>
<path d="M233.397 151.34C236.232 154.258 239.563 156.667 243.156 158.628C245.766 160.069 248.8 161.198 251.696 160.466C255.09 159.597 257.365 156.369 258.571 153.091C261.405 145.38 261.815 135.956 270.057 131.549C273.227 129.86 277.131 129.773 280.487 131.04C287.871 133.833 292.061 142.127 291.588 149.701C291.215 155.648 288.928 161.31 286.317 166.674C283.819 171.827 280.698 176.669 278.075 181.722C275.689 186.353 271.45 190.699 267.186 193.629C260.846 197.987 252.778 199.726 245.17 198.496C232.676 196.497 226.56 188.663 220.829 178.357C219.785 176.483 218.728 174.571 218.355 172.46C217.436 167.282 220.817 162.738 222.246 158.007C222.856 156.009 223.44 154.01 223.813 151.948C224.136 150.161 224.26 148.05 225.329 146.523C226.946 144.213 229.146 145.244 230.389 147.342C231.234 148.77 232.241 150.123 233.397 151.315V151.34Z" fill="#E95353"/>
<path d="M171.889 323.8C170.746 325.463 169.639 327.152 168.57 328.865C168.346 329.226 168.123 329.586 168.011 329.983C167.675 331.2 168.446 332.429 169.167 333.472C170.833 332.764 172.324 331.659 173.456 330.256C172.337 331.622 172.623 334.639 172.411 336.29C172.175 338.14 172.175 339.717 172.722 341.542C173.816 345.242 176.34 348.309 178.826 351.177C181.436 354.182 184.395 357.125 188.199 358.329C188.796 358.515 189.442 358.652 190.026 358.416C191.394 357.845 191.183 355.871 190.747 354.455C189.318 349.861 188.025 345.205 187.341 340.437C186.732 336.129 187.727 327.748 186.086 323.688C184.855 320.646 182.941 321.416 180.927 318.821C180.206 317.902 179.186 316.909 178.043 317.157C176.016 317.592 174.475 320.112 173.381 321.639C172.871 322.347 172.374 323.067 171.877 323.775L171.889 323.8Z" fill="#2C2C2C"/>
<path d="M190.347 320.075C189.092 322.074 188.01 324.16 187.351 326.469C186.643 328.965 186.32 331.895 184.194 333.372C183.846 333.621 183.436 333.807 183.013 333.807C182.553 333.807 182.118 333.571 181.732 333.323C177.866 330.852 174.87 325.513 175.641 320.82C176.039 318.386 178.015 315.965 178.886 313.556C180.067 310.291 180.962 306.939 182.205 303.698C183.1 301.376 184.244 299.029 186.22 297.502C189.527 294.945 195.295 296.683 197.831 299.663C200.379 302.655 197.943 308.702 196.153 311.595C194.363 314.475 192.162 317.182 190.347 320.075Z" fill="#EC9090"/>
<path d="M233.301 230.58C232.033 217.021 219.949 209.274 207.344 209.46C197.461 209.609 187.603 211.434 177.956 213.582C162.044 217.121 147.736 222.037 137.94 235.633C135.516 239.023 129.176 248.161 132.62 252.407C132.868 252.718 133.204 252.978 133.577 253.214H178.889C183.662 252.357 188.461 251.786 191.27 250.147C189.878 258.864 184.595 268.051 182.108 276.755C179.299 286.601 177.198 296.646 175.843 306.802C175.57 308.838 175.408 311.148 176.788 312.675C177.807 313.805 179.398 314.165 180.878 314.475C186.037 315.555 193.334 317.058 197.585 313.159C202.695 308.478 206.337 299.663 209.718 293.678C217.202 280.43 223.654 266.599 228.999 252.357C231.622 245.367 234.009 238.017 233.313 230.592L233.301 230.58Z" fill="white"/>
<path d="M168.061 149.316C162.455 153.438 156.848 157.548 151.242 161.67C137.642 171.653 122.861 183.125 117.739 199.937C116.372 204.431 115.775 209.249 116.807 213.83C117.839 218.412 120.648 222.72 124.838 224.868C128.343 226.668 132.67 226.793 136.275 225.216C141.782 222.807 144.952 217.133 148.47 212.253C154.437 203.984 162.815 199.353 169.715 192.325C173.73 188.241 177.671 184.032 180.915 179.301C182.444 177.079 183.775 174.955 185.465 172.869C187.355 170.548 189.12 168.114 190.773 165.618C191.619 164.327 192.452 162.974 192.8 161.459C193.173 159.808 192.949 158.094 192.713 156.431C192.054 151.923 191.208 147.317 188.809 143.456C188.585 143.096 188.337 142.736 187.964 142.549C187.678 142.4 187.342 142.375 187.019 142.351C179.921 141.929 173.606 145.256 168.074 149.316H168.061Z" fill="#E95353"/>
<path d="M221.328 168.834C223.379 177.19 225.704 180.418 227.332 188.799" stroke="#2C2C2C" stroke-miterlimit="10"/>
<path d="M211.346 108.294C209.979 108.703 208.599 109.076 207.207 109.423C203.825 110.243 200.991 112.205 200.854 115.917C200.78 118.053 201.501 119.431 200.879 121.517C200.32 123.354 200.021 125.651 198.331 126.843C196.565 128.085 193.98 127.377 192.451 125.862C190.922 124.335 190.188 122.212 189.504 120.163C188.883 118.313 188.274 116.463 187.652 114.613C187.155 113.136 186.658 111.633 186.484 110.081C186.049 106.257 187.602 102.47 189.629 99.2048C191.382 96.3863 193.657 93.6922 196.752 92.4878C200.581 90.9979 203.962 92.3265 207.766 92.8852C211.085 93.3695 214.118 93.2823 217.388 94.5488C220.471 95.7407 225.468 99.3913 222.547 103.166C221.54 104.469 219.961 105.189 218.432 105.81C216.107 106.754 213.733 107.586 211.334 108.306L211.346 108.294Z" fill="#292622"/>
<mask id="mask0_330_4221" style="mask-type:luminance" maskUnits="userSpaceOnUse" x="191" y="95" width="31" height="54">
<path d="M195.656 131.487C195.855 125.092 192.163 119.48 191.84 113.099C191.641 109.138 192.262 105.028 194.363 101.676C199.858 92.947 214.688 93.2948 219.549 102.421C223.577 109.982 221.476 124.621 212.426 127.464C211.046 134.702 210.847 140.712 211.568 146.672C211.605 146.969 211.531 147.317 211.32 147.528C211.121 147.727 210.822 147.777 210.536 147.814C206.024 148.373 201.387 148.931 196.85 148.236C194.338 147.851 193.157 147.901 193.518 145.417C194.189 140.811 195.507 136.155 195.656 131.487Z" fill="white"/>
</mask>
<g mask="url(#mask0_330_4221)">
<path d="M221.027 123.789C218.951 125.85 215.98 126.632 213.145 127.34C211.119 127.849 209.093 128.345 207.066 128.854C209.403 130.158 211.915 131.251 214.562 131.623C217.21 131.996 220.045 131.623 222.282 130.146" fill="#292622"/>
</g>
<path d="M204.497 113.632C204.235 113.223 203.9 112.9 203.514 112.639C203.03 111.944 202.222 111.546 201.339 111.621C200.295 111.708 199.313 112.266 198.629 113.036C197.336 114.501 197.063 116.649 198.119 118.326C198.666 119.195 199.561 119.94 200.606 120.089C201.675 120.238 202.706 119.741 203.49 119.046C204.994 117.717 205.59 115.395 204.484 113.632H204.497Z" fill="#EC9090"/>
<path d="M200.145 115.197C200.567 114.911 201.139 114.886 201.587 115.135C202.022 115.371 202.308 115.83 202.419 116.314C202.531 116.798 202.494 117.308 202.419 117.792" fill="#292622"/>
<path d="M221.55 213.011C242.372 223.54 234.827 240.227 231.756 249.092C228.686 257.957 221.774 270.348 217.746 278.829" stroke="#2C2C2C" stroke-miterlimit="10"/>
<path d="M190.375 250.396C192.314 249.017 194.216 247.59 196.069 246.087" stroke="#2C2C2C" stroke-miterlimit="10"/>
<path d="M93.7215 314.227H38.999C34.6107 314.227 31.043 310.663 31.043 306.281V237.284C31.043 221.019 44.2574 207.821 60.5424 207.821H93.7215C108.291 207.821 120.126 219.641 120.126 234.193V287.855C120.126 302.407 108.291 314.227 93.7215 314.227Z" fill="#59AC9C"/>
<path d="M114.097 314.227H90.0175C86.6859 314.227 83.9883 311.533 83.9883 308.205V224.98C83.9883 215.506 91.6957 207.808 101.181 207.808H102.946C112.431 207.808 120.138 215.506 120.138 224.98V308.205C120.138 311.533 117.441 314.227 114.109 314.227H114.097Z" fill="#74C7B8"/>
<path d="M526.467 334.515L515.478 299.178H491.896L472.242 334.515" stroke="#2C2C2C" stroke-width="2" stroke-miterlimit="10" stroke-linecap="round"/>
<path d="M413.639 334.515L402.65 299.178H379.068L359.414 334.515" stroke="#2C2C2C" stroke-width="2" stroke-miterlimit="10" stroke-linecap="round"/>
<path d="M355.525 202.929H415.966C420.354 202.929 423.922 206.492 423.922 210.875V308.218C423.922 312.6 420.354 316.164 415.966 316.164H355.525C340.956 316.164 329.121 304.344 329.121 289.792V229.288C329.121 214.737 340.956 202.917 355.525 202.917V202.929Z" fill="#59AC9C"/>
<path d="M533.217 258.516C533.329 255.3 548.743 193.704 553.94 173.018C554.996 168.822 553.853 164.402 550.919 161.223L525.037 145.132C522.153 143.369 522.277 147.516 521.482 150.806L498.633 245.479L533.229 258.516H533.217Z" fill="#59AC9C"/>
<path d="M396.227 259.546H499.332L527.762 152.184C528.844 148.124 525.785 144.139 521.571 144.126L435.609 143.133C426.149 143.133 418.006 149.813 416.166 159.088L396.227 259.559V259.546Z" fill="#74C7B8"/>
<path d="M503.034 258.603H362.25V294.932H503.034V258.603Z" fill="#59AC9C"/>
<path d="M503.037 290.673H376.523V316.164H503.037V290.673Z" fill="#59AC9C"/>
<path d="M485.917 288.389H391.949" stroke="#2C2C2C" stroke-miterlimit="10"/>
<path d="M414.907 225.327C420.613 229.822 423.771 235.98 428.221 241.891C431.503 245.913 438.265 249.142 444.419 249.589C452.077 250.147 461.375 249.514 468.61 245.379C477.623 240.239 482.434 230.195 485.753 220.721C486.561 218.424 487.008 216.512 486.474 214.277C485.566 210.478 482.745 207.386 479.662 205.139C478.207 204.083 476.641 203.512 475.945 201.737C475.323 200.135 475.621 198.335 475 196.733C474.366 195.094 472.824 193.952 471.183 193.344C468.262 192.263 464.93 192.673 462.121 194.039C460.654 194.747 459.336 195.703 458.143 196.808C457.534 197.366 456.191 199.328 455.445 199.514C455.172 199.589 454.886 199.465 454.625 199.341C446.023 195.417 437.072 192.536 428.159 189.482C418.052 186.018 406.18 181.635 395.39 183.473C387.061 184.888 378.769 189.991 376.755 198.682C376.718 198.856 376.681 199.03 376.643 199.216C376.134 201.786 376.233 204.444 376.507 207.051C376.656 208.454 376.917 209.981 377.961 210.925C378.757 211.632 379.851 211.868 380.895 212.03C382.3 212.241 383.729 212.353 385.147 212.204C388.031 211.906 390.977 210.776 393.886 211.421C397.416 212.204 400.275 215.27 403.271 217.207C407.249 219.777 411.19 222.422 414.919 225.352L414.907 225.327Z" fill="#4875AA"/>
<path d="M345.99 202.929H347.867C357.961 202.929 366.166 211.111 366.166 221.205V310.154C366.166 313.482 363.468 316.176 360.136 316.176H333.732C330.401 316.176 327.703 313.482 327.703 310.154V221.205C327.703 211.124 335.895 202.929 346.002 202.929H345.99Z" fill="#74C7B8"/>
<path d="M427.425 193.542C424.478 194.647 424.541 193.791 421.11 193.319C415.727 192.574 410.717 189.495 407.634 185.037C405.757 182.318 404.029 178.755 405.807 175.576C406.714 173.937 408.38 172.733 410.232 172.385C412.905 171.876 415.553 173.068 418.101 173.999C418.325 174.074 418.549 174.161 418.785 174.123C419.071 174.086 419.295 173.888 419.518 173.701C424.851 168.958 430.147 164.153 435.629 159.572C443.374 153.115 452.126 147.863 461.486 144.114C463.811 143.182 466.409 142.351 468.759 143.22C472.202 144.499 473.383 148.807 473.346 152.482C473.234 163.532 468 166.624 459.249 172.671C454.624 175.874 447.936 183.957 442.777 186.192C438.588 188.005 431.577 191.978 427.437 193.53L427.425 193.542Z" fill="#EC9090"/>
<path d="M504.8 237.421C503.644 241.481 502.463 245.603 500.263 249.191C495.787 256.504 487.496 260.713 479.142 261.918C470.788 263.122 462.297 261.694 454.055 259.857C435.471 255.71 416.438 250.582 400.34 239.966C394.982 236.428 383.446 229.437 382.563 222.335C381.444 213.383 392.508 207.808 399.731 207.498C415.817 206.79 435.185 211.931 450.575 216.313C455.634 217.754 460.992 215.059 462.944 210.068C463.951 207.498 465.032 204.965 466.176 202.457C467.083 200.47 468.165 198.385 470.079 197.391C472.205 196.299 474.741 196.857 477.041 197.453C483.257 199.055 489.509 200.731 495.228 203.686C499.927 206.12 507.174 210.751 508.654 216.376C510.257 222.497 506.466 231.622 504.812 237.433L504.8 237.421Z" fill="#4875AA"/>
<path d="M507.795 220.262C505.918 218.97 503.991 217.729 502.039 216.537C504.65 218.821 506.713 221.69 508.528 224.632C509.001 223.701 509.473 222.757 509.933 221.801C509.237 221.255 508.528 220.746 507.807 220.249L507.795 220.262Z" fill="white"/>
<path d="M521.931 166.773C520.203 160.23 517.419 153.774 514.174 147.479C511.663 142.624 508.132 136.453 502.874 134.094C497.143 131.524 491.798 132.666 485.756 133.237C484.873 133.324 483.966 133.411 483.232 133.908C482.462 134.429 482.027 135.323 481.641 136.168C477.352 145.43 474.095 155.127 469.844 164.402C465.481 173.9 460.023 182.976 455.063 192.177C453.87 194.387 453.149 196.088 451.371 197.876C456.543 201.501 460.545 203.078 466.127 205.437C473.225 208.442 480.759 210.689 488.006 213.296C490.418 214.166 492.867 215.035 495.415 215.32C504.49 216.351 512.844 209.696 517.605 201.911C524.703 190.302 525.014 178.407 521.944 166.748L521.931 166.773Z" fill="white"/>
<path d="M499.107 205.673C499.107 205.673 499.045 205.611 499.02 205.586C494.582 201.377 493.177 193.716 494.147 187.918C494.905 183.423 496.012 179.723 498.138 175.613C502.986 166.214 508.356 156.691 516.76 150.272C519.432 148.223 522.466 146.498 525.81 146.001C539.919 143.903 539.869 163.644 538.701 172.41C537.52 181.288 536.326 190.202 533.753 198.769C533.02 201.228 532.15 203.699 530.645 205.785C528.246 209.1 524.877 209.981 520.986 210.205C517.729 210.391 514.46 210.329 511.215 210.018C506.877 209.609 502.314 208.64 499.132 205.673H499.107Z" fill="white"/>
<path d="M335.323 330.181C330.549 334.403 325.49 338.326 321.4 343.156C320.542 344.174 319.722 345.292 319.386 346.583C316.614 357.261 332.638 356.504 337.983 353.511C349.544 347.018 358.284 331.522 364.275 320.211C367.769 313.606 374.084 304.021 373.636 296.385C373.574 295.379 373.412 294.361 372.928 293.479C371.933 291.642 369.745 290.711 367.644 290.611C363.467 290.425 359.576 293.07 357.103 296.434C354.616 299.799 353.274 303.834 351.794 307.746C348.264 317.132 342.744 323.626 335.323 330.181Z" fill="#2C2C2C"/>
<path d="M479.242 225.688C481.753 226.122 484.276 226.569 486.788 227.004C491.959 227.91 497.565 229.003 502.737 227.562C508.033 226.085 511.663 221.429 511.078 215.829C510.345 208.839 502.451 208.33 496.981 207.883C489.808 207.299 482.586 207.585 475.413 208.144C471.746 208.429 468.078 208.802 464.411 209.174C459.439 209.683 454.404 209.77 449.481 210.676C447.107 211.111 444.745 211.67 442.507 212.589C440.444 213.433 438.144 214.538 436.515 216.065C436.205 216.351 435.919 216.673 435.732 217.058C435.558 217.443 435.508 217.903 435.683 218.288C435.919 218.797 436.391 218.846 436.876 218.933C436.478 219.604 436.192 220.448 436.428 221.218C436.677 221.988 437.634 222.534 438.33 222.124C438.43 222.944 439.151 223.589 439.946 223.825C440.742 224.061 441.587 223.949 442.408 223.8C442.669 224.607 443.738 224.781 444.583 224.731C446.945 224.595 449.083 223.626 451.358 223.142C453.82 222.608 456.281 222.025 458.805 221.764C462.845 221.329 465.828 222.571 469.682 223.378C472.243 223.912 474.555 224.893 477.116 225.34C477.825 225.464 478.521 225.588 479.229 225.712L479.242 225.688Z" fill="#EC9090"/>
<path d="M486.564 202.929H533.293C545.252 202.929 554.973 212.626 554.973 224.583V308.23C554.973 312.613 551.405 316.176 547.017 316.176H486.576C472.006 316.176 460.172 304.356 460.172 289.804V229.301C460.172 214.749 472.006 202.929 486.576 202.929H486.564Z" fill="#59AC9C"/>
<path d="M478.447 202.929H480.324C490.418 202.929 498.623 211.111 498.623 221.205V310.154C498.623 313.482 495.925 316.176 492.593 316.176H466.189C462.858 316.176 460.16 313.482 460.16 310.154V221.205C460.16 211.124 468.352 202.929 478.459 202.929H478.447Z" fill="#74C7B8"/>
<path d="M405.174 208.665C399.456 207.622 393.477 208.628 388.989 212.278C383.842 216.475 380.623 222.559 377.676 228.531C365.481 253.239 352.702 281.163 347.543 308.491C353.249 311.048 366.675 312.104 373.537 314.363C374.444 314.661 375.439 314.276 375.924 313.457C379.802 306.901 395.366 279.983 406.306 264.749C413.317 255.002 423.287 242.114 423.797 229.487C424.219 218.722 415.107 210.465 405.174 208.665Z" fill="#4875AA"/>
<path d="M485.404 133.87C486.996 132.703 489.096 132.393 491.085 132.244C502.311 131.412 513.723 133.697 523.854 138.576C533.464 143.207 538.846 154.146 539.145 164.489C539.269 168.934 538.212 174.012 534.359 176.259C532.221 177.513 529.56 177.625 527.136 177.079C524.712 176.532 522.474 175.402 520.274 174.248C508.974 168.362 497.935 161.981 487.244 155.04C485.479 153.898 483.676 152.681 482.508 150.93C480.531 147.926 481.501 143.034 482.247 139.756C482.719 137.67 483.428 135.509 485.056 134.131C485.168 134.032 485.28 133.945 485.404 133.858V133.87Z" fill="white"/>
<path d="M506.75 123.429C506.974 120.399 507.185 117.134 507.994 114.228C508.702 111.671 509.597 109.262 509.958 106.555C510.554 102.172 509.958 94.8594 505.706 92.3389C504.388 91.5567 502.872 91.1468 501.393 90.7371C499.814 90.3025 498.235 89.8804 496.656 89.4458C495.214 89.0485 493.747 88.6635 492.256 88.7007C490.764 88.738 489.21 89.2596 488.278 90.4267C487.619 91.2462 485.406 91.6432 485.132 92.6614C482.945 101.005 482.149 111.273 487.32 119.108C488.576 120.995 490.105 121.492 490.515 123.863C490.888 126.036 490.602 128.321 489.633 130.307C489.135 131.325 488.675 132.095 487.681 132.53C487.32 132.691 484.337 133.063 483.852 133.138C486.587 138.005 491.012 142.574 496.594 142.922C497.775 142.996 498.968 142.872 500.137 142.674C506.067 141.655 509.97 137.409 515.514 135.348C514.023 134.777 512.531 134.206 511.039 133.635C510.007 133.237 508.951 132.828 508.081 132.157C505.669 130.295 506.489 126.607 506.688 123.95C506.701 123.776 506.713 123.602 506.726 123.441L506.75 123.429Z" fill="#EC9090"/>
<path d="M491.945 83.9577C493.126 83.9577 494.319 84.1066 495.5 84.1811C498.832 84.3922 502.176 84.032 505.495 84.3051C508.23 84.541 510.629 84.4046 513.078 86.0311C514.259 86.8133 515.241 87.8686 516.074 89.0108C517.305 90.687 518.25 92.5743 518.859 94.5608C519.294 95.9887 519.592 97.516 520.549 98.6583C521.171 99.4032 522.029 99.9123 522.712 100.62C523.657 101.601 524.204 102.942 524.229 104.308C524.229 104.978 524.117 105.649 524.229 106.307C524.378 107.151 525.049 107.436 525.385 108.082C525.882 109.038 525.882 110.056 526.641 110.926C527.996 112.502 530.395 112.85 531.787 114.389C533.304 116.066 533.03 119.021 531.253 120.411C529.96 121.417 528.207 121.554 526.578 121.653C520.338 122.038 514.097 122.348 507.857 122.609C507.658 122.609 507.447 122.621 507.248 122.572C506.34 122.336 506.216 121.107 506.266 120.163C506.427 116.649 506.676 111.72 505.284 108.405C504.563 106.667 502.288 106.232 501.567 104.506C500.622 102.246 502.337 98.9936 500.162 97.2678C499.267 96.5601 498.061 96.411 496.93 96.5227C495.96 96.622 495.015 97.0318 494.046 97.1063C493.225 97.1683 492.529 97.1064 491.696 97.2802C489.769 97.7024 487.78 98.4225 485.804 97.9134C483.79 97.392 482.199 95.517 482.012 93.4435C481.813 91.2086 483.119 89.0978 484.66 87.4588C486.028 85.9937 487.681 84.7027 489.62 84.206C490.379 84.0198 491.149 83.9453 491.932 83.9453L491.945 83.9577Z" fill="#2C2C2C"/>
<path d="M507.085 113.309C506.078 113.545 505.009 113.458 503.99 112.937C501.678 111.745 501.442 108.343 502.374 106.207C502.946 104.891 504.127 103.824 505.531 103.476C506.426 103.253 507.371 103.327 508.279 103.476C508.739 103.551 509.199 103.65 509.596 103.885C510.056 104.171 510.38 104.63 510.628 105.115C511.387 106.605 511.474 108.405 510.864 109.957C510.218 111.608 508.751 112.9 507.073 113.297L507.085 113.309Z" fill="#EC9090"/>
<path d="M506.489 106.27C507.173 106.468 507.77 107.052 507.894 107.772C508.031 108.492 507.633 109.299 506.974 109.56C506.713 109.671 506.415 109.684 506.129 109.709C506.129 109.622 506.129 109.535 506.129 109.448" fill="#2C2C2C"/>
<path d="M489.333 116.128C489.159 116.128 488.985 116.078 488.811 115.991C487.742 115.47 486.536 113.93 487.357 112.763C487.755 112.192 488.5 111.906 489.184 111.993C489.868 112.08 490.49 112.515 490.875 113.086C491.049 113.347 491.186 113.644 491.211 113.955C491.298 115.072 490.365 116.177 489.333 116.115V116.128Z" fill="#2C2C2C"/>
<path d="M370.193 260.949C370.603 259.236 370.976 257.374 369.808 256.293C367.881 254.518 362.15 255.71 359.987 256.368C358.968 256.678 357.936 257.125 357.327 258.007C356.867 258.677 356.717 259.509 356.581 260.316C354.99 269.132 349.445 278.084 342.223 283.646C338.356 286.613 333.459 288.439 330.612 292.399C329.108 294.485 328.424 297.602 330.152 299.489C331.308 300.755 333.16 301.066 334.876 301.165C340.296 301.488 345.902 300.644 350.949 298.632C356.519 296.41 360.981 292.424 365.357 288.439C365.767 288.066 366.19 287.669 366.426 287.16C366.662 286.638 366.675 286.03 366.687 285.459C366.824 277.699 368.689 270.51 369.783 262.886C369.87 262.303 370.031 261.645 370.193 260.974V260.949Z" fill="#2C2C2C"/>
<path d="M355.723 233.361C352.366 242.934 347.767 251.55 344.746 261.086C344.448 262.03 344.883 263.073 345.765 263.52C350.203 265.817 358.023 268.834 361.951 269.678C363.492 270.013 370.267 272.236 371.249 270.783C384.712 250.756 397.815 228.965 406.156 206.244C408.705 199.291 412.186 189.47 403.894 184.777C401.793 183.585 399.332 183.2 396.932 183.436C387.621 184.342 378.024 191.432 373.388 199.825C371.535 203.165 370.317 206.815 368.713 210.279C365.084 218.089 358.594 225.179 355.723 233.373V233.361Z" fill="#4875AA"/>
<mask id="mask1_330_4221" style="mask-type:luminance" maskUnits="userSpaceOnUse" x="483" y="88" width="32" height="55">
<path d="M506.638 123.429C506.738 120.312 507.185 117.109 507.981 114.228C508.689 111.671 509.584 109.262 509.945 106.555C510.542 102.172 509.945 94.8594 505.693 92.3389C504.376 91.5567 502.859 91.1468 501.38 90.7371C499.801 90.3025 498.222 89.8804 496.643 89.4458C495.201 89.0485 493.734 88.6635 492.243 88.7007C490.751 88.738 489.197 89.2596 488.265 90.4267C487.606 91.2462 487.307 92.289 487.034 93.3071C484.846 101.651 482.136 111.261 487.32 119.095C488.575 120.983 490.104 121.479 490.515 123.851C490.888 126.024 490.602 128.308 489.632 130.295C489.135 131.313 488.675 132.083 487.68 132.517C487.32 132.679 484.038 133.312 483.852 133.126C486.586 137.993 491.012 142.562 496.594 142.909C497.775 142.984 498.968 142.86 500.137 142.661C502.809 142.202 505.581 141.32 507.844 139.843C509.025 139.073 513.537 134.541 514.955 135.025C513.314 134.479 511.66 133.933 510.206 133.014C508.739 132.095 507.471 130.767 506.974 129.115C506.75 128.395 506.688 127.638 506.651 126.88C506.588 125.75 506.588 124.583 506.626 123.416L506.638 123.429Z" fill="white"/>
</mask>
<g mask="url(#mask1_330_4221)">
<path d="M487.458 126.508C488.129 127.613 489.77 127.948 491.038 127.812C494.246 127.489 496.918 125.055 498.46 122.324C495.103 123.205 491.524 122.324 488.292 121.082C487.907 122.659 487.234 124.347 487.234 125.949C487.284 126.148 487.371 126.334 487.471 126.508H487.458Z" fill="#2C2C2C"/>
</g>
<path d="M437.981 213.979C433.642 212.949 409.252 207.647 404.913 206.616C398.2 230.741 385.197 250.917 371.125 271.64" stroke="#2C2C2C" stroke-linecap="round" stroke-linejoin="round"/>
<path d="M397.291 174.608C399.877 177.898 402.45 181.188 405.036 184.479C409.561 190.252 413.402 196.026 421.196 195.628C426.144 195.38 432.683 190.873 433.615 189.681C434.697 188.303 432.72 184.007 431.838 182.504C430.296 179.872 428.233 177.575 426.244 175.291C420.562 168.747 414.111 162.899 407.472 157.337C404.079 154.494 400.61 151.725 397.142 148.956C394.395 146.771 391.324 144.797 389.944 141.395C389.26 139.706 389.037 137.819 388.017 136.304C387.334 135.298 386.339 134.529 385.68 133.498C385.233 132.815 384.947 132.008 384.363 131.449C383.766 130.891 382.697 130.692 382.187 131.325C381.914 131.673 381.876 132.145 381.914 132.579C382.025 134.007 383.194 135.298 383.194 136.677C383.206 138.551 381.031 136.577 380.521 136.118C378.483 134.268 375.934 132.852 373.622 131.35C373 130.953 372.329 130.543 371.583 130.555C370.837 130.555 370.067 131.189 370.178 131.921C369.246 131.511 368.252 131.089 367.257 131.288C366.263 131.487 365.405 132.629 365.89 133.523C364.883 133.622 364.149 134.616 364.025 135.609C363.901 136.615 364.261 137.608 364.671 138.527C364.746 138.7 364.833 138.887 364.821 139.073C364.821 139.309 364.684 139.507 364.609 139.731C363.664 142.4 367.133 144.548 368.799 145.964C371.62 148.36 375.014 150.223 378.259 152.01C378.918 152.371 379.589 152.731 380.21 153.153C382.05 154.407 383.443 156.207 384.798 157.983C389.037 163.508 392.99 169.145 397.279 174.608H397.291Z" fill="#EC9090"/>
<path d="M486.825 144.524C485.868 140.699 487.882 139.495 483.854 133.15C473.635 134.628 462.472 137.595 454.019 142.996C442.582 150.322 431.593 157.958 422.207 167.878C423.4 169.455 424.917 170.784 426.284 172.199C428.385 174.384 430.387 176.681 432.413 178.941C434.502 181.275 436.466 183.721 438.654 185.956C439.524 186.838 440.394 187.645 441.426 188.303C441.737 188.203 442.047 188.042 442.333 187.881C457.102 179.611 477.75 163.545 483.667 154.307C485.159 151.986 486.253 149.453 487.26 146.87C487.111 146.088 486.974 145.293 486.825 144.511V144.524Z" fill="white"/>
<path d="M512.882 163.979C515.232 167.245 514.1 171.74 513.006 175.613C510.62 184.019 508.27 194.076 507.102 202.743" stroke="#2C2C2C" stroke-miterlimit="10" stroke-linecap="round"/>
<path d="M465.828 172.298C468.041 167.245 469.011 164.414 470.913 159.237" stroke="#2C2C2C" stroke-miterlimit="10" stroke-linecap="round"/>
<path d="M418.09 192.375C419.01 192.884 420.091 193.12 421.148 193.033" stroke="#2C2C2C" stroke-miterlimit="10" stroke-linecap="round"/>
<path d="M383.256 137.397C382.785 138.7 382.723 140.141 383.083 141.482" stroke="#2C2C2C" stroke-miterlimit="10" stroke-linecap="round"/>
<path d="M370.133 131.921C370.394 132.145 370.655 132.356 370.916 132.579C373.241 134.529 375.553 136.465 377.877 138.415" stroke="#2C2C2C" stroke-miterlimit="10" stroke-linecap="round"/>
<path d="M365.953 133.771C368.887 136.254 372.281 139.16 375.426 141.37" stroke="#2C2C2C" stroke-miterlimit="10" stroke-linecap="round"/>
<path d="M364.809 139.098C367.444 141.208 370.229 143.12 373.15 144.821" stroke="#2C2C2C" stroke-miterlimit="10" stroke-linecap="round"/>
<path d="M422.469 170.982C423.314 171.814 423.961 172.845 424.371 173.95" stroke="#2C2C2C" stroke-miterlimit="10" stroke-linecap="round"/>
<path d="M228.176 300.582L214.75 364.102" stroke="#E95353" stroke-width="2" stroke-miterlimit="10"/>
<path d="M346.246 300.582L359.672 364.102" stroke="#E95353" stroke-width="2" stroke-miterlimit="10"/>
<path d="M382.709 296.037C382.709 303.922 340.32 307.348 288.021 307.348C235.723 307.348 193.332 303.934 193.332 296.037C193.332 288.141 235.723 284.726 288.021 284.726C340.32 284.726 382.709 288.141 382.709 296.037Z" fill="#E95353"/>
<path d="M310.421 287.483C311.379 289.593 313.478 290.847 315.505 291.779C317.021 292.474 318.575 293.07 320.166 293.567C321.807 296.956 325.277 299.29 329.292 299.29C334.899 299.29 339.435 294.759 339.435 289.159V277.897H319.147V281.076C318.55 280.741 317.93 280.468 317.246 280.294C315.307 279.785 313.131 280.157 311.565 281.436C309.725 282.938 309.488 285.422 310.433 287.495L310.421 287.483ZM312.895 284.416C312.846 284.54 313.006 284.205 313.006 284.205C313.043 284.143 313.082 284.081 313.119 284.031C313.119 284.019 313.119 284.019 313.131 284.006C313.181 283.957 313.231 283.894 313.281 283.845C313.355 283.77 313.603 283.559 313.553 283.596C313.491 283.634 313.79 283.447 313.877 283.41C313.939 283.373 314.014 283.336 314.076 283.311C314.113 283.298 314.162 283.274 314.174 283.274C314.336 283.224 314.499 283.174 314.673 283.125C314.723 283.125 314.971 283.075 315.009 283.063C315.158 283.05 315.307 283.038 315.456 283.038C316.115 283.038 316.587 283.125 317.246 283.435C317.942 283.758 318.55 284.205 319.134 284.689V289.184C319.134 289.507 319.161 289.842 319.185 290.152C318.415 289.867 317.643 289.556 316.897 289.209C315.405 288.513 313.741 287.694 313.044 286.179C312.783 285.595 312.721 284.9 312.895 284.428V284.416Z" fill="#2C2C2C"/>
<path d="M225.628 286.676C226.585 288.786 228.686 290.04 230.712 290.972C232.229 291.667 233.783 292.263 235.374 292.759C237.015 296.149 240.482 298.483 244.497 298.483C250.104 298.483 254.643 293.951 254.643 288.352V277.09H234.355V280.269C233.758 279.934 233.135 279.66 232.452 279.487C230.512 278.978 228.337 279.35 226.77 280.629C224.931 282.131 224.696 284.614 225.64 286.688L225.628 286.676ZM228.101 283.596C228.051 283.721 228.214 283.385 228.214 283.385C228.251 283.323 228.287 283.261 228.324 283.211C228.324 283.199 228.324 283.199 228.337 283.187C228.386 283.137 228.436 283.075 228.486 283.025C228.561 282.951 228.823 282.74 228.761 282.777C228.699 282.814 228.997 282.628 229.084 282.591C229.146 282.553 229.221 282.516 229.283 282.491C229.32 282.479 229.37 282.454 229.382 282.454C229.544 282.404 229.704 282.355 229.878 282.305C229.928 282.305 230.178 282.255 230.215 282.243C230.364 282.231 230.512 282.218 230.661 282.218C231.32 282.218 231.793 282.305 232.452 282.615C233.148 282.938 233.758 283.385 234.342 283.87V288.364C234.342 288.687 234.354 289.022 234.391 289.333C233.62 289.047 232.851 288.737 232.105 288.389C230.613 287.694 228.946 286.887 228.25 285.359C227.989 284.776 227.927 284.081 228.101 283.609V283.596Z" fill="#2C2C2C"/>
<path d="M297.034 222.745C297.979 221.578 299.122 220.585 300.303 219.666C304.393 216.487 309.092 214.103 314.077 212.676C313.891 214.91 313.704 217.158 313.518 219.393C313.356 221.267 313.195 223.192 312.362 224.881C310.833 227.985 307.712 230.567 305.04 232.603C303.809 233.535 292.596 240.897 292.82 241.779C291.577 236.912 292.484 233.547 294.063 228.916C294.697 227.066 295.331 225.203 296.425 223.577C296.624 223.291 296.823 223.018 297.034 222.745Z" fill="#59AC9C"/>
<path d="M280.187 219.38C279.926 216.971 280.448 214.439 281.592 212.415C282.798 210.267 284.662 208.566 286.49 206.914C288.603 205.002 290.704 203.09 292.817 201.191C293.24 200.806 295.938 208.317 296.049 209.013C296.472 211.62 296.659 214.898 295.179 217.207C293.886 219.219 291.611 220.609 290.232 222.67C288.367 225.464 287.36 228.605 286.204 231.722C285.234 230.095 284.55 228.382 283.767 226.668C283.046 225.092 282.139 224.52 281.393 223.242C280.722 222.074 280.324 220.758 280.175 219.393L280.187 219.38Z" fill="#59AC9C"/>
<path d="M299.32 230.207C294.397 235.72 292.507 243.306 291.823 250.656C291.14 258.007 291.488 265.456 290.27 272.745" stroke="#2C2C2C" stroke-miterlimit="10"/>
<path d="M286.219 220.386C286.181 226.222 286.157 232.057 286.828 237.855C287.039 239.656 287.313 241.456 287.549 243.256C288.767 252.705 288.643 262.328 287.176 271.751" stroke="#2C2C2C" stroke-miterlimit="10"/>
<path d="M298.6 296.708L299.917 255.362H279.008L280.338 296.708H298.6Z" fill="#2C2C2C"/>
<path d="M270.393 116.972C270.393 115.631 270.206 114.34 269.647 113.197C269.087 112.055 268.304 111.037 267.496 110.069" stroke="#2C2C2C" stroke-miterlimit="10" stroke-linecap="round"/>
<path d="M482.112 114.923C474.728 116.339 465.678 115.432 458.952 112.055C452.09 108.603 446.496 103.389 439.236 100.632C432.188 97.9505 423.871 98.8073 417.618 103.14C414.249 105.475 407.574 113.309 412.832 117.208C413.814 117.928 415.132 117.978 416.338 117.891C430.994 116.773 439.709 100.086 434.015 87.0492C428.309 73.975 413.379 67.2702 399.183 65.7058C379.044 63.4833 355.574 71.8891 349.035 91.0348C347.307 96.1005 347.021 102.097 350.179 106.431C351.894 108.79 354.467 110.416 357.177 111.497C372.194 117.531 390.792 105.748 393.614 89.8304C396.435 73.913 384.974 57.4118 369.584 52.4206C354.194 47.4293 336.517 52.9296 324.918 64.2034C313.32 75.4773 307.415 91.7302 306.47 107.859C305.563 123.429 311.318 141.866 326.261 146.411C334.565 148.931 343.677 146.349 351.21 142.04C365.245 134.019 375.787 119.269 376.645 103.153C377.503 87.0244 367.495 70.3369 352.105 65.358C346.449 63.5329 340.159 63.2847 334.615 65.4202C322.805 69.9769 317.385 83.5727 315.197 96.026C312.86 109.423 313.904 125.626 325.192 133.225C334.441 139.445 347.667 137.012 356.121 129.748C364.574 122.485 368.925 111.472 370.939 100.521C374.469 81.2508 371.361 60.3792 360.223 44.2506C351.26 31.2634 336.79 21.7529 321.052 19.6049C305.799 17.519 289.153 29.5006 279.917 40.762C271.364 51.1791 265.994 64.4146 268.269 77.9482C270.134 89.0482 277.095 99.2169 289.091 100.247C303.039 101.452 316.751 91.2457 325.378 81.2756C333.657 71.7152 339.873 59.622 339.413 46.9824C338.792 29.9972 325.776 16.2774 310.423 10.6156C294.424 4.70558 276.958 11.2985 265.459 23.0318C251.934 36.8261 247.608 56.2447 252.158 74.7944C252.568 76.483 253.04 78.1469 253.563 79.7982C256.708 89.7435 261.108 93.9029 268.43 100.657" stroke="#2C2C2C" stroke-miterlimit="10" stroke-linecap="round"/>
<path d="M283.557 111.459C283.272 109.845 282.923 108.244 282.178 106.778C280.474 103.426 276.882 101.253 273.414 100.123C270.654 99.2169 266.75 98.2361 264.401 100.595C264.14 100.856 263.904 101.166 263.792 101.526C263.555 102.271 263.891 103.103 264.426 103.674C264.973 104.233 265.694 104.593 266.402 104.928C265.433 105.351 264.674 106.282 264.6 107.337C264.488 108.815 265.843 109.92 267.011 110.528C266.514 111.223 265.88 111.919 265.893 112.837C265.917 113.818 266.713 114.638 267.621 114.986C268.528 115.346 269.535 115.321 270.517 115.308C270.604 115.308 273.302 120.039 273.339 120.672C273.476 123.031 272.357 126.023 271.723 128.271C270.691 131.971 268.615 137.459 271.922 140.736C273.202 142.003 275.104 142.388 276.882 142.698C279.119 143.083 281.718 143.331 283.383 141.792C284.863 140.426 285.012 138.179 285.037 136.167C285.086 131.722 284.987 127.29 284.639 122.857C284.341 119.083 284.216 115.184 283.545 111.472L283.557 111.459Z" fill="#EC9090"/>
<path d="M270.394 116.488C270.257 120.61 270.27 125.154 272.992 128.258C274.31 129.761 276.15 130.754 277.468 132.256C279.569 134.665 280.091 138.055 280.178 141.246C280.426 150.049 276.809 158.802 269.188 163.731C261.705 168.573 252.779 164.625 245.644 168.4C238.67 172.087 235.127 180.555 232.703 187.595C229.707 196.336 226.425 205.71 218.407 211.186C209.431 217.319 194.489 216.76 184.631 213.433C180.454 212.017 176.352 209.994 171.938 209.907C167.314 209.807 162.951 211.819 158.774 213.805C153.478 216.313 147.921 218.884 143.023 222.087C138.175 225.265 134.645 230.083 129.821 233.323C125.781 236.043 121.033 237.595 117.08 240.426C113.126 243.269 109.919 248.111 111.187 252.804C111.66 254.58 112.729 256.132 113.711 257.684C116.694 262.39 119.081 268.61 116.073 273.303C114.332 276.022 111.2 277.463 108.701 279.499C104.536 282.889 102.05 288.24 102.15 293.604C102.174 295.292 102.46 297.006 103.231 298.508C107.234 306.293 118.957 305.449 122.773 314.016C127.484 324.569 124.6 339.071 118.248 348.247C110.106 360.017 94.9021 366.461 80.7677 364.14C75.3228 363.246 70.1888 361.172 65.2536 358.776C63.0408 357.696 60.8902 356.342 58.578 355.635C55.955 354.815 53.8291 354.716 51.8028 352.518C50.9823 351.624 50.3112 350.494 50.336 349.29C50.3982 346.658 53.7173 345.23 56.2782 345.813C60.3681 346.757 63.1278 351.537 61.8723 355.535C60.8653 358.788 57.7451 361.036 54.4632 361.954C51.1814 362.873 47.7006 362.699 44.3068 362.55C40.9007 362.401 37.4075 362.302 34.1753 363.37C30.7319 364.5 27.8478 366.859 25.0508 369.156" stroke="#2C2C2C" stroke-miterlimit="10" stroke-linecap="round"/>
<path d="M142.125 220.535C148.962 215.333 152.406 206.952 157.08 199.726C163.507 189.805 172.482 181.859 181.358 174.049" stroke="#2C2C2C" stroke-miterlimit="10"/>
<path d="M130.219 213.185C128.976 210.478 126.887 208.541 124.19 207.299C123.109 206.803 121.866 206.368 120.772 206.828C120.274 207.039 119.864 207.411 119.479 207.796C117.204 210.056 115.488 212.812 113.897 215.606C110.478 221.59 106.525 227.736 105.755 234.665C105.034 241.084 106.127 244.56 108.042 250.644C108.576 252.345 110.429 256.815 111.187 258.441C111.933 260.031 112.505 261.471 113.002 263.184C113.052 263.371 113.114 263.557 113.226 263.706C113.363 263.892 113.574 264.029 113.785 264.116C114.096 264.265 114.469 264.351 114.792 264.24C115.178 264.103 115.414 263.706 115.55 263.308C116.284 261.285 115.476 258.479 114.892 256.504C114.705 255.871 114.419 255.25 114.183 254.63C113.897 253.835 113.735 252.606 113.151 251.997C113.698 252.581 114.73 252.457 115.314 251.91C115.899 251.352 116.085 250.507 116.06 249.7C117.042 249.998 118.173 249.477 118.72 248.608C119.081 248.049 119.218 247.366 119.18 246.708C119.143 245.988 118.385 245.193 119.131 245.541C120.946 246.385 121.928 245.665 122.599 244.659C123.071 243.952 123.357 242.449 123.444 241.605C123.581 240.289 123.419 238.948 122.972 237.706C122.897 237.508 122.81 237.297 122.636 237.185C122.201 236.899 121.667 237.384 121.418 237.843C121.145 238.327 120.946 238.849 120.809 239.383C120.772 238.377 120.61 237.371 120.349 236.39C120.1 235.472 119.591 234.652 119.33 233.746C119.081 232.864 119.765 232.305 120.262 231.635C120.846 230.84 121.443 230.058 122.089 229.313C123.022 228.245 124.078 227.277 125.035 226.234C126.241 224.93 127.521 223.676 128.541 222.224C129.473 220.87 131.226 218.995 131.512 217.381C131.723 216.202 130.965 214.898 130.194 213.197L130.219 213.185Z" fill="#EC9090"/>
<path d="M271.066 111.484H272.372" stroke="#2C2C2C" stroke-miterlimit="10" stroke-linecap="round"/>
<path d="M271.254 107.945C271.813 107.821 272.373 107.697 272.932 107.573" stroke="#2C2C2C" stroke-miterlimit="10" stroke-linecap="round"/>
<path d="M271.254 103.637C271.751 103.699 272.248 103.761 272.746 103.824" stroke="#2C2C2C" stroke-miterlimit="10" stroke-linecap="round"/>
<path d="M212.305 118.959C213.026 119.741 214.12 120.163 215.189 120.076C216.258 119.989 217.265 119.393 217.849 118.499" stroke="#2C2C2C" stroke-miterlimit="10" stroke-linecap="round"/>
<path d="M189.777 100.682C194.926 100.682 199.1 96.3911 199.1 91.0972C199.1 85.8035 194.926 81.5117 189.777 81.5117C184.628 81.5117 180.453 85.8035 180.453 91.0972C180.453 96.3911 184.628 100.682 189.777 100.682Z" fill="#292622"/>
<path d="M119.477 206.691C122.97 206.716 126.413 208.28 128.725 210.888C131.037 213.495 132.181 217.108 131.771 220.572" stroke="#2C2C2C" stroke-miterlimit="10"/>
<path d="M119.293 233.572C118.907 232.939 118.572 232.281 118.273 231.61" stroke="#2C2C2C" stroke-miterlimit="10" stroke-linecap="round"/>
<path d="M113.413 252.184C113.077 251.426 112.455 250.209 112.281 249.39" stroke="#2C2C2C" stroke-miterlimit="10"/>
<path d="M116.072 249.663C115.935 249.266 115.227 247.08 115.09 246.683" stroke="#2C2C2C" stroke-miterlimit="10"/>
<path d="M119.043 245.74C118.484 244.933 118.148 243.989 118.086 243.021" stroke="#2C2C2C" stroke-miterlimit="10"/>
<path d="M120.793 239.308C120.905 240.165 121.029 241.022 121.141 241.878" stroke="#2C2C2C" stroke-miterlimit="10"/>
<path d="M497.711 208.69C499.874 211.123 501.428 214.091 502.186 217.257" stroke="#2C2C2C" stroke-miterlimit="10" stroke-linecap="round"/>
<path d="M503.305 228.059V249.291" stroke="#2C2C2C" stroke-miterlimit="10" stroke-linecap="round"/>
<path d="M358.578 207.833C360.443 208.938 361.897 210.701 362.618 212.738" stroke="#2C2C2C" stroke-miterlimit="10" stroke-linecap="round"/>
<path d="M92.4883 208.218C88.0876 209.609 84.2089 211.173 81.7227 215.047" stroke="#2C2C2C" stroke-miterlimit="10" stroke-linecap="round"/>
<path d="M78.3164 225.079V240.351" stroke="#2C2C2C" stroke-miterlimit="10" stroke-linecap="round"/>
<path d="M448.308 41.805C442.216 41.805 437.281 36.8759 437.281 30.792V19.7788H459.334V30.792C459.334 36.8759 454.399 41.805 448.308 41.805Z" fill="#8AD9CA"/>
<path d="M459.334 63.8187H437.281V52.8057C437.281 46.7218 442.216 41.7925 448.308 41.7925C454.399 41.7925 459.334 46.7218 459.334 52.8057V63.8187Z" fill="#8AD9CA"/>
<path d="M435.121 19.7788H462.096" stroke="#2C2C2C" stroke-miterlimit="10" stroke-linecap="round"/>
<path d="M439.508 31.2637V31.8224C439.508 36.6771 443.449 40.6131 448.309 40.6131C453.17 40.6131 457.111 36.6771 457.111 31.8224V31.2637H439.508Z" fill="#2C2C2C"/>
<path d="M458.117 62.4905C457.309 59.6099 453.231 56.2202 448.308 56.2202C443.398 56.2202 439.32 59.5975 438.5 62.4905H458.104H458.117Z" fill="#2C2C2C"/>
<path d="M435.121 62.6267H462.096" stroke="#2C2C2C" stroke-miterlimit="10" stroke-linecap="round"/>
<path d="M200.069 65.793C216.691 65.793 230.166 52.335 230.166 35.7336C230.166 19.1323 216.691 5.67432 200.069 5.67432C183.448 5.67432 169.973 19.1323 169.973 35.7336C169.973 52.335 183.448 65.793 200.069 65.793Z" fill="#8AD9CA"/>
<path d="M212.029 14.4895L200.07 35.7336L216.728 35.5596" stroke="#498F81" stroke-miterlimit="10" stroke-linecap="round"/>
<path d="M199.949 8.41821V12.441" stroke="#2C2C2C" stroke-miterlimit="10" stroke-linecap="round"/>
<path d="M199.949 58.9517V62.9745" stroke="#2C2C2C" stroke-miterlimit="10" stroke-linecap="round"/>
<path d="M172.633 35.6963H176.661" stroke="#2C2C2C" stroke-miterlimit="10" stroke-linecap="round"/>
<path d="M223.23 35.6963H227.258" stroke="#2C2C2C" stroke-miterlimit="10" stroke-linecap="round"/>
<path d="M180.629 16.4141L183.488 19.2574" stroke="#2C2C2C" stroke-miterlimit="10" stroke-linecap="round"/>
<path d="M216.402 52.1353L219.249 54.991" stroke="#2C2C2C" stroke-miterlimit="10" stroke-linecap="round"/>
<path d="M180.629 54.991L183.488 52.1353" stroke="#2C2C2C" stroke-miterlimit="10" stroke-linecap="round"/>
<path d="M216.402 19.2574L219.249 16.4141" stroke="#2C2C2C" stroke-miterlimit="10" stroke-linecap="round"/>
<path d="M442.109 223.825C443.614 222.82 448.35 220.572 451.57 219.939" stroke="#2C2C2C" stroke-miterlimit="10" stroke-linecap="round"/>
<path d="M436.848 218.896C439.943 216.239 444.58 214.861 448.856 213.929" stroke="#2C2C2C" stroke-miterlimit="10" stroke-linecap="round"/>
<path d="M438.191 222.348C441.871 219.517 445.812 218.126 450.672 216.723" stroke="#2C2C2C" stroke-miterlimit="10" stroke-linecap="round"/>
</svg>
