<svg width="27" height="24" viewBox="0 0 27 24" fill="none" xmlns="http://www.w3.org/2000/svg">
<path d="M24.0723 2.94496C23.4614 2.32835 22.7361 1.83921 21.9378 1.50549C21.1396 1.17177 20.2839 1 19.4199 1C18.5558 1 17.7001 1.17177 16.9019 1.50549C16.1036 1.83921 15.3783 2.32835 14.7674 2.94496L13.4997 4.22404L12.2319 2.94496C10.998 1.70004 9.3245 1.00065 7.57951 1.00065C5.83452 1.00065 4.16099 1.70004 2.92709 2.94496C1.6932 4.18988 1 5.87836 1 7.63895C1 9.39954 1.6932 11.088 2.92709 12.3329L13.4997 23L24.0723 12.3329C24.6834 11.7166 25.1682 10.9849 25.499 10.1794C25.8298 9.37403 26 8.51076 26 7.63895C26 6.76714 25.8298 5.90387 25.499 5.09846C25.1682 4.29305 24.6834 3.56128 24.0723 2.94496Z" stroke="#A6A6A6" stroke-width="2" stroke-linecap="round" stroke-linejoin="round"/>
</svg>
