<svg width="292" height="230" viewBox="0 0 292 230" fill="none" xmlns="http://www.w3.org/2000/svg">
<path d="M42.1272 20.7175L44.5528 9.33679L48.5316 10.1848C49.3244 10.3538 49.949 10.6302 50.4056 11.0141C50.8629 11.3943 51.1685 11.8409 51.3225 12.354C51.4773 12.8634 51.4955 13.3959 51.3771 13.9516C51.2729 14.4406 51.0997 14.8259 50.8577 15.1074C50.6194 15.3896 50.3397 15.5934 50.0187 15.7186C49.7013 15.8446 49.3702 15.9174 49.0252 15.9368L49.0015 16.0479C49.3451 16.1444 49.6691 16.3412 49.9737 16.6385C50.2782 16.9358 50.5048 17.3172 50.6535 17.7827C50.8022 18.2481 50.8125 18.7809 50.6846 19.3811C50.563 19.9516 50.324 20.4371 49.9676 20.8375C49.6111 21.2379 49.1248 21.5118 48.5085 21.6593C47.8923 21.8068 47.1359 21.7851 46.2393 21.594L42.1272 20.7175ZM43.7659 19.7887L46.4999 20.3714C47.4001 20.5633 48.0763 20.5254 48.5284 20.2577C48.985 19.9871 49.2666 19.6017 49.3732 19.1016C49.4553 18.7163 49.4329 18.3397 49.3061 17.9718C49.18 17.6003 48.9563 17.2776 48.6351 17.0039C48.3147 16.7265 47.9063 16.5349 47.4099 16.4291L44.6091 15.8321L43.7659 19.7887ZM44.865 14.6318L47.4212 15.1766C47.8361 15.2651 48.2276 15.2633 48.5958 15.1714C48.9677 15.0802 49.2834 14.9074 49.5429 14.6529C49.8061 14.3991 49.9803 14.0722 50.0656 13.6721C50.1722 13.172 50.0885 12.7107 49.8145 12.2882C49.5413 11.862 49.0268 11.5684 48.271 11.4073L45.6703 10.8531L44.865 14.6318ZM54.4213 17.6446L56.8664 18.1657C57.8667 18.3789 58.5776 18.7957 58.9992 19.4161C59.4208 20.0366 59.5487 20.7358 59.3828 21.5138C59.2739 22.025 59.0562 22.4647 58.7299 22.8328C58.4044 23.1972 57.9855 23.4545 57.4732 23.6048C56.9617 23.7514 56.3725 23.7537 55.7057 23.6116L52.127 22.8488L53.9462 14.3133L55.2576 14.5928L53.699 21.9058L55.9663 22.389C56.4849 22.4996 56.9402 22.4533 57.332 22.2502C57.7239 22.0471 57.9656 21.7307 58.0572 21.301C58.1535 20.849 58.0654 20.4449 57.7927 20.0885C57.5201 19.7322 57.1245 19.4988 56.6058 19.3882L54.1607 18.8671L54.4213 17.6446ZM60.1513 24.5591L61.9705 16.0235L63.282 16.303L61.4628 24.8386L60.1513 24.5591ZM71.6942 27.2051C70.894 27.0346 70.2452 26.6988 69.7478 26.1977C69.2504 25.6967 68.9168 25.0814 68.7469 24.3519C68.5771 23.6225 68.583 22.8317 68.7646 21.9796C68.9493 21.1128 69.2717 20.3817 69.7316 19.7865C70.196 19.1883 70.7552 18.7633 71.4092 18.5116C72.0677 18.2569 72.7822 18.2116 73.5528 18.3759C74.1529 18.5038 74.6701 18.7302 75.1043 19.0551C75.5386 19.38 75.8668 19.7753 76.089 20.241C76.3112 20.7066 76.4025 21.2141 76.3629 21.7633L75.0515 21.4838C75.0344 21.0735 74.8855 20.6816 74.6049 20.3081C74.3288 19.9317 73.9018 19.6819 73.3239 19.5587C72.8127 19.4497 72.336 19.4875 71.8938 19.6722C71.4562 19.8539 71.0786 20.1626 70.7611 20.5984C70.4481 21.0313 70.2229 21.5701 70.0855 22.2147C69.9449 22.8741 69.9263 23.4705 70.0295 24.0037C70.1365 24.5377 70.3519 24.9806 70.6758 25.3324C71.0035 25.6849 71.4266 25.9165 71.9453 26.027C72.2861 26.0997 72.6081 26.1063 72.9112 26.047C73.2143 25.9877 73.4859 25.8674 73.7259 25.6862C73.9659 25.5049 74.1599 25.2674 74.3077 24.9736L75.6191 25.2531C75.4377 25.7412 75.1576 26.1559 74.7788 26.4973C74.4046 26.8358 73.9532 27.0727 73.4248 27.208C72.9009 27.3403 72.324 27.3393 71.6942 27.2051ZM79.4748 28.8867C78.934 28.7714 78.4648 28.5649 78.0674 28.2672C77.6707 27.9657 77.3842 27.5929 77.2078 27.1486C77.0321 26.7007 77.0036 26.1988 77.122 25.6431C77.2262 25.1541 77.407 24.7783 77.6644 24.5155C77.9226 24.2491 78.2314 24.0632 78.5908 23.9577C78.9502 23.8523 79.3335 23.7985 79.7407 23.7962C80.1523 23.7909 80.5618 23.8046 80.9693 23.8373C81.5022 23.8811 81.9333 23.9207 82.2627 23.9561C82.5966 23.9885 82.8468 23.9779 83.0131 23.9243C83.1832 23.8715 83.2907 23.7395 83.3357 23.5283L83.3452 23.4838C83.462 22.9355 83.4028 22.4775 83.1675 22.1098C82.9358 21.7428 82.5181 21.495 81.9142 21.3663C81.2881 21.2329 80.768 21.2653 80.354 21.4637C79.9399 21.662 79.6274 21.9014 79.4166 22.1818L78.2666 21.4719C78.5994 21.0006 78.9819 20.66 79.4139 20.45C79.8505 20.2371 80.3014 20.1202 80.7668 20.0993C81.2366 20.0755 81.6864 20.1094 82.1161 20.201C82.3903 20.2594 82.698 20.3599 83.0395 20.5023C83.3854 20.6419 83.7038 20.8473 83.9946 21.1184C84.289 21.3903 84.5044 21.7518 84.6406 22.203C84.7768 22.6542 84.7727 23.2188 84.6282 23.8967L83.4296 29.5204L82.1182 29.2409L82.3645 28.085L82.2978 28.0708C82.1694 28.2371 81.979 28.4037 81.7265 28.5707C81.4741 28.7376 81.1598 28.8585 80.7837 28.9332C80.4075 29.008 79.9713 28.9925 79.4748 28.8867ZM79.926 27.7512C80.4446 27.8618 80.9035 27.853 81.3026 27.7251C81.7053 27.5979 82.0318 27.3925 82.2821 27.1089C82.536 26.8261 82.7009 26.5068 82.7767 26.1512L83.0325 24.9509C82.9627 25.0057 82.8274 25.0408 82.6266 25.0561C82.4304 25.0685 82.2056 25.069 81.9524 25.0576C81.7037 25.0434 81.4614 25.0266 81.2254 25.0072C80.9938 24.985 80.8057 24.9682 80.661 24.9567C80.3107 24.9285 79.9767 24.9328 79.659 24.9697C79.3458 25.0036 79.0775 25.0994 78.8541 25.2571C78.6353 25.4118 78.4903 25.6559 78.4192 25.9893C78.3221 26.445 78.4172 26.8255 78.7046 27.1307C78.9965 27.433 79.4036 27.6399 79.926 27.7512ZM90.8702 29.2472L95.2889 23.1247L96.5337 23.39L91.0246 31.1391L89.9577 30.9117L88.1537 21.604L89.3763 21.8645L90.8702 29.2472ZM88.9539 21.7745L87.1347 30.3101L85.8233 30.0306L87.6425 21.495L88.9539 21.7745ZM93.8476 31.7408L95.6668 23.2052L96.9783 23.4848L95.1591 32.0203L93.8476 31.7408ZM99.2833 30.8776L104.803 25.1524L106.314 25.4745L104.495 34.0101L103.183 33.7306L104.59 27.1288L99.0934 32.8589L97.5597 32.532L99.3789 23.9964L100.69 24.2759L99.2833 30.8776ZM111.298 35.46L113.117 26.9245L116.607 27.6683C117.526 27.8641 118.211 28.2271 118.664 28.7573C119.116 29.2875 119.27 29.8934 119.125 30.5751C119.014 31.0937 118.775 31.4629 118.406 31.6827C118.039 31.8987 117.604 32.0054 117.101 32.0028C117.406 32.1143 117.688 32.2906 117.947 32.5316C118.209 32.7734 118.405 33.0708 118.535 33.4238C118.666 33.7732 118.683 34.172 118.588 34.6202C118.495 35.0574 118.3 35.4245 118.004 35.7217C117.709 36.0189 117.332 36.2232 116.874 36.3349C116.417 36.4465 115.899 36.4407 115.321 36.3175L111.298 35.46ZM112.799 34.525L115.577 35.1172C116.029 35.2135 116.406 35.1815 116.707 35.0211C117.009 34.8607 117.199 34.5953 117.278 34.2248C117.372 33.784 117.318 33.4104 117.116 33.104C116.915 32.7939 116.588 32.5906 116.136 32.4943L113.358 31.9021L112.799 34.525ZM113.599 30.7685L115.844 31.247C116.196 31.322 116.508 31.3382 116.781 31.2956C117.054 31.2492 117.277 31.1495 117.449 30.9964C117.625 30.8404 117.74 30.6364 117.794 30.3845C117.871 30.0251 117.781 29.7116 117.524 29.4439C117.268 29.1725 116.877 28.9807 116.351 28.8686L114.106 28.3901L113.599 30.7685ZM122.379 32.1286L124.824 32.6497C125.825 32.8629 126.536 33.2797 126.957 33.9002C127.379 34.5206 127.507 35.2198 127.341 35.9978C127.232 36.5091 127.014 36.9487 126.688 37.3168C126.362 37.6812 125.943 37.9386 125.431 38.0889C124.92 38.2355 124.331 38.2377 123.664 38.0956L120.085 37.3328L121.904 28.7973L123.216 29.0768L121.657 36.3898L123.924 36.873C124.443 36.9836 124.898 36.9373 125.29 36.7342C125.682 36.5311 125.924 36.2147 126.015 35.785C126.112 35.333 126.023 34.9289 125.751 34.5725C125.478 34.2162 125.082 33.9828 124.564 33.8722L122.119 33.3511L122.379 32.1286ZM128.109 39.0431L129.929 30.5075L131.24 30.787L129.421 39.3226L128.109 39.0431ZM140.658 29.448L141.154 30.3904C140.841 30.587 140.503 30.699 140.141 30.7264C139.779 30.7538 139.381 30.7328 138.946 30.6634C138.512 30.5941 138.029 30.5144 137.498 30.4246C136.901 30.3204 136.379 30.3603 135.933 30.5441C135.488 30.728 135.105 31.0493 134.787 31.5081C134.468 31.967 134.201 32.5568 133.986 33.2777L134.097 33.3014C134.499 32.8295 134.983 32.5221 135.548 32.3791C136.113 32.2362 136.688 32.2271 137.274 32.3518C137.94 32.494 138.507 32.7775 138.975 33.2024C139.442 33.6273 139.766 34.1785 139.947 34.8561C140.128 35.5337 140.122 36.3208 139.931 37.2173C139.741 38.1101 139.418 38.8467 138.961 39.4271C138.508 40.0083 137.958 40.4141 137.313 40.6445C136.672 40.8719 135.97 40.9043 135.207 40.7416C134.443 40.579 133.813 40.2568 133.315 39.775C132.819 39.2896 132.487 38.6573 132.32 37.8781C132.153 37.0952 132.182 36.1777 132.407 35.1255L132.601 34.2142C133.006 32.3137 133.635 30.9413 134.489 30.0969C135.347 29.2534 136.429 28.9535 137.737 29.1973C138.199 29.2804 138.609 29.3639 138.967 29.4479C139.325 29.5319 139.642 29.582 139.917 29.5981C140.192 29.6142 140.439 29.5641 140.658 29.448ZM135.458 39.5635C135.973 39.6733 136.443 39.638 136.869 39.4576C137.298 39.278 137.663 38.9743 137.963 38.5465C138.265 38.1149 138.483 37.5787 138.62 36.9378C138.753 36.3154 138.764 35.7639 138.653 35.2833C138.546 34.8035 138.33 34.4089 138.005 34.0995C137.68 33.79 137.256 33.5797 136.734 33.4683C136.352 33.387 135.995 33.3788 135.664 33.4437C135.333 33.5086 135.033 33.6442 134.764 33.8503C134.496 34.0564 134.263 34.3284 134.067 34.6661C133.875 35.0047 133.726 35.4066 133.619 35.8718C133.415 36.8276 133.476 37.6404 133.802 38.3102C134.128 38.9799 134.68 39.3977 135.458 39.5635ZM142.775 40.1472L148.294 34.4219L149.806 34.744L147.987 43.2796L146.675 43.0001L148.082 36.3983L142.585 42.1284L141.052 41.8015L142.871 33.2659L144.182 33.5454L142.775 40.1472ZM149.707 46.9924L152.208 35.256L153.475 35.526L153.186 36.8819L153.342 36.9151C153.469 36.7874 153.643 36.6269 153.862 36.4335C154.086 36.2373 154.379 36.0827 154.74 35.9699C155.105 35.8541 155.566 35.8555 156.122 35.9739C156.84 36.1271 157.435 36.4418 157.907 36.918C158.379 37.3942 158.698 37.9948 158.865 38.7197C159.032 39.4447 159.02 40.2555 158.829 41.152C158.636 42.0559 158.316 42.8067 157.867 43.4043C157.419 43.9982 156.884 44.4186 156.262 44.6656C155.641 44.9089 154.974 44.9548 154.263 44.8032C153.715 44.6863 153.295 44.502 153.004 44.2502C152.714 43.9947 152.505 43.7313 152.377 43.46C152.249 43.185 152.154 42.9594 152.091 42.7833L151.98 42.7596L151.018 47.2719L149.707 46.9924ZM152.588 39.7985C152.45 40.4431 152.423 41.0319 152.507 41.5649C152.592 42.0942 152.786 42.5365 153.09 42.8917C153.395 43.2432 153.81 43.475 154.336 43.5872C154.885 43.704 155.373 43.6571 155.801 43.4463C156.234 43.2326 156.596 42.8991 156.886 42.4458C157.181 41.9897 157.393 41.4578 157.522 40.8502C157.65 40.2501 157.673 39.6895 157.59 39.1684C157.512 38.6444 157.318 38.2021 157.007 37.8416C156.701 37.4782 156.271 37.2372 155.715 37.1188C155.181 37.0051 154.704 37.0448 154.284 37.2379C153.864 37.4272 153.51 37.743 153.222 38.1851C152.935 38.6235 152.723 39.1613 152.588 39.7985ZM162.394 46.5593C161.853 46.444 161.384 46.2375 160.986 45.9398C160.59 45.6384 160.303 45.2655 160.127 44.8213C159.951 44.3733 159.922 43.8715 160.041 43.3158C160.145 42.8268 160.326 42.4509 160.583 42.1882C160.841 41.9217 161.15 41.7358 161.51 41.6304C161.869 41.525 162.252 41.4711 162.66 41.4688C163.071 41.4636 163.481 41.4773 163.888 41.5099C164.421 41.5538 164.852 41.5934 165.182 41.6287C165.515 41.6612 165.766 41.6506 165.932 41.5969C166.102 41.5441 166.21 41.4121 166.255 41.2009L166.264 41.1565C166.381 40.6082 166.322 40.1502 166.086 39.7824C165.855 39.4155 165.437 39.1677 164.833 39.039C164.207 38.9055 163.687 38.938 163.273 39.1363C162.859 39.3347 162.546 39.574 162.336 39.8544L161.185 39.1446C161.518 38.6733 161.901 38.3327 162.333 38.1226C162.769 37.9097 163.22 37.7928 163.686 37.7719C164.155 37.7481 164.605 37.782 165.035 37.8736C165.309 37.9321 165.617 38.0325 165.958 38.175C166.304 38.3146 166.623 38.5199 166.913 38.791C167.208 39.0629 167.423 39.4245 167.559 39.8757C167.696 40.3268 167.692 40.8914 167.547 41.5694L166.348 47.1931L165.037 46.9135L165.283 45.7577L165.217 45.7435C165.088 45.9098 164.898 46.0764 164.645 46.2433C164.393 46.4103 164.079 46.5311 163.703 46.6059C163.326 46.6806 162.89 46.6651 162.394 46.5593ZM162.845 45.4239C163.363 45.5344 163.822 45.5257 164.221 45.3977C164.624 45.2706 164.951 45.0652 165.201 44.7816C165.455 44.4987 165.62 44.1795 165.696 43.8238L165.951 42.6235C165.882 42.6784 165.746 42.7134 165.546 42.7287C165.349 42.7411 165.124 42.7416 164.871 42.7303C164.623 42.716 164.38 42.6992 164.144 42.6799C163.913 42.6577 163.725 42.6408 163.58 42.6293C163.23 42.6011 162.896 42.6055 162.578 42.6423C162.265 42.6763 161.996 42.7721 161.773 42.9297C161.554 43.0845 161.409 43.3286 161.338 43.662C161.241 44.1177 161.336 44.4981 161.623 44.8034C161.915 45.1057 162.322 45.3125 162.845 45.4239ZM172.283 48.6438C171.461 48.4685 170.79 48.1358 170.271 47.6456C169.756 47.1525 169.408 46.5437 169.225 45.8193C169.047 45.092 169.051 44.2912 169.237 43.4169C169.424 42.5425 169.747 41.8059 170.208 41.207C170.673 40.6051 171.233 40.1783 171.887 39.9265C172.545 39.6718 173.26 39.6266 174.03 39.7908C174.475 39.8856 174.898 40.0532 175.3 40.2938C175.702 40.5344 176.045 40.8593 176.33 41.2685C176.615 41.674 176.805 42.1716 176.9 42.7612C176.995 43.3507 176.958 44.0438 176.788 44.8403L176.67 45.396L170.09 43.9937L170.332 42.8601L175.578 43.9781C175.681 43.4965 175.676 43.0462 175.564 42.6273C175.455 42.2092 175.248 41.8533 174.943 41.5597C174.641 41.2669 174.253 41.07 173.779 40.9689C173.257 40.8576 172.777 40.8909 172.34 41.0689C171.908 41.244 171.546 41.5154 171.255 41.8832C170.963 42.251 170.768 42.6702 170.667 43.1407L170.506 43.8964C170.369 44.541 170.364 45.1112 170.49 45.6068C170.622 46.0995 170.862 46.5052 171.213 46.8239C171.564 47.1389 172.004 47.3528 172.534 47.4657C172.879 47.5391 173.2 47.5573 173.498 47.5202C173.801 47.4802 174.076 47.3837 174.321 47.2308C174.568 47.0742 174.778 46.8595 174.952 46.5868L176.143 47.2125C175.918 47.6138 175.614 47.9439 175.229 48.2028C174.846 48.458 174.403 48.627 173.901 48.7099C173.4 48.789 172.861 48.767 172.283 48.6438ZM178.614 42.162L178.875 40.9395L185.81 42.4176L185.549 43.6401L182.748 43.0432L181.19 50.3562L179.878 50.0767L181.437 42.7637L178.614 42.162ZM189.001 52.207C188.179 52.0317 187.508 51.699 186.989 51.2088C186.474 50.7157 186.126 50.1069 185.943 49.3825C185.765 48.6552 185.769 47.8543 185.956 46.98C186.142 46.1057 186.466 45.3691 186.926 44.7702C187.392 44.1683 187.951 43.7415 188.605 43.4897C189.264 43.235 189.978 43.1898 190.749 43.354C191.193 43.4488 191.616 43.6164 192.018 43.857C192.42 44.0976 192.763 44.4225 193.048 44.8317C193.333 45.2372 193.524 45.7348 193.619 46.3243C193.714 46.9139 193.676 47.607 193.507 48.4035L193.388 48.9592L186.809 47.5569L187.05 46.4233L192.296 47.5413C192.399 47.0597 192.394 46.6094 192.282 46.1905C192.174 45.7724 191.967 45.4165 191.661 45.1229C191.36 44.8301 190.972 44.6332 190.498 44.5321C189.975 44.4208 189.496 44.4541 189.059 44.6321C188.626 44.8072 188.264 45.0786 187.973 45.4464C187.682 45.8142 187.486 46.2334 187.386 46.7039L187.224 47.4596C187.087 48.1042 187.082 48.6743 187.209 49.17C187.34 49.6627 187.581 50.0684 187.931 50.3871C188.282 50.702 188.723 50.916 189.252 51.0289C189.597 51.1023 189.918 51.1205 190.217 51.0834C190.52 51.0434 190.794 50.9469 191.039 50.794C191.286 50.6374 191.496 50.4227 191.67 50.15L192.862 50.7757C192.637 51.177 192.332 51.5071 191.948 51.766C191.564 52.0212 191.121 52.1902 190.62 52.273C190.119 52.3522 189.579 52.3301 189.001 52.207ZM196.856 52.0685L196.639 52.6497C196.486 53.0587 196.294 53.4901 196.061 53.9441C195.833 54.3988 195.604 54.8246 195.377 55.2214C195.149 55.6183 194.963 55.9332 194.821 56.1661L193.821 55.9529C193.919 55.7261 194.049 55.4265 194.21 55.0541C194.37 54.6817 194.541 54.263 194.721 53.7979C194.905 53.3374 195.076 52.8626 195.234 52.3735L195.433 51.7653L196.856 52.0685ZM203.355 55.0804L205.175 46.5448L208.664 47.2886C209.583 47.4844 210.269 47.8474 210.721 48.3777C211.174 48.9079 211.327 49.5138 211.182 50.1954C211.071 50.7141 210.832 51.0833 210.464 51.303C210.096 51.519 209.661 51.6257 209.158 51.6231C209.463 51.7347 209.745 51.911 210.004 52.152C210.266 52.3937 210.462 52.6911 210.592 53.0442C210.723 53.3935 210.741 53.7923 210.645 54.2406C210.552 54.6777 210.357 55.0449 210.062 55.3421C209.766 55.6392 209.389 55.8436 208.932 55.9552C208.474 56.0668 207.957 56.0611 207.379 55.9379L203.355 55.0804ZM204.856 54.1454L207.634 54.7376C208.086 54.8339 208.463 54.8019 208.765 54.6415C209.066 54.4811 209.256 54.2157 209.335 53.8452C209.429 53.4043 209.375 53.0307 209.173 52.7243C208.972 52.4142 208.645 52.211 208.193 52.1147L205.415 51.5225L204.856 54.1454ZM205.657 50.3888L207.902 50.8673C208.254 50.9423 208.566 50.9585 208.838 50.9159C209.111 50.8696 209.334 50.7699 209.506 50.6167C209.683 50.4607 209.798 50.2568 209.851 50.0048C209.928 49.6455 209.838 49.332 209.581 49.0642C209.326 48.7928 208.935 48.6011 208.409 48.4889L206.163 48.0104L205.657 50.3888ZM216.544 57.8912L218.363 49.3557L219.674 49.6352L218.883 53.3472L219.75 53.532L223.609 50.4737L225.298 50.8338L220.976 54.2116L223.523 59.3788L221.834 59.0187L219.801 54.8209L218.622 54.5698L217.855 58.1707L216.544 57.8912ZM227.418 60.418C226.877 60.3027 226.408 60.0962 226.01 59.7985C225.614 59.4971 225.327 59.1242 225.151 58.68C224.975 58.232 224.946 57.7302 225.065 57.1745C225.169 56.6854 225.35 56.3096 225.607 56.0468C225.865 55.7804 226.174 55.5945 226.534 55.4891C226.893 55.3836 227.276 55.3298 227.683 55.3275C228.095 55.3222 228.505 55.336 228.912 55.3686C229.445 55.4124 229.876 55.452 230.205 55.4874C230.539 55.5198 230.79 55.5092 230.956 55.4556C231.126 55.4028 231.233 55.2708 231.278 55.0596L231.288 55.0151C231.405 54.4669 231.346 54.0088 231.11 53.6411C230.879 53.2742 230.461 53.0263 229.857 52.8976C229.231 52.7642 228.711 52.7966 228.297 52.995C227.883 53.1933 227.57 53.4327 227.359 53.7131L226.209 53.0032C226.542 52.532 226.925 52.1913 227.357 51.9813C227.793 51.7684 228.244 51.6515 228.71 51.6306C229.179 51.6068 229.629 51.6407 230.059 51.7323C230.333 51.7907 230.641 51.8912 230.982 52.0337C231.328 52.1732 231.647 52.3786 231.937 52.6497C232.232 52.9216 232.447 53.2831 232.583 53.7343C232.72 54.1855 232.715 54.7501 232.571 55.428L231.372 61.0517L230.061 60.7722L230.307 59.6163L230.241 59.6021C230.112 59.7684 229.922 59.935 229.669 60.102C229.417 60.2689 229.103 60.3898 228.726 60.4645C228.35 60.5393 227.914 60.5238 227.418 60.418ZM227.869 59.2825C228.387 59.3931 228.846 59.3844 229.245 59.2564C229.648 59.1292 229.975 58.9238 230.225 58.6402C230.479 58.3574 230.644 58.0382 230.719 57.6825L230.975 56.4822C230.905 56.537 230.77 56.5721 230.569 56.5874C230.373 56.5998 230.148 56.6003 229.895 56.5889C229.646 56.5747 229.404 56.5579 229.168 56.5386C228.937 56.5163 228.749 56.4995 228.604 56.488C228.253 56.4598 227.919 56.4641 227.602 56.501C227.289 56.5349 227.02 56.6307 226.797 56.7884C226.578 56.9431 226.433 57.1872 226.362 57.5206C226.265 57.9763 226.36 58.3568 226.647 58.662C226.939 58.9644 227.346 59.1712 227.869 59.2825ZM233.766 61.5619L235.585 53.0263L236.897 53.3058L236.106 57.0179L236.972 57.2027L240.831 54.1444L242.52 54.5044L238.199 57.8823L240.746 63.0495L239.056 62.6894L237.023 58.4915L235.845 58.2405L235.078 61.8414L233.766 61.5619ZM245.249 64.1952C244.479 64.031 243.842 63.7035 243.338 63.2128C242.838 62.7228 242.496 62.1134 242.31 61.3845C242.129 60.6564 242.132 59.8515 242.32 58.9697C242.509 58.0806 242.836 57.3388 243.299 56.7444C243.767 56.1507 244.328 55.7321 244.984 55.4885C245.644 55.2457 246.359 55.2065 247.13 55.3707C247.901 55.5349 248.536 55.862 249.036 56.3519C249.539 56.8427 249.881 57.454 250.062 58.1858C250.247 58.9184 250.244 59.7293 250.055 60.6184C249.867 61.5001 249.54 62.2359 249.073 62.8259C248.61 63.4166 248.049 63.8334 247.389 64.0762C246.733 64.3198 246.02 64.3594 245.249 64.1952ZM245.5 63.0171C246.086 63.1419 246.599 63.0945 247.041 62.875C247.483 62.6554 247.847 62.3205 248.132 61.8701C248.418 61.4198 248.622 60.9094 248.743 60.3389C248.865 59.7684 248.888 59.2174 248.811 58.686C248.735 58.1546 248.54 57.6967 248.227 57.3124C247.913 56.9281 247.464 56.6735 246.879 56.5488C246.294 56.424 245.78 56.4733 245.337 56.6965C244.894 56.9198 244.53 57.2584 244.243 57.7124C243.957 58.1665 243.753 58.6787 243.631 59.2493C243.509 59.8198 243.487 60.3689 243.565 60.8966C243.642 61.4243 243.838 61.8785 244.151 62.2591C244.465 62.6397 244.915 62.8924 245.5 63.0171ZM256.204 64.485L260.622 58.3625L261.867 58.6278L256.358 66.377L255.291 66.1496L253.487 56.8418L254.71 57.1024L256.204 64.485ZM254.287 57.0123L252.468 65.5479L251.157 65.2684L252.976 56.7328L254.287 57.0123ZM259.181 66.9786L261 58.4431L262.312 58.7226L260.492 67.2581L259.181 66.9786ZM42.2264 43.2096L45.2726 28.917L46.5841 29.1965L43.5378 43.4891L42.2264 43.2096ZM42.8091 40.4755C42.2312 40.3524 41.7272 40.1365 41.2972 39.828C40.868 39.5157 40.5241 39.1307 40.2654 38.6727C40.0075 38.2111 39.8435 37.6901 39.7736 37.1097C39.7036 36.5294 39.7389 35.9095 39.8794 35.2501C40.0216 34.5832 40.2429 33.9991 40.5434 33.4977C40.8447 32.9926 41.2072 32.5819 41.631 32.2655C42.0547 31.9492 42.5258 31.7378 43.0442 31.6314C43.5634 31.5213 44.112 31.5278 44.6899 31.651L45.09 31.7363L43.2092 40.5608L42.8091 40.4755ZM43.0602 39.2974L43.2825 39.3448L44.6611 32.8765L44.4388 32.8291C44.0016 32.7359 43.603 32.7439 43.2428 32.853C42.8833 32.9585 42.5657 33.1406 42.2898 33.3993C42.0184 33.6552 41.7893 33.9666 41.6027 34.3334C41.4198 34.7011 41.2825 35.0998 41.1909 35.5296C41.0693 36.1001 41.0472 36.6492 41.1245 37.1769C41.2018 37.7046 41.3974 38.1588 41.7113 38.5394C42.0252 38.92 42.4748 39.1727 43.0602 39.2974ZM44.1206 40.755L43.7204 40.6698L45.6012 31.8452L46.0013 31.9305C46.5793 32.0537 47.0828 32.2714 47.512 32.5836C47.942 32.8922 48.286 33.2772 48.5439 33.7389C48.8018 34.2005 48.9653 34.7234 49.0345 35.3074C49.1045 35.8878 49.0684 36.5114 48.9263 37.1782C48.7857 37.8376 48.5652 38.4181 48.2647 38.9195C47.9642 39.4209 47.602 39.8297 47.1783 40.1461C46.7553 40.4587 46.2843 40.6701 45.7651 40.7802C45.2467 40.8866 44.6985 40.8782 44.1206 40.755ZM44.3716 39.577C44.8125 39.6709 45.2104 39.6666 45.5653 39.5641C45.9247 39.4587 46.2401 39.2781 46.5116 39.0222C46.7875 38.7634 47.0165 38.4521 47.1986 38.0881C47.3853 37.7212 47.524 37.3247 47.6148 36.8987C47.7364 36.3282 47.7589 35.7772 47.6824 35.2458C47.6059 34.7144 47.4111 34.2565 47.098 33.8722C46.7848 33.4879 46.3356 33.2334 45.7503 33.1086L45.528 33.0612L44.1494 39.5296L44.3716 39.577ZM53.4605 42.7457C52.6899 42.5814 52.0529 42.254 51.5494 41.7632C51.0497 41.2733 50.7071 40.6639 50.5216 39.935C50.3398 39.2068 50.3429 38.4019 50.5308 37.5202C50.7203 36.6311 51.0469 35.8893 51.5106 35.2949C51.9779 34.7012 52.5396 34.2826 53.1957 34.039C53.8555 33.7962 54.5707 33.7569 55.3413 33.9212C56.1118 34.0854 56.747 34.4125 57.2468 34.9024C57.7502 35.3931 58.0925 36.0044 58.2734 36.7362C58.4581 37.4689 58.4557 38.2797 58.2662 39.1689C58.0783 40.0506 57.751 40.7864 57.2845 41.3763C56.8216 41.9671 56.2603 42.3839 55.6005 42.6266C54.9444 42.8702 54.2311 42.9099 53.4605 42.7457ZM53.7116 41.5676C54.2969 41.6923 54.8105 41.645 55.2523 41.4254C55.6942 41.2059 56.058 40.8709 56.3437 40.4206C56.6295 39.9703 56.8331 39.4599 56.9547 38.8893C57.0763 38.3188 57.0989 37.7679 57.0224 37.2364C56.9458 36.705 56.751 36.2472 56.4379 35.8629C56.1248 35.4785 55.6755 35.224 55.0902 35.0992C54.5049 34.9745 53.9909 35.0237 53.5482 35.247C53.1056 35.4702 52.741 35.8089 52.4545 36.2629C52.168 36.7169 51.9639 37.2292 51.8423 37.7997C51.7207 38.3702 51.6985 38.9194 51.7759 39.4471C51.8532 39.9748 52.0488 40.4289 52.3627 40.8095C52.6766 41.1902 53.1262 41.4428 53.7116 41.5676ZM58.6858 47.0197L61.1872 35.2833L62.4542 35.5533L62.1652 36.9092L62.3208 36.9424C62.4487 36.8147 62.6223 36.6542 62.8417 36.4609C63.0656 36.2646 63.358 36.11 63.719 35.9972C64.0845 35.8814 64.5451 35.8828 65.1008 36.0012C65.8195 36.1544 66.4147 36.4691 66.8864 36.9453C67.3581 37.4215 67.6774 38.0221 67.8443 38.7471C68.0113 39.472 67.9992 40.2828 67.8081 41.1793C67.6155 42.0833 67.2947 42.834 66.8459 43.4316C66.3979 44.0255 65.8629 44.446 65.2409 44.6929C64.6197 44.9362 63.9535 44.9821 63.2422 44.8305C62.6939 44.7136 62.2743 44.5293 61.9832 44.2775C61.693 44.022 61.4838 43.7586 61.3558 43.4873C61.2285 43.2123 61.1332 42.9867 61.0701 42.8106L60.9589 42.7869L59.9972 47.2992L58.6858 47.0197ZM61.5668 39.8258C61.4294 40.4705 61.4027 41.0593 61.4866 41.5923C61.5713 42.1215 61.7656 42.5638 62.0694 42.919C62.3741 43.2705 62.7894 43.5024 63.3155 43.6145C63.8638 43.7313 64.3521 43.6844 64.7804 43.4736C65.2133 43.2599 65.5748 42.9264 65.8651 42.4732C66.1598 42.017 66.3719 41.4851 66.5014 40.8776C66.6293 40.2774 66.652 39.7168 66.5694 39.1957C66.4913 38.6717 66.297 38.2294 65.9866 37.8689C65.6806 37.5055 65.2498 37.2646 64.6941 37.1461C64.1606 37.0324 63.6835 37.0721 63.2628 37.2652C62.8429 37.4545 62.489 37.7703 62.2011 38.2124C61.9141 38.6508 61.7026 39.1886 61.5668 39.8258ZM73.9507 45.0679L78.3694 38.9454L79.6142 39.2107L74.1052 46.9598L73.0382 46.7324L71.2342 37.4246L72.4568 37.6852L73.9507 45.0679ZM72.0345 37.5952L70.2153 46.1308L68.9038 45.8512L70.723 37.3157L72.0345 37.5952ZM76.9281 47.5615L78.7473 39.0259L80.0588 39.3054L78.2396 47.841L76.9281 47.5615ZM83.1093 49.088C82.5684 48.9727 82.0993 48.7663 81.7019 48.4685C81.3052 48.1671 81.0187 47.7943 80.8423 47.35C80.6666 46.902 80.638 46.4002 80.7565 45.8445C80.8607 45.3555 81.0415 44.9796 81.2989 44.7169C81.5571 44.4505 81.8659 44.2645 82.2253 44.1591C82.5847 44.0537 82.968 43.9998 83.3751 43.9975C83.7868 43.9923 84.1963 44.006 84.6038 44.0386C85.1367 44.0825 85.5678 44.1221 85.8972 44.1574C86.2311 44.1899 86.4812 44.1793 86.6476 44.1257C86.8176 44.0728 86.9252 43.9408 86.9702 43.7297L86.9797 43.6852C87.0965 43.1369 87.0373 42.6789 86.8019 42.3112C86.5703 41.9442 86.1526 41.6964 85.5487 41.5677C84.9226 41.4342 84.4025 41.4667 83.9885 41.665C83.5744 41.8634 83.2619 42.1028 83.0511 42.3832L81.9011 41.6733C82.2339 41.202 82.6164 40.8614 83.0484 40.6514C83.485 40.4384 83.9359 40.3215 84.4012 40.3007C84.8711 40.2769 85.3209 40.3108 85.7506 40.4023C86.0247 40.4608 86.3325 40.5612 86.674 40.7037C87.0199 40.8433 87.3383 41.0486 87.629 41.3197C87.9235 41.5916 88.1389 41.9532 88.2751 42.4044C88.4113 42.8556 88.4072 43.4201 88.2627 44.0981L87.0641 49.7218L85.7526 49.4423L85.999 48.2864L85.9323 48.2722C85.8039 48.4385 85.6135 48.6051 85.361 48.772C85.1085 48.939 84.7943 49.0598 84.4181 49.1346C84.042 49.2094 83.6057 49.1938 83.1093 49.088ZM83.5605 47.9526C84.0791 48.0631 84.538 48.0544 84.9371 47.9265C85.3398 47.7993 85.6663 47.5939 85.9166 47.3103C86.1705 47.0275 86.3354 46.7082 86.4112 46.3526L86.667 45.1523C86.5972 45.2071 86.4619 45.2422 86.2611 45.2575C86.0648 45.2699 85.8401 45.2704 85.5869 45.259C85.3382 45.2447 85.0959 45.2279 84.8598 45.2086C84.6283 45.1864 84.4402 45.1695 84.2955 45.158C83.9452 45.1299 83.6112 45.1342 83.2935 45.1711C82.9803 45.205 82.712 45.3008 82.4886 45.4585C82.2698 45.6132 82.1248 45.8573 82.0537 46.1907C81.9566 46.6464 82.0517 47.0268 82.3391 47.3321C82.631 47.6344 83.0381 47.8412 83.5605 47.9526ZM89.855 42.6714L90.1156 41.4488L97.0507 42.9269L96.7901 44.1495L93.9894 43.5526L92.4308 50.8656L91.1193 50.5861L92.678 43.2731L89.855 42.6714ZM100.242 52.7163C99.4197 52.5411 98.7489 52.2083 98.2299 51.7181C97.7153 51.225 97.3667 50.6163 97.1842 49.8919C97.0061 49.1645 97.0103 48.3637 97.1966 47.4894C97.383 46.6151 97.7065 45.8785 98.1672 45.2795C98.6324 44.6777 99.192 44.2509 99.846 43.9991C100.504 43.7444 101.219 43.6992 101.99 43.8634C102.434 43.9581 102.857 44.1258 103.259 44.3664C103.661 44.6069 104.004 44.9318 104.289 45.341C104.574 45.7466 104.764 46.2441 104.86 46.8337C104.955 47.4233 104.917 48.1164 104.748 48.9129L104.629 49.4686L98.0497 48.0663L98.2913 46.9326L103.537 48.0507C103.64 47.5691 103.635 47.1188 103.523 46.6999C103.414 46.2817 103.208 45.9259 102.902 45.6323C102.601 45.3395 102.213 45.1425 101.738 45.0415C101.216 44.9301 100.737 44.9635 100.3 45.1415C99.8673 45.3166 99.5054 45.588 99.214 45.9558C98.9226 46.3236 98.7268 46.7427 98.6265 47.2132L98.4654 47.969C98.328 48.6136 98.3227 49.1837 98.4495 49.6794C98.5807 50.1721 98.8215 50.5778 99.1719 50.8964C99.523 51.2114 99.9635 51.4253 100.493 51.5383C100.838 51.6117 101.159 51.6298 101.458 51.5927C101.76 51.5527 102.035 51.4563 102.28 51.3033C102.527 51.1467 102.737 50.9321 102.911 50.6594L104.103 51.2851C103.878 51.6864 103.573 52.0165 103.189 52.2754C102.805 52.5306 102.362 52.6996 101.861 52.7824C101.36 52.8615 100.82 52.8395 100.242 52.7163ZM110.388 54.6929L112.814 43.3121L116.793 44.1602C117.585 44.3291 118.21 44.6056 118.667 44.9895C119.124 45.3697 119.43 45.8163 119.584 46.3294C119.738 46.8387 119.757 47.3713 119.638 47.927C119.534 48.416 119.361 48.8012 119.119 49.0827C118.88 49.365 118.601 49.5688 118.28 49.694C117.962 49.82 117.631 49.8927 117.286 49.9121L117.263 50.0233C117.606 50.1197 117.93 50.3166 118.235 50.6139C118.539 50.9112 118.766 51.2926 118.915 51.758C119.063 52.2235 119.074 52.7563 118.946 53.3564C118.824 53.927 118.585 54.4124 118.229 54.8128C117.872 55.2132 117.386 55.4872 116.77 55.6347C116.153 55.7822 115.397 55.7604 114.5 55.5693L110.388 54.6929ZM112.027 53.7641L114.761 54.3468C115.661 54.5387 116.337 54.5007 116.789 54.233C117.246 53.9624 117.528 53.577 117.634 53.0769C117.716 52.6916 117.694 52.3151 117.567 51.9472C117.441 51.5756 117.217 51.253 116.896 50.9793C116.576 50.7018 116.167 50.5102 115.671 50.4044L112.87 49.8075L112.027 53.7641ZM113.126 48.6072L115.682 49.152C116.097 49.2404 116.489 49.2387 116.857 49.1467C117.229 49.0556 117.544 48.8827 117.804 48.6282C118.067 48.3745 118.241 48.0475 118.327 47.6474C118.433 47.1473 118.35 46.686 118.076 46.2636C117.802 45.8374 117.288 45.5438 116.532 45.3827L113.931 44.8284L113.126 48.6072ZM122.857 57.5596C122.316 57.4443 121.847 57.2378 121.45 56.9401C121.053 56.6386 120.767 56.2658 120.59 55.8215C120.415 55.3736 120.386 54.8717 120.504 54.316C120.609 53.827 120.789 53.4512 121.047 53.1884C121.305 52.922 121.614 52.7361 121.973 52.6307C122.333 52.5252 122.716 52.4714 123.123 52.4691C123.535 52.4638 123.944 52.4775 124.352 52.5102C124.885 52.554 125.316 52.5936 125.645 52.629C125.979 52.6614 126.229 52.6508 126.395 52.5972C126.566 52.5444 126.673 52.4124 126.718 52.2012L126.728 52.1567C126.844 51.6085 126.785 51.1504 126.55 50.7827C126.318 50.4157 125.9 50.1679 125.297 50.0392C124.67 49.9058 124.15 49.9382 123.736 50.1366C123.322 50.3349 123.01 50.5743 122.799 50.8547L121.649 50.1448C121.982 49.6736 122.364 49.3329 122.796 49.1229C123.233 48.91 123.684 48.7931 124.149 48.7722C124.619 48.7484 125.069 48.7823 125.498 48.8739C125.773 48.9323 126.08 49.0328 126.422 49.1753C126.768 49.3148 127.086 49.5202 127.377 49.7913C127.671 50.0632 127.887 50.4247 128.023 50.8759C128.159 51.3271 128.155 51.8917 128.011 52.5696L126.812 58.1933L125.501 57.9138L125.747 56.7579L125.68 56.7437C125.552 56.91 125.361 57.0766 125.109 57.2436C124.856 57.4105 124.542 57.5314 124.166 57.6061C123.79 57.6809 123.354 57.6654 122.857 57.5596ZM123.308 56.4241C123.827 56.5347 124.286 56.526 124.685 56.398C125.088 56.2708 125.414 56.0654 125.664 55.7818C125.918 55.499 126.083 55.1798 126.159 54.8241L126.415 53.6238C126.345 53.6786 126.21 53.7137 126.009 53.729C125.813 53.7414 125.588 53.7419 125.335 53.7305C125.086 53.7163 124.844 53.6995 124.608 53.6802C124.376 53.6579 124.188 53.6411 124.043 53.6296C123.693 53.6014 123.359 53.6057 123.041 53.6426C122.728 53.6765 122.46 53.7723 122.237 53.93C122.018 54.0847 121.873 54.3288 121.802 54.6622C121.704 55.1179 121.8 55.4984 122.087 55.8036C122.379 56.106 122.786 56.3128 123.308 56.4241ZM134.253 57.9201L138.671 51.7976L139.916 52.0629L134.407 59.8121L133.34 59.5847L131.536 50.2769L132.759 50.5374L134.253 57.9201ZM132.336 50.4474L130.517 58.983L129.206 58.7035L131.025 50.1679L132.336 50.4474ZM137.23 60.4137L139.049 51.8782L140.361 52.1577L138.541 60.6932L137.23 60.4137ZM154.18 51.7567L154.676 52.699C154.363 52.8957 154.025 53.0077 153.663 53.0351C153.301 53.0625 152.903 53.0415 152.468 52.9721C152.034 52.9027 151.551 52.8231 151.02 52.7332C150.423 52.6291 149.901 52.669 149.455 52.8528C149.009 53.0366 148.627 53.358 148.309 53.8168C147.99 54.2756 147.723 54.8655 147.507 55.5864L147.619 55.6101C148.021 55.1382 148.505 54.8308 149.07 54.6878C149.635 54.5449 150.21 54.5358 150.795 54.6605C151.462 54.8026 152.029 55.0861 152.496 55.511C152.964 55.9359 153.288 56.4872 153.468 57.1648C153.649 57.8424 153.644 58.6294 153.453 59.526C153.263 60.4188 152.939 61.1554 152.483 61.7358C152.03 62.317 151.48 62.7228 150.835 62.9531C150.194 63.1806 149.492 63.213 148.728 63.0503C147.965 62.8877 147.335 62.5655 146.837 62.0837C146.34 61.5983 146.008 60.966 145.841 60.1868C145.675 59.4038 145.704 58.4863 145.928 57.4342L146.123 56.5229C146.528 54.6224 147.157 53.2499 148.011 52.4056C148.869 51.562 149.951 51.2621 151.259 51.5059C151.721 51.589 152.131 51.6726 152.489 51.7566C152.847 51.8406 153.163 51.8906 153.439 51.9067C153.714 51.9228 153.961 51.8728 154.18 51.7567ZM148.979 61.8722C149.494 61.982 149.965 61.9467 150.391 61.7663C150.82 61.5867 151.185 61.283 151.485 60.8551C151.786 60.4236 152.005 59.8873 152.142 59.2464C152.274 58.6241 152.285 58.0726 152.175 57.592C152.068 57.1122 151.852 56.7176 151.527 56.4082C151.201 56.0987 150.778 55.8883 150.255 55.777C149.874 55.6957 149.517 55.6875 149.186 55.7524C148.854 55.8173 148.554 55.9528 148.286 56.1589C148.017 56.3651 147.785 56.637 147.589 56.9748C147.397 57.3134 147.247 57.7153 147.14 58.1805C146.937 59.1363 146.998 59.9491 147.324 60.6189C147.65 61.2886 148.202 61.7064 148.979 61.8722ZM154.736 67.491C154.514 67.4436 154.319 67.3829 154.153 67.3087C153.986 67.2383 153.873 67.1793 153.813 67.1317L154.393 66.0469C154.694 66.1963 154.969 66.286 155.219 66.3158C155.468 66.3457 155.708 66.2826 155.939 66.1266C156.172 65.975 156.415 65.6994 156.667 65.2999L157.053 64.6852L155.726 55.4325L157.148 55.7357L158.055 63.0396L158.144 63.0586L161.95 56.759L163.372 57.0622L157.665 66.0703C157.408 66.4764 157.128 66.7983 156.825 67.0359C156.522 67.2773 156.196 67.4344 155.848 67.5072C155.503 67.5809 155.132 67.5755 154.736 67.491ZM161.133 68.0644L161.915 64.3968L162.626 64.5484C162.839 64.404 163.031 64.2396 163.202 64.0553C163.373 63.871 163.535 63.6442 163.69 63.375C163.848 63.1028 164.006 62.7646 164.162 62.3601C164.318 61.952 164.486 61.4553 164.665 60.8699L165.674 57.5528L171.098 58.7087L169.539 66.0218L170.851 66.3013L170.069 69.9689L168.757 69.6894L169.279 67.2443L162.966 65.8989L162.445 68.3439L161.133 68.0644ZM164.116 64.8658L168.228 65.7423L169.526 59.6518L166.636 59.0359L165.954 61.1446C165.671 62.0177 165.39 62.7731 165.111 63.4107C164.832 64.0483 164.5 64.5334 164.116 64.8658ZM175.872 68.8354C175.049 68.6601 174.378 68.3274 173.859 67.8372C173.345 67.3441 172.996 66.7353 172.814 66.0109C172.636 65.2836 172.64 64.4828 172.826 63.6085C173.012 62.7341 173.336 61.9975 173.797 61.3986C174.262 60.7967 174.821 60.3699 175.475 60.1181C176.134 59.8634 176.848 59.8182 177.619 59.9824C178.064 60.0772 178.487 60.2448 178.889 60.4854C179.291 60.726 179.634 61.0509 179.918 61.4601C180.204 61.8656 180.394 62.3632 180.489 62.9528C180.584 63.5423 180.547 64.2354 180.377 65.0319L180.259 65.5876L173.679 64.1853L173.921 63.0517L179.167 64.1697C179.269 63.6881 179.264 63.2378 179.152 62.8189C179.044 62.4008 178.837 62.0449 178.532 61.7513C178.23 61.4585 177.842 61.2616 177.368 61.1605C176.846 61.0492 176.366 61.0825 175.929 61.2605C175.497 61.4356 175.135 61.707 174.843 62.0748C174.552 62.4426 174.356 62.8618 174.256 63.3323L174.095 64.088C173.957 64.7326 173.952 65.3028 174.079 65.7984C174.21 66.2911 174.451 66.6968 174.801 67.0155C175.152 67.3305 175.593 67.5444 176.123 67.6573C176.467 67.7307 176.789 67.7489 177.087 67.7118C177.39 67.6718 177.664 67.5753 177.91 67.4224C178.156 67.2658 178.367 67.0511 178.541 66.7784L179.732 67.4041C179.507 67.8054 179.202 68.1355 178.818 68.3944C178.434 68.6496 177.992 68.8186 177.49 68.9015C176.989 68.9806 176.45 68.9586 175.872 68.8354ZM182.203 62.3536L182.463 61.1311L189.398 62.6092L189.138 63.8317L186.337 63.2348L184.778 70.5478L183.467 70.2683L185.026 62.9553L182.203 62.3536ZM194.056 75.8714C193.834 75.824 193.639 75.7632 193.473 75.6891C193.306 75.6186 193.193 75.5596 193.133 75.512L193.713 74.4272C194.014 74.5767 194.289 74.6663 194.539 74.6962C194.788 74.7261 195.028 74.663 195.259 74.5069C195.492 74.3553 195.735 74.0798 195.987 73.6803L196.373 73.0655L195.046 63.8128L196.468 64.116L197.375 71.42L197.464 71.4389L201.27 65.1393L202.692 65.4425L196.984 74.4506C196.728 74.8567 196.448 75.1786 196.145 75.4163C195.842 75.6576 195.516 75.8147 195.168 75.8876C194.823 75.9612 194.452 75.9558 194.056 75.8714ZM200.453 76.4448L201.235 72.7771L201.946 72.9287C202.159 72.7843 202.351 72.62 202.522 72.4356C202.693 72.2513 202.855 72.0245 203.01 71.7553C203.168 71.4832 203.326 71.1449 203.482 70.7405C203.638 70.3324 203.806 69.8356 203.985 69.2502L204.994 65.9331L210.418 67.0891L208.859 74.4021L210.171 74.6816L209.389 78.3492L208.077 78.0697L208.599 75.6246L202.286 74.2792L201.765 76.7243L200.453 76.4448ZM203.436 73.2462L207.548 74.1226L208.846 68.0321L205.956 67.4162L205.274 69.525C204.991 70.3981 204.71 71.1534 204.431 71.791C204.152 72.4287 203.82 72.9137 203.436 73.2462ZM215.08 77.192C214.31 77.0278 213.673 76.7003 213.169 76.2096C212.67 75.7197 212.327 75.1102 212.142 74.3813C211.96 73.6532 211.963 72.8483 212.151 71.9666C212.34 71.0774 212.667 70.3357 213.131 69.7412C213.598 69.1476 214.16 68.7289 214.816 68.4854C215.475 68.2426 216.191 68.2033 216.961 68.3675C217.732 68.5317 218.367 68.8588 218.867 69.3488C219.37 69.8395 219.712 70.4508 219.893 71.1826C220.078 71.9152 220.076 72.7261 219.886 73.6152C219.698 74.4969 219.371 75.2328 218.904 75.8227C218.442 76.4134 217.88 76.8302 217.22 77.073C216.564 77.3166 215.851 77.3563 215.08 77.192ZM215.332 76.014C215.917 76.1387 216.43 76.0913 216.872 75.8718C217.314 75.6522 217.678 75.3173 217.964 74.867C218.249 74.4166 218.453 73.9062 218.575 73.3357C218.696 72.7652 218.719 72.2142 218.642 71.6828C218.566 71.1514 218.371 70.6935 218.058 70.3092C217.745 69.9249 217.295 69.6703 216.71 69.5456C216.125 69.4208 215.611 69.4701 215.168 69.6933C214.726 69.9166 214.361 70.2552 214.074 70.7092C213.788 71.1633 213.584 71.6756 213.462 72.2461C213.341 72.8166 213.319 73.3657 213.396 73.8934C213.473 74.4211 213.669 74.8753 213.983 75.2559C214.297 75.6365 214.746 75.8892 215.332 76.014ZM229.824 67.879L230.321 68.8213C230.008 69.018 229.67 69.13 229.308 69.1574C228.946 69.1848 228.547 69.1638 228.113 69.0944C227.678 69.025 227.196 68.9454 226.665 68.8555C226.068 68.7514 225.546 68.7913 225.1 68.9751C224.654 69.1589 224.272 69.4803 223.953 69.9391C223.635 70.3979 223.368 70.9878 223.152 71.7087L223.263 71.7324C223.666 71.2605 224.15 70.9531 224.715 70.8101C225.28 70.6672 225.855 70.6581 226.44 70.7828C227.107 70.9249 227.674 71.2084 228.141 71.6333C228.608 72.0582 228.932 72.6095 229.113 73.2871C229.294 73.9647 229.289 74.7517 229.098 75.6483C228.908 76.5411 228.584 77.2777 228.127 77.8581C227.674 78.4393 227.125 78.8451 226.479 79.0754C225.838 79.3029 225.136 79.3353 224.373 79.1726C223.61 79.01 222.98 78.6878 222.482 78.206C221.985 77.7206 221.653 77.0883 221.486 76.3091C221.32 75.5261 221.349 74.6086 221.573 73.5565L221.767 72.6452C222.173 70.7447 222.802 69.3722 223.656 68.5279C224.513 67.6843 225.596 67.3844 226.903 67.6282C227.366 67.7113 227.776 67.7949 228.134 67.8789C228.492 67.9629 228.808 68.0129 229.084 68.029C229.359 68.0451 229.606 67.9951 229.824 67.879ZM224.624 77.9945C225.139 78.1043 225.61 78.069 226.035 77.8886C226.465 77.709 226.83 77.4053 227.13 76.9774C227.431 76.5459 227.65 76.0097 227.786 75.3687C227.919 74.7464 227.93 74.1949 227.82 73.7143C227.713 73.2345 227.497 72.8399 227.171 72.5305C226.846 72.221 226.422 72.0106 225.9 71.8993C225.518 71.818 225.162 71.8098 224.831 71.8747C224.499 71.9396 224.199 72.0751 223.931 72.2813C223.662 72.4874 223.43 72.7593 223.234 73.0971C223.042 73.4357 222.892 73.8376 222.785 74.3028C222.581 75.2586 222.643 76.0714 222.968 76.7412C223.294 77.4109 223.846 77.8287 224.624 77.9945ZM236.968 76.5821L236.708 77.8046L231.995 76.8002L232.256 75.5777L236.968 76.5821ZM233.349 71.9764L231.53 80.512L230.218 80.2325L232.037 71.6969L233.349 71.9764ZM238.75 73.1276L236.931 81.6632L235.62 81.3837L237.439 72.8481L238.75 73.1276ZM242.867 83.1142C242.044 82.9389 241.374 82.6062 240.855 82.116C240.34 81.6229 239.991 81.0142 239.809 80.2897C239.631 79.5624 239.635 78.7616 239.821 77.8873C240.008 77.013 240.331 76.2764 240.792 75.6774C241.257 75.0756 241.817 74.6487 242.471 74.397C243.129 74.1423 243.844 74.097 244.614 74.2613C245.059 74.356 245.482 74.5237 245.884 74.7642C246.286 75.0048 246.629 75.3297 246.914 75.7389C247.199 76.1444 247.389 76.642 247.484 77.2316C247.579 77.8212 247.542 78.5142 247.372 79.3107L247.254 79.8664L240.674 78.4641L240.916 77.3305L246.162 78.4485C246.264 77.9669 246.26 77.5167 246.148 77.0977C246.039 76.6796 245.832 76.3237 245.527 76.0301C245.225 75.7373 244.837 75.5404 244.363 75.4393C243.841 75.328 243.361 75.3613 242.924 75.5393C242.492 75.7144 242.13 75.9859 241.839 76.3537C241.547 76.7214 241.352 77.1406 241.251 77.6111L241.09 78.3668C240.953 79.0115 240.947 79.5816 241.074 80.0772C241.205 80.5699 241.446 80.9756 241.797 81.2943C242.148 81.6093 242.588 81.8232 243.118 81.9361C243.462 82.0096 243.784 82.0277 244.082 81.9906C244.385 81.9506 244.659 81.8541 244.905 81.7012C245.151 81.5446 245.362 81.3299 245.536 81.0572L246.727 81.6829C246.502 82.0842 246.198 82.4143 245.813 82.6732C245.43 82.9284 244.987 83.0974 244.485 83.1803C243.984 83.2594 243.445 83.2374 242.867 83.1142ZM251.975 85.0554C251.152 84.8801 250.482 84.5474 249.963 84.0572C249.448 83.5641 249.099 82.9553 248.917 82.2309C248.739 81.5036 248.743 80.7028 248.929 79.8285C249.116 78.9542 249.439 78.2175 249.9 77.6186C250.365 77.0168 250.925 76.5899 251.579 76.3381C252.237 76.0834 252.952 76.0382 253.722 76.2024C254.167 76.2972 254.59 76.4649 254.992 76.7054C255.394 76.946 255.737 77.2709 256.022 77.6801C256.307 78.0856 256.497 78.5832 256.592 79.1728C256.687 79.7624 256.65 80.4554 256.48 81.2519L256.362 81.8076L249.782 80.4053L250.024 79.2717L255.27 80.3897C255.372 79.9081 255.368 79.4579 255.256 79.0389C255.147 78.6208 254.94 78.2649 254.635 77.9713C254.333 77.6785 253.945 77.4816 253.471 77.3805C252.949 77.2692 252.469 77.3025 252.032 77.4805C251.6 77.6556 251.238 77.9271 250.947 78.2948C250.655 78.6626 250.459 79.0818 250.359 79.5523L250.198 80.308C250.061 80.9526 250.055 81.5228 250.182 82.0184C250.313 82.5111 250.554 82.9168 250.905 83.2355C251.256 83.5505 251.696 83.7644 252.226 83.8773C252.57 83.9507 252.892 83.9689 253.19 83.9318C253.493 83.8918 253.767 83.7953 254.013 83.6424C254.259 83.4858 254.47 83.2711 254.644 82.9984L255.835 83.6241C255.61 84.0254 255.306 84.3555 254.921 84.6144C254.538 84.8696 254.095 85.0386 253.593 85.1215C253.092 85.2006 252.553 85.1786 251.975 85.0554ZM8.52297 52.4089L10.3422 43.8733L17.055 45.3041L15.2358 53.8396L13.9244 53.5601L15.483 46.2471L11.3931 45.3754L9.83442 52.6884L8.52297 52.4089ZM16.9487 57.5509L19.4501 45.8145L20.7171 46.0846L20.4281 47.4405L20.5837 47.4736C20.7116 47.346 20.8852 47.1855 21.1046 46.9921C21.3285 46.7958 21.6209 46.6413 21.9819 46.5284C22.3474 46.4127 22.808 46.414 23.3637 46.5325C24.0824 46.6856 24.6776 47.0003 25.1493 47.4765C25.621 47.9528 25.9403 48.5533 26.1073 49.2783C26.2742 50.0033 26.2621 50.814 26.0711 51.7106C25.8784 52.6145 25.5577 53.3653 25.1088 53.9629C24.6608 54.5568 24.1258 54.9772 23.5038 55.2242C22.8827 55.4675 22.2164 55.5133 21.5051 55.3617C20.9568 55.2449 20.5372 55.0605 20.2462 54.8087C19.9559 54.5532 19.7468 54.2898 19.6187 54.0185C19.4914 53.7435 19.3962 53.518 19.333 53.3418L19.2219 53.3182L18.2602 57.8304L16.9487 57.5509ZM19.8297 50.3571C19.6923 51.0017 19.6656 51.5905 19.7495 52.1235C19.8342 52.6528 20.0285 53.095 20.3324 53.4503C20.637 53.8018 21.0523 54.0336 21.5784 54.1457C22.1267 54.2626 22.615 54.2156 23.0434 54.0048C23.4762 53.7911 23.8377 53.4576 24.128 53.0044C24.4227 52.5482 24.6349 52.0164 24.7643 51.4088C24.8923 50.8087 24.9149 50.248 24.8323 49.727C24.7542 49.203 24.56 48.7607 24.2495 48.4002C23.9435 48.0368 23.5127 47.7958 22.957 47.6774C22.4235 47.5637 21.9465 47.6034 21.5258 47.7964C21.1058 47.9858 20.752 48.3015 20.4641 48.7437C20.177 49.1821 19.9655 49.7199 19.8297 50.3571ZM30.5964 57.2994C29.8258 57.1351 29.1888 56.8076 28.6853 56.3169C28.1856 55.827 27.843 55.2176 27.6575 54.4886C27.4757 53.7605 27.4788 52.9556 27.6667 52.0739C27.8562 51.1848 28.1828 50.443 28.6465 49.8485C29.1138 49.2549 29.6755 48.8363 30.3316 48.5927C30.9914 48.3499 31.7066 48.3106 32.4772 48.4748C33.2478 48.6391 33.8829 48.9662 34.3827 49.4561C34.8861 49.9468 35.2284 50.5581 35.4093 51.2899C35.594 52.0225 35.5916 52.8334 35.4021 53.7225C35.2142 54.6042 34.8869 55.3401 34.4204 55.93C33.9575 56.5208 33.3962 56.9375 32.7364 57.1803C32.0803 57.4239 31.367 57.4636 30.5964 57.2994ZM30.8475 56.1213C31.4328 56.246 31.9464 56.1986 32.3882 55.9791C32.8301 55.7596 33.1939 55.4246 33.4796 54.9743C33.7654 54.524 33.969 54.0135 34.0906 53.443C34.2122 52.8725 34.2348 52.3215 34.1583 51.7901C34.0818 51.2587 33.8869 50.8009 33.5738 50.4165C33.2607 50.0322 32.8114 49.7777 32.2261 49.6529C31.6408 49.5282 31.1268 49.5774 30.6842 49.8007C30.2415 50.0239 29.877 50.3625 29.5904 50.8166C29.3039 51.2706 29.0998 51.7829 28.9782 52.3534C28.8566 52.9239 28.8345 53.473 28.9118 54.0007C28.9891 54.5284 29.1847 54.9826 29.4986 55.3632C29.8125 55.7438 30.2621 55.9965 30.8475 56.1213ZM36.5039 58.3725L38.3231 49.837L41.8129 50.5808C42.7316 50.7766 43.4172 51.1396 43.8697 51.6698C44.3221 52.2 44.4757 52.8059 44.3304 53.4876C44.2199 54.0062 43.9805 54.3754 43.6122 54.5951C43.2447 54.8112 42.8095 54.9179 42.3066 54.9152C42.612 55.0268 42.8939 55.2031 43.1524 55.4441C43.4146 55.6859 43.6107 55.9833 43.7407 56.3363C43.8715 56.6857 43.8892 57.0845 43.7936 57.5327C43.7004 57.9699 43.506 58.337 43.2103 58.6342C42.9146 58.9313 42.5379 59.1357 42.0804 59.2474C41.6228 59.359 41.1051 59.3532 40.5272 59.23L36.5039 58.3725ZM38.0045 57.4375L40.783 58.0297C41.2349 58.126 41.6116 58.094 41.9131 57.9336C42.2145 57.7732 42.4047 57.5078 42.4836 57.1373C42.5776 56.6965 42.5236 56.3228 42.3217 56.0164C42.1205 55.7063 41.794 55.5031 41.342 55.4068L38.5635 54.8146L38.0045 57.4375ZM38.8051 53.681L41.0501 54.1595C41.4021 54.2345 41.7143 54.2507 41.9867 54.208C42.26 54.1617 42.4826 54.062 42.6547 53.9089C42.8312 53.7529 42.9463 53.5489 43 53.297C43.0766 52.9376 42.9866 52.6241 42.7299 52.3564C42.4741 52.085 42.0831 51.8932 41.5571 51.7811L39.312 51.3026L38.8051 53.681ZM48.8317 61.1859C48.0093 61.0106 47.3385 60.6779 46.8194 60.1877C46.3049 59.6946 45.9563 59.0858 45.7738 58.3614C45.5957 57.6341 45.5998 56.8333 45.7862 55.959C45.9725 55.0847 46.2961 54.348 46.7568 53.7491C47.222 53.1472 47.7816 52.7204 48.4356 52.4686C49.094 52.2139 49.8086 52.1687 50.5791 52.3329C51.0237 52.4277 51.4469 52.5953 51.8488 52.8359C52.2506 53.0765 52.5939 53.4014 52.8784 53.8106C53.1638 54.2161 53.354 54.7137 53.4491 55.3033C53.5442 55.8929 53.5069 56.5859 53.3372 57.3824L53.2187 57.9381L46.6392 56.5358L46.8808 55.4022L52.1266 56.5202C52.2293 56.0386 52.2246 55.5883 52.1125 55.1694C52.0041 54.7513 51.7972 54.3954 51.4918 54.1018C51.1902 53.809 50.8022 53.6121 50.328 53.511C49.8057 53.3997 49.3261 53.433 48.8892 53.611C48.4569 53.7861 48.095 54.0575 47.8036 54.4253C47.5122 54.7931 47.3163 55.2123 47.2161 55.6828L47.055 56.4385C46.9176 57.0831 46.9123 57.6533 47.039 58.1489C47.1703 58.6416 47.4111 59.0473 47.7614 59.366C48.1126 59.681 48.553 59.8949 49.0828 60.0078C49.4273 60.0812 49.7488 60.0994 50.0472 60.0623C50.35 60.0223 50.6243 59.9258 50.8699 59.7729C51.1163 59.6163 51.3266 59.4016 51.5009 59.1289L52.6921 59.7546C52.4672 60.1559 52.1625 60.486 51.7781 60.7449C51.3945 61.0001 50.9519 61.1691 50.4501 61.252C49.9491 61.3311 49.4096 61.3091 48.8317 61.1859ZM57.8285 63.1034C57.0283 62.9328 56.3795 62.597 55.8821 62.096C55.3847 61.5949 55.0511 60.9797 54.8812 60.2502C54.7114 59.5208 54.7172 58.73 54.8989 57.8779C55.0836 57.011 55.406 56.28 55.8659 55.6847C56.3303 55.0866 56.8895 54.6616 57.5435 54.4098C58.202 54.1551 58.9165 54.1099 59.6871 54.2741C60.2872 54.402 60.8044 54.6285 61.2386 54.9534C61.6729 55.2783 62.0011 55.6736 62.2233 56.1392C62.4455 56.6049 62.5368 57.1123 62.4972 57.6616L61.1858 57.3821C61.1686 56.9718 61.0198 56.5799 60.7392 56.2063C60.4631 55.8299 60.0361 55.5801 59.4582 55.4569C58.947 55.348 58.4703 55.3858 58.0281 55.5704C57.5905 55.7521 57.2129 56.0609 56.8954 56.4967C56.5824 56.9296 56.3572 57.4684 56.2198 58.113C56.0792 58.7724 56.0606 59.3687 56.1638 59.902C56.2708 60.436 56.4862 60.8789 56.8101 61.2307C57.1378 61.5832 57.5609 61.8148 58.0796 61.9253C58.4204 61.9979 58.7424 62.0046 59.0455 61.9453C59.3486 61.8859 59.6202 61.7657 59.8602 61.5844C60.1002 61.4032 60.2942 61.1657 60.442 60.8719L61.7534 61.1514C61.572 61.6394 61.2919 62.0542 60.9131 62.3956C60.5389 62.7341 60.0875 62.971 59.5591 63.1062C59.0352 63.2386 58.4583 63.2376 57.8285 63.1034ZM64.0262 56.5932L64.2868 55.3707L71.2219 56.8488L70.9614 58.0713L68.1607 57.4744L66.602 64.7874L65.2906 64.5079L66.8492 57.1949L64.0262 56.5932ZM73.0394 64.1377L78.5586 58.4124L80.0701 58.7346L78.2509 67.2701L76.9394 66.9906L78.3465 60.3889L72.8495 66.1189L71.3157 65.792L73.1349 57.2565L74.4464 57.536L73.0394 64.1377ZM88.4837 69.637C87.6835 69.4664 87.0347 69.1306 86.5373 68.6296C86.0399 68.1285 85.7063 67.5133 85.5365 66.7838C85.3666 66.0544 85.3725 65.2636 85.5541 64.4115C85.7388 63.5446 86.0612 62.8136 86.5211 62.2183C86.9856 61.6202 87.5448 61.1952 88.1987 60.9434C88.8572 60.6887 89.5717 60.6435 90.3423 60.8077C90.9424 60.9356 91.4596 61.1621 91.8939 61.487C92.3281 61.8119 92.6563 62.2072 92.8785 62.6728C93.1007 63.1385 93.192 63.6459 93.1524 64.1952L91.841 63.9157C91.8239 63.5054 91.675 63.1135 91.3944 62.74C91.1184 62.3635 90.6914 62.1137 90.1134 61.9906C89.6022 61.8816 89.1255 61.9194 88.6834 62.104C88.2457 62.2857 87.8681 62.5945 87.5506 63.0303C87.2376 63.4632 87.0124 64.002 86.875 64.6466C86.7345 65.306 86.7158 65.9023 86.819 66.4356C86.926 66.9696 87.1414 67.4125 87.4654 67.7643C87.793 68.1168 88.2162 68.3484 88.7348 68.4589C89.0756 68.5315 89.3976 68.5382 89.7007 68.4789C90.0038 68.4195 90.2754 68.2993 90.5154 68.118C90.7555 67.9368 90.9494 67.6993 91.0972 67.4055L92.4087 67.685C92.2272 68.173 91.9471 68.5878 91.5683 68.9292C91.1941 69.2677 90.7428 69.5046 90.2143 69.6398C89.6904 69.7722 89.1135 69.7712 88.4837 69.637ZM97.336 71.5237C96.5136 71.3484 95.8428 71.0157 95.3238 70.5255C94.8092 70.0324 94.4606 69.4236 94.2781 68.6992C94.1 67.9719 94.1042 67.1711 94.2905 66.2968C94.4768 65.4225 94.8004 64.6858 95.2611 64.0869C95.7263 63.4851 96.2859 63.0582 96.9399 62.8065C97.5984 62.5518 98.3129 62.5065 99.0835 62.6708C99.528 62.7655 99.9512 62.9332 100.353 63.1737C100.755 63.4143 101.098 63.7392 101.383 64.1484C101.668 64.5539 101.858 65.0515 101.953 65.6411C102.049 66.2307 102.011 66.9237 101.841 67.7202L101.723 68.2759L95.1435 66.8736L95.3852 65.74L100.631 66.858C100.734 66.3764 100.729 65.9262 100.617 65.5072C100.508 65.0891 100.302 64.7332 99.9961 64.4396C99.6945 64.1468 99.3066 63.9499 98.8324 63.8488C98.31 63.7375 97.8304 63.7708 97.3936 63.9488C96.9612 64.1239 96.5993 64.3954 96.3079 64.7632C96.0165 65.1309 95.8207 65.5501 95.7204 66.0206L95.5593 66.7763C95.4219 67.4209 95.4166 67.9911 95.5434 68.4867C95.6746 68.9794 95.9154 69.3851 96.2657 69.7038C96.6169 70.0188 97.0574 70.2327 97.5871 70.3456C97.9317 70.419 98.2531 70.4372 98.5515 70.4001C98.8544 70.3601 99.1286 70.2636 99.3742 70.1107C99.6206 69.9541 99.831 69.7394 100.005 69.4667L101.196 70.0924C100.971 70.4937 100.667 70.8238 100.282 71.0827C99.8989 71.3379 99.4562 71.5069 98.9544 71.5898C98.4534 71.6689 97.914 71.6469 97.336 71.5237ZM106.333 73.4412C105.533 73.2707 104.884 72.9349 104.386 72.4338C103.889 71.9328 103.555 71.3175 103.386 70.588C103.216 69.8586 103.222 69.0678 103.403 68.2157C103.588 67.3488 103.91 66.6178 104.37 66.0225C104.835 65.4244 105.394 64.9994 106.048 64.7476C106.706 64.4929 107.421 64.4477 108.191 64.6119C108.792 64.7399 109.309 64.9663 109.743 65.2912C110.177 65.6161 110.505 66.0114 110.728 66.477C110.95 66.9427 111.041 67.4501 111.002 67.9994L109.69 67.7199C109.673 67.3096 109.524 66.9177 109.244 66.5442C108.967 66.1677 108.54 65.9179 107.963 65.7948C107.451 65.6858 106.975 65.7236 106.532 65.9082C106.095 66.09 105.717 66.3987 105.4 66.8345C105.087 67.2674 104.861 67.8062 104.724 68.4508C104.584 69.1102 104.565 69.7066 104.668 70.2398C104.775 70.7738 104.991 71.2167 105.314 71.5685C105.642 71.921 106.065 72.1526 106.584 72.2631C106.925 72.3358 107.247 72.3424 107.55 72.2831C107.853 72.2238 108.125 72.1035 108.365 71.9223C108.605 71.741 108.798 71.5035 108.946 71.2097L110.258 71.4892C110.076 71.9772 109.796 72.392 109.417 72.7334C109.043 73.0719 108.592 73.3088 108.063 73.4441C107.539 73.5764 106.963 73.5754 106.333 73.4412ZM115.074 75.3042C114.274 75.1337 113.625 74.7979 113.128 74.2968C112.63 73.7958 112.297 73.1805 112.127 72.4511C111.957 71.7216 111.963 70.9308 112.144 70.0788C112.329 69.2119 112.651 68.4808 113.111 67.8856C113.576 67.2874 114.135 66.8625 114.789 66.6107C115.447 66.356 116.162 66.3107 116.933 66.475C117.533 66.6029 118.05 66.8293 118.484 67.1542C118.918 67.4791 119.247 67.8744 119.469 68.3401C119.691 68.8057 119.782 69.3132 119.743 69.8624L118.431 69.5829C118.414 69.1726 118.265 68.7807 117.985 68.4072C117.709 68.0308 117.282 67.781 116.704 67.6578C116.192 67.5488 115.716 67.5867 115.274 67.7713C114.836 67.953 114.458 68.2617 114.141 68.6975C113.828 69.1304 113.603 69.6692 113.465 70.3138C113.325 70.9732 113.306 71.5696 113.409 72.1028C113.516 72.6368 113.732 73.0797 114.056 73.4315C114.383 73.784 114.806 74.0156 115.325 74.1261C115.666 74.1988 115.988 74.2054 116.291 74.1461C116.594 74.0868 116.866 73.9665 117.106 73.7853C117.346 73.6041 117.54 73.3665 117.687 73.0727L118.999 73.3522C118.817 73.8403 118.537 74.255 118.159 74.5964C117.784 74.935 117.333 75.1718 116.805 75.3071C116.281 75.4394 115.704 75.4385 115.074 75.3042ZM122.109 74.596L127.628 68.8708L129.14 69.1929L127.321 77.7285L126.009 77.449L127.416 70.8472L121.919 76.5773L120.385 76.2504L122.205 67.7148L123.516 67.9943L122.109 74.596ZM134.836 74.3109L134.575 75.5334L130.063 74.5717L130.324 73.3492L134.836 74.3109ZM132.231 69.8517L130.412 78.3873L129.1 78.1078L130.919 69.5722L132.231 69.8517ZM136.398 79.849C135.627 79.6847 134.99 79.3573 134.487 78.8665C133.987 78.3766 133.644 77.7672 133.459 77.0382C133.277 76.3101 133.28 75.5052 133.468 74.6235C133.657 73.7344 133.984 72.9926 134.448 72.3981C134.915 71.8045 135.477 71.3859 136.133 71.1423C136.793 70.8995 137.508 70.8602 138.278 71.0244C139.049 71.1887 139.684 71.5158 140.184 72.0057C140.687 72.4964 141.03 73.1077 141.211 73.8395C141.395 74.5722 141.393 75.383 141.203 76.2721C141.015 77.1539 140.688 77.8897 140.222 78.4796C139.759 79.0704 139.197 79.4871 138.538 79.7299C137.882 79.9735 137.168 80.0132 136.398 79.849ZM136.649 78.6709C137.234 78.7956 137.748 78.7482 138.189 78.5287C138.631 78.3092 138.995 77.9742 139.281 77.5239C139.567 77.0736 139.77 76.5632 139.892 75.9926C140.013 75.4221 140.036 74.8711 139.959 74.3397C139.883 73.8083 139.688 73.3505 139.375 72.9661C139.062 72.5818 138.613 72.3273 138.027 72.2025C137.442 72.0778 136.928 72.127 136.485 72.3503C136.043 72.5735 135.678 72.9121 135.392 73.3662C135.105 73.8202 134.901 74.3325 134.779 74.903C134.658 75.4735 134.636 76.0226 134.713 76.5503C134.79 77.0781 134.986 77.5322 135.3 77.9128C135.614 78.2934 136.063 78.5461 136.649 78.6709ZM150.268 82.8052C149.468 82.6346 148.819 82.2988 148.322 81.7978C147.824 81.2967 147.49 80.6815 147.321 79.952C147.151 79.2225 147.157 78.4318 147.338 77.5797C147.523 76.7128 147.845 75.9817 148.305 75.3865C148.77 74.7884 149.329 74.3634 149.983 74.1116C150.641 73.8569 151.356 73.8117 152.126 73.9759C152.727 74.1038 153.244 74.3302 153.678 74.6552C154.112 74.9801 154.441 75.3754 154.663 75.841C154.885 76.3067 154.976 76.8141 154.937 77.3634L153.625 77.0839C153.608 76.6735 153.459 76.2816 153.179 75.9081C152.903 75.5317 152.476 75.2819 151.898 75.1587C151.386 75.0498 150.91 75.0876 150.468 75.2722C150.03 75.4539 149.652 75.7627 149.335 76.1985C149.022 76.6314 148.797 77.1701 148.659 77.8148C148.519 78.4742 148.5 79.0705 148.603 79.6037C148.71 80.1378 148.926 80.5807 149.25 80.9324C149.577 81.285 150 81.5165 150.519 81.6271C150.86 81.6997 151.182 81.7064 151.485 81.647C151.788 81.5877 152.06 81.4674 152.3 81.2862C152.54 81.105 152.734 80.8675 152.881 80.5737L154.193 80.8532C154.011 81.3412 153.731 81.7559 153.353 82.0974C152.978 82.4359 152.527 82.6728 151.999 82.808C151.475 82.9403 150.898 82.9394 150.268 82.8052ZM159.009 84.6682C158.239 84.504 157.601 84.1765 157.098 83.6857C156.598 83.1958 156.256 82.5864 156.07 81.8575C155.888 81.1293 155.892 80.3244 156.079 79.4427C156.269 78.5536 156.595 77.8118 157.059 77.2174C157.526 76.6237 158.088 76.2051 158.744 75.9615C159.404 75.7187 160.119 75.6794 160.89 75.8437C161.66 76.0079 162.296 76.335 162.795 76.8249C163.299 77.3156 163.641 77.9269 163.822 78.6588C164.007 79.3914 164.004 80.2022 163.815 81.0914C163.627 81.9731 163.3 82.7089 162.833 83.2989C162.37 83.8896 161.809 84.3064 161.149 84.5492C160.493 84.7927 159.78 84.8324 159.009 84.6682ZM159.26 83.4901C159.845 83.6149 160.359 83.5675 160.801 83.3479C161.243 83.1284 161.607 82.7934 161.892 82.3431C162.178 81.8928 162.382 81.3824 162.503 80.8119C162.625 80.2413 162.647 79.6904 162.571 79.159C162.494 78.6275 162.3 78.1697 161.986 77.7854C161.673 77.401 161.224 77.1465 160.639 77.0217C160.053 76.897 159.539 76.9462 159.097 77.1695C158.654 77.3927 158.29 77.7314 158.003 78.1854C157.717 78.6394 157.512 79.1517 157.391 79.7222C157.269 80.2927 157.247 80.8419 157.324 81.3696C157.402 81.8973 157.597 82.3514 157.911 82.732C158.225 83.1127 158.675 83.3653 159.26 83.4901ZM172.747 87.5963C171.947 87.4257 171.298 87.0899 170.801 86.5889C170.304 86.0878 169.97 85.4725 169.8 84.7431C169.63 84.0136 169.636 83.2229 169.818 82.3708C170.002 81.5039 170.325 80.7728 170.785 80.1776C171.249 79.5795 171.808 79.1545 172.462 78.9027C173.121 78.648 173.835 78.6028 174.606 78.767C175.206 78.8949 175.723 79.1213 176.158 79.4463C176.592 79.7712 176.92 80.1665 177.142 80.6321C177.364 81.0977 177.456 81.6052 177.416 82.1545L176.105 81.8749C176.088 81.4646 175.939 81.0727 175.658 80.6992C175.382 80.3228 174.955 80.073 174.377 79.9498C173.866 79.8409 173.389 79.8787 172.947 80.0633C172.509 80.245 172.132 80.5538 171.814 80.9896C171.501 81.4225 171.276 81.9612 171.139 82.6058C170.998 83.2653 170.979 83.8616 171.083 84.3948C171.19 84.9289 171.405 85.3718 171.729 85.7235C172.057 86.0761 172.48 86.3076 172.998 86.4182C173.339 86.4908 173.661 86.4975 173.964 86.4381C174.268 86.3788 174.539 86.2585 174.779 86.0773C175.019 85.8961 175.213 85.6586 175.361 85.3647L176.672 85.6443C176.491 86.1323 176.211 86.547 175.832 86.8885C175.458 87.227 175.006 87.4639 174.478 87.5991C173.954 87.7314 173.377 87.7305 172.747 87.5963ZM178.059 88.5424L179.878 80.0068L186.591 81.4376L184.772 89.9731L183.46 89.6936L185.019 82.3806L180.929 81.5089L179.37 88.8219L178.059 88.5424ZM190.708 91.4242C189.885 91.2489 189.214 90.9161 188.695 90.426C188.181 89.9329 187.832 89.3241 187.65 88.5997C187.472 87.8723 187.476 87.0715 187.662 86.1972C187.848 85.3229 188.172 84.5863 188.633 83.9874C189.098 83.3855 189.658 82.9587 190.311 82.7069C190.97 82.4522 191.684 82.407 192.455 82.5712C192.9 82.666 193.323 82.8336 193.725 83.0742C194.127 83.3148 194.47 83.6396 194.754 84.0489C195.04 84.4544 195.23 84.9519 195.325 85.5415C195.42 86.1311 195.383 86.8242 195.213 87.6207L195.095 88.1764L188.515 86.7741L188.757 85.6404L194.003 86.7585C194.105 86.2769 194.1 85.8266 193.988 85.4077C193.88 84.9895 193.673 84.6337 193.368 84.3401C193.066 84.0473 192.678 83.8504 192.204 83.7493C191.682 83.638 191.202 83.6713 190.765 83.8493C190.333 84.0244 189.971 84.2958 189.68 84.6636C189.388 85.0314 189.192 85.4505 189.092 85.921L188.931 86.6768C188.794 87.3214 188.788 87.8915 188.915 88.3872C189.046 88.8799 189.287 89.2856 189.637 89.6043C189.988 89.9192 190.429 90.1332 190.959 90.2461C191.303 90.3195 191.625 90.3377 191.923 90.3006C192.226 90.2605 192.5 90.1641 192.746 90.0112C192.992 89.8545 193.203 89.6399 193.377 89.3672L194.568 89.9929C194.343 90.3942 194.038 90.7243 193.654 90.9832C193.27 91.2384 192.828 91.4074 192.326 91.4902C191.825 91.5694 191.286 91.5473 190.708 91.4242ZM204.807 85.32L203.248 92.633L204.448 92.8888L203.6 96.8676L202.289 96.5881L202.876 93.8318L196.275 92.4248L198.094 83.8892L199.405 84.1687L197.847 91.4818L201.937 92.3535L203.495 85.0404L204.807 85.32ZM207.932 92.8875L213.451 87.1622L214.962 87.4844L213.143 96.02L211.832 95.7404L213.239 89.1387L207.742 94.8687L206.208 94.5419L208.027 86.0063L209.339 86.2858L207.932 92.8875ZM218.014 97.2673C217.473 97.152 217.004 96.9455 216.607 96.6478C216.21 96.3464 215.924 95.9735 215.747 95.5293C215.571 95.0813 215.543 94.5795 215.661 94.0238C215.766 93.5348 215.946 93.1589 216.204 92.8962C216.462 92.6297 216.771 92.4438 217.13 92.3384C217.49 92.233 217.873 92.1791 218.28 92.1768C218.692 92.1716 219.101 92.1853 219.509 92.2179C220.042 92.2618 220.473 92.3014 220.802 92.3367C221.136 92.3691 221.386 92.3586 221.552 92.3049C221.722 92.2521 221.83 92.1201 221.875 91.9089L221.885 91.8645C222.001 91.3162 221.942 90.8582 221.707 90.4904C221.475 90.1235 221.057 89.8756 220.454 89.7469C219.827 89.6135 219.307 89.646 218.893 89.8443C218.479 90.0427 218.167 90.282 217.956 90.5624L216.806 89.8526C217.139 89.3813 217.521 89.0406 217.953 88.8306C218.39 88.6177 218.841 88.5008 219.306 88.4799C219.776 88.4561 220.226 88.49 220.655 88.5816C220.93 88.64 221.237 88.7405 221.579 88.883C221.925 89.0226 222.243 89.2279 222.534 89.499C222.828 89.7709 223.044 90.1325 223.18 90.5836C223.316 91.0348 223.312 91.5994 223.168 92.2774L221.969 97.901L220.657 97.6215L220.904 96.4657L220.837 96.4515C220.709 96.6177 220.518 96.7844 220.266 96.9513C220.013 97.1183 219.699 97.2391 219.323 97.3139C218.947 97.3886 218.511 97.3731 218.014 97.2673ZM218.465 96.1318C218.984 96.2424 219.443 96.2337 219.842 96.1057C220.245 95.9786 220.571 95.7732 220.821 95.4895C221.075 95.2067 221.24 94.8875 221.316 94.5318L221.572 93.3315C221.502 93.3864 221.367 93.4214 221.166 93.4367C220.97 93.4491 220.745 93.4496 220.492 93.4383C220.243 93.424 220.001 93.4072 219.765 93.3879C219.533 93.3656 219.345 93.3488 219.2 93.3373C218.85 93.3091 218.516 93.3135 218.198 93.3503C217.885 93.3843 217.617 93.4801 217.393 93.6377C217.175 93.7925 217.03 94.0365 216.959 94.37C216.861 94.8256 216.957 95.2061 217.244 95.5114C217.536 95.8137 217.943 96.0205 218.465 96.1318ZM223.607 98.2501L223.867 97.0276L224.179 97.0939C224.434 97.1484 224.658 97.1438 224.85 97.0801C225.042 97.0127 225.218 96.8622 225.376 96.6287C225.538 96.3923 225.697 96.0503 225.85 95.6027C226.008 95.1523 226.176 94.5723 226.354 93.8629L227.315 90.1173L233.006 91.3301L231.187 99.8656L229.875 99.5861L231.434 92.2731L228.3 91.6051L227.517 94.6219C227.338 95.3158 227.144 95.9192 226.934 96.4321C226.728 96.9422 226.491 97.3563 226.222 97.6746C225.956 97.9937 225.647 98.2104 225.293 98.3249C224.94 98.4393 224.526 98.446 224.051 98.3449L223.607 98.2501ZM235.316 98.7241L240.836 92.9988L242.347 93.321L240.528 101.857L239.217 101.577L240.624 94.9753L235.127 100.705L233.593 100.378L235.412 91.8429L236.723 92.1224L235.316 98.7241ZM246.36 103.285C245.559 103.115 244.911 102.779 244.413 102.278C243.916 101.777 243.582 101.162 243.412 100.432C243.243 99.7027 243.248 98.912 243.43 98.0599C243.615 97.193 243.937 96.4619 244.397 95.8667C244.861 95.2686 245.421 94.8436 246.075 94.5918C246.733 94.3371 247.448 94.2919 248.218 94.4561C248.818 94.584 249.336 94.8104 249.77 95.1354C250.204 95.4603 250.532 95.8556 250.754 96.3212C250.977 96.7869 251.068 97.2943 251.028 97.8436L249.717 97.5641C249.7 97.1538 249.551 96.7618 249.27 96.3883C248.994 96.0119 248.567 95.7621 247.989 95.6389C247.478 95.53 247.001 95.5678 246.559 95.7524C246.122 95.9341 245.744 96.2429 245.427 96.6787C245.114 97.1116 244.888 97.6503 244.751 98.295C244.61 98.9544 244.592 99.5507 244.695 100.084C244.802 100.618 245.017 101.061 245.341 101.413C245.669 101.765 246.092 101.997 246.611 102.107C246.952 102.18 247.274 102.187 247.577 102.127C247.88 102.068 248.151 101.948 248.391 101.766C248.631 101.585 248.825 101.348 248.973 101.054L250.285 101.333C250.103 101.821 249.823 102.236 249.444 102.578C249.07 102.916 248.619 103.153 248.09 103.288C247.566 103.421 246.989 103.42 246.36 103.285ZM252.557 96.7752L252.818 95.5527L259.753 97.0308L259.493 98.2533L256.692 97.6564L255.133 104.969L253.822 104.69L255.38 97.3769L252.557 96.7752ZM262.833 106.796C262.063 106.632 261.426 106.305 260.922 105.814C260.423 105.324 260.08 104.715 259.894 103.986C259.713 103.258 259.716 102.453 259.904 101.571C260.093 100.682 260.42 99.9401 260.883 99.3456C261.351 98.752 261.913 98.3334 262.569 98.0898C263.228 97.847 263.944 97.8077 264.714 97.9719C265.485 98.1362 266.12 98.4632 266.62 98.9532C267.123 99.4439 267.465 100.055 267.646 100.787C267.831 101.52 267.829 102.331 267.639 103.22C267.451 104.101 267.124 104.837 266.657 105.427C266.195 106.018 265.633 106.435 264.973 106.677C264.317 106.921 263.604 106.961 262.833 106.796ZM263.084 105.618C263.67 105.743 264.183 105.696 264.625 105.476C265.067 105.257 265.431 104.922 265.717 104.471C266.002 104.021 266.206 103.511 266.328 102.94C266.449 102.37 266.472 101.819 266.395 101.287C266.319 100.756 266.124 100.298 265.811 99.9136C265.498 99.5293 265.048 99.2748 264.463 99.15C263.878 99.0253 263.364 99.0745 262.921 99.2977C262.479 99.521 262.114 99.8596 261.827 100.314C261.541 100.768 261.337 101.28 261.215 101.85C261.094 102.421 261.071 102.97 261.149 103.498C261.226 104.026 261.422 104.48 261.736 104.86C262.049 105.241 262.499 105.494 263.084 105.618ZM273.788 107.086L278.207 100.964L279.451 101.229L273.942 108.978L272.875 108.751L271.071 99.443L272.294 99.7036L273.788 107.086ZM271.872 99.6136L270.052 108.149L268.741 107.87L270.56 99.3341L271.872 99.6136ZM276.765 109.58L278.584 101.044L279.896 101.324L278.077 109.859L276.765 109.58Z" fill="#9AC355"/>
<path d="M46.6464 225.646C46.4512 225.842 46.4512 226.158 46.6464 226.354L49.8284 229.536C50.0237 229.731 50.3403 229.731 50.5355 229.536C50.7308 229.34 50.7308 229.024 50.5355 228.828L47.7071 226L50.5355 223.172C50.7308 222.976 50.7308 222.66 50.5355 222.464C50.3403 222.269 50.0237 222.269 49.8284 222.464L46.6464 225.646ZM252 132L251.563 131.757C230.852 168.938 207.549 192.347 175.548 206.48C143.522 220.624 102.734 225.5 47 225.5V226V226.5C102.766 226.5 143.728 221.626 175.952 207.395C208.201 193.153 231.648 169.562 252.437 132.243L252 132Z" fill="#9AC355"/>
<path d="M1.65283 64.7686L48.4177 74.7945L79.3919 81.4351L274.347 123.232L20.2668 77.8336L128.299 104.123" stroke="#9AC355"/>
</svg>
