<svg width="327" height="214" viewBox="0 0 327 214" fill="none" xmlns="http://www.w3.org/2000/svg">
<path d="M292 124.5L87.5 47L269.5 120.5L171 90" stroke="#9AC355" stroke-linecap="round"/>
<path d="M99.3329 16.3754L103.446 5.4903L110.016 7.97282L109.574 9.14212L104.323 7.15771L103.037 10.5593L105.801 11.6037C106.58 11.8983 107.19 12.2742 107.628 12.7316C108.07 13.1902 108.342 13.7038 108.443 14.2725C108.547 14.8424 108.48 15.4427 108.242 16.0734C108.004 16.7042 107.654 17.2076 107.192 17.5837C106.733 17.9611 106.183 18.1845 105.541 18.2538C104.903 18.3245 104.194 18.2125 103.415 17.9179L99.3329 16.3754ZM101.085 15.7254L103.849 16.7699C104.345 16.9573 104.802 17.0168 105.221 16.9482C105.644 16.8775 106.004 16.7179 106.301 16.4695C106.602 16.2189 106.819 15.9164 106.953 15.5621C107.15 15.0412 107.119 14.5174 106.861 13.9905C106.604 13.46 106.103 13.0542 105.359 12.773L102.595 11.7286L101.085 15.7254ZM112.387 21.503C111.601 21.2057 110.988 20.7757 110.549 20.2128C110.114 19.6478 109.861 18.9935 109.79 18.2498C109.724 17.5039 109.849 16.7129 110.165 15.8767C110.481 15.0404 110.911 14.361 111.457 13.8384C112.008 13.3135 112.625 12.9759 113.31 12.8256C113.999 12.6731 114.712 12.7361 115.449 13.0146C115.874 13.1753 116.268 13.4048 116.629 13.7032C116.99 14.0016 117.28 14.3745 117.5 14.822C117.721 15.2659 117.834 15.7864 117.839 16.3836C117.844 16.9808 117.703 17.6603 117.415 18.4221L117.214 18.9536L110.921 16.5755L111.331 15.4913L116.348 17.3873C116.522 16.9267 116.585 16.4808 116.538 16.0498C116.493 15.6201 116.343 15.2371 116.085 14.9008C115.831 14.5659 115.477 14.3127 115.023 14.1414C114.524 13.9526 114.045 13.9132 113.586 14.0233C113.132 14.1312 112.734 14.345 112.39 14.6647C112.047 14.9843 111.79 15.3692 111.62 15.8192L111.347 16.542C111.114 17.1585 111.022 17.7214 111.073 18.2304C111.128 18.7373 111.305 19.1747 111.604 19.5425C111.903 19.9068 112.306 20.1847 112.813 20.3762C113.143 20.5007 113.458 20.5671 113.758 20.5754C114.064 20.5815 114.349 20.5275 114.615 20.4133C114.882 20.2957 115.123 20.1152 115.336 19.8719L116.419 20.67C116.137 21.0328 115.786 21.3132 115.367 21.5112C114.949 21.7056 114.486 21.806 113.977 21.8122C113.47 21.8149 112.94 21.7118 112.387 21.503ZM118.017 21.0551L119.356 21.5612C119.246 21.9404 119.306 22.2833 119.539 22.5898C119.775 22.8976 120.139 23.1446 120.631 23.3307C121.135 23.5209 121.604 23.5808 122.039 23.5105C122.476 23.4367 122.783 23.1677 122.958 22.7035C123.061 22.4307 123.083 22.1678 123.025 21.915C122.968 21.6586 122.839 21.4275 122.637 21.2217C122.436 21.016 122.168 20.8501 121.835 20.7243L120.432 20.194L120.858 19.0673L122.261 19.5975C122.761 19.7863 123.172 19.8122 123.495 19.6751C123.822 19.5394 124.049 19.3015 124.178 18.9613C124.316 18.5963 124.297 18.2551 124.121 17.9377C123.947 17.6167 123.622 17.3665 123.147 17.1871C122.669 17.0063 122.23 16.9638 121.829 17.0594C121.43 17.1515 121.158 17.3625 121.013 17.6924L119.695 17.1943C119.875 16.7603 120.156 16.4232 120.539 16.183C120.922 15.9392 121.37 15.8047 121.882 15.7794C122.395 15.7505 122.935 15.8432 123.501 16.0575C124.075 16.2744 124.535 16.5635 124.881 16.9248C125.231 17.2839 125.456 17.6789 125.556 18.1096C125.662 18.5381 125.633 18.9685 125.469 19.4008C125.295 19.8615 125.025 20.1846 124.66 20.3703C124.294 20.5561 123.893 20.6355 123.458 20.6087L123.426 20.6937C123.726 20.8315 123.956 21.0318 124.116 21.2947C124.281 21.5553 124.373 21.8515 124.394 22.1831C124.415 22.5113 124.362 22.8454 124.234 23.1856C124.046 23.6816 123.75 24.0637 123.345 24.3318C122.941 24.5963 122.469 24.7419 121.929 24.7684C121.389 24.7914 120.822 24.6905 120.227 24.4655C119.649 24.2473 119.168 23.9579 118.781 23.5973C118.397 23.2333 118.133 22.832 117.991 22.3937C117.854 21.9531 117.863 21.5069 118.017 21.0551ZM129.345 27.7169L132.43 19.5532L133.685 20.0272L132.343 23.5776L133.172 23.8909L137.448 21.4492L139.063 22.0598L134.282 24.7476L136.021 30.2396L134.405 29.6291L133.028 25.1727L131.901 24.7469L130.6 28.191L129.345 27.7169ZM139.714 31.854C139.197 31.6585 138.764 31.3837 138.416 31.0294C138.07 30.6717 137.842 30.2599 137.735 29.7941C137.629 29.3248 137.676 28.8244 137.877 28.2929C138.054 27.8252 138.289 27.4808 138.583 27.2599C138.879 27.0355 139.212 26.8982 139.583 26.8482C139.954 26.7981 140.341 26.8026 140.744 26.8617C141.152 26.9186 141.555 26.9939 141.953 27.0876C142.473 27.2113 142.893 27.3154 143.213 27.4C143.539 27.4824 143.788 27.5097 143.96 27.4817C144.136 27.4551 144.262 27.3408 144.339 27.1389L144.355 27.0964C144.553 26.5719 144.563 26.1102 144.386 25.7112C144.213 25.3135 143.837 25.0056 143.259 24.7873C142.661 24.561 142.141 24.5147 141.702 24.6484C141.263 24.782 140.918 24.9716 140.667 25.217L139.638 24.3419C140.038 23.9262 140.467 23.6471 140.926 23.5046C141.389 23.3599 141.853 23.3123 142.316 23.3618C142.784 23.4091 143.224 23.5104 143.635 23.6657C143.897 23.7648 144.186 23.9105 144.502 24.1029C144.823 24.293 145.107 24.544 145.353 24.8558C145.603 25.169 145.762 25.5589 145.828 26.0254C145.895 26.492 145.806 27.0495 145.561 27.6979L143.528 33.0767L142.274 32.6027L142.692 31.4971L142.628 31.473C142.476 31.6181 142.263 31.7541 141.988 31.8811C141.713 32.0081 141.384 32.0801 141.001 32.0973C140.618 32.1146 140.189 32.0334 139.714 31.854ZM140.331 30.7995C140.827 30.987 141.282 31.0476 141.696 30.9812C142.113 30.9162 142.467 30.7624 142.757 30.5198C143.051 30.2784 143.262 29.9877 143.391 29.6475L143.824 28.4995C143.747 28.5432 143.608 28.5575 143.407 28.5423C143.212 28.525 142.989 28.4916 142.741 28.4422C142.497 28.3906 142.26 28.3375 142.03 28.2828C141.804 28.2259 141.621 28.1809 141.479 28.1477C141.137 28.0671 140.806 28.021 140.487 28.0096C140.172 27.9959 139.892 28.0502 139.648 28.1724C139.408 28.2923 139.228 28.5118 139.107 28.8307C138.943 29.2665 138.979 29.657 139.217 30.002C139.46 30.3449 139.832 30.6107 140.331 30.7995ZM145.818 33.9418L148.903 25.778L150.157 26.2521L148.815 29.8025L149.645 30.1158L153.92 27.6741L155.536 28.2847L150.754 30.9725L152.493 36.4645L150.878 35.8539L149.5 31.3976L148.374 30.9717L147.072 34.4158L145.818 33.9418ZM155.81 35.6041L162.129 30.7762L163.575 31.3226L160.49 39.4863L159.235 39.0123L161.621 32.6982L155.323 37.5341L153.857 36.9797L156.942 28.8159L158.196 29.2899L155.81 35.6041ZM166.808 32.5442L167.502 36.6212L170.719 34.0225L172.165 34.5688L167.986 37.6545L169.08 42.7326L167.634 42.1863L166.875 38.2794L163.722 40.708L162.277 40.1617L166.413 37.06L165.362 31.9979L166.808 32.5442ZM177.195 39.7982L176.753 40.9675L171.991 39.1679L172.433 37.9986L177.195 39.7982ZM176.695 45.6103L177.137 44.441L177.435 44.5535C177.679 44.6459 177.901 44.675 178.1 44.641C178.3 44.6034 178.496 44.481 178.688 44.274C178.885 44.0648 179.092 43.7506 179.312 43.3313C179.536 42.9098 179.789 42.3618 180.073 41.6874L181.587 38.1294L187.03 40.1861L183.945 48.3499L182.69 47.8759L185.333 40.8814L182.336 39.7486L181.108 42.613C180.826 43.272 180.543 43.8392 180.258 44.3146C179.978 44.7878 179.681 45.1615 179.367 45.4355C179.056 45.711 178.717 45.8786 178.351 45.9384C177.984 45.9982 177.574 45.9424 177.12 45.771L176.695 45.6103ZM188.199 47.844L194.518 43.0161L195.964 43.5624L192.879 51.7262L191.625 51.2522L194.011 44.938L187.713 49.774L186.246 49.2196L189.331 41.0558L190.585 41.5298L188.199 47.844ZM205.478 43.6589L205.826 44.6653C205.487 44.8125 205.136 44.8724 204.774 44.8448C204.412 44.8173 204.022 44.7365 203.602 44.6025C203.183 44.4684 202.718 44.3169 202.207 44.148C201.632 43.9551 201.11 43.9158 200.642 44.0303C200.174 44.1449 199.747 44.4049 199.363 44.8105C198.979 45.216 198.626 45.7589 198.304 46.4391L198.411 46.4792C198.88 46.0734 199.404 45.8425 199.984 45.7863C200.565 45.7301 201.134 45.8078 201.694 46.0194C202.332 46.2604 202.85 46.6262 203.248 47.1166C203.645 47.6071 203.883 48.2009 203.959 48.898C204.036 49.5951 203.912 50.3724 203.588 51.2299C203.266 52.0838 202.835 52.7633 202.296 53.2682C201.76 53.7745 201.156 54.0928 200.483 54.2232C199.815 54.3514 199.116 54.2776 198.386 54.0017C197.656 53.7259 197.082 53.3124 196.662 52.7611C196.244 52.2063 196.012 51.5312 195.964 50.7357C195.918 49.9367 196.085 49.0341 196.465 48.0278L196.794 47.1561C197.481 45.3384 198.31 44.0765 199.282 43.3705C200.257 42.6659 201.372 42.5326 202.628 42.9707C203.072 43.1226 203.465 43.267 203.806 43.404C204.147 43.5409 204.453 43.6381 204.723 43.6956C204.992 43.753 205.244 43.7408 205.478 43.6589ZM198.812 52.875C199.305 53.0611 199.775 53.0971 200.223 52.983C200.675 52.8702 201.081 52.6249 201.442 52.2472C201.805 51.866 202.102 51.3689 202.334 50.7559C202.559 50.1606 202.653 49.6171 202.616 49.1253C202.583 48.6349 202.429 48.2122 202.154 47.8573C201.879 47.5024 201.492 47.2305 200.992 47.0417C200.627 46.9038 200.276 46.842 199.939 46.8562C199.601 46.8704 199.284 46.9591 198.988 47.1224C198.691 47.2857 198.42 47.5196 198.176 47.8239C197.935 48.1297 197.726 48.5044 197.551 48.9482C197.205 49.8624 197.143 50.6751 197.364 51.3863C197.585 52.0976 198.068 52.5938 198.812 52.875ZM207.257 57.354C206.52 57.0754 205.94 56.6557 205.516 56.0947C205.096 55.535 204.849 54.8809 204.775 54.1323C204.705 53.3851 204.83 52.5899 205.148 51.7466C205.47 50.8962 205.904 50.2121 206.452 49.6943C207.004 49.1779 207.622 48.8488 208.308 48.7069C208.996 48.5663 209.709 48.6353 210.446 48.9138C211.183 49.1923 211.762 49.6114 212.182 50.1711C212.606 50.7321 212.852 51.388 212.921 52.1387C212.993 52.8908 212.868 53.692 212.547 54.5424C212.228 55.3857 211.794 56.0638 211.244 56.5767C210.697 57.0909 210.079 57.4183 209.39 57.5589C208.705 57.7008 207.994 57.6325 207.257 57.354ZM207.683 56.2272C208.243 56.4387 208.757 56.4693 209.227 56.3189C209.697 56.1685 210.107 55.8922 210.458 55.4901C210.808 55.088 211.086 54.6141 211.293 54.0684C211.499 53.5227 211.604 52.9815 211.609 52.4446C211.613 51.9077 211.489 51.4257 211.238 50.9986C210.986 50.5715 210.58 50.2521 210.021 50.0406C209.461 49.829 208.945 49.8002 208.474 49.9542C208.003 50.1081 207.591 50.388 207.24 50.7936C206.888 51.1993 206.609 51.6749 206.403 52.2206C206.197 52.7663 206.092 53.3058 206.089 53.8391C206.086 54.3724 206.211 54.8509 206.464 55.2745C206.716 55.698 207.123 56.0156 207.683 56.2272ZM217.145 60.8961L220.23 52.7323L226.65 55.1586L223.565 63.3224L222.311 62.8484L224.954 55.8539L221.042 54.3756L218.399 61.3701L217.145 60.8961ZM229.108 65.6115C228.371 65.333 227.791 64.9132 227.367 64.3522C226.947 63.7925 226.7 63.1384 226.626 62.3899C226.557 61.6427 226.681 60.8474 227 60.0041C227.321 59.1537 227.756 58.4696 228.304 57.9519C228.855 57.4354 229.473 57.1063 230.159 56.9644C230.848 56.8238 231.561 56.8928 232.298 57.1713C233.035 57.4498 233.613 57.8689 234.033 58.4286C234.457 58.9896 234.703 59.6455 234.772 60.3962C234.844 61.1483 234.719 61.9495 234.398 62.7999C234.079 63.6433 233.645 64.3213 233.095 64.8342C232.548 65.3484 231.93 65.6758 231.242 65.8164C230.556 65.9583 229.845 65.89 229.108 65.6115ZM229.534 64.4847C230.094 64.6963 230.609 64.7268 231.078 64.5764C231.548 64.426 231.958 64.1497 232.309 63.7476C232.659 63.3455 232.938 62.8716 233.144 62.3259C233.35 61.7803 233.455 61.239 233.46 60.7021C233.464 60.1652 233.341 59.6832 233.089 59.2561C232.837 58.829 232.432 58.5096 231.872 58.2981C231.312 58.0865 230.796 58.0577 230.325 58.2117C229.854 58.3657 229.443 58.6455 229.091 59.0511C228.739 59.4568 228.46 59.9324 228.254 60.4781C228.048 61.0238 227.943 61.5633 227.94 62.0966C227.937 62.6299 228.062 63.1084 228.315 63.532C228.568 63.9556 228.974 64.2731 229.534 64.4847ZM238.039 68.9863C237.273 68.6971 236.682 68.2673 236.266 67.697C235.85 67.1267 235.613 66.4682 235.555 65.7214C235.497 64.9747 235.622 64.1939 235.93 63.3789C236.243 62.5498 236.672 61.8756 237.217 61.3565C237.766 60.8352 238.383 60.4994 239.067 60.3491C239.757 60.1966 240.47 60.2596 241.207 60.5381C241.781 60.755 242.258 61.0568 242.638 61.4435C243.019 61.8301 243.283 62.2704 243.433 62.7642C243.582 63.258 243.596 63.7734 243.474 64.3104L242.22 63.8364C242.265 63.4282 242.177 63.0184 241.956 62.6068C241.74 62.1931 241.355 61.8818 240.802 61.6729C240.313 61.4881 239.836 61.4536 239.371 61.5695C238.911 61.6832 238.492 61.9315 238.112 62.3144C237.737 62.6952 237.433 63.1938 237.201 63.8104C236.962 64.4411 236.854 65.0278 236.876 65.5705C236.901 66.1145 237.047 66.5849 237.314 66.9814C237.585 67.3794 237.968 67.672 238.464 67.8595C238.79 67.9827 239.108 68.0378 239.416 68.0248C239.725 68.0119 240.011 67.9339 240.276 67.791C240.541 67.648 240.768 67.4424 240.959 67.1742L242.213 67.6482C241.96 68.1033 241.621 68.4711 241.195 68.7516C240.774 69.0298 240.292 69.1959 239.749 69.25C239.211 69.3018 238.641 69.2139 238.039 68.9863ZM241.99 73.7837L246.232 62.5585L247.444 63.0164L246.954 64.3133L247.102 64.3695C247.248 64.2626 247.444 64.1301 247.69 63.972C247.941 63.8117 248.253 63.703 248.627 63.6459C249.006 63.5865 249.461 63.6573 249.992 63.8581C250.68 64.1179 251.221 64.5187 251.615 65.0606C252.01 65.6025 252.235 66.2443 252.291 66.9862C252.347 67.728 252.212 68.5277 251.888 69.3852C251.562 70.2498 251.131 70.9436 250.598 71.4667C250.065 71.9863 249.473 72.3213 248.821 72.4717C248.17 72.6186 247.505 72.5634 246.824 72.3064C246.3 72.1082 245.913 71.8627 245.663 71.5699C245.415 71.2736 245.248 70.9816 245.162 70.6941C245.077 70.4031 245.017 70.1658 244.981 69.9821L244.875 69.942L243.244 74.2577L241.99 73.7837ZM245.922 67.1064C245.689 67.7229 245.574 68.3009 245.577 68.8405C245.581 69.3765 245.706 69.843 245.953 70.24C246.201 70.6334 246.577 70.9252 247.08 71.1153C247.604 71.3135 248.094 71.3407 248.549 71.1968C249.01 71.0508 249.417 70.7757 249.772 70.3713C250.133 69.9648 250.422 69.471 250.642 68.8899C250.859 68.3159 250.966 67.7651 250.963 67.2375C250.965 66.7077 250.839 66.2413 250.587 65.8381C250.339 65.4327 249.949 65.1295 249.418 64.9287C248.908 64.7359 248.43 64.7032 247.985 64.8306C247.541 64.9545 247.144 65.2133 246.793 65.607C246.443 65.9971 246.153 66.4969 245.922 67.1064ZM255.626 75.6325C254.839 75.3352 254.226 74.9052 253.787 74.3423C253.353 73.7773 253.1 73.123 253.029 72.3793C252.962 71.6334 253.087 70.8424 253.403 70.0062C253.719 69.1699 254.15 68.4905 254.696 67.9679C255.246 67.443 255.864 67.1054 256.548 66.9551C257.238 66.8026 257.951 66.8656 258.688 67.1441C259.113 67.3048 259.506 67.5343 259.867 67.8327C260.228 68.1311 260.518 68.504 260.738 68.9515C260.959 69.3954 261.072 69.9159 261.077 70.5131C261.082 71.1103 260.941 71.7898 260.653 72.5516L260.452 73.0831L254.159 70.705L254.569 69.6208L259.586 71.5168C259.76 71.0562 259.824 70.6103 259.776 70.1793C259.732 69.7496 259.581 69.3666 259.323 69.0303C259.069 68.6954 258.716 68.4422 258.262 68.2709C257.762 68.0821 257.283 68.0427 256.825 68.1528C256.371 68.2607 255.972 68.4745 255.629 68.7942C255.285 69.1138 255.028 69.4987 254.858 69.9487L254.585 70.6715C254.352 71.288 254.261 71.8509 254.311 72.3599C254.367 72.8668 254.544 73.3042 254.842 73.672C255.142 74.0363 255.545 74.3142 256.052 74.5057C256.381 74.6302 256.696 74.6966 256.997 74.7049C257.302 74.711 257.588 74.657 257.854 74.5428C258.121 74.4252 258.361 74.2447 258.575 74.0014L259.658 74.7995C259.375 75.1623 259.024 75.4427 258.605 75.6407C258.187 75.8351 257.724 75.9355 257.216 75.9417C256.709 75.9444 256.179 75.8413 255.626 75.6325ZM259.223 79.47L260.549 75.9622L261.229 76.2193C261.461 76.1086 261.676 75.975 261.872 75.8186C262.069 75.6621 262.264 75.4624 262.457 75.2195C262.655 74.9744 262.862 74.6637 263.077 74.2874C263.293 73.9076 263.534 73.4418 263.799 72.8901L265.297 69.763L270.484 71.7233L267.841 78.7178L269.095 79.1919L267.77 82.6997L266.515 82.2257L267.399 79.8871L261.361 77.6055L260.477 79.9441L259.223 79.47ZM262.653 76.7575L266.587 78.2438L268.788 72.4186L266.024 71.3742L265.032 73.3561C264.621 74.1765 264.229 74.8809 263.857 75.4691C263.485 76.0574 263.084 76.4869 262.653 76.7575ZM277.541 78.3992L277.1 79.5684L272.592 77.8652L273.034 76.6959L277.541 78.3992ZM274.658 73.3005L271.573 81.4643L270.318 80.9903L273.403 72.8265L274.658 73.3005ZM279.824 75.2528L276.739 83.4166L275.484 82.9426L278.569 74.7788L279.824 75.2528ZM280.983 82.9067L287.302 78.0788L288.748 78.6251L285.663 86.7889L284.408 86.3149L286.794 80.0007L280.496 84.8366L279.029 84.2823L282.115 76.1185L283.369 76.5925L280.983 82.9067ZM287.96 87.6571L291.045 79.4933L292.299 79.9673L290.958 83.5177L291.787 83.831L296.062 81.3893L297.678 81.9999L292.897 84.6877L294.636 90.1798L293.02 89.5692L291.643 85.1128L290.516 84.687L289.214 88.1311L287.96 87.6571ZM298.915 91.9913C298.178 91.7128 297.598 91.293 297.174 90.732C296.754 90.1724 296.507 89.5182 296.433 88.7697C296.363 88.0225 296.488 87.2272 296.806 86.3839C297.128 85.5335 297.562 84.8495 298.11 84.3317C298.662 83.8153 299.28 83.4861 299.966 83.3442C300.655 83.2037 301.367 83.2726 302.104 83.5511C302.841 83.8297 303.42 84.2488 303.84 84.8084C304.264 85.3694 304.51 86.0253 304.579 86.7761C304.651 87.5282 304.526 88.3294 304.205 89.1798C303.886 90.0231 303.452 90.7012 302.902 91.2141C302.355 91.7283 301.737 92.0557 301.048 92.1962C300.363 92.3381 299.652 92.2698 298.915 91.9913ZM299.341 90.8645C299.901 91.0761 300.415 91.1067 300.885 90.9562C301.355 90.8058 301.765 90.5295 302.116 90.1274C302.466 89.7253 302.744 89.2514 302.951 88.7058C303.157 88.1601 303.262 87.6188 303.267 87.082C303.271 86.5451 303.147 86.0631 302.896 85.636C302.644 85.2088 302.238 84.8895 301.679 84.6779C301.119 84.4664 300.603 84.4376 300.132 84.5915C299.661 84.7455 299.249 85.0253 298.898 85.431C298.546 85.8366 298.267 86.3123 298.061 86.8579C297.855 87.4036 297.75 87.9431 297.747 88.4764C297.744 89.0098 297.869 89.4882 298.122 89.9118C298.374 90.3354 298.781 90.653 299.341 90.8645ZM304.593 93.9427L307.678 85.7789L311.016 87.0403C311.895 87.3724 312.518 87.8346 312.885 88.4269C313.253 89.0193 313.313 89.6414 313.067 90.2934C312.879 90.7895 312.587 91.1183 312.19 91.28C311.794 91.4382 311.347 91.4781 310.851 91.3997C311.136 91.556 311.388 91.7728 311.607 92.05C311.83 92.3285 311.979 92.6521 312.054 93.0207C312.131 93.3857 312.088 93.7826 311.926 94.2114C311.768 94.6295 311.521 94.9631 311.183 95.2123C310.846 95.4615 310.443 95.6068 309.974 95.6482C309.505 95.6895 308.994 95.6058 308.441 95.3969L304.593 93.9427ZM306.218 93.2446L308.875 94.2489C309.307 94.4122 309.685 94.4373 310.007 94.3242C310.329 94.2111 310.557 93.9774 310.691 93.623C310.85 93.2014 310.853 92.8239 310.7 92.4906C310.548 92.1537 310.255 91.9036 309.823 91.7402L307.166 90.7359L306.218 93.2446ZM307.575 89.6517L309.723 90.4631C310.059 90.5903 310.365 90.6534 310.641 90.6523C310.918 90.6477 311.153 90.5827 311.347 90.4573C311.545 90.3296 311.689 90.1454 311.78 89.9044C311.91 89.5607 311.868 89.2372 311.655 88.9339C311.443 88.627 311.085 88.3785 310.582 88.1883L308.435 87.3769L307.575 89.6517ZM315.431 96.3375L315.129 96.8794C314.916 97.2606 314.66 97.658 314.362 98.0718C314.068 98.4869 313.778 98.8734 313.493 99.2314C313.208 99.5893 312.977 99.8727 312.801 100.081L311.844 99.7199C311.976 99.5106 312.15 99.2339 312.365 98.89C312.58 98.5461 312.811 98.1579 313.06 97.7253C313.31 97.2977 313.551 96.8541 313.781 96.3945L314.07 95.8233L315.431 96.3375ZM113.959 34.2206L114.401 33.0513L121.034 35.5579L120.592 36.7272L117.913 35.7149L115.27 42.7094L114.016 42.2354L116.659 35.2409L113.959 34.2206ZM122.607 45.6764C121.87 45.3978 121.29 44.9781 120.866 44.4171C120.446 43.8574 120.199 43.2033 120.125 42.4547C120.055 41.7075 120.18 40.9123 120.499 40.069C120.82 39.2186 121.255 38.5345 121.803 38.0167C122.354 37.5003 122.972 37.1712 123.658 37.0293C124.347 36.8887 125.06 36.9577 125.797 37.2362C126.534 37.5147 127.112 37.9338 127.532 38.4935C127.956 39.0545 128.202 39.7104 128.271 40.4611C128.343 41.2132 128.218 42.0144 127.897 42.8648C127.578 43.7081 127.144 44.3862 126.594 44.8991C126.047 45.4133 125.429 45.7407 124.741 45.8813C124.055 46.0232 123.344 45.9549 122.607 45.6764ZM123.033 44.5496C123.593 44.7611 124.108 44.7917 124.577 44.6413C125.047 44.4909 125.457 44.2146 125.808 43.8125C126.158 43.4104 126.436 42.9365 126.643 42.3908C126.849 41.8451 126.954 41.3039 126.959 40.767C126.963 40.2301 126.84 39.7481 126.588 39.321C126.336 38.8939 125.931 38.5745 125.371 38.363C124.811 38.1514 124.295 38.1226 123.824 38.2766C123.353 38.4305 122.941 38.7104 122.59 39.116C122.238 39.5217 121.959 39.9973 121.753 40.543C121.547 41.0887 121.442 41.6282 121.439 42.1615C121.436 42.6948 121.561 43.1733 121.814 43.5969C122.067 44.0204 122.473 44.338 123.033 44.5496ZM127.562 47.3546L128.004 46.1853L128.302 46.2978C128.546 46.3902 128.768 46.4193 128.967 46.3853C129.168 46.3477 129.364 46.2253 129.555 46.0184C129.752 45.8092 129.96 45.4949 130.179 45.0756C130.403 44.6541 130.657 44.1061 130.94 43.4317L132.455 39.8737L137.897 41.9304L134.812 50.0942L133.558 49.6202L136.201 42.6257L133.203 41.4929L131.975 44.3573C131.694 45.0163 131.41 45.5835 131.125 46.0589C130.845 46.5321 130.548 46.9058 130.234 47.1798C129.924 47.4553 129.585 47.6229 129.218 47.6827C128.851 47.7425 128.441 47.6867 127.988 47.5153L127.562 47.3546ZM140.166 46.165L142.505 47.0487C143.461 47.4103 144.101 47.9295 144.424 48.6064C144.748 49.2833 144.769 49.9938 144.488 50.7379C144.303 51.2269 144.021 51.6287 143.643 51.9434C143.267 52.2546 142.814 52.4458 142.285 52.5172C141.757 52.585 141.174 52.4984 140.536 52.2574L137.113 50.9639L140.198 42.8001L141.453 43.2741L138.81 50.2686L140.978 51.0881C141.474 51.2756 141.931 51.2985 142.349 51.1568C142.767 51.0151 143.054 50.7387 143.209 50.3277C143.373 49.8954 143.346 49.4826 143.13 49.0892C142.915 48.6959 142.559 48.4055 142.063 48.218L139.724 47.3343L140.166 46.165ZM145.401 54.0957L148.486 45.9319L149.74 46.4059L148.398 49.9563L149.228 50.2696L153.503 47.8279L155.119 48.4385L150.337 51.1263L152.076 56.6184L150.461 56.0078L149.083 51.5514L147.957 51.1256L146.655 54.5697L145.401 54.0957ZM156.356 58.4299C155.619 58.1514 155.038 57.7317 154.615 57.1706C154.194 56.611 153.948 55.9569 153.874 55.2083C153.804 54.4611 153.929 53.6659 154.247 52.8225C154.569 51.9722 155.003 51.2881 155.551 50.7703C156.103 50.2539 156.721 49.9247 157.406 49.7828C158.095 49.6423 158.808 49.7112 159.545 49.9898C160.282 50.2683 160.861 50.6874 161.281 51.247C161.705 51.8081 161.951 52.4639 162.02 53.2147C162.092 53.9668 161.967 54.768 161.646 55.6184C161.327 56.4617 160.893 57.1398 160.342 57.6527C159.796 58.1669 159.178 58.4943 158.489 58.6348C157.804 58.7768 157.093 58.7084 156.356 58.4299ZM156.782 57.3032C157.341 57.5147 157.856 57.5453 158.326 57.3949C158.796 57.2444 159.206 56.9682 159.557 56.5661C159.907 56.1639 160.185 55.6901 160.391 55.1444C160.598 54.5987 160.703 54.0574 160.707 53.5206C160.712 52.9837 160.588 52.5017 160.337 52.0746C160.085 51.6474 159.679 51.3281 159.119 51.1165C158.56 50.905 158.044 50.8762 157.573 51.0301C157.102 51.1841 156.69 51.4639 156.338 51.8696C155.987 52.2752 155.708 52.7509 155.502 53.2966C155.295 53.8422 155.191 54.3817 155.188 54.9151C155.184 55.4484 155.309 55.9268 155.562 56.3504C155.815 56.774 156.222 57.0916 156.782 57.3032ZM166.413 62.0364L170.527 51.1513L174.332 52.5894C175.091 52.8759 175.667 53.2434 176.06 53.6917C176.455 54.1365 176.69 54.6241 176.765 55.1545C176.841 55.6814 176.778 56.2106 176.578 56.7421C176.401 57.2098 176.172 57.5646 175.89 57.8064C175.612 58.0495 175.305 58.2088 174.968 58.2842C174.636 58.3609 174.297 58.3829 173.953 58.3501L173.913 58.4564C174.238 58.6035 174.529 58.847 174.785 59.1868C175.041 59.5266 175.208 59.9377 175.285 60.4203C175.362 60.9028 175.292 61.4311 175.075 62.0051C174.868 62.5508 174.559 62.9947 174.146 63.3368C173.734 63.6789 173.211 63.8764 172.58 63.9293C171.949 63.9823 171.204 63.8467 170.347 63.5227L166.413 62.0364ZM168.173 61.3652L170.788 62.3534C171.649 62.6788 172.324 62.7432 172.811 62.5467C173.303 62.348 173.64 62.0095 173.82 61.5311C173.96 61.1626 173.994 60.787 173.924 60.4042C173.856 60.0179 173.683 59.6652 173.407 59.3462C173.132 59.0236 172.757 58.7726 172.282 58.5932L169.604 57.5809L168.173 61.3652ZM170.037 56.4329L172.482 57.3568C172.879 57.5068 173.266 57.5641 173.644 57.5287C174.026 57.4946 174.364 57.3713 174.659 57.1588C174.957 56.9477 175.179 56.6508 175.323 56.2681C175.504 55.7897 175.491 55.3211 175.284 54.8622C175.078 54.3997 174.613 54.0319 173.891 53.7587L171.403 52.8187L170.037 56.4329ZM179.03 60.8518L181.369 61.7355C182.326 62.097 182.966 62.6163 183.289 63.2932C183.612 63.9701 183.633 64.6806 183.352 65.4247C183.167 65.9137 182.886 66.3155 182.508 66.6302C182.131 66.9413 181.678 67.1326 181.149 67.204C180.621 67.2718 180.038 67.1852 179.401 66.9442L175.978 65.6507L179.063 57.4869L180.317 57.9609L177.674 64.9554L179.843 65.7749C180.339 65.9623 180.796 65.9852 181.214 65.8435C181.632 65.7018 181.918 65.4255 182.074 65.0144C182.237 64.5822 182.211 64.1694 181.995 63.776C181.779 63.3827 181.423 63.0923 180.927 62.9048L178.589 62.021L179.03 60.8518ZM183.653 68.551L186.738 60.3872L187.992 60.8612L184.907 69.025L183.653 68.551ZM193.366 70.1078L199.685 65.2799L201.131 65.8262L198.046 73.99L196.791 73.516L199.177 67.2018L192.879 72.0378L191.412 71.4834L194.498 63.3196L195.752 63.7936L193.366 70.1078ZM207.805 77.8724C207.039 77.5831 206.449 77.1534 206.032 76.5831C205.616 76.0128 205.379 75.3542 205.321 74.6075C205.263 73.8608 205.388 73.0799 205.696 72.265C206.01 71.4358 206.438 70.7617 206.983 70.2426C207.532 69.7213 208.149 69.3855 208.833 69.2352C209.523 69.0826 210.236 69.1456 210.973 69.4242C211.547 69.6411 212.024 69.9429 212.404 70.3295C212.785 70.7162 213.05 71.1565 213.199 71.6503C213.349 72.1441 213.362 72.6595 213.24 73.1965L211.986 72.7225C212.031 72.3143 211.943 71.9044 211.722 71.4929C211.506 71.0792 211.121 70.7678 210.568 70.559C210.079 70.3742 209.602 70.3397 209.138 70.4556C208.678 70.5692 208.258 70.8175 207.878 71.2005C207.503 71.5813 207.2 72.0799 206.967 72.6965C206.728 73.3272 206.62 73.9139 206.642 74.4566C206.667 75.0006 206.813 75.4709 207.08 75.8675C207.351 76.2654 207.734 76.5581 208.23 76.7456C208.556 76.8688 208.874 76.9239 209.182 76.9109C209.491 76.898 209.778 76.82 210.042 76.677C210.307 76.5341 210.534 76.3285 210.725 76.0603L211.979 76.5343C211.726 76.9894 211.387 77.3572 210.961 77.6376C210.54 77.9159 210.058 78.082 209.515 78.1361C208.977 78.1879 208.407 78.1 207.805 77.8724ZM212.913 79.6084L215.998 71.4446L222.418 73.8709L219.333 82.0347L218.079 81.5606L220.722 74.5661L216.81 73.0879L214.167 80.0824L212.913 79.6084ZM224.983 84.3639C224.196 84.0666 223.583 83.6366 223.144 83.0738C222.71 82.5087 222.457 81.8544 222.385 81.1107C222.319 80.3649 222.444 79.5738 222.76 78.7376C223.076 77.9014 223.507 77.2219 224.052 76.6993C224.603 76.1745 225.221 75.8369 225.905 75.6865C226.594 75.534 227.308 75.597 228.045 75.8755C228.47 76.0362 228.863 76.2657 229.224 76.5641C229.585 76.8625 229.875 77.2354 230.095 77.6829C230.316 78.1268 230.429 78.6473 230.434 79.2445C230.439 79.8417 230.298 80.5212 230.01 81.283L229.809 81.8145L223.516 79.4364L223.926 78.3522L228.943 80.2482C229.117 79.7876 229.181 79.3418 229.133 78.9107C229.089 78.481 228.938 78.098 228.68 77.7618C228.426 77.4268 228.072 77.1737 227.619 77.0023C227.119 76.8135 226.64 76.7741 226.181 76.8843C225.728 76.9922 225.329 77.2059 224.985 77.5256C224.642 77.8453 224.385 78.2301 224.215 78.6801L223.942 79.4029C223.709 80.0195 223.618 80.5823 223.668 81.0914C223.724 81.5982 223.901 82.0356 224.199 82.4034C224.499 82.7677 224.902 83.0456 225.408 83.2371C225.738 83.3616 226.053 83.4281 226.354 83.4364C226.659 83.4425 226.945 83.3884 227.211 83.2743C227.478 83.1566 227.718 82.9761 227.931 82.7328L229.015 83.5309C228.732 83.8937 228.381 84.1741 227.962 84.3721C227.544 84.5666 227.081 84.6669 226.573 84.6732C226.065 84.6759 225.535 84.5728 224.983 84.3639ZM239.841 80.4548L237.198 87.4493L238.346 87.8831L236.908 91.6886L235.653 91.2146L236.65 88.5784L230.335 86.1923L233.42 78.0285L234.675 78.5025L232.032 85.497L235.943 86.9753L238.587 79.9808L239.841 80.4548ZM241.789 88.4069L248.108 83.579L249.554 84.1253L246.469 92.2891L245.215 91.8151L247.601 85.5009L241.303 90.3369L239.836 89.7825L242.921 81.6187L244.175 82.0927L241.789 88.4069ZM251.096 94.2565C250.579 94.061 250.146 93.7861 249.798 93.4319C249.452 93.0742 249.225 92.6624 249.117 92.1966C249.011 91.7273 249.059 91.2269 249.259 90.6954C249.436 90.2277 249.672 89.8833 249.966 89.6624C250.261 89.4379 250.594 89.3007 250.965 89.2506C251.337 89.2006 251.724 89.2051 252.127 89.2642C252.534 89.3211 252.937 89.3964 253.335 89.4901C253.855 89.6138 254.275 89.7179 254.596 89.8025C254.921 89.8849 255.17 89.9121 255.342 89.8842C255.518 89.8576 255.645 89.7433 255.721 89.5414L255.737 89.4988C255.935 88.9744 255.946 88.5127 255.768 88.1137C255.595 87.716 255.219 87.4081 254.642 87.1898C254.043 86.9635 253.524 86.9172 253.084 87.0509C252.645 87.1845 252.3 87.3741 252.05 87.6195L251.02 86.7444C251.42 86.3286 251.849 86.0495 252.308 85.9071C252.772 85.7624 253.235 85.7148 253.698 85.7643C254.166 85.8116 254.606 85.9129 255.017 86.0682C255.279 86.1673 255.568 86.313 255.884 86.5053C256.205 86.6955 256.489 86.9464 256.735 87.2583C256.986 87.5715 257.144 87.9614 257.211 88.4279C257.277 88.8945 257.188 89.452 256.943 90.1004L254.91 95.4792L253.656 95.0051L254.074 93.8996L254.01 93.8755C253.858 94.0206 253.645 94.1566 253.37 94.2836C253.095 94.4105 252.766 94.4826 252.383 94.4998C252 94.517 251.571 94.4359 251.096 94.2565ZM251.714 93.202C252.21 93.3895 252.665 93.4501 253.078 93.3837C253.496 93.3187 253.849 93.1649 254.14 92.9222C254.433 92.6809 254.644 92.3902 254.773 92.05L255.207 90.902C255.129 90.9457 254.99 90.96 254.79 90.9448C254.594 90.9275 254.371 90.8941 254.123 90.8447C253.879 90.7931 253.642 90.74 253.412 90.6853C253.186 90.6284 253.003 90.5834 252.861 90.5502C252.519 90.4696 252.189 90.4235 251.869 90.4121C251.554 90.3984 251.275 90.4527 251.03 90.5748C250.79 90.6948 250.61 90.9143 250.49 91.2332C250.325 91.669 250.362 92.0594 250.6 92.4045C250.843 92.7474 251.214 93.0132 251.714 93.202ZM256.477 96.0712L256.919 94.9019L257.217 95.0143C257.461 95.1067 257.683 95.1359 257.882 95.1018C258.082 95.0642 258.279 94.9419 258.47 94.7349C258.667 94.5257 258.874 94.2115 259.094 93.7922C259.318 93.3707 259.571 92.8227 259.855 92.1482L261.369 88.5903L266.812 90.647L263.727 98.8108L262.472 98.3368L265.116 91.3423L262.118 90.2095L260.89 93.0739C260.608 93.7328 260.325 94.3 260.04 94.7755C259.76 95.2487 259.463 95.6223 259.149 95.8964C258.838 96.1718 258.5 96.3394 258.133 96.3992C257.766 96.459 257.356 96.4032 256.902 96.2318L256.477 96.0712ZM267.981 98.3049L274.301 93.477L275.746 94.0233L272.661 102.187L271.407 101.713L273.793 95.3989L267.495 100.235L266.028 99.6805L269.113 91.5167L270.367 91.9907L267.981 98.3049ZM278.211 104.479C277.445 104.189 276.855 103.76 276.438 103.189C276.022 102.619 275.785 101.961 275.727 101.214C275.669 100.467 275.794 99.6862 276.102 98.8713C276.416 98.0421 276.844 97.368 277.389 96.8489C277.938 96.3276 278.555 95.9918 279.24 95.8415C279.929 95.689 280.642 95.7519 281.379 96.0305C281.953 96.2474 282.43 96.5492 282.81 96.9358C283.191 97.3225 283.456 97.7628 283.605 98.2566C283.755 98.7504 283.768 99.2658 283.646 99.8028L282.392 99.3288C282.437 98.9206 282.349 98.5107 282.128 98.0992C281.912 97.6855 281.527 97.3742 280.974 97.1653C280.486 96.9805 280.009 96.946 279.544 97.0619C279.084 97.1755 278.664 97.4239 278.284 97.8068C277.91 98.1876 277.606 98.6862 277.373 99.3028C277.134 99.9335 277.026 100.52 277.048 101.063C277.073 101.607 277.219 102.077 277.486 102.474C277.757 102.872 278.141 103.164 278.637 103.352C278.963 103.475 279.28 103.53 279.588 103.517C279.897 103.504 280.184 103.426 280.448 103.283C280.713 103.14 280.94 102.935 281.131 102.667L282.385 103.141C282.132 103.596 281.793 103.964 281.367 104.244C280.946 104.522 280.464 104.688 279.921 104.742C279.383 104.794 278.813 104.706 278.211 104.479ZM285.319 98.9771L285.761 97.8078L292.394 100.314L291.952 101.484L289.273 100.471L286.63 107.466L285.376 106.992L288.019 99.9975L285.319 98.9771Z" fill="#9AC355"/>
<path d="M0.646447 209.646C0.451184 209.842 0.451184 210.158 0.646447 210.354L3.82843 213.536C4.02369 213.731 4.34027 213.731 4.53553 213.536C4.7308 213.34 4.7308 213.024 4.53553 212.828L1.70711 210L4.53553 207.172C4.7308 206.976 4.7308 206.66 4.53553 206.464C4.34027 206.269 4.02369 206.269 3.82843 206.464L0.646447 209.646ZM185 116L184.553 115.776C165.96 152.963 145.046 176.364 116.34 190.489C87.6124 204.624 51.0199 209.5 1 209.5V210V210.5C51.0581 210.5 87.8413 205.626 116.782 191.386C145.744 177.136 166.791 153.537 185.447 116.224L185 116Z" fill="#9AC355"/>
</svg>
