<svg width="328" height="214" viewBox="0 0 328 214" fill="none" xmlns="http://www.w3.org/2000/svg">
<path d="M15.1905 111.586L317.81 43.4135L103.327 109.759L188.401 97.1922" stroke="#9AC355" stroke-linecap="round"/>
<path d="M64.1365 68.5145L61.6197 57.1535L62.9954 56.8488L64.1162 61.9079L70.1739 60.566L69.0531 55.5068L70.4288 55.202L72.9456 66.563L71.5699 66.8677L70.4442 61.7864L64.3865 63.1283L65.5122 68.2097L64.1365 68.5145ZM78.074 65.6364C77.534 65.756 77.0215 65.7629 76.5364 65.657C76.0504 65.5473 75.635 65.3271 75.2901 64.9961C74.9443 64.6614 74.71 64.2167 74.5871 63.662C74.479 63.1738 74.4875 62.7568 74.6126 62.411C74.7369 62.0614 74.9407 61.7641 75.2239 61.519C75.5072 61.2739 75.8335 61.0658 76.203 60.8947C76.5754 60.7191 76.9537 60.5616 77.3379 60.4222C77.8409 60.2409 78.2496 60.098 78.564 59.9935C78.8812 59.8844 79.1044 59.7709 79.2335 59.6531C79.3662 59.5344 79.4093 59.3697 79.3626 59.1589L79.3528 59.1145C79.2315 58.5672 78.9875 58.1751 78.6208 57.9382C78.2577 57.7005 77.7748 57.6484 77.172 57.7819C76.547 57.9204 76.0873 58.1658 75.7929 58.5181C75.4985 58.8704 75.3136 59.2179 75.2382 59.5605L73.8973 59.392C74.0045 58.8251 74.211 58.3564 74.5169 57.986C74.8257 57.6111 75.1875 57.3176 75.6022 57.1055C76.0197 56.8888 76.443 56.733 76.872 56.6379C77.1457 56.5773 77.4674 56.5409 77.8372 56.5289C78.2098 56.5123 78.5847 56.5669 78.9618 56.6929C79.3426 56.8181 79.6886 57.0576 79.9997 57.4116C80.3109 57.7655 80.5415 58.2809 80.6914 58.9577L81.9351 64.5716L80.6259 64.8616L80.3703 63.7077L80.3037 63.7225C80.2559 63.9271 80.1518 64.1577 79.9914 64.4144C79.831 64.671 79.5952 64.9114 79.2841 65.1355C78.9729 65.3597 78.5695 65.5266 78.074 65.6364ZM78.0132 64.4161C78.5309 64.3014 78.9448 64.1031 79.2547 63.821C79.5684 63.5381 79.7802 63.2158 79.8902 62.8539C80.0038 62.4912 80.0213 62.1323 79.9426 61.7773L79.6772 60.579C79.6365 60.6579 79.5279 60.7459 79.3516 60.8432C79.1782 60.9359 78.9739 61.0297 78.7389 61.1244C78.5067 61.2147 78.2792 61.3 78.0565 61.3804C77.8366 61.4562 77.6585 61.519 77.522 61.5686C77.1916 61.6883 76.8895 61.8309 76.6158 61.9963C76.3449 62.1572 76.1406 62.3557 76.0028 62.5918C75.8679 62.8235 75.8373 63.1057 75.9111 63.4386C76.0118 63.8934 76.2563 64.2001 76.6444 64.3585C77.0355 64.5124 77.4917 64.5316 78.0132 64.4161ZM84.3246 64.0422L82.437 55.5215L89.1382 54.037L91.0258 62.5577L89.7166 62.8477L88.0994 55.5474L84.0165 56.4519L85.6337 63.7522L84.3246 64.0422ZM94.2982 59.8076L96.9433 52.308L98.4521 51.9737L100.34 60.4944L99.0306 60.7844L97.5706 54.1942L94.9477 61.6889L93.4167 62.0281L91.5291 53.5074L92.8382 53.2173L94.2982 59.8076ZM100.85 51.4425L102.159 51.1525L103.776 58.4528L106.994 57.74L105.377 50.4397L106.686 50.1497L108.303 57.45L111.52 56.7372L109.903 49.4369L111.212 49.1469L113.1 57.6676L102.738 59.9632L100.85 51.4425ZM116.372 54.9175L119.017 47.4179L120.526 47.0836L122.414 55.6043L121.105 55.8943L119.645 49.3041L117.022 56.7988L115.491 57.138L113.603 48.6173L114.912 48.3273L116.372 54.9175ZM122.035 48.0297L121.765 46.8093L128.688 45.2756L128.958 46.496L126.162 47.1154L127.78 54.4157L126.47 54.7057L124.853 47.4054L122.035 48.0297ZM135.655 52.8574C134.834 53.0392 134.085 53.0149 133.409 52.7844C132.737 52.5494 132.167 52.1402 131.7 51.5569C131.236 50.969 130.908 50.2387 130.714 49.366C130.521 48.4932 130.51 47.6887 130.68 46.9526C130.854 46.2119 131.186 45.5914 131.676 45.0908C132.169 44.5858 132.801 44.2481 133.57 44.0777C134.014 43.9794 134.468 43.9563 134.934 44.0083C135.399 44.0604 135.846 44.2136 136.275 44.4677C136.703 44.7182 137.083 45.092 137.414 45.5889C137.745 46.0858 137.999 46.7319 138.175 47.527L138.298 48.0817L131.73 49.5367L131.479 48.4051L136.716 47.245C136.609 46.7642 136.418 46.3565 136.142 46.0219C135.87 45.6865 135.534 45.4486 135.134 45.3082C134.738 45.167 134.304 45.1489 133.83 45.2537C133.309 45.3693 132.886 45.5986 132.563 45.9419C132.242 46.2806 132.026 46.6778 131.913 47.1334C131.801 47.5889 131.796 48.0515 131.901 48.5212L132.068 49.2756C132.21 49.9191 132.442 50.44 132.763 50.8384C133.087 51.2322 133.474 51.5013 133.925 51.6459C134.376 51.7867 134.865 51.7985 135.394 51.6813C135.738 51.6051 136.038 51.4882 136.294 51.3307C136.553 51.1685 136.762 50.9669 136.922 50.7259C137.082 50.4811 137.184 50.1985 137.229 49.8781L138.573 49.9529C138.535 50.4114 138.394 50.8382 138.152 51.2333C137.909 51.6247 137.576 51.9622 137.154 52.2458C136.731 52.5257 136.231 52.7296 135.655 52.8574ZM149.029 49.8945C148.23 50.0715 147.501 50.0352 146.84 49.7858C146.18 49.5364 145.621 49.1151 145.164 48.522C144.706 47.9288 144.383 47.2069 144.195 46.3563C144.003 45.4909 143.993 44.692 144.164 43.9596C144.339 43.2226 144.671 42.6039 145.162 42.1034C145.655 41.5984 146.286 41.2607 147.055 41.0903C147.655 40.9575 148.219 40.9489 148.749 41.0643C149.279 41.1797 149.742 41.4031 150.137 41.7345C150.532 42.0659 150.826 42.4897 151.018 43.0058L149.709 43.2958C149.523 42.9296 149.225 42.6349 148.815 42.4115C148.407 42.1836 147.915 42.1336 147.338 42.2614C146.828 42.3744 146.41 42.6067 146.084 42.9582C145.761 43.3051 145.546 43.7428 145.438 44.271C145.333 44.7948 145.352 45.3784 145.494 46.0219C145.64 46.6802 145.871 47.2305 146.186 47.6728C146.505 48.1143 146.885 48.4278 147.325 48.6134C147.77 48.7981 148.251 48.8332 148.769 48.7185C149.109 48.6431 149.405 48.5155 149.656 48.3357C149.907 48.1559 150.104 47.9338 150.247 47.6693C150.39 47.4048 150.468 47.1082 150.481 46.7796L151.79 46.4895C151.827 47.0089 151.745 47.5025 151.542 47.9703C151.342 48.4336 151.029 48.8364 150.605 49.1788C150.183 49.5167 149.658 49.7552 149.029 49.8945ZM154.254 48.5508L152.367 40.0301L159.068 38.5456L160.955 47.0663L159.646 47.3563L158.029 40.056L153.946 40.9605L155.563 48.2608L154.254 48.5508ZM166.958 45.9227C166.137 46.1046 165.389 46.0803 164.713 45.8497C164.04 45.6147 163.47 45.2055 163.004 44.6222C162.54 44.0344 162.211 43.3041 162.018 42.4313C161.825 41.5585 161.813 40.7541 161.984 40.0179C162.157 39.2773 162.489 38.6567 162.98 38.1562C163.473 37.6512 164.104 37.3135 164.873 37.1431C165.317 37.0447 165.772 37.0216 166.237 37.0737C166.703 37.1258 167.15 37.2789 167.579 37.5331C168.007 37.7836 168.386 38.1573 168.717 38.6542C169.049 39.1512 169.302 39.7972 169.479 40.5923L169.601 41.1471L163.033 42.6021L162.783 41.4704L168.019 40.3103C167.913 39.8296 167.722 39.4219 167.446 39.0873C167.174 38.7518 166.838 38.5139 166.438 38.3736C166.042 38.2324 165.607 38.2142 165.134 38.3191C164.613 38.4346 164.19 38.664 163.866 39.0073C163.546 39.346 163.329 39.7431 163.217 40.1987C163.104 40.6543 163.1 41.1169 163.204 41.5866L163.371 42.341C163.514 42.9845 163.746 43.5054 164.067 43.9037C164.391 44.2975 164.778 44.5667 165.229 44.7112C165.679 44.852 166.169 44.8638 166.698 44.7467C167.042 44.6705 167.342 44.5536 167.598 44.396C167.857 44.2339 168.066 44.0323 168.226 43.7912C168.385 43.5465 168.487 43.2639 168.533 42.9434L169.876 43.0183C169.838 43.4768 169.698 43.9035 169.456 44.2986C169.213 44.69 168.88 45.0275 168.458 45.3111C168.035 45.5911 167.535 45.7949 166.958 45.9227ZM177.252 34.5173L178.869 41.8175L180.067 41.5521L180.947 45.524L179.638 45.814L179.029 43.0625L172.438 44.5225L170.551 36.0018L171.86 35.7117L173.477 43.012L177.56 42.1076L175.943 34.8073L177.252 34.5173ZM183.236 40.1053L185.881 32.6057L187.39 32.2714L189.277 40.7921L187.968 41.0822L186.508 34.4919L183.885 41.9866L182.354 42.3258L180.467 33.8051L181.776 33.5151L183.236 40.1053ZM194.227 39.9052C193.687 40.0248 193.174 40.0317 192.689 39.9258C192.203 39.8161 191.788 39.5959 191.443 39.2649C191.097 38.9302 190.863 38.4855 190.74 37.9308C190.632 37.4426 190.64 37.0256 190.765 36.6798C190.89 36.3302 191.093 36.0329 191.377 35.7878C191.66 35.5427 191.986 35.3346 192.356 35.1635C192.728 34.9879 193.106 34.8304 193.491 34.691C193.994 34.5097 194.402 34.3668 194.717 34.2623C195.034 34.1532 195.257 34.0397 195.386 33.9219C195.519 33.8032 195.562 33.6385 195.515 33.4277L195.506 33.3833C195.384 32.836 195.14 32.4439 194.774 32.207C194.411 31.9693 193.928 31.9172 193.325 32.0507C192.7 32.1892 192.24 32.4346 191.946 32.7869C191.651 33.1392 191.466 33.4867 191.391 33.8293L190.05 33.6608C190.157 33.0939 190.364 32.6252 190.67 32.2548C190.979 31.8799 191.34 31.5864 191.755 31.3743C192.173 31.1576 192.596 31.0018 193.025 30.9067C193.298 30.8461 193.62 30.8097 193.99 30.7977C194.363 30.7811 194.737 30.8358 195.115 30.9617C195.495 31.0869 195.841 31.3264 196.153 31.6804C196.464 32.0343 196.694 32.5497 196.844 33.2265L198.088 38.8404L196.779 39.1304L196.523 37.9765L196.456 37.9913C196.409 38.1959 196.305 38.4265 196.144 38.6832C195.984 38.9398 195.748 39.1802 195.437 39.4044C195.126 39.6285 194.722 39.7954 194.227 39.9052ZM194.166 38.6849C194.684 38.5702 195.098 38.3719 195.408 38.0898C195.721 37.8069 195.933 37.4846 196.043 37.1227C196.157 36.76 196.174 36.4011 196.095 36.0461L195.83 34.8478C195.789 34.9267 195.681 35.0148 195.504 35.112C195.331 35.2047 195.127 35.2985 194.892 35.3932C194.659 35.4835 194.432 35.5688 194.209 35.6492C193.989 35.725 193.811 35.7878 193.675 35.8374C193.344 35.9571 193.042 36.0997 192.769 36.2651C192.498 36.426 192.293 36.6245 192.156 36.8606C192.021 37.0923 191.99 37.3745 192.064 37.7074C192.165 38.1622 192.409 38.4689 192.797 38.6273C193.188 38.7812 193.644 38.8004 194.166 38.6849ZM199.723 38.4781L199.453 37.2577L199.763 37.1889C200.018 37.1324 200.22 37.0353 200.368 36.8978C200.515 36.7566 200.612 36.5469 200.659 36.2688C200.709 35.9861 200.711 35.6094 200.665 35.1385C200.622 34.6631 200.534 34.0657 200.402 33.3462L199.721 29.5396L205.402 28.2812L207.289 36.8019L205.98 37.0919L204.363 29.7917L201.234 30.4848L201.775 33.5542C201.9 34.2597 201.973 34.8894 201.995 35.4432C202.02 35.9926 201.976 36.4679 201.863 36.8692C201.754 37.2697 201.562 37.5954 201.288 37.8463C201.014 38.0971 200.64 38.275 200.167 38.3798L199.723 38.4781ZM210.573 34.0493L213.218 26.5497L214.727 26.2155L216.615 34.7362L215.305 35.0262L213.845 28.4359L211.223 35.9306L209.691 36.2698L207.804 27.7491L209.113 27.4591L210.573 34.0493ZM222.513 33.6157C221.714 33.7926 220.985 33.7564 220.324 33.507C219.664 33.2576 219.105 32.8363 218.648 32.2431C218.19 31.6499 217.867 30.9281 217.679 30.0775C217.487 29.2121 217.477 28.4132 217.649 27.6807C217.823 26.9438 218.155 26.3251 218.646 25.8246C219.139 25.3195 219.77 24.9818 220.54 24.8114C221.139 24.6787 221.703 24.67 222.233 24.7854C222.763 24.9008 223.226 25.1242 223.621 25.4556C224.017 25.787 224.31 26.2108 224.502 26.727L223.193 27.017C223.007 26.6508 222.709 26.356 222.299 26.1326C221.891 25.9048 221.399 25.8547 220.822 25.9825C220.312 26.0956 219.894 26.3279 219.568 26.6793C219.246 27.0263 219.03 27.4639 218.922 27.9922C218.817 28.516 218.836 29.0996 218.978 29.7431C219.124 30.4014 219.355 30.9516 219.67 31.3939C219.989 31.8354 220.369 32.1489 220.809 32.3345C221.254 32.5193 221.735 32.5543 222.253 32.4396C222.593 32.3642 222.889 32.2367 223.14 32.0569C223.391 31.8771 223.588 31.655 223.731 31.3905C223.874 31.126 223.952 30.8294 223.965 30.5007L225.274 30.2107C225.311 30.73 225.229 31.2236 225.026 31.6914C224.826 32.1548 224.514 32.5576 224.089 32.9C223.667 33.2378 223.142 33.4764 222.513 33.6157ZM225.45 25.1203L225.18 23.8999L232.103 22.3663L232.373 23.5867L229.577 24.206L231.194 31.5063L229.885 31.7963L228.268 24.4961L225.45 25.1203ZM237.451 33.4724C237.229 33.5215 237.027 33.5469 236.845 33.5484C236.664 33.5536 236.536 33.547 236.462 33.5284L236.54 32.3008C236.876 32.3118 237.163 32.2791 237.402 32.2028C237.642 32.1266 237.834 31.9695 237.979 31.7317C238.129 31.4968 238.235 31.1454 238.298 30.6775L238.395 29.9577L233.347 22.0907L234.767 21.7761L238.623 28.045L238.712 28.0253L239.56 20.7143L240.98 20.3997L239.526 30.9643C239.46 31.4404 239.34 31.8493 239.163 32.191C238.987 32.5364 238.756 32.8146 238.469 33.0256C238.186 33.2358 237.847 33.3847 237.451 33.4724ZM9.80891 100.01L7.92133 91.4895L11.4051 90.7178C12.3222 90.5146 13.0966 90.5603 13.7283 90.8549C14.36 91.1495 14.7513 91.637 14.902 92.3175C15.0167 92.8352 14.9521 93.2705 14.7082 93.6232C14.4636 93.9723 14.1119 94.25 13.6532 94.4564C13.9774 94.4311 14.3071 94.4745 14.6423 94.5864C14.9812 94.6976 15.283 94.8868 15.5478 95.154C15.8118 95.4176 15.9934 95.7731 16.0925 96.2205C16.1892 96.6569 16.1647 97.0717 16.019 97.4648C15.8733 97.8579 15.6155 98.2001 15.2455 98.4916C14.8755 98.7831 14.4021 98.9927 13.8252 99.1205L9.80891 100.01ZM10.7861 98.5367L13.5597 97.9223C14.0109 97.8223 14.3403 97.6368 14.548 97.3658C14.7557 97.0948 14.8185 96.7744 14.7366 96.4045C14.6391 95.9644 14.4349 95.6469 14.124 95.452C13.8123 95.2533 13.4309 95.204 12.9797 95.3039L10.206 95.9184L10.7861 98.5367ZM9.95534 94.7867L12.1965 94.2902C12.5478 94.2124 12.8385 94.0976 13.0687 93.9457C13.2981 93.7901 13.4593 93.607 13.5523 93.3963C13.6481 93.1811 13.6682 92.9477 13.6125 92.6963C13.533 92.3375 13.321 92.0896 12.9764 91.9526C12.6309 91.8119 12.1956 91.7997 11.6705 91.916L9.42937 92.4125L9.95534 94.7867ZM22.2197 97.2609L21.9493 96.0405L22.26 95.9716C22.5151 95.9151 22.7167 95.8181 22.8647 95.6805C23.0119 95.5393 23.109 95.3296 23.156 95.0515C23.2059 94.7689 23.2078 94.3921 23.1617 93.9213C23.1185 93.4459 23.0307 92.8484 22.8985 92.1289L22.2182 88.3223L27.8987 87.064L29.7862 95.5847L28.4771 95.8747L26.8598 88.5744L23.7311 89.2675L24.2714 92.3369C24.3967 93.0424 24.4702 93.6721 24.4921 94.226C24.5168 94.7753 24.4727 95.2506 24.3598 95.6519C24.2507 96.0525 24.059 96.3781 23.7848 96.629C23.5106 96.8798 23.1368 97.0577 22.6635 97.1626L22.2197 97.2609ZM35.2093 89.3552L35.4797 90.5756L30.9752 91.5735L30.7049 90.353L35.2093 89.3552ZM30.9885 86.3795L32.8761 94.9002L31.5669 95.1902L29.6793 86.6695L30.9885 86.3795ZM38.9287 93.7456C38.1595 93.916 37.444 93.8824 36.7823 93.6449C36.1243 93.4066 35.5596 92.9943 35.0883 92.4082C34.6208 91.8211 34.2895 91.0876 34.0945 90.2074C33.8979 89.3198 33.8871 88.5094 34.0622 87.7761C34.241 87.0421 34.5783 86.4281 35.0741 85.9341C35.5736 85.4394 36.208 85.1068 36.9772 84.9364C37.7465 84.766 38.4601 84.7999 39.1181 85.0383C39.7799 85.2758 40.3449 85.6899 40.8133 86.2806C41.2854 86.8705 41.6198 87.6092 41.8164 88.4968C42.0114 89.3769 42.0191 90.1822 41.8394 90.9126C41.6635 91.6422 41.3258 92.2543 40.8263 92.7491C40.3305 93.243 39.698 93.5752 38.9287 93.7456ZM38.6682 92.5695C39.2525 92.4401 39.7001 92.1838 40.011 91.8007C40.3218 91.4176 40.5138 90.9618 40.5869 90.4335C40.6599 89.9052 40.6334 89.3563 40.5072 88.7868C40.3811 88.2173 40.1729 87.7066 39.8827 87.2549C39.5925 86.8032 39.2252 86.4675 38.7808 86.2478C38.3364 86.0281 37.8221 85.983 37.2378 86.1124C36.6535 86.2419 36.2063 86.5 35.8962 86.8868C35.5862 87.2736 35.3951 87.7331 35.3228 88.2651C35.2505 88.7971 35.2775 89.3478 35.4037 89.9174C35.5298 90.4869 35.7376 90.9957 36.027 91.4437C36.3163 91.8917 36.6828 92.2237 37.1264 92.4397C37.5699 92.6557 38.0839 92.699 38.6682 92.5695ZM48.6091 79.1239L49.4517 79.7753C49.2485 80.0841 48.9879 80.3261 48.6698 80.5014C48.3517 80.6766 47.9806 80.8228 47.5565 80.94C47.1324 81.0573 46.6602 81.1851 46.14 81.3237C45.5532 81.4769 45.0952 81.7297 44.7658 82.082C44.4365 82.4343 44.2221 82.8853 44.1228 83.4349C44.0234 83.9846 44.0252 84.6321 44.1283 85.3774L44.2392 85.3529C44.4097 84.7564 44.7223 84.2759 45.1769 83.9114C45.6316 83.5469 46.151 83.2999 46.7354 83.1704C47.401 83.023 48.0346 83.0456 48.6359 83.2382C49.2373 83.4309 49.7609 83.7979 50.2067 84.3393C50.6525 84.8807 50.9746 85.5989 51.1728 86.4939C51.3703 87.3851 51.3817 88.1896 51.207 88.9072C51.036 89.6241 50.7047 90.2212 50.213 90.6987C49.7242 91.1717 49.0988 91.4926 48.337 91.6614C47.5752 91.8301 46.8679 91.7986 46.2152 91.5669C45.5617 91.3315 44.9973 90.8939 44.5219 90.2543C44.0458 89.611 43.6913 88.7642 43.4587 87.7139L43.2571 86.8042C42.8369 84.907 42.8399 83.3971 43.2663 82.2745C43.6964 81.1511 44.5568 80.429 45.8475 80.1082C46.3028 79.9918 46.7106 79.8976 47.071 79.8255C47.4313 79.7534 47.7402 79.6675 47.9974 79.5679C48.2547 79.4682 48.4586 79.3202 48.6091 79.1239ZM48.0765 90.4853C48.5905 90.3714 49.0038 90.1441 49.3163 89.8033C49.6324 89.4617 49.8384 89.0339 49.934 88.52C50.0288 88.0024 50.0054 87.4237 49.8637 86.7839C49.726 86.1626 49.5072 85.6563 49.2071 85.2649C48.9107 84.8728 48.5504 84.6034 48.1261 84.4569C47.7018 84.3104 47.2289 84.2948 46.7074 84.4104C46.3265 84.4947 45.9988 84.6352 45.7242 84.8319C45.4496 85.0285 45.2329 85.2763 45.0741 85.5753C44.9153 85.8743 44.8169 86.2181 44.7789 86.6067C44.7445 86.9946 44.7752 87.4223 44.8711 87.8899C45.0824 88.844 45.4754 89.5582 46.0498 90.0322C46.6243 90.5063 47.2999 90.6574 48.0765 90.4853ZM57.5955 89.6103C56.8263 89.7807 56.1108 89.7472 55.4491 89.5097C54.791 89.2714 54.2264 88.8591 53.7551 88.2729C53.2875 87.6859 52.9563 86.9523 52.7613 86.0722C52.5646 85.1846 52.5539 84.3742 52.729 83.6409C52.9078 82.9068 53.2451 82.2928 53.7409 81.7989C54.2404 81.3042 54.8748 80.9716 55.644 80.8012C56.4132 80.6308 57.1269 80.6647 57.7849 80.903C58.4466 81.1405 59.0117 81.5546 59.4801 82.1453C59.9522 82.7352 60.2865 83.474 60.4832 84.3615C60.6781 85.2417 60.6858 86.047 60.5062 86.7774C60.3303 87.5069 59.9926 88.1191 59.4931 88.6138C58.9972 89.1078 58.3647 89.4399 57.5955 89.6103ZM57.335 88.4343C57.9193 88.3049 58.3669 88.0486 58.6777 87.6654C58.9886 87.2823 59.1806 86.8266 59.2536 86.2983C59.3267 85.77 59.3002 85.2211 59.174 84.6516C59.0478 84.082 58.8396 83.5714 58.5495 83.1197C58.2593 82.668 57.892 82.3323 57.4476 82.1126C57.0032 81.8929 56.4889 81.8478 55.9045 81.9772C55.3202 82.1066 54.873 82.3648 54.563 82.7516C54.253 83.1384 54.0618 83.5978 53.9896 84.1298C53.9173 84.6618 53.9443 85.2126 54.0704 85.7821C54.1966 86.3517 54.4044 86.8604 54.6937 87.3085C54.9831 87.7565 55.3495 88.0885 55.7931 88.3045C56.2367 88.5205 56.7507 88.5637 57.335 88.4343ZM67.0273 87.5209C66.2063 87.7028 65.458 87.6785 64.7823 87.4479C64.1095 87.2129 63.5397 86.8037 63.0729 86.2204C62.609 85.6326 62.2804 84.9023 62.0871 84.0295C61.8937 83.1567 61.8824 82.3523 62.0529 81.6161C62.2264 80.8755 62.5584 80.2549 63.0488 79.7544C63.5422 79.2494 64.1735 78.9116 64.9427 78.7412C65.3865 78.6429 65.8411 78.6198 66.3066 78.6719C66.7721 78.724 67.2192 78.8771 67.6479 79.1313C68.0759 79.3818 68.4555 79.7555 68.7867 80.2524C69.1179 80.7494 69.3716 81.3954 69.5478 82.1905L69.6706 82.7452L63.1026 84.2003L62.8519 83.0686L68.0886 81.9085C67.9821 81.4278 67.7909 81.0201 67.515 80.6854C67.2429 80.35 66.9069 80.1121 66.5073 79.9717C66.1113 79.8306 65.6766 79.8124 65.2033 79.9173C64.6818 80.0328 64.2593 80.2622 63.9357 80.6054C63.615 80.9442 63.3985 81.3413 63.286 81.7969C63.1735 82.2524 63.1693 82.7151 63.2734 83.1847L63.4405 83.9392C63.583 84.5827 63.8148 85.1036 64.1359 85.5019C64.4598 85.8957 64.8472 86.1649 65.2982 86.3094C65.7485 86.4502 66.238 86.462 66.7668 86.3449C67.1108 86.2687 67.4108 86.1518 67.6668 85.9942C67.9258 85.8321 68.1352 85.6305 68.2952 85.3894C68.4544 85.1446 68.5567 84.862 68.6021 84.5416L69.9455 84.6165C69.9074 85.0749 69.7672 85.5017 69.525 85.8968C69.2819 86.2882 68.9493 86.6257 68.5272 86.9093C68.1042 87.1892 67.6043 87.3931 67.0273 87.5209ZM76.9011 85.1474L75.0135 76.6267L78.4972 75.8549C79.4144 75.6517 80.1888 75.6974 80.8205 75.992C81.4522 76.2866 81.8434 76.7741 81.9942 77.4546C82.1089 77.9724 82.0443 78.4076 81.8004 78.7604C81.5557 79.1094 81.2041 79.3872 80.7454 79.5935C81.0696 79.5683 81.3993 79.6116 81.7345 79.7236C82.0733 79.8347 82.3752 80.0239 82.64 80.2912C82.904 80.5547 83.0856 80.9102 83.1847 81.3577C83.2814 81.7941 83.2569 82.2088 83.1112 82.6019C82.9655 82.995 82.7077 83.3373 82.3377 83.6287C81.9677 83.9202 81.4943 84.1298 80.9174 84.2576L76.9011 85.1474ZM77.8783 83.6739L80.6519 83.0594C81.1031 82.9595 81.4325 82.774 81.6402 82.5029C81.8479 82.2319 81.9107 81.9115 81.8288 81.5417C81.7313 81.1016 81.5271 80.7841 81.2162 80.5891C80.9045 80.3905 80.5231 80.3411 80.0719 80.4411L77.2982 81.0555L77.8783 83.6739ZM77.0475 79.9239L79.2886 79.4274C79.64 79.3496 79.9307 79.2347 80.1609 79.0828C80.3903 78.9273 80.5514 78.7442 80.6444 78.5334C80.7403 78.3182 80.7604 78.0849 80.7047 77.8334C80.6252 77.4747 80.4132 77.2268 80.0686 77.0897C79.7231 76.949 79.2878 76.9368 78.7627 77.0531L76.5216 77.5496L77.0475 79.9239ZM86.3807 86.3994L83.7852 74.6835L85.05 74.4033L85.3499 75.7568L85.5052 75.7224C85.5686 75.5532 85.6599 75.3351 85.7793 75.0681C85.9015 74.7966 86.1034 74.5346 86.385 74.2821C86.6694 74.0251 87.0891 73.8352 87.6438 73.7123C88.3612 73.5534 89.0334 73.5926 89.6602 73.8301C90.287 74.0676 90.8268 74.4815 91.2796 75.0717C91.7323 75.662 92.0579 76.4047 92.2561 77.2996C92.456 78.202 92.4758 79.0182 92.3155 79.7481C92.1544 80.4744 91.8422 81.079 91.3788 81.5619C90.9146 82.041 90.3275 82.3592 89.6175 82.5165C89.0701 82.6378 88.6118 82.6443 88.2425 82.536C87.8724 82.424 87.5728 82.2711 87.3437 82.0775C87.1137 81.8801 86.9335 81.7144 86.8029 81.5804L86.692 81.605L87.6898 86.1094L86.3807 86.3994ZM86.016 78.6587C86.1586 79.3022 86.3786 79.849 86.6762 80.2991C86.9729 80.7455 87.3333 81.0672 87.7571 81.2643C88.1802 81.4576 88.6543 81.4962 89.1794 81.3798C89.7268 81.2586 90.1515 81.0132 90.4538 80.6436C90.7589 80.2695 90.9494 79.8161 91.0253 79.2832C91.1042 78.7459 91.0764 78.174 90.942 77.5675C90.8093 76.9683 90.5972 76.4489 90.3058 76.0091C90.0173 75.5648 89.657 75.243 89.2249 75.0439C88.7957 74.8402 88.3037 74.7998 87.749 74.9227C87.2164 75.0407 86.7989 75.2748 86.4962 75.6251C86.1928 75.9716 86.0019 76.4058 85.9235 76.9275C85.8442 77.4456 85.8751 78.0226 86.016 78.6587ZM98.8038 80.4815C97.9828 80.6634 97.2345 80.639 96.5588 80.4085C95.886 80.1735 95.3162 79.7643 94.8494 79.181C94.3855 78.5932 94.0569 77.8629 93.8636 76.9901C93.6702 76.1173 93.6589 75.3128 93.8294 74.5767C94.0029 73.8361 94.3349 73.2155 94.8253 72.715C95.3187 72.2099 95.95 71.8722 96.7192 71.7018C97.163 71.6035 97.6176 71.5804 98.0831 71.6325C98.5486 71.6845 98.9957 71.8377 99.4244 72.0919C99.8524 72.3424 100.232 72.7161 100.563 73.213C100.894 73.71 101.148 74.356 101.324 75.1511L101.447 75.7058L94.8791 77.1608L94.6284 76.0292L99.8651 74.8691C99.7586 74.3883 99.5674 73.9807 99.2915 73.646C99.0193 73.3106 98.6834 73.0727 98.2838 72.9323C97.8878 72.7911 97.4531 72.773 96.9797 72.8779C96.4583 72.9934 96.0358 73.2228 95.7122 73.566C95.3915 73.9048 95.175 74.3019 95.0625 74.7575C94.95 75.213 94.9458 75.6757 95.0499 76.1453L95.217 76.8998C95.3595 77.5433 95.5913 78.0642 95.9124 78.4625C96.2363 78.8563 96.6237 79.1255 97.0747 79.27C97.5249 79.4108 98.0145 79.4226 98.5433 79.3055C98.8872 79.2293 99.1872 79.1124 99.4433 78.9548C99.7023 78.7927 99.9117 78.5911 100.072 78.35C100.231 78.1052 100.333 77.8226 100.379 77.5022L101.722 77.577C101.684 78.0355 101.544 78.4623 101.301 78.8574C101.058 79.2488 100.726 79.5863 100.304 79.8699C99.8807 80.1498 99.3808 80.3537 98.8038 80.4815ZM108.551 76.2738L110.03 68.8696L111.272 68.5943L109.476 77.931L108.411 78.1669L102.907 70.4475L104.127 70.1771L108.551 76.2738ZM103.706 70.2705L105.593 78.7912L104.284 79.0812L102.397 70.5605L103.706 70.2705ZM112.294 77.3067L110.407 68.786L111.716 68.496L113.604 77.0167L112.294 77.3067ZM121.126 75.3503L119.504 68.0278L117.24 68.5292C116.73 68.6423 116.355 68.8495 116.115 69.1509C115.876 69.4523 115.802 69.8101 115.893 70.2243C115.983 70.6311 116.186 70.9219 116.5 71.0968C116.818 71.2708 117.208 71.3066 117.67 71.2042L120.421 70.5946L120.692 71.815L117.94 72.4246C117.363 72.5524 116.843 72.5609 116.381 72.45C115.918 72.3392 115.532 72.1202 115.222 71.7929C114.912 71.462 114.7 71.0358 114.584 70.5143C114.468 69.9892 114.486 69.5118 114.639 69.0821C114.792 68.6525 115.066 68.2872 115.462 67.9863C115.86 67.6846 116.365 67.4662 116.975 67.331L120.481 66.5543L122.368 75.075L121.126 75.3503ZM115.445 76.6087L116.925 71.8347L118.345 71.5201L116.865 76.2941L115.445 76.6087ZM130.047 71.3488L132.692 63.8492L134.201 63.515L136.088 72.0357L134.779 72.3257L133.319 65.7355L130.696 73.2302L129.165 73.5693L127.278 65.0486L128.587 64.7586L130.047 71.3488ZM137.732 71.6716L137.461 70.4512L137.772 70.3824C138.027 70.3258 138.229 70.2288 138.377 70.0913C138.524 69.95 138.621 69.7404 138.668 69.4622C138.718 69.1796 138.72 68.8029 138.674 68.332C138.631 67.8566 138.543 67.2592 138.411 66.5397L137.73 62.7331L143.411 61.4747L145.298 69.9954L143.989 70.2854L142.372 62.9851L139.243 63.6782L139.784 66.7477C139.909 67.4532 139.982 68.0829 140.004 68.6367C140.029 69.186 139.985 69.6614 139.872 70.0627C139.763 70.4632 139.571 70.7889 139.297 71.0397C139.023 71.2906 138.649 71.4684 138.176 71.5733L137.732 71.6716ZM148.582 67.2428L151.227 59.7432L152.736 59.4089L154.623 67.9296L153.314 68.2196L151.854 61.6294L149.231 69.1241L147.7 69.4633L145.813 60.9426L147.122 60.6526L148.582 67.2428ZM160.4 64.3686L161.798 64.0589C161.913 64.437 162.152 64.6906 162.514 64.8199C162.88 64.9483 163.32 64.9556 163.834 64.8417C164.359 64.7253 164.785 64.5186 165.111 64.2213C165.436 63.9204 165.545 63.5277 165.438 63.0432C165.374 62.7584 165.249 62.5262 165.062 62.3466C164.874 62.1632 164.639 62.0406 164.358 61.9788C164.076 61.917 163.762 61.9246 163.414 62.0016L161.95 62.326L161.689 61.15L163.154 60.8256C163.675 60.71 164.034 60.5065 164.229 60.2149C164.428 59.9225 164.488 59.5988 164.41 59.2438C164.325 58.8629 164.123 58.5877 163.802 58.4182C163.48 58.245 163.072 58.2133 162.576 58.3231C162.077 58.4337 161.686 58.6386 161.403 58.938C161.119 59.2336 161.007 59.5591 161.066 59.9145L159.691 60.2193C159.604 59.7575 159.655 59.3214 159.843 58.911C160.031 58.497 160.332 58.1394 160.746 57.8381C161.16 57.5331 161.662 57.3151 162.254 57.184C162.853 57.0513 163.396 57.0415 163.883 57.1549C164.373 57.2636 164.777 57.4708 165.097 57.7762C165.42 58.0772 165.631 58.4533 165.731 58.9045C165.838 59.3852 165.789 59.8034 165.584 60.1591C165.38 60.5148 165.088 60.8005 164.709 61.0164L164.729 61.1052C165.056 61.0561 165.358 61.0978 165.635 61.2302C165.916 61.3582 166.155 61.5554 166.354 61.8217C166.552 62.0844 166.69 62.3932 166.769 62.7483C166.884 63.266 166.845 63.7479 166.653 64.194C166.46 64.6363 166.144 65.0166 165.707 65.3347C165.268 65.6491 164.738 65.8752 164.117 66.0128C163.514 66.1463 162.952 66.1679 162.432 66.0776C161.91 65.9836 161.47 65.7921 161.111 65.503C160.755 65.2094 160.518 64.8313 160.4 64.3686ZM171.685 64.3594C171.145 64.479 170.633 64.4859 170.148 64.3799C169.662 64.2703 169.246 64.0501 168.901 63.7191C168.556 63.3844 168.321 62.9397 168.199 62.385C168.09 61.8968 168.099 61.4798 168.224 61.134C168.348 60.7844 168.552 60.4871 168.835 60.242C169.119 59.9969 169.445 59.7888 169.814 59.6177C170.187 59.4421 170.565 59.2846 170.949 59.1452C171.452 58.9639 171.861 58.821 172.175 58.7164C172.493 58.6074 172.716 58.4939 172.845 58.3761C172.978 58.2574 173.021 58.0927 172.974 57.8819L172.964 57.8375C172.843 57.2902 172.599 56.8981 172.232 56.6612C171.869 56.4235 171.386 56.3714 170.783 56.5049C170.158 56.6434 169.699 56.8888 169.404 57.2411C169.11 57.5934 168.925 57.9409 168.85 58.2835L167.509 58.1149C167.616 57.548 167.822 57.0794 168.128 56.709C168.437 56.3341 168.799 56.0406 169.214 55.8284C169.631 55.6118 170.054 55.4559 170.483 55.3609C170.757 55.3003 171.079 55.2639 171.449 55.2519C171.821 55.2353 172.196 55.2899 172.573 55.4159C172.954 55.5411 173.3 55.7806 173.611 56.1346C173.922 56.4885 174.153 57.0039 174.303 57.6806L175.547 63.2945L174.237 63.5846L173.982 62.4307L173.915 62.4455C173.867 62.65 173.763 62.8807 173.603 63.1373C173.442 63.394 173.207 63.6344 172.896 63.8585C172.584 64.0827 172.181 64.2496 171.685 64.3594ZM171.625 63.1391C172.142 63.0244 172.556 62.826 172.866 62.544C173.18 62.2611 173.392 61.9387 173.502 61.5769C173.615 61.2141 173.633 60.8553 173.554 60.5002L173.289 59.302C173.248 59.3809 173.139 59.4689 172.963 59.5662C172.79 59.6589 172.585 59.7527 172.35 59.8474C172.118 59.9377 171.891 60.023 171.668 60.1034C171.448 60.1792 171.27 60.242 171.133 60.2916C170.803 60.4113 170.501 60.5539 170.227 60.7193C169.956 60.8802 169.752 61.0787 169.614 61.3148C169.479 61.5465 169.449 61.8287 169.523 62.1615C169.623 62.6164 169.868 62.9231 170.256 63.0815C170.647 63.2354 171.103 63.2546 171.625 63.1391ZM177.936 62.7652L176.048 54.2445L182.75 52.76L184.637 61.2807L183.328 61.5707L181.711 54.2704L177.628 55.1749L179.245 62.4752L177.936 62.7652ZM187.91 58.5306L190.555 51.0309L192.064 50.6967L193.951 59.2174L192.642 59.5074L191.182 52.9172L188.559 60.4119L187.028 60.751L185.141 52.2303L186.45 51.9403L187.91 58.5306ZM194.461 50.1655L195.771 49.8755L197.388 57.1758L200.605 56.463L198.988 49.1627L200.297 48.8727L201.914 56.173L205.132 55.4602L203.515 48.1599L204.824 47.8699L206.711 56.3906L196.349 58.6862L194.461 50.1655ZM209.984 53.6405L212.629 46.1409L214.138 45.8066L216.025 54.3273L214.716 54.6173L213.256 48.0271L210.633 55.5218L209.102 55.861L207.215 47.3403L208.524 47.0502L209.984 53.6405ZM215.647 46.7527L215.376 45.5323L222.299 43.9986L222.57 45.219L219.774 45.8384L221.391 53.1387L220.082 53.4287L218.465 46.1284L215.647 46.7527ZM229.266 51.5804C228.445 51.7622 227.697 51.7379 227.021 51.5074C226.348 51.2723 225.778 50.8632 225.312 50.2799C224.848 49.692 224.519 48.9617 224.326 48.089C224.132 47.2162 224.121 46.4117 224.292 45.6756C224.465 44.9349 224.797 44.3143 225.287 43.8138C225.781 43.3088 226.412 42.9711 227.181 42.8007C227.625 42.7024 228.08 42.6793 228.545 42.7313C229.011 42.7834 229.458 42.9365 229.887 43.1907C230.314 43.4412 230.694 43.8149 231.025 44.3119C231.357 44.8088 231.61 45.4549 231.786 46.25L231.909 46.8047L225.341 48.2597L225.091 47.1281L230.327 45.968C230.221 45.4872 230.03 45.0795 229.754 44.7449C229.481 44.4095 229.146 44.1716 228.746 44.0312C228.35 43.89 227.915 43.8719 227.442 43.9767C226.92 44.0922 226.498 44.3216 226.174 44.6649C225.854 45.0036 225.637 45.4008 225.525 45.8563C225.412 46.3119 225.408 46.7745 225.512 47.2442L225.679 47.9986C225.822 48.6421 226.053 49.163 226.374 49.5614C226.698 49.9552 227.086 50.2243 227.537 50.3688C227.987 50.5097 228.477 50.5215 229.005 50.4043C229.349 50.3281 229.649 50.2112 229.905 50.0536C230.164 49.8915 230.374 49.6899 230.534 49.4489C230.693 49.2041 230.795 48.9215 230.841 48.6011L232.184 48.6759C232.146 49.1344 232.006 49.5612 231.764 49.9563C231.521 50.3476 231.188 50.6851 230.766 50.9688C230.343 51.2487 229.843 51.4526 229.266 51.5804ZM238.247 49.5908C237.448 49.7677 236.719 49.7315 236.058 49.4821C235.398 49.2327 234.839 48.8114 234.381 48.2182C233.924 47.6251 233.601 46.9032 233.413 46.0526C233.221 45.1872 233.211 44.3883 233.382 43.6559C233.557 42.9189 233.889 42.3002 234.38 41.7997C234.873 41.2947 235.504 40.9569 236.273 40.7865C236.873 40.6538 237.437 40.6451 237.967 40.7605C238.497 40.8759 238.96 41.0993 239.355 41.4307C239.75 41.7621 240.044 42.1859 240.236 42.7021L238.927 42.9921C238.741 42.6259 238.443 42.3311 238.033 42.1078C237.625 41.8799 237.133 41.8298 236.556 41.9577C236.046 42.0707 235.628 42.303 235.302 42.6545C234.979 43.0014 234.764 43.439 234.656 43.9673C234.551 44.4911 234.57 45.0747 234.712 45.7182C234.858 46.3765 235.089 46.9268 235.404 47.3691C235.723 47.8105 236.103 48.1241 236.543 48.3096C236.988 48.4944 237.469 48.5294 237.987 48.4147C238.327 48.3394 238.622 48.2118 238.874 48.032C239.125 47.8522 239.322 47.6301 239.465 47.3656C239.608 47.1011 239.686 46.8045 239.699 46.4758L241.008 46.1858C241.045 46.7052 240.963 47.1987 240.76 47.6666C240.56 48.1299 240.247 48.5327 239.823 48.8751C239.401 49.2129 238.876 49.4515 238.247 49.5908ZM243.4 42.56L245.84 42.0193C246.839 41.7981 247.659 41.8822 248.3 42.2717C248.941 42.6612 249.347 43.2443 249.519 44.0209C249.633 44.5313 249.617 45.0216 249.473 45.4919C249.328 45.9586 249.054 46.3666 248.65 46.7159C248.245 47.0616 247.71 47.3082 247.045 47.4556L243.472 48.247L241.585 39.7263L242.894 39.4363L244.511 46.7366L246.774 46.2352C247.292 46.1205 247.687 45.8895 247.959 45.5421C248.231 45.1947 248.32 44.8065 248.225 44.3775C248.125 43.9263 247.877 43.5952 247.481 43.3842C247.085 43.1731 246.628 43.125 246.111 43.2397L243.67 43.7804L243.4 42.56ZM260.016 44.7683C259.247 44.9387 258.531 44.9052 257.87 44.6677C257.212 44.4293 256.647 44.0171 256.176 43.4309C255.708 42.8439 255.377 42.1103 255.182 41.2301C254.985 40.3425 254.975 39.5321 255.15 38.7989C255.328 38.0648 255.666 37.4508 256.162 36.9569C256.661 36.4621 257.295 36.1295 258.065 35.9591C258.834 35.7887 259.548 35.8227 260.206 36.061C260.867 36.2985 261.432 36.7126 261.901 37.3033C262.373 37.8932 262.707 38.6319 262.904 39.5195C263.099 40.3997 263.107 41.205 262.927 41.9353C262.751 42.6649 262.413 43.277 261.914 43.7718C261.418 44.2657 260.785 44.5979 260.016 44.7683ZM259.756 43.5923C260.34 43.4628 260.788 43.2065 261.098 42.8234C261.409 42.4403 261.601 41.9846 261.674 41.4563C261.747 40.928 261.721 40.379 261.595 39.8095C261.469 39.24 261.26 38.7294 260.97 38.2776C260.68 37.8259 260.313 37.4902 259.868 37.2705C259.424 37.0508 258.91 37.0057 258.325 37.1352C257.741 37.2646 257.294 37.5227 256.984 37.9096C256.674 38.2964 256.483 38.7558 256.41 39.2878C256.338 39.8198 256.365 40.3706 256.491 40.9401C256.617 41.5096 256.825 42.0184 257.114 42.4664C257.404 42.9144 257.77 43.2464 258.214 43.4624C258.657 43.6784 259.171 43.7217 259.756 43.5923ZM270.462 37.17L270.733 38.3904L266.029 39.4325L265.758 38.2121L270.462 37.17ZM265.258 34.482L267.145 43.0027L265.836 43.2928L263.949 34.7721L265.258 34.482ZM270.65 33.2876L272.537 41.8083L271.228 42.0983L269.341 33.5776L270.65 33.2876ZM274.174 41.4457L273.904 40.2253L274.214 40.1565C274.469 40.1 274.671 40.0029 274.819 39.8654C274.966 39.7242 275.063 39.5145 275.11 39.2364C275.16 38.9537 275.162 38.577 275.116 38.1061C275.073 37.6307 274.985 37.0333 274.853 36.3138L274.172 32.5072L279.853 31.2488L281.74 39.7695L280.431 40.0595L278.814 32.7592L275.685 33.4523L276.226 36.5218C276.351 37.2273 276.424 37.857 276.446 38.4108C276.471 38.9601 276.427 39.4355 276.314 39.8368C276.205 40.2373 276.013 40.563 275.739 40.8138C275.465 41.0647 275.091 41.2426 274.618 41.3474L274.174 41.4457ZM286.694 38.8816C286.154 39.0013 285.642 39.0081 285.156 38.9022C284.67 38.7926 284.255 38.5723 283.91 38.2413C283.564 37.9067 283.33 37.462 283.207 36.9072C283.099 36.4191 283.108 36.0021 283.233 35.6562C283.357 35.3067 283.561 35.0093 283.844 34.7642C284.127 34.5192 284.454 34.3111 284.823 34.14C285.195 33.9644 285.574 33.8069 285.958 33.6674C286.461 33.4862 286.87 33.3433 287.184 33.2387C287.501 33.1296 287.724 33.0162 287.854 32.8983C287.986 32.7797 288.029 32.615 287.983 32.4042L287.973 32.3598C287.852 31.8125 287.608 31.4203 287.241 31.1834C286.878 30.9457 286.395 30.8936 285.792 31.0272C285.167 31.1656 284.707 31.411 284.413 31.7633C284.119 32.1157 283.934 32.4631 283.858 32.8057L282.517 32.6372C282.625 32.0703 282.831 31.6017 283.137 31.2313C283.446 30.8564 283.808 30.5628 284.222 30.3507C284.64 30.134 285.063 29.9782 285.492 29.8832C285.766 29.8225 286.088 29.7862 286.457 29.7741C286.83 29.7575 287.205 29.8122 287.582 29.9382C287.963 30.0633 288.309 30.3029 288.62 30.6568C288.931 31.0108 289.162 31.5261 289.312 32.2029L290.555 37.8168L289.246 38.1068L288.99 36.953L288.924 36.9677C288.876 37.1723 288.772 37.4029 288.612 37.6596C288.451 37.9163 288.215 38.1567 287.904 38.3808C287.593 38.6049 287.19 38.7719 286.694 38.8816ZM286.633 37.6614C287.151 37.5467 287.565 37.3483 287.875 37.0663C288.189 36.7834 288.4 36.461 288.51 36.0991C288.624 35.7364 288.641 35.3775 288.563 35.0225L288.297 33.8243C288.257 33.9031 288.148 33.9912 287.972 34.0885C287.798 34.1812 287.594 34.2749 287.359 34.3697C287.127 34.4599 286.899 34.5452 286.677 34.6256C286.457 34.7015 286.279 34.7642 286.142 34.8138C285.812 34.9336 285.51 35.0762 285.236 35.2416C284.965 35.4024 284.761 35.6009 284.623 35.8371C284.488 36.0687 284.457 36.351 284.531 36.6838C284.632 37.1387 284.876 37.4453 285.265 37.6038C285.656 37.7577 286.112 37.7769 286.633 37.6614ZM293.826 35.067L296.471 27.5674L297.98 27.2331L299.868 35.7538L298.559 36.0438L297.099 29.4536L294.476 36.9483L292.945 37.2875L291.057 28.7668L292.366 28.4767L293.826 35.067ZM294.977 24.9188L296.197 24.6485C296.33 25.2476 296.231 25.7835 295.901 26.2562C295.572 26.7288 295.052 27.0438 294.342 27.2011C293.643 27.356 293.044 27.2888 292.545 26.9996C292.05 26.7097 291.737 26.2651 291.604 25.666L292.824 25.3956C292.888 25.6841 293.024 25.9198 293.231 26.1028C293.442 26.2849 293.742 26.333 294.13 26.247C294.519 26.1609 294.772 25.9904 294.89 25.7353C295.012 25.4795 295.041 25.2073 294.977 24.9188ZM306.892 29.0998L307.162 30.3203L302.458 31.3624L302.188 30.1419L306.892 29.0998ZM301.687 26.4119L303.575 34.9326L302.266 35.2226L300.378 26.7019L301.687 26.4119ZM307.079 25.2174L308.967 33.7381L307.658 34.0281L305.77 25.5074L307.079 25.2174Z" fill="#9AC355"/>
<path d="M327.354 209.646C327.549 209.842 327.549 210.158 327.354 210.354L324.172 213.536C323.976 213.731 323.66 213.731 323.464 213.536C323.269 213.34 323.269 213.024 323.464 212.828L326.293 210L323.464 207.172C323.269 206.976 323.269 206.66 323.464 206.464C323.66 206.269 323.976 206.269 324.172 206.464L327.354 209.646ZM142 116L142.447 115.775C161.14 152.962 182.168 176.363 211.031 190.488C239.916 204.624 276.708 209.5 327 209.5V210V210.5C276.67 210.5 239.688 205.626 210.591 191.387C181.473 177.137 160.311 153.538 141.553 116.225L142 116Z" fill="#9AC355"/>
</svg>
