<?xml version="1.0" encoding="UTF-8"?>
<svg id="Layer_2" xmlns="http://www.w3.org/2000/svg" viewBox="0 0 64.95 49.91">
  <defs>
    <style>
      .cls-1 {
        fill: #798d5a;
      }

      .cls-2 {
        fill: #cddcbb;
      }

      .cls-3 {
        fill: #eaeaea;
      }

      .cls-4 {
        fill: #ededed;
      }
    </style>
  </defs>
  <g id="_Слой_45" data-name="Слой_45">
    <g>
      <g>
        <path class="cls-2" d="M13.65,3.84c1.43-.7,2.65-1.24,3.55-1.63.96-.41,3.34-1.22,6.12-2.02.92-.27,1.91-.24,2.85-.02,1.61.37,2.36,1.32,2.56,3.56.11,1.2.89,6.04.92,6.41.21,2.11.4,4.22.62,6.34.12,1.17,0,1.38-1.1,1.59-.84.16-.92.76-.92,1.42-.02,2.34-.01,4.68-.01,7.01,0,1.83-.35,2.22-2.22,2.17-3.44-.09-6.7-.85-9.55-2.87-2.14-1.51-3.39-3.68-4.2-6.11-.55-1.66-.94-3.98-.99-4.81,0-.06-.25-1.87-.33-2.4-.07-.45-.08-.86-.1-1.68-.03-1.12,0-2.24.1-3.35.12-.36.24-.73.35-1.09.29-.8,2.06-2.32,2.35-2.5Z"/>
        <path class="cls-1" d="M63.49,34.44c-.9,1.92-1.98,3.72-3.33,5.37-1.66,2.02-3.52,3.8-5.71,5.23-.17.11-2.1,1.17-2.93,1.53-2.97,1.3-6.05,2.18-9.26,2.7-1.48.24-2.97.32-4.44.57-.99.17-1.64-.36-1.66-1.4-.04-2.33-.02-4.66.21-7,.27-2.64,1.86-3.89,4.11-4.73,2.74-1.02,5.64-1.61,8.27-2.95,3.66-1.86,6.71-4.43,8.86-7.91,1.24-2,2.84-7.8,3.12-8.33.32-.6.87-.25,1.16.14.44.6.83,1.25,1.15,1.92,1.3,2.74,2.15,5.61,1.82,8.66-.19,1.74-.45,3.51-1.16,5.15-.14.34-.26.67-.24,1.04Z"/>
        <path class="cls-2" d="M4.64,18.24c0,.06,0,.12,0,.18.3,1.33.45,2.67,1,3.96.69,1.63,1.36,3.24,2.44,4.67,2.09,2.76,4.59,5.03,7.72,6.55,2.37,1.15,4.85,1.98,7.39,2.69,1.17.33,2.26.91,3.39,1.38h0c1.63.95,2.13,2.56,2.22,4.25.12,2.3.04,4.61.03,6.91,0,.76-.31,1.06-1.1,1.07-2.1.02-4.15-.37-6.21-.71-1.52-.25-2.98-.71-4.47-1.08-1.13-.55-2.35-.85-3.49-1.4-4.91-2.38-8.66-5.94-11.26-10.72C.25,32.21-.4,28.17.24,23.93c.17-1.09.55-2.15.99-3.17.42-.98.91-1.91,1.45-2.83.27-.47.57-.84,1.17-.77.65.07.71.59.8,1.08Z"/>
        <path class="cls-1" d="M48.49,2.65c.21.08,1.65.66,3.27,1.67.48.3.86.56,1.21,1.01.64.83.76,1.74.79,2.27.22,3.14.1,6.28-.42,9.38-.32,1.91-1.05,3.71-2.04,5.42-2,3.45-5.16,4.96-8.88,5.76-1.19.26-2.37.29-3.55.42-1.35.15-1.99-.42-2.01-1.77-.03-2.4,0-4.8-.02-7.19,0-1.26-.2-1.48-1.4-1.77-.35-.08-.62-.23-.75-.48-.13-.25-.07-.52-.05-.61.13-.58.44-2.99,1.05-7.8.31-2.44.08-3.95.75-6.29.18-.62.53-1.58,1.39-2.14.46-.3,1.01-.46,1.67-.47,1.36-.02,2.49.19,4.46.85,1.02.35,2.18.81,4.5,1.73Z"/>
      </g>
      <path class="cls-3" d="M23.89,9.59c0,.62-.27.9-.82.89-.63,0-.93-.38-.93-.96,0-.59.4-.83.95-.82.63,0,.78.43.8.89Z"/>
      <path class="cls-4" d="M41.87,10.63c-.71,0-1.03-.38-1.03-1.06,0-.68.32-1.05,1.04-1.05.68,0,1.07.27,1.08,1,0,.75-.37,1.09-1.09,1.12Z"/>
    </g>
  </g>
</svg>