<svg width="311" height="112" viewBox="0 0 311 112" fill="none" xmlns="http://www.w3.org/2000/svg">
<path d="M310.089 2.55726C310.348 2.58514 310.587 2.71643 310.754 2.91948C310.92 3.12269 311.001 3.38102 310.978 3.64041C310.955 3.8998 310.83 4.13978 310.63 4.31033C310.43 4.48071 310.171 4.56769 309.911 4.54938C304.573 4.17399 299.004 3.91439 293.525 3.76715C196.876 3.24088 88.4985 20.2727 23.7221 92.9653C20.334 97.0169 17.1743 101.207 14.2289 105.576C13.1901 107.115 11.588 108.165 9.75876 108.485C7.93051 108.805 6.02499 108.369 4.4776 107.282C2.93018 106.196 1.87222 104.552 1.55267 102.723C1.23218 100.894 1.67627 99.0306 2.77112 97.5309C6.16489 92.8719 9.77448 88.4345 13.6077 84.1756C86.94 8.61708 196.417 -2.45307 293.642 1.16981C299.145 1.51834 304.735 1.97972 310.089 2.55726Z" fill="#F1F2F5"/>
<path d="M58.2253 89.0917C58.4703 89.0682 58.7244 89.1125 58.9391 89.2413C59.1539 89.3698 59.3109 89.5693 59.3775 89.8025C59.4441 90.0357 59.4162 90.288 59.3018 90.5106C59.1875 90.7334 58.9952 90.9052 58.7747 91.0147C57.1786 91.8044 55.5782 92.5793 53.9736 93.3393C38.9058 100.476 23.464 106.304 7.64833 110.822C3.45757 112.02 0 109.412 0 105.053C0 105.053 0 105.053 0 105.053C0 89.9716 1.33785 74.8899 4.01354 59.8083C4.32431 58.0566 4.65313 56.3049 5 54.5532C5.04804 54.313 5.16112 54.0826 5.34353 53.9127C5.52575 53.7428 5.75917 53.6473 6 53.6473C6.24083 53.6473 6.47425 53.7428 6.65647 53.9127C6.83888 54.0826 6.95196 54.313 7 54.5532C7.34687 56.3049 7.67569 58.0566 7.98646 59.8083C10.6622 74.8899 12 89.9716 12 105.053C12 105.053 12 105.053 12 105.053L4.35167 99.2841C20.1674 94.7653 36.3571 91.5554 52.9208 89.6545C54.6847 89.452 56.4529 89.2645 58.2253 89.0917Z" fill="#F1F2F5"/>
</svg>
