<svg width="311" height="112" viewBox="0 0 311 112" fill="none" xmlns="http://www.w3.org/2000/svg">
<path d="M0.91131 2.55726C0.652328 2.58514 0.413262 2.71643 0.246458 2.91948C0.0796688 3.12269 -0.00119519 3.38102 0.0219009 3.64041C0.044997 3.8998 0.170232 4.13978 0.370301 4.31033C0.570355 4.48071 0.828856 4.56769 1.08869 4.54938C6.42708 4.17399 11.9964 3.91439 17.4752 3.76715C114.124 3.24088 222.501 20.2727 287.278 92.9653C290.666 97.0169 293.826 101.207 296.771 105.576C297.81 107.115 299.412 108.165 301.241 108.485C303.069 108.805 304.975 108.369 306.522 107.282C308.07 106.196 309.128 104.552 309.447 102.723C309.768 100.894 309.324 99.0306 308.229 97.5309C304.835 92.8719 301.226 88.4345 297.392 84.1756C224.06 8.61708 114.583 -2.45307 17.3577 1.16981C11.8547 1.51834 6.26496 1.97972 0.91131 2.55726Z" fill="#F1F2F5"/>
<path d="M252.775 89.0917C252.53 89.0682 252.276 89.1125 252.061 89.2413C251.846 89.3698 251.689 89.5693 251.623 89.8025C251.556 90.0357 251.584 90.288 251.698 90.5106C251.813 90.7334 252.005 90.9052 252.225 91.0147C253.821 91.8044 255.422 92.5793 257.026 93.3393C272.094 100.476 287.536 106.304 303.352 110.822C307.542 112.02 311 109.412 311 105.053C311 105.053 311 105.053 311 105.053C311 89.9716 309.662 74.8899 306.986 59.8083C306.676 58.0566 306.347 56.3049 306 54.5532C305.952 54.313 305.839 54.0826 305.656 53.9127C305.474 53.7428 305.241 53.6473 305 53.6473C304.759 53.6473 304.526 53.7428 304.344 53.9127C304.161 54.0826 304.048 54.313 304 54.5532C303.653 56.3049 303.324 58.0566 303.014 59.8083C300.338 74.8899 299 89.9716 299 105.053C299 105.053 299 105.053 299 105.053L306.648 99.2841C290.833 94.7653 274.643 91.5554 258.079 89.6545C256.315 89.452 254.547 89.2645 252.775 89.0917Z" fill="#F1F2F5"/>
</svg>
